<svg id="Layer_1" data-name="Layer 1" xmlns="http://www.w3.org/2000/svg" viewBox="0 0 792 612">
  <defs>
    <style>
      .cls-1 {
        fill: #2b3282;
      }

      .cls-2 {
        fill: #2b3382;
      }

      .cls-3 {
        fill: #f28321;
      }

      .cls-4 {
        fill: #2d3483;
      }

      .cls-5 {
        fill: #f28523;
      }

      .cls-6 {
        fill: #f28422;
      }

      .cls-7 {
        fill: #f28423;
      }

      .cls-8 {
        fill: #f28928;
      }

      .cls-9 {
        fill: #8782b1;
      }

      .cls-10 {
        fill: #fff;
      }

      .cls-11 {
        fill: #fffdfb;
      }

      .cls-12 {
        fill: #fefaf5;
      }
    </style>
  </defs>
  <path class="cls-1" d="M130.7,344.65a109.16,109.16,0,0,1,48.8-5.2l-35.7-54.77c-10.56,16.19-21.43,31.49-30.8,47.66-6.62,11.44-15,19.08-27.87,22.8C75.31,358,66,362.48,56.44,366.23a18.75,18.75,0,0,1-2,0l89.39-136.37,88.63,136.65c-32.46-13.91-65-22.64-99.66-20.8C131.74,346,130.54,346.65,130.7,344.65Z"/>
  <path class="cls-2" d="M452,256.26c0,20.2-.12,38.76.09,57.31,0,3.88-1,5-4.9,5s-5-1.06-4.94-5c.19-22.38.05-44.76.16-67.13,0-2-1.46-5.47,1.34-5.79,3.58-.42,7.72-2,10.91,2.27,8.9,12,18.15,23.74,27.27,35.57l17.62,22.84c1.37-1.56.81-3.15.81-4.57.05-17.34.21-34.69-.09-52-.08-4.54,2.1-4.36,5.33-4.5,3.59-.16,4.76.84,4.73,4.58-.17,22.2,0,44.41-.16,66.61,0,2.3,1.65,6.1-1.64,6.69-3.77.69-8,1.57-11.22-2.94-6-8.51-12.62-16.59-19-24.84C469.82,279.37,461.35,268.42,452,256.26Z"/>
  <path class="cls-1" d="M707.76,319.12c-5.63-.32-11-.54-16.27-2.09-14.54-4.31-22-14.91-23.51-33.22a60,60,0,0,1,1.19-17.08c3.29-15.58,13.57-24.57,29.54-26.45a71.82,71.82,0,0,1,18.76.21c14.92,2.15,24.9,11.73,27.65,26.53a67,67,0,0,1,.16,23.79c-2.71,15.69-12.59,25.42-28.37,27.57C713.81,318.8,710.66,318.89,707.76,319.12Z"/>
  <path class="cls-1" d="M296.37,251c-6.18,14.87-12,28.76-17.72,42.65-2.32,5.59-4.61,11.21-6.93,16.8-3.57,8.59-3.58,8.59-13.16,7.76-.67-1.53.42-2.69.93-3.9,9.89-23.27,20-46.46,29.63-69.82,1.66-4,4-4.31,7.55-4.25s6,.08,7.67,4.17c9.61,23.2,19.62,46.24,29.49,69.33.6,1.4,1.14,2.83,1.92,4.76-2.69,0-4.91-.18-7.1,0-2.71.27-4-.83-5-3.32-2.4-6.12-5.23-12.08-7.61-18.21-1-2.54-2.42-3.33-5.06-3.26q-9.68.25-19.36,0c-1.43,0-4.59,1.56-4.08-1.65.38-2.47.26-6.39,4.5-6.5,5.06-.13,10.12-.14,15.17,0,2.71.08,3.37-.66,2.28-3.22C305.22,272.31,301.06,262.23,296.37,251Z"/>
  <path class="cls-1" d="M552.91,319.11c-7.76-.45-14.56-.73-21.19-2.42-1.75-.45-4.48-.27-3.09-3.24,1.06-2.24.37-6.67,5.24-5.21,5.56,1.66,11.3,2,17,2.49a39.25,39.25,0,0,0,12.47-.94c8-1.89,11.74-7.21,11.14-15.2-.5-6.71-4.5-10.32-12.85-10.93-6.07-.45-12.21-.11-18.29-.52-11-.74-18-6.83-19.18-16.38-1.6-13,3-21.3,14.53-24.76,13.06-3.93,26.2-2.53,39.29.26,2.23.47,2.72,1.48,1.63,3.09-1.37,2-.33,6.4-5.4,5.06-9-2.39-18.15-3.35-27.43-1.66-9.47,1.73-14.18,8-12.44,16.45,1.29,6.21,5.37,9.18,13,9.52,7,.3,13.94-.66,20.86.83,10.33,2.21,15.6,7.89,16.53,18,1,11-3.75,19.17-13.31,22.88C565.19,318.86,558.55,318.94,552.91,319.11Z"/>
  <path class="cls-1" d="M636.5,319.16c-3.31-.31-7.35-.42-11.28-1.12-23.24-4.13-31-21.52-29.23-44.35,1.66-21.49,12.3-31.31,34-33.59a74.09,74.09,0,0,1,22.34,1.24c1.55.31,4.23.11,2.76,2.83-1.08,2-.29,6.22-4.82,5.19a52.77,52.77,0,0,0-22.82-.35C614.2,251.78,607,260.59,606,274.85a51.69,51.69,0,0,0,1.07,14.47c3.17,14.5,15.16,22.47,32.45,21.4a74.64,74.64,0,0,0,13.41-2c5.1-1.28,4.18,3.19,5.29,5.24,1.45,2.7-1.64,2.33-3,2.75C649.39,318.6,643.27,318.76,636.5,319.16Z"/>
  <path class="cls-3" d="M231.51,377.88c-59.32-22.32-118.53-22-177.74.32C110.74,342.88,178.1,344.25,231.51,377.88Z"/>
  <path class="cls-1" d="M345.33,279.2c0-11.27.28-22.56-.13-33.81-.17-4.78,1.79-5,5.7-5.24,4.63-.24,4.88,1.82,4.85,5.44-.13,19.94.05,39.88-.16,59.83,0,3.85.88,5,4.85,4.87,11.85-.28,23.72,0,35.57-.19,3.53-.06,3.9,1.37,3.92,4.27s-.49,4.26-3.95,4.21q-23.26-.29-46.55,0c-3.73.05-4.2-1.41-4.16-4.53C345.42,302.44,345.33,290.82,345.33,279.2Z"/>
  <path class="cls-4" d="M412.68,278.87c0-11.42.24-22.86-.12-34.27-.16-4.73,2.39-4.26,5.46-4.34s5.06,0,5,4.19q-.33,34.79,0,69.59c0,3.91-1.44,4.66-4.85,4.41-2.95-.22-5.75.56-5.61-4.26C412.9,302.42,412.68,290.65,412.68,278.87Z"/>
  <path class="cls-5" d="M608,352.62c0,5.12.07,10.24,0,15.36,0,1.49,1,3.69-2,3.88s-2.89-1.71-2.88-3.72c0-6.94,0-13.88,0-20.82,0-1.38-.81-3.35,1.55-3.8a4.25,4.25,0,0,1,4.84,2.13,137.07,137.07,0,0,0,12.35,16.86c0-5,0-10,0-15,0-1.75-.71-4,2.48-4.05s2.42,2.29,2.43,4c.07,6.77.1,13.54,0,20.3,0,1.47,1.08,3.68-1.74,4.11-2.16.34-3.56-.51-4.74-2.35-3.7-5.76-7.56-11.44-11.35-17.14Z"/>
  <path class="cls-5" d="M320.15,362.58c0-5.32,0-10.62,0-15.91,0-1.53-.32-3.17,2.19-3.25s2.82,1.22,2.81,3.24c-.06,6.93,0,13.87-.07,20.81,0,1.53,1,3.69-1.6,4.31-2.39.59-3.89-.59-5.15-2.55-3.18-5-6.49-9.86-9.76-14.77-.44-.65-.95-1.25-2.23-2.93,0,6.25.05,11.21,0,16.16,0,1.73.78,4.06-2.36,4.18s-2.59-2.13-2.59-3.94c0-6.94-.06-13.88,0-20.82,0-1.36-.81-3.33,1.71-3.62,1.83-.2,3.31.08,4.45,1.87,3.36,5.26,6.88,10.43,10.37,15.62C318.34,361.64,318.57,362.59,320.15,362.58Z"/>
  <path class="cls-5" d="M502.55,371.37c-4,1.76-5.58-.7-7.39-3.55-1.67-2.6-2.11-7.7-5.87-6.9-3.55.75-1,5.29-1.63,8.09-.28,1.33.09,2.8-2,2.86s-2.85-.76-2.84-2.73c0-7.63,0-15.27,0-22.9,0-1.22-.05-2.72,1.68-2.68,4.5.1,9.13-.94,13.46.94,5.66,2.47,7.11,10.13,2.1,13.61-3.73,2.58-2.42,4.33-.82,6.93C500.45,367.07,502.11,368.92,502.55,371.37Z"/>
  <path class="cls-6" d="M565.36,370c.28,1,0,1.73-1.14,1.79-1.35.08-3.1.51-3.58-1.23-2-7.32-7.87-3.42-12.08-4.15-2-.34-2.22,1.85-2.68,3.25a3,3,0,0,1-4.08,2.09c-2.71-.84-.66-2.67-.3-3.73,2.44-7.18,5.17-14.27,7.66-21.44.69-2,1.46-3.21,3.91-3.21s3.18,1.28,3.87,3.27C559.66,354.46,562.54,362.23,565.36,370Z"/>
  <path class="cls-6" d="M443.85,355c0,2.26.06,4.52,0,6.77-.23,6.6-4.41,10.62-11,10.61s-11-4-11.19-10.47c-.17-5,0-10.06-.06-15.09,0-1.81-.14-3.48,2.59-3.34,2.37.12,2.28,1.61,2.29,3.21,0,4.86.06,9.71,0,14.57,0,4.15,1.86,6.77,6.1,6.86,4.43.08,6.69-2.48,6.72-6.87,0-4.86,0-9.72,0-14.58,0-1.54-.24-3.17,2.24-3.16s2.26,1.6,2.27,3.17C443.87,349.42,443.85,352.2,443.85,355Z"/>
  <path class="cls-6" d="M691.69,351.45c-2.89.65-4.84.29-6.92-1.73-3.69-3.58-9.79-3-13.12.69-3.53,3.93-3.4,11,.27,14.8a8.89,8.89,0,0,0,13.06.25,5.8,5.8,0,0,1,6.49-1.49c-2.59,6.24-8.34,9.22-15.16,8-7.26-1.33-11.75-6.46-11.94-13.64s3.78-12.85,10.19-14.59C681.86,341.73,688.2,344.49,691.69,351.45Z"/>
  <path class="cls-7" d="M373.71,343.28a8.62,8.62,0,0,1,7.46,3.2c.85,1.11,2.46,2.75,1,3.94a3.42,3.42,0,0,1-4.69-.54c-.8-.92-1.48-2-2.76-2.23-2.47-.46-5.11-.81-6.2,2.15-1,2.77.93,4.14,3.22,5,2.11.78,4.31,1.33,6.42,2.1,3.27,1.2,5.06,3.47,5,7.08a7.58,7.58,0,0,1-5.37,7.5c-4.57,1.63-8.95,1.11-12.56-2.39-1.17-1.14-2.71-3.05-1.29-4.38a3.09,3.09,0,0,1,4.87.95,4.83,4.83,0,0,0,3.71,2.56c2.66.32,5-.41,5.76-3.23.69-2.53-1.12-3.81-3.18-4.61-1.45-.56-3-.88-4.48-1.35-5.78-1.82-8-4.66-7.12-9.13S367.7,343.24,373.71,343.28Z"/>
  <path class="cls-3" d="M738.54,343.46h5.24c1.28,0,2.43.07,2.43,1.85,0,1.61-.8,2.14-2.26,2.13s-2.79.08-4.18,0c-2.92-.19-4.95,0-4.83,4,.1,3.51,1.32,4.73,4.63,4.27a1.13,1.13,0,0,1,.52,0c1.67.64,4.95-1.52,4.81,2-.12,2.76-3,1.57-4.67,1.58-3,0-5.39-.07-5.29,4.22.09,3.55,1,4.85,4.75,4.84,2.09,0,6.24-2.07,6.19,1.87,0,3-4,1.51-6.08,1.56-9.34.19-9.34.09-9.34-9.11,0-4.51.28-9.05-.08-13.53s.65-6.69,5.55-5.73A14.19,14.19,0,0,0,738.54,343.46Z"/>
  <path class="cls-8" d="M257.58,357.52c0-3.79.05-7.59,0-11.39,0-2,.84-2.68,2.81-2.69s2.17,1.17,2.17,2.68q0,11.64,0,23.29c0,1.69-.59,2.52-2.4,2.49s-2.56-.75-2.55-2.47C257.59,365.46,257.58,361.49,257.58,357.52Z"/>
  <path class="cls-9" d="M130.7,344.65l2.06,1.06c-1.3,1.08-2.83.79-4.61.94A2.58,2.58,0,0,1,130.7,344.65Z"/>
  <path class="cls-10" d="M678.72,278.93c.22-2.82.22-6,.75-9,2.58-14.75,12.76-22.43,28.87-22,15.61.46,24.44,8.31,26.55,23.25a51.77,51.77,0,0,1-1.2,21.64c-3,10.5-9.94,16.21-20.91,17.53a43.13,43.13,0,0,1-9.9.12c-14-1.57-22.06-9.52-23.62-23.45C679,284.44,678.91,281.83,678.72,278.93Z"/>
  <path class="cls-11" d="M491.1,347.53c3.67-.15,6.91.26,6.85,4.57-.05,4.12-3.2,4.57-6.56,4.88-3.58.33-4.05-1.45-3.79-4.27C487.83,350.17,486.51,346.62,491.1,347.53Z"/>
  <path class="cls-12" d="M548.65,361.86c1.35-3.9,2.68-7.72,4.29-12.35.9,2.33,1.52,3.83,2.07,5.36C557.86,362.91,557.85,362.91,548.65,361.86Z"/>
</svg>
