<svg id="Layer_1" data-name="Layer 1" xmlns="http://www.w3.org/2000/svg" viewBox="0 0 792 612">
  <defs>
    <style>
      .cls-1 {
        fill: #153555;
      }

      .cls-2 {
        fill: #fff;
      }

      .cls-3 {
        fill: #153556;
      }

      .cls-4 {
        fill: #193959;
      }

      .cls-5 {
        fill: #425771;
      }

      .cls-6 {
        fill: #6d7a8c;
      }

      .cls-7 {
        fill: #949ba8;
      }

      .cls-8 {
        fill: #6e7b8d;
      }

      .cls-9 {
        fill: #aab0b9;
      }

      .cls-10 {
        fill: #3e546e;
      }

      .cls-11 {
        fill: #324a67;
      }

      .cls-12 {
        fill: #4e6078;
      }

      .cls-13 {
        fill: #758192;
      }

      .cls-14 {
        fill: #798595;
      }

      .cls-15 {
        fill: #c5c8ce;
      }

      .cls-16 {
        fill: #b7bbc2;
      }

      .cls-17 {
        fill: #f7f8f8;
      }

      .cls-18 {
        fill: #f4f4f5;
      }

      .cls-19 {
        fill: #3a516c;
      }

      .cls-20 {
        fill: #1d3b5b;
      }

      .cls-21 {
        fill: #d6d8db;
      }
    </style>
  </defs>
  <path class="cls-1" d="M350,324l70.31.12c5.22,0,5.21,0,5.22,5.19,0,11.25.14,22.49,0,33.74,0,5,2.32,8.16,8,9.43,6.13,1.38,10.94.09,13.26-3.54a17.74,17.74,0,0,1,1.61-2.41c.1-11.29,0-22.58.09-33.87a7.65,7.65,0,0,0-1.72-4.66c-2.41-4.41-7.05-5.29-11.18-6.63-17.63-5.71-35.38-11.05-53-16.78-8-2.6-15.88-5.69-22.66-11-3.58-2.79-6.54-5.94-7.91-10.36-.66-.57-.66-1.55-1.32-2.12a22.81,22.81,0,0,1-.92-6.77c-.15-12.68-.23-25.36.25-38,.8-2-.24-4.23.63-6.25h0c.95-.7.49-2.06,1.31-2.82,2.42-9.85,9.86-14.71,18.5-18.09a70.55,70.55,0,0,1,25.3-4.57c25.87-.16,51.75-.87,77.6.13,12,.47,24.13,1.48,35.31,6.73,10.37,4.88,18.41,12.79,17.8,26-.54,11.58-.11,23.21,0,34.82,0,2.56-.73,3.32-3.33,3.31q-35.38-.15-70.77,0c-2.43,0-3.12-.7-3.08-3.1.12-7.69,0-15.39,0-23.09,0-4.39-.68-8.6-5.5-10.41-6.74-2.52-11.07-1.61-15.25,3-.6.66-1.23,1.3-1.85,2-2.14,5.54-2.29,11.33-2.13,17.15.08,1-.25,2.1.78,2.83.54,6.93,4.5,10.63,11,12.77,22.85,7.55,46,14.27,68.57,22.58,5.78,2.13,11.44,4.52,15.45,9.75a16.67,16.67,0,0,1,3.08,5.93c.64.59.63,1.58,1.33,2.14a.68.68,0,0,1,.09.59c.82,2.74-.38,5.64.65,8.37.32,14.26.27,28.52,0,42.78-.9,3.49-.18,7-.41,10.57-.09,1.36.24,2.75-.25,4.09l-.12,1.86c-.68.54-.59,1.65-1.49,2-2.65,6.59-8.31,10.09-14.18,13.08-8.62,4.41-18,6.11-27.64,6.17-24.38.14-48.77,0-73.16.2-4.66,0-6.06-3.42-8-6.32-6.05-9.15-12.21-18.22-18.28-27.36-3.27-4.91-6.6-9.79-9.77-14.77-4.11-6.46-8.7-12.61-13-19-2.41-3.58-4.58-7.33-6.87-11-.73-1.16-1.25-3.13-3.05-1C347.8,326.29,347.91,325.68,350,324Z"/>
  <path class="cls-1" d="M350,324c-.13,1.15-2.1,2-.6,3.41.56,9.28.05,18.56.13,27.85.06,7.11,0,14.22,0,21.33,0,12.89,6.39,21.17,18.15,25.63l4.48,1.69c1.71.87,3.74.73,5.53,1.58-.73,1.66-2.14,1.23-3.28,1.23q-25,.06-50,0c-2.07,0-4.19,0-5.58-2-6.49-9.85-13.42-19.41-19.31-29.65-2.21-2.1-3.35-5-5.35-7.24-3.84-3.73-6.23-8.52-9.17-12.88-5.82-8.64-11.34-17.48-17.32-26.32-3.27,4.19-5.91,8.6-8.75,12.87-7.42,11.18-14.51,22.58-22.37,33.47-3.06,4.24-5.84,8.73-8.65,13.17a39.05,39.05,0,0,1-4.37,6.14c-3,2.68-4.44,6.51-6.72,9.71-1.92,2.7-4.1,2.9-6.79,2.9q-31.25-.06-62.51-.08c-4.83,0-9.67.06-14.5.08-2.21,0-3.44-.33-1.6-2.82,6-8.18,11.43-16.8,17.31-25.1,3-4.22,6-8.53,8.76-12.92,4.75-7.42,9.8-14.64,14.88-21.84,4.3-6.11,8.3-12.43,12.5-18.61,4.76-7,9.7-13.9,14.37-21,3.8-5.76,7.74-11.43,11.61-17.15,4.88-7.22,9.7-14.47,14.77-21.57,4.34-6.09,8.36-12.42,12.51-18.64,4.71-7.05,9.62-14,14.31-21,3.14-4.7,6.54-9.25,9.51-14.09,1.95-3.18,3.75-6.66,7-9.11,4.63,6.2,8.5,12.72,12.83,18.92,5.84,8.33,11,17.09,17,25.3,4.68,6.38,8.66,13.26,13.07,19.84,5.71,8.54,11.75,16.87,17.25,25.55,3,4.79,6.29,9.42,9.34,14.21C342.2,312.69,346.18,318.3,350,324Z"/>
  <path class="cls-1" d="M541.17,205.77q5.75,8.34,11.47,16.7c7.35,10.71,14.43,21.61,21.81,32.3,3.41,4.93,6.74,10,10,15,5.39,8.45,11.52,16.44,17,24.86,2.83,4.38,5.83,8.64,8.71,13,1.12,1.69,2.18,3.41,3.36,5.06a16,16,0,0,1,3.27,9.77c-.22,26.79-.16,53.59-.05,80.39,0,3.17-1.06,4.22-4.15,4.21q-34.54-.12-69.09,0c-3.21,0-3.17-1.55-3.17-3.83q0-59.34,0-118.68V206.06Z"/>
  <path class="cls-2" d="M223.57,394.32c2.88-4.59,5.73-9.21,8.67-13.76,2-3.13,4.19-6.15,6.27-9.24,4.7-7,9.63-13.88,14-21.09,2.94-4.87,6.41-9.37,9.2-14.32,1.4-2.47,3-4.83,4.59-7.2.87-1.32,1.78-1.19,2.62.11,4.18,6.48,8.18,13.08,12.62,19.38s8,13.37,13.24,19.22c1.05,1.44,1,2.53-1,2.88a21.78,21.78,0,0,1-3.79.15q-22.23,0-44.46,0c-1.82,0-3.53,0-3.69,2.41-3.84-1.33-4.9,2.22-5.89,4.17-2.68,5.35-7.12,9.54-9.46,15C225.9,393.38,224.69,393.77,223.57,394.32Z"/>
  <path class="cls-3" d="M291.34,377.77c-3.21,2.38-4.24,6.29-6.52,9.34-5.06,6.76-8.91,14.36-14,21.13-1.28,1.7-1.65,1.45-2.86-.05-3.91-4.84-7.32-10-10.95-15.07-4.47-6.22-9.12-12.3-13.69-18.44a5.71,5.71,0,0,1-.45-.93,10,10,0,0,0-.78-1.53c-.94-1.68-.63-2.41,1.47-2.4,16.53,0,33.06,0,49.59,0a2.09,2.09,0,0,1,1.87.6C295.74,373.87,292.46,375.28,291.34,377.77Z"/>
  <path class="cls-3" d="M615.35,206.58c-4.71,8-9.88,15.63-15.08,23.28-3.17,4.66-6.08,9.5-9.14,14.3-3.43-1.89-4.74-5.24-6.72-7.89-7.2-9.59-14-19.46-21-29.21a7,7,0,0,0-1.25-1.1c-.67-2.39,1.24-1.69,2.24-1.7,6.07-.07,12.14,0,18.22,0,10.08,0,20.16,0,30.25,0C614.23,204.26,616.64,203.55,615.35,206.58Z"/>
  <path class="cls-4" d="M646.27,206c6.08.11,10.79,1.61,13.41,6,3.66,6.12,2,14.14-8.31,16.81a16.78,16.78,0,0,1-16.27-4c-3.33-3-3.31-11.18,0-14.2S642.6,205.81,646.27,206Z"/>
  <path class="cls-5" d="M294.84,371.66c-.19-1.16-1-1.38-2-1.38-16.88,0-33.75,0-50.79,0,.31,1.31.57,2.39.82,3.46l-1.05-.9c.14-1.25-2.23-1.43-1.39-2.73.67-1,2.12-.47,3.21-.47q24.45,0,48.89,0c1.58,0,3.16.19,2.24-2.23,1.92,2.36,3.94,4.66,4.78,7.69-1.22-.3-2.39-.66-2.62-2.16A2.6,2.6,0,0,0,294.84,371.66Z"/>
  <path class="cls-6" d="M318.86,404.76c1.12.48,2,1.4,3.41,1.39,18.23,0,36.47,0,55.14,0-1.81-1.32-4-.64-5.2-2.21l8.24,1.53c.81.54,2,0,2.75.71-.29,1.2-1.1.92-1.69.92q-29.28,0-58.55,0a3.24,3.24,0,0,1-1.34-.26C320.17,406.84,319.06,406.4,318.86,404.76Z"/>
  <path class="cls-7" d="M321.62,406.83h61.54l-2.71-1.39a14.55,14.55,0,0,1,7,1.12c0,1.06-.75.78-1.22.78q-31,0-61.95,0A3.75,3.75,0,0,1,321.62,406.83Z"/>
  <path class="cls-8" d="M615.35,206.58c.16-1.51-.56-1.94-2-1.94q-24.6.06-49.19,0c-1,0-1.86.06-2,1.3-1-.78-1-1.54.23-2a6.69,6.69,0,0,1,2.06-.09q24.66,0,49.31,0c1.07,0,2.51-.49,3,.9C617.18,205.84,616.52,206.55,615.35,206.58Z"/>
  <path class="cls-9" d="M446.85,328c1.92.22,2,1.85,2,3.09.06,11.75,0,23.51,0,35.26a3.63,3.63,0,0,1-.54,1.22.71.71,0,0,1-.23-1c.05-11.39.05-22.77.22-34.15C448.28,330.67,446.38,329.76,446.85,328Z"/>
  <path class="cls-10" d="M424,261.83c-.12-5.28-.39-10.58,1.43-15.68.3-.84.45-1.78,1.37-2.25-1.51,5.89-1.35,11.92-1.4,17.93A1,1,0,0,1,424,261.83Z"/>
  <path class="cls-11" d="M525,383.45c.2-4.89-.94-9.83.66-14.66C525.66,373.69,526.35,378.62,525,383.45Z"/>
  <path class="cls-2" d="M294.84,371.66c1.78-1.32,2-.08,2.09,1.29-1.47-.82-1.5.71-2.2,1.25-1.33,1-1.44,3.19-3.39,3.57C291.89,375.38,293.54,373.62,294.84,371.66Z"/>
  <path class="cls-12" d="M525.59,326c-1.35-2.71-.61-5.57-.65-8.37C526.08,320.35,525.93,323.17,525.59,326Z"/>
  <path class="cls-13" d="M350.74,230.08c.07,2.11.3,4.24-.63,6.25C349.94,234.21,349.56,232.07,350.74,230.08Z"/>
  <path class="cls-13" d="M352.05,227.26c0,1.14.59,2.57-1.31,2.82C350.71,228.93,350.21,227.55,352.05,227.26Z"/>
  <path class="cls-11" d="M424,261.83h1.4c0,.69,0,1.37.05,2.05C424,263.89,424,262.89,424,261.83Z"/>
  <path class="cls-14" d="M350.78,281.13c1.52,0,1.4,1.09,1.32,2.12C350.61,283.2,350.62,282.21,350.78,281.13Z"/>
  <path class="cls-12" d="M524.85,317.05c-1.44-.1-1.52-1-1.33-2.14A1.54,1.54,0,0,1,524.85,317.05Z"/>
  <path class="cls-15" d="M448,366.59c.08.33.16.65.23,1,0,.88-.41,1.43-1.39,1.37C446.66,367.86,446.76,366.93,448,366.59Z"/>
  <path class="cls-16" d="M523.34,387.33c.06-1,.22-1.92,1.49-2C525,386.49,524.83,387.39,523.34,387.33Z"/>
  <path class="cls-17" d="M657.55,219.74c-1.13.89-.58,2.78-2.07,3.46-2.35-.37-3.56-2.78-2.9-6.11.31-1.57,1-3.09-.82-4.2l-.94-.47c-.55-.15-1.08-.41-1.64-.52-6.2-1.17-7.28-.29-7.3,5.94a28.19,28.19,0,0,1-.12,4.11c-.12.79-.25,1.74-1.17,1.9s-1.65-.43-2.18-1.31c-1.94-3.24-1.54-6.52-.28-9.83,5.1-6.74,15.57-5.18,19.39,2.89A3.56,3.56,0,0,1,657.55,219.74Z"/>
  <path class="cls-18" d="M651.9,212.26c2.55.58,2.34,2.28,1.74,4.18-.84,2.64-.64,5,1.84,6.76-4.94,3.92-9.87,4.59-14.39,1.94-4.83-2.82-5.93-7.45-3-12.43-.24,3-1.58,6.07.35,9,.5.76.88,1.87,2,1.51.95-.32.43-1.4.45-2.13.07-2.41.08-4.83,0-7.23,0-1.44.35-2.71,1.84-2.84,3.12-.28,6.38-1.13,9.16,1.25-1.63,1.21-3.33.1-5,.12-3.39,0-4.34.86-4.39,4.17a27.51,27.51,0,0,0,.13,4.8.9.9,0,0,0,.59.77c2.89-4.49,2.89-4.49,9,.35C650.69,218.65,651.59,215.46,651.9,212.26Z"/>
  <path class="cls-19" d="M657.55,219.74l0-4.14C660,217,659.22,218.35,657.55,219.74Z"/>
  <path class="cls-20" d="M651.9,212.26c1.05,1.49,1.7,3.07.33,4.68s.88,2.59.69,4c-.12.87,1.23,2.09-.43,2.54-1.21.33-2.54.25-3-1.39a10.92,10.92,0,0,0-.88-2.22c-.54-.93-1.56-.87-2.46-.84-1.14,0-1.12,1-1.11,1.76,0,1.57.09,3.16-2.2,2.87s-1.25-2-1.45-3.24a7.82,7.82,0,0,1,0-1.37c0-7.94.69-8.49,8.88-7,.56.1,1.13.17,1.69.26Z"/>
  <path class="cls-21" d="M649.25,215.22c-.12,1.31-1,1.72-2.12,1.82s-2.14.18-2.22-1.35c-.06-1.18.21-2.07,1.63-2C647.74,213.67,648.84,213.86,649.25,215.22Z"/>
</svg>
