<svg id="Layer_1" data-name="Layer 1" xmlns="http://www.w3.org/2000/svg" viewBox="0 0 792 612">
  <defs>
    <style>
      .cls-1 {
        fill: #14226b;
      }

      .cls-2 {
        fill: #14236b;
      }

      .cls-3 {
        fill: #120f5b;
      }

      .cls-4 {
        fill: #161a63;
      }

      .cls-5 {
        fill: #151862;
      }

      .cls-6 {
        fill: #171c65;
      }

      .cls-7 {
        fill: #14125f;
      }

      .cls-8 {
        fill: #151661;
      }

      .cls-9 {
        fill: #141461;
      }

      .cls-10 {
        fill: #171b64;
      }

      .cls-11 {
        fill: #141360;
      }

      .cls-12 {
        fill: #151461;
      }

      .cls-13 {
        fill: #191e67;
      }

      .cls-14 {
        fill: #151a63;
      }

      .cls-15 {
        fill: #151561;
      }

      .cls-16 {
        fill: #151963;
      }

      .cls-17 {
        fill: #181964;
      }

      .cls-18 {
        fill: #1b1e67;
      }

      .cls-19 {
        fill: #151a64;
      }

      .cls-20 {
        fill: #191d66;
      }

      .cls-21 {
        fill: #151662;
      }

      .cls-22 {
        fill: #120f5c;
      }

      .cls-23 {
        fill: #171f67;
      }

      .cls-24 {
        fill: #151762;
      }

      .cls-25 {
        fill: #151c65;
      }

      .cls-26 {
        fill: #14125e;
      }

      .cls-27 {
        fill: #151b64;
      }

      .cls-28 {
        fill: #2f3878;
      }

      .cls-29 {
        fill: #14145f;
      }

      .cls-30 {
        fill: #151863;
      }

      .cls-31 {
        fill: #141560;
      }

      .cls-32 {
        fill: #fdfdfd;
      }

      .cls-33 {
        fill: #fcfcfc;
      }

      .cls-34 {
        fill: #171863;
      }

      .cls-35 {
        fill: #13115e;
      }

      .cls-36 {
        fill: #fff;
      }

      .cls-37 {
        fill: #1a1b64;
      }

      .cls-38 {
        fill: #171c66;
      }

      .cls-39 {
        fill: #feffff;
      }

      .cls-40 {
        fill: #191c65;
      }

      .cls-41 {
        fill: #14135f;
      }
    </style>
  </defs>
  <path class="cls-1" d="M118.55,359.05q5.07-22,10.16-44c.1-.42.7-.73,1.06-1.1A174.2,174.2,0,0,0,159,314c3.41,5.89,3.93,12.66,5.64,19,4.49,16.86,8.65,33.81,14,50.82q8.36-33.29,16.7-66.58a5.17,5.17,0,0,1,5-2.83c6.7.14,13.41.17,20.11,0,3-.08,4,1.31,3.95,4-8,30.43-16,60.88-24.16,91.28-2.65,9.88-4.5,20-8.46,29.53-10.52-.13-21-.11-31.55,0-4.86-13.59-7.4-27.81-11.24-41.67-2.27-8.21-4.26-16.51-7.47-24.77-3.55,14.82-6.9,29.7-10.74,44.46-1.61,6.23-1.68,13-5.41,18.59-1,1.16-1.09,3.3-3.34,3.24-10.25-.26-20.53,1-30.73-.81C85.65,417.63,80,397.06,74.41,376.46c-5.07-18.81-10-37.67-15.08-56.48-.35-1.32-.08-3.1-1.82-3.83V313.9l1.15,0c11.64,1.12,23.29.79,34.93.19,4.28,11.12,6,22.92,9.06,34.38,3.11,11.83,5.88,23.75,9.16,37.08,2-7.73,3.7-13.91,5.34-20.09a1.48,1.48,0,0,1,.64,1.42.26.26,0,0,0,.08-.21C117.76,364.08,119.53,361.69,118.55,359.05Z"/>
  <path class="cls-1" d="M162.62,253.73c5.13,20.87-8.66,39.4-31.3,42-2.4.27-4.84.11-7.27.14-1.75-1-3.66-.53-5.49-.53-18.52,0-37,0-55.55-.05-1.83,0-3.75.48-5.5-.52V169.5c20.87,0,41.73,0,62.59,0a62.53,62.53,0,0,1,15.07,1.75c13.88,3.39,23.35,14,24.93,27.9s-3.94,23.56-17.74,30.62c-.5.25-1,.55-1.7,1,10.71,4.17,19.64,9.22,21.68,21.19a2.13,2.13,0,0,0-.46,1.53c0,.37-.19.77.11,1.12A1,1,0,0,1,162.62,253.73Z"/>
  <path class="cls-2" d="M679.15,175.29c7.71,1.59,13.7,5.21,15.79,13.41-.32,4,.88,8.19-1,12.08-2.6,2.52-11.51,3.78-14.48,2a5,5,0,0,1-2.22-6.34,26.19,26.19,0,0,0,.95-6.61c1.07-.42,1.32.32,1.56,1.1-.16-1-.24-2.13-1.71-2.07l-1.93-3.64c0-1.68-.72-2.54-2.46-2.39a20.79,20.79,0,0,0-8-2.11c-1-.81-2.14-.44-3.23-.5-.35,0-.78-.16-1,.27a.94.94,0,0,1,1.31.48c-11.24,2.87-15.33,11.76-18.25,21.64-.64-.46-1-.94-.12-1.53-.78.14-.65.76-.63,1.26,0,1.08-.26,2.21.42,3.21.25,5.18-.61,10.47,2.06,15.39,3.52,6.47,8,7.37,13.35,2.49,3.16-2.88,7.1-3.26,11.06-3.17,12.54.29,25.08.8,37.62,1a35.62,35.62,0,0,0,8.88-1.13c7.62-1.85,9.25-6,5.21-12.83-.66-1.12-1.44-2.17-2.11-3.17,3.16-3.94,5.73-2.92,8.62.39,2.64,3,3.5,6.91,5.72,10.09v9C728.15,237,720.94,241,704.61,240.06c-2.06-.11-4.07-.67-4.94,2-.64-.5-.91-1-.11-1.61-.73.19-.64.81-.62,1.33.06,1.1-.27,2.26.44,3.27-5,37.68-38.06,63.3-78.8,48.9-3-1.05-5.92-2.34-8.12-4.78a11.69,11.69,0,0,0-5.53-5.55,23.15,23.15,0,0,1-5.51-14.85c.8-5.22.64-10.51,1.16-15.75,5.08-17.6,19.13-22.69,35.73-25.22-4.16-2.27-8.25-3.81-11.18-7.05a4.83,4.83,0,0,0-3.25-3.74c-7.13-9-4.86-29,10.7-37.35,9.57-5.17,19.93-6.52,30.54-6.18,4,.13,8.27-.35,12.14,1.54a1.27,1.27,0,0,1-1.12.64A4.54,4.54,0,0,0,679.15,175.29Z"/>
  <path class="cls-3" d="M57.51,294.72q30.36,0,60.71,0c2,0,4.17-.78,5.83,1.06l-66.54,0Z"/>
  <path class="cls-1" d="M506.93,440.42c-27.64,7.06-56.68-10.17-61.19-36.32a2.09,2.09,0,0,0,.47-1.53c0-.37.2-.78-.11-1.12a1,1,0,0,1-.64.83c-3-16.21.56-30.28,12.19-42.52,9.19-9.66,20-14.83,33.17-15.39a30,30,0,0,0,12.33.06c22.76.56,44.07,21.12,44,42.85a19,19,0,0,0,0,10.07c-.24,20.63-17,39.25-38.43,42.78a2.16,2.16,0,0,0-1.52-.44c-.39,0-.8-.2-1.15.1A1,1,0,0,1,506.93,440.42Z"/>
  <path class="cls-1" d="M215.45,202.29c2.11,1.32,1,3.39,1,5.06.1,17.09-.07,34.18.15,51.26,0,4.69-2,10.82,5.11,12.63,6,1.52,9.87-1.57,12.79-9.6,1.61-1.54.7-3.48.71-5.2.08-16.22,0-32.43.07-48.65,0-1.82-.48-3.73.51-5.48h33.89c.91,1.57.5,3.3.5,5,0,27.38-.09,54.77.12,82.16,0,4.63-1.18,6.16-5.9,5.93-8.05-.38-16.13-.1-24.19-.11-2.8-.74-1.91-3.11-2.12-4.95-.27-2.3.56-4.78-1.11-6.85-3.85,1.18-4.74,5.33-7.73,7.64a27.47,27.47,0,0,1-13.43,6c-1.9.89-4.08-.18-6,.82-18.72,1.62-30.83-9.44-30.66-28.35.2-21.72.19-43.44.27-65.17.84-1.61,2.33-1.65,3.87-1.65,9.19,0,18.39.08,27.58,0,2.79,0,4.06.69,4.05,3.75-.09,18.38-.05,36.77-.07,55.16,0,.34-.32.63.06.1,0-1.49,0-3.8,0-6.11,0-16,0-31.9,0-47.85C215,206,214.46,204.05,215.45,202.29Z"/>
  <path class="cls-1" d="M398.21,202.47c2.15,3.31,0,7.13,1.42,11,5.45-5,9.65-11.66,17.86-12.22,6,0,12-.14,17.95,0,10.12,2.77,18,7.9,20.23,19.05.23,22.44.11,44.89.1,67.34,0,2.39.59,4.89-.85,7.13-10.09,1.08-20.21.16-30.31.5-4.1.14-3.17-2.83-3.18-5.07,0-16.69-.07-33.39,0-50.08,0-.52.35-1.06-.09-1.06,0,9.92.13,19.9,0,29.88-.15,9,.71,17.95-.49,26.89-2.27-1.23-1.06-3.34-1.07-5-.11-18.38,0-36.76-.14-55.15-.07-7.88-3-10.71-9.47-9.92-3.81.47-6,2.73-7.3,6.14s-1.17,7-1.17,10.57c0,16.13,0,32.26-.08,48.39,0,1.64,1.22,3.76-1.11,5-9.49-1.33-19-.29-28.55-.56-6.31-.17-6.39-.05-6.39-6.1q-.06-40.76,0-81.5c0-1.85-.27-3.78,1.09-5.37h30.5c1,3.58.32,7.15.48,9.89C398.45,209.62,396.9,205.89,398.21,202.47Z"/>
  <path class="cls-2" d="M564.12,269.87c-.9,9.82-6.82,16.37-14.83,20.84-13.81,7.7-28.81,8.82-44.2,6.43a3.15,3.15,0,0,1,3.14-.68c-1,.2-3-.57-5,.43-8.7-.85-16.5-3.73-22.85-10a4.12,4.12,0,0,0-3.23-3.27c-3.51-3-5.14-7.24-7.11-11.26-1.25-2.57-.24-3.22,2.19-3.52,7.62-.95,15.23-2,22.83-3.12,1.86-.27,3-.14,3.95,1.92,2.34,5.18,7.09,7,12.3,7.62s10.48.82,15.63-.73c2.4-.72,5.06-1.66,5-4.49s-2.91-3.74-5.19-4.37c-3.77-1-7.64-1.66-11.46-2.46.49-.84,1.45-.42,2.11-.79-1,.3-2.12-.22-3,.68a62.54,62.54,0,0,1-28.92-7.85A22.16,22.16,0,0,1,474,237.14a18.28,18.28,0,0,0,0-8.94c.91-10.81,7.46-18,16.5-22.27,16.92-8,34.6-8.44,51.81-1,8.46,3.66,14.69,10.51,18.44,19.35a13.25,13.25,0,0,1-6.81,1.51,2.08,2.08,0,0,0-1.47-.45c-.43,0-.87-.19-1.27.09a1,1,0,0,1,.82.59c-5.51,1.95-11.32,2.41-17,3.59-1.15.24-2.21.41-3-.83-2.75-4.61-7.49-5.93-12.19-7.29.12-.15.22-.39.35-.41.53-.06.64-.36.35-.34-2.38.15-4.76,0-7.14.05-.76,0,.13-.31-.5,0-.31.14.66.24.66.71a41.84,41.84,0,0,0-4.73,1.47c-2,.89-4.33,2-4,4.68.33,2.5,2.37,3.45,4.73,3.84,4,.66,8,1.42,12,2.15-.48.55-1,1-1.59.15a.89.89,0,0,0,1,.59c1.19-.12,2.47.36,3.55-.49,9.12.64,18.18,1.67,26.25,6.41,7.06,4.14,12.17,9.84,13.24,18.36A91.15,91.15,0,0,0,564.12,269.87Z"/>
  <path class="cls-2" d="M343.92,403.41a38.86,38.86,0,0,1,.05-19.86,2.22,2.22,0,0,1,.67,2.33c-.19-.92.47-2.6-.43-4.25,3.42-17.48,13.67-29,30.41-34.82a1.56,1.56,0,0,0,1,.32c2.59-.46,5.21-.81,7.42-1.33-.6.64-1.39.32-2.15-.51,2.3-1.17,4.75-1.13,7.22-.89a15.83,15.83,0,0,0,9,0c10.92.85,19.67,5.11,27.47,13.34a42,42,0,0,1,10.68,18.77c.82,3.08.7,5.17-3.72,5.32-8.06.26-16.11,1.24-24.14,2.08-2.86.29-4.6-.12-4.84-3.54a18.06,18.06,0,0,0-1.92-5.84,8.67,8.67,0,0,0-8.45-5.45c-4-.05-7.2,1.66-8.5,5.32a51.68,51.68,0,0,0-.09,35.8c2.07,5.66,7.37,5.63,12.4,5.4-.19,2.39-1.94,1.16-2.95,1.39,1.54.23,3.2.46,4-1.62a13.67,13.67,0,0,0,6.76-9.86c.42-2.77,1.45-3.79,4.4-3.47,8,.87,16.06,1.57,24.11,2,3.26.19,3.59,1.62,3.18,4.33-2.42,15.87-15.73,29.28-31.62,31.73-.73-.18.26-.13-.47-.32a13.76,13.76,0,0,0-2.21-.2c.59.18,1.3.05,1.73.66-26.79,7.45-54.75-9.26-58.7-35.07.94-1.54.19-3.27.64-5.06C344.27,401.31,345.16,402.66,343.92,403.41Z"/>
  <path class="cls-1" d="M586.78,346.32l12.61,21.43,13.12-21.47c7.47.74,15,.12,22.45.36,2.16.07,4.64-.52,5.83,2.2-7.56,12-15,24-22.77,35.8-1.89,2.87-1.62,4.69.12,7.36,9.49,14.53,18.78,29.2,28.14,43.82-.36,3-2.53,3.29-4.94,3.29-9.75,0-19.51-.05-29.26,0a9.41,9.41,0,0,1-6.15-2.25l-15.88-26.4-17.6,27.68c-8.73,1.95-17.55.68-26.34.69a2.89,2.89,0,0,1-2.48-2.05c9.47-14.39,18.85-28.85,28.49-43.12,1.87-2.78,1.85-4.61,0-7.34C564.45,374.68,557,362.83,549.44,351c-1.64-4.25,1.31-4.35,4.08-4.38,8.65-.1,17.3,0,26-.05A38.83,38.83,0,0,0,586.78,346.32Z"/>
  <path class="cls-2" d="M321.51,202.4c2.51,4.71,0,10,1.54,15.33,2.51-3.51,3-7.7,6.26-10.17,1.86-.25,2.76-1.54,3.4-3.12,1.53-1.83,3.72-2.52,5.85-3.12,11.95-3.33,13.53-2.14,13.53,9.93,0,6-.1,12,0,18,.07,2.78-.45,3.78-3.7,3.69-16-.45-21.37,5-21.42,20.9,0,12.58-.17,25.16.08,37.73.08,3.81-1.1,4.74-4.72,4.64-9-.24-18-.21-27,0-3.27.07-4.08-1-4.07-4.18q.17-42.8,0-85.6c0-3.44.88-4.56,4.4-4.43,8.24.32,16.5.23,24.76.31,1.13,5.64.25,11.23.5,15.23C321.93,213.68,320.05,207.9,321.51,202.4Z"/>
  <path class="cls-2" d="M254.58,338.86c-5-.53-13.16,2.66-16.62-1.2-3-3.36-1-11.36-1-17.31-.07-10.8,0-10.8,10.73-10.8,7.3,0,14.6.16,21.9-.07,3.33-.11,4.66.66,4.51,4.3-.29,7.1-.21,14.22,0,21.33.08,3-.89,3.93-3.83,3.81C265.41,338.72,260.54,338.86,254.58,338.86Z"/>
  <path class="cls-4" d="M294.58,438q-.1-60.53-.26-121c0-2.83,1-3.43,3.59-3.4q14.64.18,29.28,0c2.57,0,3.62.58,3.61,3.4q-.24,60.52-.3,121a1.34,1.34,0,0,1-1.82-.67c-1.45-3-1-6.27-1-9.43q-.06-51.33,0-102.66c0-8.29-.15-8.39-8.59-8.42-4.89,0-9.78,0-14.67,0-6.48.08-6.95.51-7,7.19-.06,23.13,0,46.25,0,69.38,0,12,0,24.06,0,36.1,0,2.61.23,5.28-1,7.76A1.37,1.37,0,0,1,294.58,438Z"/>
  <path class="cls-2" d="M274,392.3c0,14.28-.16,28.57.09,42.85.07,4-1.16,5.09-5.06,5-9.21-.27-18.42-.2-27.63,0-3.25.06-4.59-.58-4.57-4.28q.24-43.14,0-86.27c0-3.29,1-4.11,4.17-4.05,9.58.18,19.18.25,28.76,0,3.69-.11,4.32,1.26,4.28,4.54C274,364.11,274,378.21,274,392.3Z"/>
  <path class="cls-5" d="M366.65,202.32c0,28.51.14,57-.11,85.54,0,5.28,1.16,7.34,6.75,7,7.29-.48,14.63-.16,21.95-.09,1.79,0,3.8-.65,5.26,1.11-10.86.09-21.73.11-32.59.32-2.89.05-3.34-1.24-3.33-3.72.06-29.05,0-58.11.06-87.16C364.64,203.94,364.09,202,366.65,202.32Z"/>
  <path class="cls-6" d="M454.65,294.69q0-34.24.05-68.5c0-2-.72-4.15,1-5.88,1.39,4.93,1.19,10,1.2,15q.11,28,0,56.09c0,1.45,1,3.36-1.06,4.4C455.44,295.42,454.76,295.35,454.65,294.69Z"/>
  <path class="cls-7" d="M239.19,294.7c8.27,0,16.54-.22,24.8.11,4.43.17,5.77-1.18,5.74-5.68-.18-28.94-.08-57.88-.07-86.81,2.87.71,1.55,3.06,1.55,4.61.09,28.29,0,56.58.15,84.87,0,3.48-.83,4.48-4.31,4.39-8.8-.25-17.61,0-26.42-.14-1.25,0-3.13,1-3.66-1.32A1.48,1.48,0,0,1,239.19,294.7Z"/>
  <path class="cls-4" d="M215.45,202.29v61.84h-1.1V242.56c0-11.45-.12-22.91.06-34.36.05-3.58-.95-5-4.75-4.93-8.45.23-16.9.1-25.35,0a9.65,9.65,0,0,0-4.87,1.12c-.56-2.23.81-2.47,2.49-2.45Z"/>
  <path class="cls-8" d="M454.65,294.69l1.14,1.14c-11.65.48-23.3.45-35,0V237.4l1.11,0V253.7c0,11.82.21,23.65-.11,35.47-.12,4.59,1.44,5.77,5.79,5.63C436.63,294.5,445.64,294.7,454.65,294.69Z"/>
  <path class="cls-9" d="M605.93,436.9c12.37,2.36,24.85.53,37.27,1.06,1.58.06,2.07-1.41,3.08-2.14.79,1.16,2.66,2.06,1.83,3.65-.66,1.27-2.39.48-3.61.49-11,.06-22,0-33,.05C609,440,606.52,440.19,605.93,436.9Z"/>
  <path class="cls-10" d="M586.78,346.32c-1.44,2.16-3.68,1.37-5.62,1.39-9.1.07-18.21.05-27.32,0-2.37,0-4.65-.09-4.4,3.31a12,12,0,0,1-3.39-5.55C560,346.14,573.38,344.6,586.78,346.32Z"/>
  <path class="cls-11" d="M91.28,438.21c1-3.68,2.43,0,3.59-.08,8.73-.29,17.48-.22,26.22-.09,2,0,2.89-1.43,4.26-2.26.12,2,.9,4.26-2.58,4.23-9.94-.08-19.89,0-29.84,0C91.74,440,91.34,439.26,91.28,438.21Z"/>
  <path class="cls-11" d="M294.58,438l1,0a6.81,6.81,0,0,1,4.63-1.67q12.28-.3,24.57,0a6.8,6.8,0,0,1,4.62,1.68h1.08c.21,1.44-.46,2-1.85,2q-16.12,0-32.25,0C295,440,294.36,439.42,294.58,438Z"/>
  <path class="cls-11" d="M160.21,439.17c.22-.49.44-1.4.66-1.4q14.53.08,29,.34c.62,0,1.23.7,1.84,1.08A124.77,124.77,0,0,1,160.21,439.17Z"/>
  <path class="cls-12" d="M543.63,436.82c6,2.38,12.15.73,18.22,1.14,3.52.24,7.06.16,10.6.22-.55,1.91-2.09,1.82-3.61,1.81-8,0-16.07-.05-24.1,0C540.91,440.05,541.42,438.78,543.63,436.82Z"/>
  <path class="cls-10" d="M640.79,348.84c-7.28-2.27-14.76-.54-22.12-1.12-2.11-.17-4.55.9-6.16-1.43,9.47-1.83,19-.67,28.56-.62C644,345.69,641.29,347.75,640.79,348.84Z"/>
  <path class="cls-4" d="M235.77,202.31q0,29.48,0,58.93c0,1.19.15,3.54-1.29.4,0-18.16,0-36.33.05-54.49C234.54,205.55,233.24,203.36,235.77,202.31Z"/>
  <path class="cls-13" d="M224.38,318.38c-1.14-2.28-2.59-3.61-5.56-3.44a143.52,143.52,0,0,1-16.85,0c-2.76-.17-4.4,1.66-6.63,2.34-.2-2.48.66-3.76,3.45-3.71,8,.12,16,0,24,0C227.88,313.6,224.71,316.49,224.38,318.38Z"/>
  <path class="cls-14" d="M93.59,314.06c-.13.34-.25,1-.38,1Q76.59,315,60,314.8c-.44,0-.88-.6-1.32-.93C70.31,313.55,82,313.21,93.59,314.06Z"/>
  <path class="cls-15" d="M435.44,201.26a35.12,35.12,0,0,1-17.95,0A33.16,33.16,0,0,1,435.44,201.26Z"/>
  <path class="cls-16" d="M159,314a83.07,83.07,0,0,1-29.25,0A234,234,0,0,1,159,314Z"/>
  <path class="cls-4" d="M239.19,294.7l-2.22,0c0-3.76,0-7.52,0-11.27C241.67,286.42,238,291.05,239.19,294.7Z"/>
  <path class="cls-17" d="M693.91,200.78c.48-4-1.23-8.22,1-12.08C696.09,192.85,697.44,197,693.91,200.78Z"/>
  <path class="cls-18" d="M602.58,253c1.64,5.4-.14,10.55-1.16,15.75C600.69,263.42,600.63,258.14,602.58,253Z"/>
  <path class="cls-7" d="M564.12,269.87a12.76,12.76,0,0,1,0-11.21A17.76,17.76,0,0,1,564.12,269.87Z"/>
  <path class="cls-16" d="M321.51,202.4v16.69h-1.09V202.32Z"/>
  <path class="cls-11" d="M513.59,221.5l-2.18-.32,0-.47h10.88c-.52,1-1.61.45-2.38.79Z"/>
  <path class="cls-6" d="M380.91,345.29l2.64.39c-3,.85-5.69,3.51-8.93,1.13A12.88,12.88,0,0,1,380.91,345.29Z"/>
  <path class="cls-19" d="M606.93,283.6c3.39.31,5.27,2.13,5.53,5.55A14.12,14.12,0,0,1,606.93,283.6Z"/>
  <path class="cls-20" d="M118.55,359.05c2.28,2.73.54,5.31-.5,7.77-.19.44-.66-.83-.9-1.39A15,15,0,0,1,118.55,359.05Z"/>
  <path class="cls-11" d="M398.21,202.47v11h-1.06V202.31Z"/>
  <path class="cls-15" d="M503.15,344.43a15,15,0,0,1-12.33-.06A35.22,35.22,0,0,1,503.15,344.43Z"/>
  <path class="cls-21" d="M397,415.39c-1.45,2.5-1.45,2.5-6.78,1.82,1.71-1.43,4.24.31,5.74-1.59A1,1,0,0,1,397,415.39Z"/>
  <path class="cls-22" d="M547.21,397.35a10,10,0,0,1,0-10.07A26.65,26.65,0,0,1,547.21,397.35Z"/>
  <path class="cls-23" d="M678,188.85c.17-.58.34-1.89,1-1.27,1.47,1.47,1.7,3.51,1,5.89-.69-1.38-1.27-2.51-1.84-3.65A.85.85,0,0,1,678,188.85Z"/>
  <path class="cls-4" d="M397.1,344.42a8.66,8.66,0,0,1-9,0A27.28,27.28,0,0,1,397.1,344.42Z"/>
  <path class="cls-24" d="M474,228.2a9,9,0,0,1,0,8.94A20.58,20.58,0,0,1,474,228.2Z"/>
  <path class="cls-25" d="M477.16,283.65c2.57-.39,3.69.66,3.23,3.27A6.25,6.25,0,0,1,477.16,283.65Z"/>
  <path class="cls-26" d="M503.24,296.89c2.14-1.84,4.44-1,6.75-.22l-4.9.47Z"/>
  <path class="cls-27" d="M332.71,204.44c.1,2.38-.67,3.82-3.4,3.12A5.93,5.93,0,0,1,332.71,204.44Z"/>
  <path class="cls-8" d="M343.92,403.41c.14-1.23.28-2.45.53-4.66,1,2.87,1.26,4.71-.24,6.48Z"/>
  <path class="cls-16" d="M623.88,217c3.36-.72,3.08,1.71,3.25,3.74A7,7,0,0,1,623.88,217Z"/>
  <path class="cls-8" d="M344.21,381.63c1.6,1.77,1.17,3.69.29,6.61-.25-2.19-.39-3.44-.53-4.68Z"/>
  <path class="cls-28" d="M209.83,298c1.81-1.6,3.92-1,6-.82C213.93,298.27,211.89,298.21,209.83,298Z"/>
  <path class="cls-8" d="M552,226l-3.64-.5c2.66-.91,4.18-1.21,5.56.27Z"/>
  <path class="cls-8" d="M445.46,402.28c.15-.87.3-1.74.62-3.54.77,2.49,1.22,4-.34,5.36C445.65,403.49,445.55,402.89,445.46,402.28Z"/>
  <path class="cls-8" d="M524.58,233.89c-.87,1.24-2.18,1.05-3.42,1-.41,0-1.21.11-.94-.64.11-.33.89-.42,1.37-.62Z"/>
  <path class="cls-11" d="M699.38,245c-1.21-.89-1-2.19-1-3.43,0-.4-.12-1.19.63-.93.33.12.42.89.62,1.37C699.58,243,699.48,244,699.38,245Z"/>
  <path class="cls-29" d="M162.62,253.73l-.61,3.52c-.78-2.47-1.21-4,.33-5.35Z"/>
  <path class="cls-11" d="M644.08,205.54c-1.19-.91-1-2.22-.94-3.46,0-.4-.08-1.21.68-.87.33.14.4.91.59,1.39Z"/>
  <path class="cls-8" d="M514.51,263.13c1.16-1.68,2.77-1,4.53-1.07-1.11,1.66-2.58.75-3.69,1.18l-.44.13Z"/>
  <path class="cls-30" d="M673.62,182.82a1.38,1.38,0,0,1,2.21-.19c.87.75,1.29,1.61.25,2.58Z"/>
  <path class="cls-31" d="M662.66,181c-.48-.19-1.26-.28-1.39-.61-.31-.77.5-.66.91-.67,1.25,0,2.57-.23,3.44,1Z"/>
  <path class="cls-12" d="M679.15,175.29c-1.29,1.35-2.8,1.12-4.49.64.62-1.26,1.81-.54,2.6-.93Z"/>
  <path class="cls-24" d="M402.91,440.3l-4.4-.41c2.48-1,4-1.14,5.35.27l-.45.23Z"/>
  <path class="cls-8" d="M506.93,440.42l-3.51-.61c2.48-.78,4-1.19,5.36.32Z"/>
  <path class="cls-32" d="M126.2,259.46c-2.61,6.08-7.43,8.53-13.82,8.51-4.86,0-9.73-.09-14.59.14-3.05.14-4.39-.64-4.22-4,.27-5,.16-10.1,0-15.15-.06-2.43.3-3.89,3.28-3.77,5.23.21,10.49-.09,15.72.18,6.21.31,11.11,2.95,13.61,9A4.36,4.36,0,0,1,126.2,259.46Z"/>
  <path class="cls-33" d="M113.62,196.73c4.58,1.23,8.6,3.17,10.27,8.08a4.16,4.16,0,0,1,.07,5c-2.29,6.23-6.74,9-13.33,8.39-5.52-.47-12.9,2.39-16.06-1.17-2.73-3.07-.82-10.29-.92-15.68,0-1.49.08-3,.13-4.48C100.38,195.37,107,195.69,113.62,196.73Z"/>
  <path class="cls-34" d="M94.78,269.08h21.13v.48H94.79Z"/>
  <path class="cls-11" d="M95,219.45h18.9V220H95Z"/>
  <path class="cls-22" d="M113.62,196.73l-19.84.15c6.55-3,13.37-1,20.07-1.09a.9.9,0,0,1,.09.48A1.74,1.74,0,0,1,113.62,196.73Z"/>
  <path class="cls-4" d="M91.61,266.34v-18.9h.56v18.76Z"/>
  <path class="cls-4" d="M92.22,199V216.8h-.56V199.14Z"/>
  <path class="cls-35" d="M126.2,259.46c0-1.69,0-3.37,0-5.06.29-.47.87-1.7,1-1.16a32.77,32.77,0,0,1,0,6.49.78.78,0,0,1-.48.06A1.38,1.38,0,0,1,126.2,259.46Z"/>
  <path class="cls-21" d="M124,209.82c0-1.67,0-3.34-.07-5,3,1.57.61,4.16,1.17,6.2a1.42,1.42,0,0,1-.36.14C124.43,210.72,124.2,210.27,124,209.82Z"/>
  <path class="cls-36" d="M649.53,234c3.89.3,4.73,2.25,3.67,5.87s-1.49,7.27-2.21,10.91c0,4.37,3.1,3.27,5.6,3.26,7.61-17.61,6.13-14.84,24.6-14.43,1.13,0,2.25,0,3.37,0,.8.38,1.88.56,1.28,1.89-1.7,6.68-2.14,13.63-4.4,20.2C679,268.81,676,275.6,670.5,281c-7.7,7.7-17.11,9.81-27.44,7.68-9-1.86-15-9-15.38-18.36a51.31,51.31,0,0,1,4.92-24.54c3.33-7,8.76-11,16.44-11.87Z"/>
  <path class="cls-37" d="M656.59,254c-6.65,1.43-6.81,1.34-5.6-3.26C651.82,253.62,655.58,251.45,656.59,254Z"/>
  <path class="cls-38" d="M646.79,290.23c2.17,0,4.34,0,6.51,0a2.81,2.81,0,0,1,2.08.78h-8.74Z"/>
  <path class="cls-9" d="M649.53,234l-.25.17L649,234l-4.65-.67a16.58,16.58,0,0,1,8.87,0Z"/>
  <path class="cls-15" d="M642.47,213.85a8.67,8.67,0,0,1,.11-6.34A8.83,8.83,0,0,1,642.47,213.85Z"/>
  <path class="cls-11" d="M685.84,241.46l-1.28-1.89c3.44.19,2.35,2.43,1.7,4.4Z"/>
  <path class="cls-39" d="M493.39,419.75c-5.06-1.91-7.59-5.72-8.47-10.93-1.75-10.46-2-20.93.23-31.33,1.56-7.17,5.52-10.64,11.27-10.5,5.59.15,9,3.22,10.44,10.6a79.76,79.76,0,0,1-.55,32.42,12.3,12.3,0,0,1-9.1,9.76A2.61,2.61,0,0,1,493.39,419.75Z"/>
  <path class="cls-40" d="M509.66,383v18.85h-.56V382.94Z"/>
  <path class="cls-41" d="M493.39,419.75l3.82,0c.54.26,1.64.87,1.35,1a7.84,7.84,0,0,1-5.54-.09c-.06,0,0-.34,0-.48A1.86,1.86,0,0,1,493.39,419.75Z"/>
  <path class="cls-11" d="M222.09,272.85a3.32,3.32,0,0,1,3.72-.18A3.34,3.34,0,0,1,222.09,272.85Z"/>
  <path class="cls-12" d="M414.07,224.5h-3.74C411.62,223.25,412.76,223.66,414.07,224.5Z"/>
  <path class="cls-1" d="M329.42,438H295.6c0-38.85.09-77.7-.14-116.55,0-5.28,1.52-6.8,6.64-6.51a198.21,198.21,0,0,0,21.39,0c4.64-.23,6.07,1.2,6,5.94C329.35,359.91,329.43,399,329.42,438Z"/>
  <path class="cls-11" d="M238.08,392.3c0-13.53.13-27.07-.08-40.6-.06-3.94,1.15-5.25,5.11-5.13,8.46.26,16.93.21,25.38,0,3.45-.08,4.55,1.1,4.54,4.54q-.16,41.73,0,83.47c0,3.44-1.08,4.61-4.53,4.53-8.46-.2-16.93-.24-25.38,0-4,.12-5.18-1.15-5.12-5.1C238.21,420.13,238.08,406.21,238.08,392.3Z"/>
  <path class="cls-2" d="M271.9,393.15c0,13.33-.1,26.66.06,40,.05,3.59-1,5-4.75,4.92-7.88-.23-15.78-.21-23.66,0-3.55.1-4.45-1.33-4.44-4.64q.13-40.55,0-81.1c0-3.33.92-4.73,4.46-4.64,7.88.2,15.77.23,23.65,0C271,347.55,272,349,272,352.6,271.8,366.12,271.9,379.64,271.9,393.15Z"/>
</svg>
