<svg id="Layer_1" data-name="Layer 1" xmlns="http://www.w3.org/2000/svg" viewBox="0 0 792 612">
  <defs>
    <style>
      .cls-1 {
        fill: #ac1019;
      }

      .cls-2 {
        fill: #bd3d44;
      }

      .cls-3 {
        fill: #e9c3c4;
      }

      .cls-4 {
        fill: #ad1019;
      }

      .cls-5 {
        fill: #ad101a;
      }

      .cls-6 {
        fill: #080707;
      }

      .cls-7 {
        fill: #080807;
      }

      .cls-8 {
        fill: #080808;
      }

      .cls-9 {
        fill: #090909;
      }

      .cls-10 {
        fill: #090908;
      }

      .cls-11 {
        fill: #090808;
      }

      .cls-12 {
        fill: #ad0f13;
      }

      .cls-13 {
        fill: #ac0e12;
      }

      .cls-14 {
        fill: #aa0f0f;
      }

      .cls-15 {
        fill: #ac0d10;
      }

      .cls-16 {
        fill: #0a0a0a;
      }

      .cls-17 {
        fill: #ae1215;
      }

      .cls-18 {
        fill: #ad1013;
      }

      .cls-19 {
        fill: #ad1014;
      }

      .cls-20 {
        fill: #e4e2e1;
      }

      .cls-21 {
        fill: #aa0d0d;
      }

      .cls-22 {
        fill: #e0dfdc;
      }

      .cls-23 {
        fill: #a80e0c;
      }

      .cls-24 {
        fill: #ad1214;
      }

      .cls-25 {
        fill: #f0f0ee;
      }

      .cls-26 {
        fill: #ae1316;
      }

      .cls-27 {
        fill: #ae1217;
      }

      .cls-28 {
        fill: #ab0d0f;
      }

      .cls-29 {
        fill: #a90d0d;
      }

      .cls-30 {
        fill: #7d7d7d;
      }

      .cls-31 {
        fill: #535353;
      }

      .cls-32 {
        fill: #363535;
      }

      .cls-33 {
        fill: #aa0d0e;
      }

      .cls-34 {
        fill: #ac0e11;
      }

      .cls-35 {
        fill: #424141;
      }

      .cls-36 {
        fill: #ab0d0e;
      }

      .cls-37 {
        fill: #ac0d11;
      }

      .cls-38 {
        fill: #2f2f2f;
      }

      .cls-39 {
        fill: #fff;
      }

      .cls-40 {
        fill: #ac0f12;
      }

      .cls-41 {
        fill: #fefdfd;
      }

      .cls-42 {
        fill: #f5f5f4;
      }

      .cls-43 {
        fill: #fefefe;
      }

      .cls-44 {
        fill: #fefefd;
      }

      .cls-45 {
        fill: #faf9f9;
      }

      .cls-46 {
        fill: #777;
      }

      .cls-47 {
        fill: #9d9b98;
      }
    </style>
  </defs>
  <path class="cls-1" d="M58.7,295.82a78.56,78.56,0,0,1,26.09-44.06c1.83.07,2.68-1,3.14-2.62,21.15-16.83,44.81-21,70.7-14a49.06,49.06,0,0,1,12.29,5c4.39,2.59,4.17-3.15,6.79-3.76,2.34.24,4.75-.88,7,.35-2.47,14.24-5.54,28.35-9.06,42.36-6.39.44-6.39.44-6.38-9.67-.06-.76-1.16.31-.49-.05.23-.12.37,0,.38.42,0,1.62.67,3.31-.57,4.77-.36-2.2-.81-4.4-1-6.62-1.4-12.4-6.81-22.08-18.5-27.58-1.82-1.9-4-2-6.41-1.42-28.95-.62-47.12,11.79-58.26,39.91a99.47,99.47,0,0,0-6.28,47.3c2,19.76,11.74,30,33.06,35.38-.59.94-1.73.46-2.33.84,4.46-.18,9.07,0,13.51-.1-.47-.77-2.2.57-2.81-.75,1.27-.32,2.52-.72,3.8-1,10.21-1.93,17.93-6.24,19.32-17.94.71-6,2.7-11.75,3.85-17.66,1.31-6.81-.37-9.32-7.19-11-2.73-.66-5.58-.85-8.37-1.33-1.33-.22-3.37.33-3.09-2.14.23-1.95.69-3.82,3.36-3.56a16.05,16.05,0,0,0,1.7,0c16.41,0,32.83.05,49.25,0,4.29,0,5.16,1.34,2.49,4.76a1.9,1.9,0,0,0-1.27-.72c.37.33,1,.25,1.26.72-2.2,1.84-5,1.25-7.51,1.73-7,1.33-11,5.36-12.54,12.16-2,9.22-4.11,18.43-5.92,27.68-.53,2.69-1.43,4.32-4.16,5.31-6.56,2.39-12.91,5.33-19.9,6.32a3.49,3.49,0,0,0-2.19-.38c-.38,0-.69-.17-1-.16.33.43,1,.33,1.29.85a55.32,55.32,0,0,1-19.62,3.19,6.82,6.82,0,0,0-5.61,0c-25.58.65-46.08-16.17-50.36-41.26-.25-1.45.52-3.6-1.93-4.12v-2.27a22.54,22.54,0,0,0,0-11.36v-2.27c3.66-2.61,1-7.28,3.38-10.31a1.86,1.86,0,0,1,.45,2A3.61,3.61,0,0,0,58.7,295.82Z"/>
  <path class="cls-1" d="M659.31,276.37c13.72-12.08,29.54-17.43,47.63-13.52,14.54,3.15,23.73,12.51,27.85,26.84.49,1.7,0,3.88,2,5v2.27a28.31,28.31,0,0,0,0,12.49V314c-2.4.81-1.77,3.07-2.16,4.75-6.09,26.22-28.94,46.86-54.43,49.05C656,369.85,638.14,355.14,636.4,331a62.87,62.87,0,0,1,16.25-47.89A14.61,14.61,0,0,0,659.31,276.37Z"/>
  <path class="cls-2" d="M736.81,309.41a14.82,14.82,0,0,1,0-12.49Z"/>
  <path class="cls-3" d="M55.17,309.41a11.73,11.73,0,0,1,0,11.36Z"/>
  <path class="cls-1" d="M418.71,366.27c-6.87-10.37-11.39-22-17-33C393,316,384.56,298.59,375.35,279.9c-2.91,12.45-5.55,23.53-8.08,34.62-2.31,10.12-4.87,20.19-6.67,30.4-1.91,10.85-.35,12.79,10.13,15.72.88.25,1.72.68,2.58,1-.86,2-2.12,3.4-4.6,3.39-11.25,0-22.5.11-33.75-.08a4.2,4.2,0,0,1-2.56-1c.48-2.86,3.15-3,5-3.24,8.62-1.08,13.41-6.19,15.41-14.18,3.86-15.38,7.51-30.82,11.28-46.23.67-2.73,1.51-5.41,2.27-8.12,1.75-1.52,1.53-3.48,1.25-5.46.77-12.58-.31-14.21-12.19-18-1.56-.5-3.13-.64-1.6-2.77,7.78-1.77,15.66-.43,23.49-.82,2.06-.11,4.12,0,6.19,0q14.81,29.63,29.62,59.26c3.12,6.23,6.2,12.48,9.92,20,2.88-12.55,5.48-23.84,8.05-35.14,7.1-31.13,14.25-62.25,21.17-93.43.79-3.55,2.19-4.42,5.6-4.43,3.68,0,4.39.82,3.52,4.51q-17.46,73.92-34.63,147.91c-.21.9-.2,1.91-1.26,2.35A9.36,9.36,0,0,0,418.71,366.27Z"/>
  <path class="cls-1" d="M477.93,289.8c1.71,7.54,6.7,11.88,13.73,14.43a160.24,160.24,0,0,1,16.27,6.49c19.09,9.42,22.13,29.26,7,44.58-12.69,12.88-35.6,16.13-53.83,7.53-3.12-1.47-5.85-3.49-8.13,1.14-1,2.07-3.48,1.62-5.11,1-2-.7-.68-2.64-.42-3.93.89-4.42,2-8.79,3-13.18a6.91,6.91,0,0,0,1.27-6.66c.41-2.6.87-5.19,1.23-7.8.3-2.21,1.68-2.54,3.62-2.56,2.15,0,2.37,1.26,2.62,2.86.5,3.17.94,6.36,1.72,9.46,4.87,19.32,25.57,23.12,39.32,14.79,7.37-4.47,9.88-11.62,9.34-19.95-.51-7.89-5.19-12.5-12.08-15.66-7.48-3.43-15.37-5.61-22.65-9.89-13-7.61-13.28-23.68-8.1-32.59,5.51-9.49,13.69-15.39,24.69-17.07.73.24-.29.09.41.36a17.07,17.07,0,0,0,2.54.3c-.71-.31-1.68.08-2.17-.81a39.24,39.24,0,0,1,28.71,3.87c2.28,1.25,4.09,2.9,5.78-.72,1.35-2.86,4-2,7-1.72-2,9.58-3.87,19-5.86,28.44-.44,2.05-.14,4.67-3.67,4.61-3.82-.07-2.75-2.85-3-4.85a37.86,37.86,0,0,1-.14-4.52c1-1.11.2-2.54.74-3.84-.53.62-.14,1.55-1,1.91-.31-.88-.7-1.75-.93-2.65-2.82-11.06-9-16.17-20-16.52-10.13-.32-17.79,5.26-21.18,15.41a9.92,9.92,0,0,1-.77,1.48c-1.6,1.92-.29,4.23-.83,6.3a.66.66,0,0,0,.42.21C477.69,290.08,477.81,289.9,477.93,289.8Z"/>
  <path class="cls-4" d="M539.18,319.68c.75-22.8,19.52-47.22,40.82-54.53,15-5.13,29.12-4.66,43,2.56,2.05,1.07,3.1.68,4.17-1,1.52-2.33,3.92-3.7,6.26-2.47,2.74,1.44.37,4.06,0,6-1.69,8.72-3.74,17.38-5.55,26.08-.47,2.29-1.1,3.91-3.92,3.69-3.19-.26-2-2.6-2.21-4.25-.18-1.31-.19-2.64-.32-4-2.37-23-21.22-32.06-40.94-19.74-11.15,7-17.67,17.39-21.62,29.61-3.6,11.13-5.3,22.52-3,34.12,4.77,23.65,27.76,32.56,47.45,18.51a45.69,45.69,0,0,0,12.76-13.55c1.29-2.14,2.42-3.11,4.86-1.63,2.89,1.77.62,3.2-.23,4.55-13.89,21.9-40,30.59-61.56,20.15-12.17-5.9-18.71-16-20-29.5C539.22,329.46,539.71,324.57,539.18,319.68Z"/>
  <path class="cls-1" d="M251.87,313.62A46.42,46.42,0,0,1,254,326.48c-.21.73-.15-.28-.35.45a10.45,10.45,0,0,0-.22,2.22c.15-.6.07-1.29.67-1.71,1.44,4.1,1.71,8.4,2.13,12.68-1,1.69-.3,3.42-.35,5.13.34.76.91-.48.24-.12-.22.13-.34,0-.34-.38,0-.91-.22-1.89.62-2.61a22.36,22.36,0,0,1,1,4.33c.34,7.8,3.61,13.24,11.63,15.08-.26,1.71-.52,3-3,3-11.06-.14-22.13-.05-33.2-.07-.91,0-2.21.21-2.45-.81-.34-1.4,1-1.27,1.91-1.34-.32-.46-1-.25-1.3-.76,16.56-3.34,12.58-2.93,11-16.91-.56-4.94-.32-10.14-3-14.7a182.17,182.17,0,0,0-34.87,0c-6,6.84-9.49,15.19-13.5,23.21-1.49,3-.19,5.11,2.67,6.29,2.06.85,4.23,1.41,6.35,2.11.65,1.07,4.17,2.86.15,3.13a274.61,274.61,0,0,1-33.58,0c-.95-.05-1.46-1.09-1.93-1.9,2-3.22,5.68-1.65,8.41-3.12,5.9-3.19,9.91-8,13.38-13.5Q211,306.7,236,267.25a6.94,6.94,0,0,0,.61-.95c1.14-2.82,3.21-4.35,6.19-3.46s1.94,3.59,2.05,5.72c-.19.73-.14-.27-.33.46a11.13,11.13,0,0,0-.21,2.22c.16-.59.06-1.29.66-1.72,2.88,14,5,28,6.7,42.2-1,1.12-.2,2.56-.72,3.82C251.45,315,251,314,251.87,313.62Z"/>
  <path class="cls-4" d="M343.69,266.25c-.2,3.07-2.71,2-4.3,2.26-11.1,1.62-12.2,2.61-14.79,13.65q-8,33.81-15.94,67.59c-1.64,6.94-.27,9.08,6.87,10.53,5.24,1.06,5.24,1.06,4.31,4.72-12.32-1.16-24.67-.17-37-.56-1.93-.06-4.11.86-5.77-.93.42-1.53,1.44-1.33,2.5-1.05-.46-.82-1.67,0-2.07-.95a20.31,20.31,0,0,1,2.72-.66c10.07-1,11.43-2.21,13.67-11.76q8-34.14,16.11-68.28c1.88-8,1-9.48-7-11.51-4.07-1-4.07-1-4.83-3.22,3.26-1.3,6.68-1.06,10.05-.93C320.06,265.61,331.94,263.92,343.69,266.25Z"/>
  <path class="cls-5" d="M442.87,198.18l27-40.58L480,197c-.3,3.44-2.15,4.62-5.59,4.55-8.67-.18-17.35,0-26-.07C445.88,201.48,443.2,201.74,442.87,198.18Z"/>
  <path class="cls-6" d="M151.87,452.84H132.38c11.63-4.33,14.22-16,20.38-24.62,5.27-7.34,9.75-15.25,14.57-22.91,1-1.55,1.64-4.05,3.9-3.37,2,.58,1.65,3.09,1.92,4.87,1.87,11.93,3.8,23.85,5.47,35.81.62,4.41,1.63,8.19,7.52,8.95-2.74,3.11-5.48,1.91-7.81,2-4,.2-7.94.07-11.91.05-.86,0-2,.28-2.11-1.11s1-1.3,1.93-1.57c1.9-.58,5.12-.07,5.22-2.43.16-3.87-.79-7.81-1.49-11.67-.26-1.44-1.8-1.05-2.86-1.07-1.89-.05-3.86.33-5.66-.08-8.35-1.86-12.23,2.82-15.1,9.61-1.2,2.83-1.4,4.57,2.12,5.32C149.62,450.89,151.25,450.51,151.87,452.84Z"/>
  <path class="cls-6" d="M537.86,418.46c-1.91,8.17-3.79,16-5.58,23.93-1.57,6.92-.74,7.86,6.39,7.57-4.14,4.94-10.22,5.45-13.81.87-1-1.33-1.42-2-2.83-.75-4.92,4.29-10.29,6.89-16.25,2.24-5.56-4.35-5.2-10.68-4.07-16.71,2.48-13.31,14.54-20.77,27.5-16.89C532.26,419.64,534.62,417.32,537.86,418.46Z"/>
  <path class="cls-7" d="M259.58,439.5c.19-12.58,9.69-22.44,21.46-22.29,8.6.11,13.95,6.06,13.66,15.17-.39,12-10.18,22.22-21.33,22.25C265,454.65,259.44,448.58,259.58,439.5Z"/>
  <path class="cls-7" d="M336.86,452.87H314.13l-1.3-1.46c12.27.7,10.68-8.52,12.53-15.05,1.95-6.9,3.19-14,5-20.93,1.37-5.29,3.28-10.54-4.92-12.39h22.8a4.7,4.7,0,0,1-.18,1.1c-7.27.55-9.15,5.39-10.23,11.68-1.45,8.36-3.72,16.58-5.66,24.85C330.28,448.71,330.26,448.7,336.86,452.87Z"/>
  <path class="cls-7" d="M622.14,440.4c.08-13.66,10.56-24.19,23-23.16,3.63.3,6.74,1.48,7.84,5.33a8.59,8.59,0,0,1-3.16,9.59c-4.24,3.43-9.47,4.37-14.57,5.72-2.1.55-6-1-5.7,3.39s1.85,8.25,6.86,9.09c4.43.75,8-1,11.15-4.19.8-.82,1.59-3.44,3.29-1.58,1.27,1.39-.73,2.57-1.66,3.49-4.46,4.39-9.66,7.38-16.17,6.46C625.82,453.51,622.09,448.48,622.14,440.4Z"/>
  <path class="cls-8" d="M409.28,417.24a12.88,12.88,0,0,1,7.1,1.44c1.82,1,2.86,2.39,2.56,4.58a3.25,3.25,0,0,1-2.8,3.09,3.87,3.87,0,0,1-4.52-2.59c-1.15-2.93-2.64-4.94-6.22-4-2.78.74-4.72,2.27-5.24,5.24-.54,3.13,1,5,3.74,6.13,2.43,1,4.94,1.89,7.26,3.13,6.7,3.57,7.51,11.2,1.82,16.33-5.15,4.65-14.86,5.47-20.69,1.74-2-1.3-3.56-3-2.92-5.57a3.42,3.42,0,0,1,3.19-2.79,4.32,4.32,0,0,1,4.62,3.39c1.28,4.1,4.1,5,7.95,4.2,3.43-.69,5.32-2.74,5.64-6.13.38-4.08-2.58-5.48-5.69-6.67-.7-.27-1.38-.61-2.08-.88-4.92-1.93-9.65-4.11-8.79-10.69.68-5.16,6.05-9.41,12.24-10C407.39,417.17,408.33,417.24,409.28,417.24Z"/>
  <path class="cls-8" d="M588.14,439.56c.14-13.31,10.6-23.67,22.46-22.25,6,.71,9.15,4.3,8.2,9.26-.58,3-2.33,4.92-5.53,4.2-3.43-.77-2.87-3.28-2-5.84,1.41-4.34-.17-6.06-4.74-5.21a10.63,10.63,0,0,0-7.09,5.21,26,26,0,0,0-3.7,16.24c.29,3.83,1.66,7.18,5.29,8.72s7.43.49,10.6-2a43.61,43.61,0,0,0,3.22-3.16c.51-.49,1-1.11,1.84-.52,1.18.77.56,1.42.08,2.28-2.83,5.07-12.65,9.31-18.27,7.83C591.35,452.48,588.05,447.76,588.14,439.56Z"/>
  <path class="cls-7" d="M241.38,421.76c-1.74,0-2.85.06-4,0s-2.55.28-2.34-1.48a2,2,0,0,1,2.48-1.71c4.93,1,5.43-2.47,6.1-5.87A9.92,9.92,0,0,1,244.8,409c1.16-1.65,3.2-1,4.71-.71,2.43.45.92,2.42.75,3.64a58.16,58.16,0,0,1-1.5,6c2.56,1.17,5,.38,7.41.63,1.05.11,2.47-.25,2.27,1.55-.11,1.08-.93,1.55-2,1.65a1.83,1.83,0,0,1-.57,0c-8.38-2.06-9.31,3.74-10.38,9.65-.7,3.88-1.92,7.67-2.68,11.55-1.19,6.09-.08,7.29,6.24,7.21.91,0,1.82,0,2.91,0-2.64,3.45-9.69,5.23-13.47,3.52-4.9-2.22-3.17-6.32-2.43-9.83C237.62,436.68,239.49,429.57,241.38,421.76Z"/>
  <path class="cls-9" d="M444.77,448.73c-1.77,3.34-5.11,4.3-8.33,5.15-7.08,1.88-11.64-2.28-10.34-9.49.9-5,2.25-9.91,3.4-14.86,1.65-7.19,1.26-7.71-7.44-7.9,4.5-3.2,8.25-5.13,12.58-3.43,4.61,1.83,3,5.87,2.23,9.3-1,4.59-2.28,9.13-3.32,13.72-.62,2.76-1.35,5.77,1.21,7.92s5.32.64,7.91-.52c.68-.31,1.4-.52,2.11-.78.25.2.33.4.25.59S444.86,448.73,444.77,448.73Z"/>
  <path class="cls-10" d="M365.52,421.74c4-4.32,8.11-5.23,12.46-4.37,4.58.89,5.93,4.49,5.12,8.67-.93,4.81-2.33,9.53-3.56,14.28-2.17,8.39-1.93,8.79,6.82,9.82-3.41,2.93-7,4.28-11,3.61s-5-3.78-4.16-7.34c1.12-4.78,2.56-9.48,3.8-14.22C377.42,423,375.49,420.6,365.52,421.74Z"/>
  <path class="cls-8" d="M211.89,448.81c-1.41,2.17-3.6,3.24-5.87,4.19-3.66,1.53-7.36,2.23-10.73-.44s-2.86-6.27-2-9.9c1-4.21,2-8.44,3-12.66,1.84-7.59,1.55-8-6.36-8.51a11.5,11.5,0,0,1,10.19-3.74c3.91.36,4.77,3.33,4.09,6.69-1.11,5.54-2.4,11.05-3.71,16.55-.7,3-1.81,6.06,1.23,8.29,2.73,2,5.4.41,8-.79l2.06-.93a.8.8,0,0,1,.35.81C212.06,448.67,212,448.81,211.89,448.81Z"/>
  <path class="cls-8" d="M563,421c1.59-1,3.06-2.3,4.78-2.93,3.43-1.26,7-1.81,10.22.7,3.05,2.38,2.56,5.76,1.93,8.89-.88,4.43-2.18,8.78-3.29,13.16-2.1,8.31-1.7,8.88,6.33,8.93-2.51,3.33-8.21,5.27-11.5,3.74-4.45-2.07-3.26-5.92-2.51-9.36,1-4.6,2.45-9.1,3.57-13.67,1.92-7.81-.42-10.18-8.28-8.51C563.1,422.6,563,421.91,563,421Z"/>
  <path class="cls-9" d="M563,421l1.25.95c-4.38,2.52-6.5,6.27-7.3,11.31-.91,5.76-2.92,11.33-4,17.07-.71,3.95-3.47,3.06-5.59,2.73-2.91-.44-1-2.61-.75-4,1.37-6.27,2.87-12.51,4.32-18.76,1.79-7.73,1.39-8.33-6-8.95,5.15-5.19,10-5.3,14,.13C561.16,424.28,561.62,420.2,563,421Z"/>
  <path class="cls-10" d="M485.69,422.67c-4.29,3-5.84,7.48-6.75,12.41s-2.47,9.86-3.27,14.86c-.56,3.43-2.58,3.83-5.21,3.43-3.73-.56-1.57-3.11-1.24-4.7,1.27-6.26,2.87-12.46,4.2-18.71,1.67-7.87,1.56-7.94-5.87-8.51,5-5.36,9.55-5.12,13.83.77,1.36,1.86,2.13-.57,3.25-.36C485.61,421.31,485.67,422,485.69,422.67Z"/>
  <path class="cls-9" d="M347.78,421.47c4.89-5.32,9.72-4.69,14.34-.33,3.08,2.91.8,3.28-.12,5.26-1.42,3-2,6.41-2.81,9.67-1.06,4.21-2.22,8.42-2.93,12.69-.56,3.44-2,5.18-5.59,4.4-4.29-.92-1.15-3.78-.89-5.26,1.05-6.13,2.84-12.13,4.14-18.22C355.61,421.8,355.52,421.78,347.78,421.47Z"/>
  <path class="cls-11" d="M444.77,448.73a5.29,5.29,0,0,0,0-.89c4.05-4.44,3.65-10.43,5.35-15.68a46.74,46.74,0,0,0,2.41-10.42c.32-4,3-4.23,5.49-3.84,3.39.53,1.32,3.1,1,4.76-1.44,6.41-3.07,12.79-4.57,19.2-1.68,7.19-.87,8.21,6.3,8.23-4.65,5.34-10.57,5.12-14-.44C446.35,449.14,445.42,449,444.77,448.73Z"/>
  <path class="cls-10" d="M211.89,448.81c0-.41-.07-.83-.1-1.25,4.24-4.83,3.7-11.26,5.6-16.87a44.59,44.59,0,0,0,2.16-9.36c.45-4.05,3.52-3.88,5.82-3.41,3,.62.82,3,.49,4.5-1.47,6.62-3.14,13.2-4.67,19.81-1.57,6.8-.53,8,6.34,7.64-3.59,5.37-10.66,5.4-13.85.11C213.35,449.43,212.5,449.19,211.89,448.81Z"/>
  <path class="cls-12" d="M343.69,266.25c-3.28,2.36-6.52-.28-9.83-.11-11.6.6-23.25-.54-34.86.67-.23,0-.53-.47-.8-.73,0-2.77,2.1-2.12,3.66-2.12,13,0,26.07,0,39.11,0C342.21,264,345.09,262.76,343.69,266.25Z"/>
  <path class="cls-13" d="M442.87,198.18c1.25,2.07,3.17,2.25,5.37,2.23,8.7-.09,17.4-.21,26.09.06,3,.09,4.45-1.19,5.63-3.46,2,3.94,1.87,5.85-3.59,5.67-11.83-.4-23.67-.13-35.55-.13C440.23,200.36,442,199.47,442.87,198.18Z"/>
  <path class="cls-14" d="M332.4,364c11.22,0,22.43,0,33.65,0,2.71,0,5.37.14,7.26-2.3,1.85,2.33.86,3.95-1.65,4-12.77.14-25.53,0-38.3,0C332.45,365.59,332.28,364.76,332.4,364Z"/>
  <path class="cls-15" d="M164.33,362.83c4.1,2.09,8.51.95,12.76,1.05,7.71.19,15.42.05,23.21.05-.39-2.1-2.56-.38-3.38-2l2.77-.38c1.32.1,3.25-.93,3.38,1.55.12,2.23-1.27,2.78-3.28,2.77q-16.65-.06-33.3,0C164.2,365.88,163.31,365.08,164.33,362.83Z"/>
  <path class="cls-16" d="M485.69,422.67l-1.06-.81a11,11,0,0,1,5.19-4c2.47-1.12,5.12-1.33,7.35.71s1.75,4.43,1.19,6.81c-.66,2.82-2.63,4.09-5.45,3.49-3-.64-3.08-2.84-2.27-5.24.29-.87,1-1.64.1-2.77Z"/>
  <path class="cls-17" d="M383.49,265.11c-3.62,2.34-7.64.95-11.45,1.07-6.07.18-12.15-.12-18.23-.22,0-1.4.75-1.92,2.11-1.91,8.8.05,17.59.05,26.39.12C382.7,264.18,383.09,264.79,383.49,265.11Z"/>
  <path class="cls-18" d="M231,361.56l5,.38c-1.41,1.73-3.61-.1-4.93,2,11.67,0,23.08-.24,34.47.18,2.65.1,1.23-3.32,3.46-2.56,1.61,3,1.43,3.94-1.29,4-12.45.17-24.9.11-37.36.13-1,0-2.09-.16-2-1.37C228.57,362.87,228.68,361,231,361.56Z"/>
  <path class="cls-19" d="M277.51,361.51l6,.39v.67l-5.35.39v1c9.67,0,19.35-.17,29,.08,4.22.11,8.61-1.32,12.66,1q-21.21.19-42.42.37c-1,0-2.57.31-2.63-1.29S275.37,361.06,277.51,361.51Z"/>
  <path class="cls-20" d="M661.6,418.6l1.2-.18c1.66.12,3.42-.23,4.76,1.18,5.28.6,3.35,5.17,4.44,8.08-1,1.08-1.55,2.78-3.53,2.45a6,6,0,0,1-2.72-4.44,2.33,2.33,0,0,0-2-2.53,6.47,6.47,0,0,1-2-.94,3.33,3.33,0,0,1-.69-1.38A4.5,4.5,0,0,1,661.6,418.6Z"/>
  <path class="cls-21" d="M204.17,330c-.42-.56-.24-1.18.36-1.18q17.07-.06,34.16,0c.15,0,.41.15.42.25a5.13,5.13,0,0,1-.07.95Q221.61,330.67,204.17,330Z"/>
  <path class="cls-22" d="M666.38,425.34l2.3,4.6c.27,1.1-.46,1.43-1.28,1.7-1.46,1-3,1.46-4.62.42l-.92-1.14a1.15,1.15,0,0,1-.38-1.36c1.14-1.43,1.24-3.46,2.72-4.69A1.89,1.89,0,0,1,666.38,425.34Z"/>
  <path class="cls-23" d="M539.18,319.68a21,21,0,0,1,0,14.68A35.77,35.77,0,0,1,539.18,319.68Z"/>
  <path class="cls-24" d="M168.63,274.53c.13-2,.27-4,.42-6.25,1.24,1.2.79,2.34.85,3.37.24,3.55-1.41,8.7,5.56,6.32.07.37.15.73.23,1.09C169.26,281.59,168.43,281.06,168.63,274.53Z"/>
  <path class="cls-25" d="M662.07,429.42l-.21,1.5c-1.44-.52-2.36-1.41-2.24-3.07a3.82,3.82,0,0,1,0-5.07l-.06-.51c.23-1.27.89-1.94,2.26-1.62l.11,1.37C663.55,424.45,663.29,426.93,662.07,429.42Z"/>
  <path class="cls-26" d="M119.56,361.49c1.19.41,2.63-.35,4,1.06H107.27c1.29-1.42,2.74-.65,3.92-1.05Z"/>
  <path class="cls-13" d="M659.31,276.37c-.56,3.89-2.82,6.08-6.66,6.7A22.28,22.28,0,0,1,659.31,276.37Z"/>
  <path class="cls-27" d="M142.67,238.91c2.5-1.13,5.08-2.65,6.41,1.42Z"/>
  <path class="cls-28" d="M451.73,341.25c1.45,2.57,2.16,5-1.27,6.66Q451.11,344.58,451.73,341.25Z"/>
  <path class="cls-28" d="M367.6,286.72c1.64,2.29,2.08,4.31-1.25,5.46A10.38,10.38,0,0,1,367.6,286.72Z"/>
  <path class="cls-29" d="M418.71,366.27c2.23-1.09,4.45-2.93,6.77-.16A9.31,9.31,0,0,1,418.71,366.27Z"/>
  <path class="cls-28" d="M477.93,289.8c-.28.5-.95,1.65-1,1.18a54.48,54.48,0,0,1,.09-7.66.92.92,0,0,1,.49-.06,2,2,0,0,1,.45.33Z"/>
  <path class="cls-30" d="M667.56,419.6c-1.61-.28-3.46.38-4.75-1.18C664.81,417.09,666.76,416,667.56,419.6Z"/>
  <path class="cls-31" d="M659.6,422.78l0,5.07c-2.23.26-2.35-1.22-2.35-2.81S657.87,422.55,659.6,422.78Z"/>
  <path class="cls-32" d="M667.5,431.32l1.18-1.38,3.32-2.26c-.42,2.54-1.56,4.4-4.42,4.61-.32-.19-.44-.4-.36-.62S667.4,431.32,667.5,431.32Z"/>
  <path class="cls-33" d="M184.75,236.7c-2.32-.64-4.77,1.27-7-.35C180.13,235,182.54,233.92,184.75,236.7Z"/>
  <path class="cls-34" d="M87.93,249.14c.25,2.56-.4,3.1-3.14,2.62Z"/>
  <path class="cls-15" d="M256.35,342.14l-.56,4.81c-.77-3.13-1.27-5.08.39-6.83C256.24,340.79,256.29,341.47,256.35,342.14Z"/>
  <path class="cls-35" d="M661.8,420.65l-2.26,1.62c-1.55-2.48,1-2.64,2.06-3.67C661.67,419.28,661.74,420,661.8,420.65Z"/>
  <path class="cls-36" d="M245,269.52l-.44,4.41c-1-2.48-1.13-4,.32-5.37A.79.79,0,0,1,245,269.52Z"/>
  <path class="cls-37" d="M107.46,368.42a3.91,3.91,0,0,1,5.61,0Z"/>
  <path class="cls-37" d="M132.69,365.19l-3.74-.47c2.75-.91,4.27-1.26,5.69.16Z"/>
  <path class="cls-37" d="M58.7,295.82c1.38,1.37,1.26,2.91.56,4.64-1.14-1.14-.38-2.49-.71-3.63A.88.88,0,0,1,58.7,295.82Z"/>
  <path class="cls-15" d="M254.05,327.44c-.12,1.19-.24,2.39-.45,4.44-1-2.52-1.14-4.07.35-5.4A.8.8,0,0,1,254.05,327.44Z"/>
  <path class="cls-38" d="M667.5,431.32a4.49,4.49,0,0,0,.08,1c-1.66,1.27-3.29,1.67-4.8-.23Z"/>
  <path class="cls-37" d="M251.87,313.62c-.13.87-.27,1.74-.57,3.72-.81-2.71-1.25-4.25.35-5.62Z"/>
  <path class="cls-36" d="M492.22,262.69l4.69.5c-2.56.95-4.09,1.32-5.47-.35A.52.52,0,0,1,492.22,262.69Z"/>
  <path class="cls-36" d="M520.81,285.87c.14-.87.29-1.73.6-3.61.78,2.62,1.21,4.16-.39,5.54Z"/>
  <path class="cls-28" d="M184.67,311.68h-3.23c1.1-.46,2.36-3.51,3.24,0Z"/>
  <path class="cls-39" d="M719.68,310.36c-2.21,10.49-4.57,20.93-10.07,30.33-7.45,12.71-17.37,21.72-33,22.17-1.07.61-2.12.86-3.08-.2-12.59-3-18.66-11.73-19.9-23.84-2.18-21.24,2.3-41,15.47-58.18a33.56,33.56,0,0,1,19.53-12.78c14.58-3.36,25.93,3.52,29.92,17.91,2.16,7.82,1.17,15.77,1.28,23.67.32.25.41.46.27.65S719.81,310.36,719.68,310.36Z"/>
  <path class="cls-37" d="M721.82,293.69v10.87l-.5,0V293.83Z"/>
  <path class="cls-28" d="M673.49,362.66l3.08.2c-1.05,1.43-2.56,1-4,1-.17,0-.34-.38-.52-.58Z"/>
  <path class="cls-28" d="M719.68,310.36a.68.68,0,0,1,.11-.92c1.5,1.34,1.36,2.88.38,5.28C720,312.78,719.82,311.57,719.68,310.36Z"/>
  <ellipse class="cls-40" cx="485.17" cy="363.37" rx="5.59" ry="0.38"/>
  <path class="cls-37" d="M586.57,362.59h-6.39V362h6.5Z"/>
  <path class="cls-37" d="M595.25,265.07l6.13.33C598.58,266.64,596.68,266.12,595.25,265.07Z"/>
  <path class="cls-37" d="M553.35,328.08c-.73-1.75-.83-2.91,0-4.09C554.15,325.17,554,326.33,553.35,328.08Z"/>
  <path class="cls-41" d="M238.14,316.2c.54,8.41.54,8.41-8.33,8.41H206.88c8.61-13.74,16.67-26.63,25.39-40.55,2,11.1,3.9,21.13,5.76,31.16.34.18.47.38.39.61S238.24,316.2,238.14,316.2Z"/>
  <path class="cls-21" d="M237.72,326.16H208.65v-.53H237.9Z"/>
  <path class="cls-28" d="M238.14,316.2a.82.82,0,0,1-.11-1c.11-1.19.23-2.38.43-4.43C239.45,313.31,239.59,314.85,238.14,316.2Z"/>
  <path class="cls-42" d="M153.57,433c4.38-7,8.12-13,12.65-20.22,1.16,6.72,2,12.12,3.05,17.49.5,2.65-1,2.76-2.88,2.74C162.49,433,158.58,433,153.57,433Z"/>
  <path class="cls-43" d="M508.35,440.36c.22-6.67,2.29-13.18,7.85-18.07,3-2.63,6.61-3.84,10.39-1.66s2.62,5.83,1.91,9.11c-1,4.4-2.12,8.75-3.17,13.13-1.24,5.16-5.2,7.25-9.81,7.94S508.35,447.65,508.35,440.36Z"/>
  <path class="cls-44" d="M287.12,430.5c-.17,7.23-1.21,12.74-4.95,17.35-2.51,3.08-5.65,5.12-9.85,4-4.52-1.19-5.32-5-5.53-8.88a32.28,32.28,0,0,1,2.64-14.88c2.67-6.07,7.43-9.46,12.06-8.19C287.88,421.67,287,427.11,287.12,430.5Z"/>
  <path class="cls-45" d="M646.9,424.66c-.18,5.89-10.28,13-16,11.33-1.3-.39-1-1.25-1-2.14.15-4.69,5.42-12.13,9.72-13.71C644.19,418.48,647,420.26,646.9,424.66Z"/>
  <path class="cls-46" d="M662.07,429.42c-.05-2.47-.11-4.93-.16-7.4l2.09.05a2.18,2.18,0,0,1,.13,3.24C663.25,426.58,665.66,429.5,662.07,429.42Z"/>
  <path class="cls-47" d="M664.13,425.31c0-1.08-.09-2.16-.13-3.24,2.31,0,3.73.62,2.38,3.27Z"/>
</svg>
