<svg id="Layer_1" data-name="Layer 1" xmlns="http://www.w3.org/2000/svg" viewBox="0 0 792 612">
  <defs>
    <style>
      .cls-1 {
        fill: #297bb6;
      }

      .cls-2 {
        fill: #fafcfd;
      }

      .cls-3 {
        fill: #5f99c7;
      }

      .cls-4 {
        fill: #2c7cb7;
      }

      .cls-5 {
        fill: #5996c5;
      }

      .cls-6 {
        fill: #2e7eb8;
      }

      .cls-7 {
        fill: #5a96c5;
      }

      .cls-8 {
        fill: #488cbf;
      }

      .cls-9 {
        fill: #478bbf;
      }

      .cls-10 {
        fill: #5392c3;
      }

      .cls-11 {
        fill: #2d7db7;
      }

      .cls-12 {
        fill: #fff;
      }

      .cls-13 {
        fill: #448abe;
      }

      .cls-14 {
        fill: #4c8ec1;
      }

      .cls-15 {
        fill: #5b96c5;
      }

      .cls-16 {
        fill: #4f90c2;
      }

      .cls-17 {
        fill: #ecf2f8;
      }
    </style>
  </defs>
  <path class="cls-1" d="M206.74,348.88c-3.65-.14-8.05.27-12.43-.44-8.85-1.42-13.13-7.59-11.22-16.24a43.81,43.81,0,0,1,3.48-9.39Q197.31,300.43,208,278c3.26-6.79,8.12-11.79,15.76-13.52a23.6,23.6,0,0,1,4.72-.63c9.35-.15,18.73-.59,28.06.19,9,.75,13.1,6.86,10.76,15.65-1.37,5.16-4,9.78-6.29,14.57-5.88,12.55-12,25-17.72,37.6-5.31,11.74-14.44,17-27.1,17Z"/>
  <path class="cls-1" d="M385.94,310.1c5.18,4.89,5.82,8.06,3.24,14.94-2.77,7.39-6.42,14.45-8.43,22.12a1.52,1.52,0,0,1-1.72,1.36c-6.16,0-12.33,0-18.8,0,2.43-7.14,5.34-13.75,8.3-20.35a17.62,17.62,0,0,0,2-6.62c.12-3.74-1.89-6-5.69-6-3.27-.07-7-.93-9.7.31s-3.15,5.39-4.52,8.29q-5.28,11.07-10.31,22.27a3.07,3.07,0,0,1-3.31,2.19c-5.77-.12-11.55-.05-17.73-.05,2.25-4.79,4.31-9.23,6.41-13.66q16.19-34.15,32.33-68.32a3.55,3.55,0,0,1,3.8-2.37c11.6.09,23.21,0,34.82.06a19.55,19.55,0,0,1,3.34.26c8.5,1.45,12.54,7.4,10,15.57A101.15,101.15,0,0,1,399.72,302c-2.47,4.11-6.54,6.25-11.17,7.35A5.78,5.78,0,0,0,385.94,310.1Z"/>
  <path class="cls-1" d="M105.07,348.53l14.18-30c8.16-17.22,16.36-34.43,24.45-51.69.91-1.94,1.89-2.75,4.16-2.72,11.32.14,22.65.06,34,.06H183c10.94.2,16,7.35,12.33,17.62a133,133,0,0,1-8.88,18.92c-2.61,4.75-6.93,7.42-12.21,8.6l-2.79.65c6.11,4.18,5.83,9.44,3.59,15.26-2.8,7.28-6.4,14.26-8.34,21.86a1.65,1.65,0,0,1-1.94,1.45c-5.61,0-11.23-.05-16.85,0-2,0-1.51-.94-1.08-2.09,2.33-6.27,5-12.43,7.73-18.52a16.83,16.83,0,0,0,1.91-6.36c.14-3.72-1.88-6-5.65-6.11-2.62-.1-5.25.09-7.87-.07-1.86-.11-2.76.5-3.54,2.25-4.26,9.5-8.75,18.9-13,28.4a3.61,3.61,0,0,1-4,2.5C116.78,348.44,111.17,348.53,105.07,348.53Z"/>
  <path class="cls-1" d="M313.22,293.18c1.49-3.26,2.8-6.11,4.11-9,2.36-5.1,1.78-6-3.76-6-2.62,0-5.25.12-7.87,0-3.71-.21-5.88,1.56-7.4,4.77-5.87,12.35-11.85,24.64-17.78,37-1.37,2.85-2.81,5.67-4,8.59-1.29,3.14-.43,4.43,2.88,4.48,3.93.06,7.87,0,11.8,0a4.9,4.9,0,0,0,4.73-2.91c2.18-4.5,4.31-9,6.71-14.09-3.17,0-5.91,0-8.64,0-1.52,0-1.8-.42-1.14-1.77,1.79-3.68,3.51-7.4,5.25-11.1a2,2,0,0,1,1.9-1.35c9.53,0,19.05,0,29.08,0-1.79,4-3.31,7.33-4.85,10.69-3.5,7.6-7.09,15.17-10.51,22.81-3.76,8.42-9.89,13.37-19.42,13.51-8.6.12-17.23.66-25.81-.31-10.37-1.18-15-7.93-12.66-18.06a37.55,37.55,0,0,1,2.84-7.55q10.39-21.78,20.79-43.57c4.9-10.31,13.12-15.45,24.51-15.49,7.86,0,15.73-.39,23.58.32a21.71,21.71,0,0,1,2.76.44c7.33,1.72,10.2,6.09,8.55,13.34-1.18,5.11-3.92,9.62-6.05,14.36a1.51,1.51,0,0,1-1.54,1Z"/>
  <path class="cls-1" d="M96.72,264.22h16.85a18.35,18.35,0,0,1,6.86,1.17C126,267.64,128.5,273.2,127,280a44.74,44.74,0,0,1-3.39,8.83C121.38,293.6,119,298.23,117,303c-4.62,11.1-12.91,16.38-24.92,16.2-6.08-.09-12.17.07-18.25,0a3.28,3.28,0,0,0-3.59,2.23c-3.83,8.46-7.87,16.83-11.72,25.28a3.11,3.11,0,0,1-3.4,2.11c-5.15-.1-10.3-.14-15.44,0-2.49.07-2.57-.59-1.61-2.62q16.06-34,32-68.13c1.86-3.95,3.76-7.89,5.52-11.88a2.93,2.93,0,0,1,3.18-2C84.75,264.29,90.73,264.22,96.72,264.22Z"/>
  <path class="cls-1" d="M613.31,335.63c1.54-.42,1.78-1.54,2.29-2.35q21-33.46,42-67a4,4,0,0,1,4-2.27c6.17.15,12.35.06,18.53.06.26,1.08-.53,1.62-1,2.25q-27.6,40-55.21,80.07a4,4,0,0,1-3.84,2.06c-8.42-.11-16.83-.05-25.49-.05l8-34.41c3.69-15.73,7.44-31.45,11-47.2.48-2.11,1.24-2.85,3.47-2.78,5.33.18,10.67.17,16,0,2.51-.08,2.69.64,2,2.82q-10.77,33.57-21.38,67.18C613.63,334.47,613.52,334.89,613.31,335.63Z"/>
  <path class="cls-1" d="M692.25,296.63c7.9,0,15.38.06,22.85,0,2.36,0,3.07.38,1.81,2.7a80.77,80.77,0,0,0-4,8.58c-.85,2.1-2,2.91-4.37,2.85-6.74-.18-13.48,0-20.22-.11-1.83,0-2.86.45-3.65,2.18-2.74,6-5.67,11.92-8.5,17.89a3.87,3.87,0,0,0-.73,2.54h30.07c-2.4,5-4.64,9.68-6.85,14.37-.41.86-1.11.86-1.87.86H648.43c-.38-1.21.41-2,.81-2.86q18.51-39.37,37-78.74a4.1,4.1,0,0,1,4.38-2.76c14.32.12,28.64.06,43.5.06-2.36,5-4.55,9.77-6.83,14.48-.45.95-1.51.54-2.3.54-7.21,0-14.42.14-21.62-.05-2.37-.06-3.44.78-4.33,2.82C697,286.78,694.64,291.51,692.25,296.63Z"/>
  <path class="cls-1" d="M461.07,296.63l-6.23,13.16c-.6,1.26-1.76.84-2.72.85-7,0-14.05.06-21.07,0a3.16,3.16,0,0,0-3.41,2.12c-2.83,6.16-5.81,12.27-8.79,18.36-.8,1.63-.67,2.22,1.38,2.19,8.52-.09,17,0,25.56-.06,1.93,0,2.57.31,1.57,2.27-1.89,3.73-3.67,7.53-5.4,11.34a2.39,2.39,0,0,1-2.53,1.64q-23.6-.06-47.19,0a5.45,5.45,0,0,1-.84-.14c-.26-1.13.47-2,.89-2.85q18.58-39.51,37.19-79c.6-1.27,1-2.36,2.93-2.35,14.51.1,29,.06,43.54.07a6.13,6.13,0,0,1,1.07.23c-2.2,4.71-4.36,9.31-6.51,13.93-.6,1.29-1.76.83-2.7.84-7.4,0-14.8.06-22.19,0a2.93,2.93,0,0,0-3.2,2c-1.92,4.33-3.89,8.65-6.06,12.87-1.26,2.44-.36,2.69,1.87,2.66,6.55-.09,13.1,0,19.66,0Z"/>
  <path class="cls-1" d="M448.52,348.45c2.34-5,4.51-9.64,6.62-14.27.58-1.28,1.65-1,2.63-1,5.14-.13,10.29.26,15.43-.26,3.86-.4,5.86-2.08,6.3-5.87.66-5.74-.15-11.49-.31-17.24-.21-7.8-.87-15.6-.9-23.4-.06-13.57,8.28-21.93,22-22.23,7.86-.18,15.72,0,23.58-.11,1.87,0,2.61.21,1.56,2.23q-2.82,5.45-5.27,11.08a2.69,2.69,0,0,1-3,1.82c-3.74-.11-7.49-.05-11.23,0-5.8,0-8.53,2.72-8.24,8.41.52,10.49,1.18,21,1.79,31.45a36.06,36.06,0,0,1-1.23,12.42c-2.82,9.49-9.16,15.24-19.09,16.47S459,348.09,448.52,348.45Z"/>
  <path class="cls-1" d="M496.44,348.36c2.28-4.9,4.44-9.41,6.48-14,.57-1.26,1.5-1.18,2.53-1.19,4.77,0,9.55.15,14.3-.18,5.51-.38,7.59-2.64,7.42-8.06-.34-11.23-.87-22.46-1.44-33.69a39.58,39.58,0,0,1,.57-10.82c2.13-9.36,8.84-14.86,19.69-16.17a47.31,47.31,0,0,1,5.33-.17c7.37,0,14.74,0,22.55,0-2.35,4.92-4.56,9.5-6.72,14.11-.53,1.13-1.48,1-2.39,1H553.53c-6.07,0-8.57,2.42-8.33,8.53.34,8.82.93,17.62,1.42,26.44.3,5.29.67,10.58-.63,15.81-2.75,11.09-10.67,17.89-22.13,18.34C514.9,348.63,505.91,348.36,496.44,348.36Z"/>
  <path class="cls-1" d="M557.57,348.43c-2.71,0-5.43-.1-8.14,0-2.09.11-2.1-.55-1.32-2.17q8.6-18,17.09-36,10.39-21.92,20.72-43.85c.82-1.75,1.73-2.49,3.74-2.42,5.05.16,10.11.05,15.16.05,3.12,0,3.13,0,1.84,2.72q-11.5,24.16-23,48.31c-5,10.4-9.94,20.79-14.83,31.22-.73,1.56-1.57,2.26-3.36,2.15C562.82,348.32,560.19,348.43,557.57,348.43Z"/>
  <path class="cls-2" d="M742.36,276.35l-.65-.57c-.18-1.81-1.47-3.49-.68-5.42A6.92,6.92,0,0,1,743,266.9l-.05.05a8.63,8.63,0,0,1,2.51-1.41,5.07,5.07,0,0,1,2.86-.13c.64.18,1.35.1,1.89.59a7.53,7.53,0,0,1,2.85,2.52l.6,1c0,1.85.24,3.75-.76,5.47a8.8,8.8,0,0,1-2.68,2.58,1.07,1.07,0,0,0-1.06.53,13,13,0,0,1-3.79-.21A16.39,16.39,0,0,1,742.36,276.35Z"/>
  <path class="cls-3" d="M752.41,275.25c1.1-1.77.26-3.94,1.22-5.75a5.1,5.1,0,0,1-.64,5.78C752.79,275.52,752.59,275.49,752.41,275.25Z"/>
  <path class="cls-4" d="M741.3,270.33c-.71,1.88,1.16,3.57.41,5.45a6.61,6.61,0,0,1-.87-6.54C741.82,269.26,741.51,269.82,741.3,270.33Z"/>
  <path class="cls-5" d="M745.18,277.58a7.23,7.23,0,0,1,4,.5,3.13,3.13,0,0,1-3.93,0c-.2-.1-.26-.2-.21-.31S745.12,277.58,745.18,277.58Z"/>
  <path class="cls-6" d="M748.57,265.73l-3.25.18c-.54.22-.71,0-.62-.52,1.28-.39,2.54-1,3.89-.19.18.12.24.24.17.36S748.63,265.73,748.57,265.73Z"/>
  <path class="cls-7" d="M741.3,270.33l-.46-1.09c.38-1.07.75-2.16,2.13-2.34C742.41,268,741.86,269.19,741.3,270.33Z"/>
  <path class="cls-8" d="M753,268.52c-1.18-.39-1.82-1.46-2.75-2.17a.61.61,0,0,1,.49-.41A3.21,3.21,0,0,1,753,268.52Z"/>
  <path class="cls-9" d="M752.41,275.25l.58,0c-.55,1.23-1.3,2.21-2.8,2.27A7,7,0,0,1,752.41,275.25Z"/>
  <path class="cls-1" d="M745.18,277.58a1.85,1.85,0,0,0,0,.47,3.47,3.47,0,0,1-2.84-1.7C743.61,276.07,744.3,277,745.18,277.58Z"/>
  <path class="cls-10" d="M744.7,265.39l.62.52a3.83,3.83,0,0,1-2.4,1A2,2,0,0,1,744.7,265.39Z"/>
  <path class="cls-11" d="M750.77,265.94l-.49.41-1.71-.62c0-.18,0-.35,0-.53A3.05,3.05,0,0,1,750.77,265.94Z"/>
  <path class="cls-12" d="M211.65,333.12c-1.6,0-3.2.1-4.78,0-3-.24-3.9-1.57-2.76-4.29,1.91-4.54,4-9,6.14-13.44,4.87-10.45,9.86-20.85,14.62-31.35,1.89-4.15,4.64-6.29,9.36-5.88,2.69.23,5.43,0,8.14.05,3.31.07,4.28,1.44,2.94,4.47-2.1,4.76-4.38,9.44-6.6,14.15q-6.66,14.13-13.35,28.25C221.78,332.62,220.84,333.15,211.65,333.12Z"/>
  <path class="cls-12" d="M361.34,301.36l5-10.81c1.55-3.37,3.15-6.72,4.62-10.12a2.69,2.69,0,0,1,2.89-2c4.2.11,8.41,0,12.61.05,2.79,0,3.93,1.36,2.89,3.94a100.4,100.4,0,0,1-7.67,15.74,6.7,6.7,0,0,1-5.68,3.12C371.27,301.46,366.53,301.36,361.34,301.36Z"/>
  <path class="cls-12" d="M166.18,278.29c2.06,0,4.12-.08,6.18,0,2.68.14,3.83,1.42,2.92,3.79a89.45,89.45,0,0,1-7.88,16.27c-1.35,2.11-3.68,2.83-6.11,2.88-4.12.1-8.24,0-12.35.11-1.45,0-1.55-.5-1-1.65q4.83-10.06,9.58-20.15a2.06,2.06,0,0,1,2.2-1.3c2.15.06,4.31,0,6.46,0Z"/>
  <path class="cls-12" d="M78.22,304.29c3-6.43,6.34-12.39,8.51-18.75s5.66-8.68,12.07-7.48c1.53.29,3.18,0,4.76.09,2.67.19,3.83,1.62,2.93,4.11a126.51,126.51,0,0,1-9.07,19.11,5.74,5.74,0,0,1-4.9,2.87C87.88,304.39,83.23,304.29,78.22,304.29Z"/>
  <path class="cls-13" d="M745.84,272c-.33,1,.25,2.23-1.2,3.23v-7.14a1,1,0,0,1,1.14-.19,1.73,1.73,0,0,1,.45.65,4.33,4.33,0,0,1,0,2.26C746.14,271.21,745.64,271.49,745.84,272Z"/>
  <path class="cls-14" d="M750.15,268.93c1.37,1.58.5,2.37-1,2.94a1,1,0,0,1-.31-.64,4.5,4.5,0,0,1,.68-2.07A.9.9,0,0,1,750.15,268.93Z"/>
  <path class="cls-11" d="M749.1,271.18v.69l-.52.61c.26.59,0,.66-.52.55a2,2,0,0,0-2.23-1c-.44-.23-.42-.45,0-.67A2.67,2.67,0,0,1,749.1,271.18Z"/>
  <path class="cls-15" d="M748.07,273l.52-.55a6,6,0,0,1,1.7,2.89C748.7,275,748.51,273.91,748.07,273Z"/>
  <path class="cls-16" d="M750.15,268.93a.64.64,0,0,1-.27.22c-1.42.24-2.83.47-4.1-.5l0-.6a6,6,0,0,1,3.34-.15C749.62,268.07,750.13,268.25,750.15,268.93Z"/>
  <path class="cls-17" d="M749.1,267.9l-3.34.15-1.12,0C746.09,267.07,747.58,267.32,749.1,267.9Z"/>
  <path class="cls-17" d="M745.78,268.65c1.39,0,2.82-.38,4.1.5a3.23,3.23,0,0,1-.78,2l-3.24.15C745.83,270.44,745.81,269.54,745.78,268.65Z"/>
</svg>
