<svg id="Layer_1" data-name="Layer 1" xmlns="http://www.w3.org/2000/svg" viewBox="0 0 792 612">
  <defs>
    <style>
      .cls-1 {
        fill: #fff;
      }

      .cls-2 {
        fill: #b4ce82;
      }

      .cls-3 {
        fill: #9bc15c;
      }

      .cls-4 {
        fill: #81b43c;
      }

      .cls-5 {
        fill: #fafbf6;
      }

      .cls-6 {
        fill: #eef3e0;
      }

      .cls-7 {
        fill: #fafcf6;
      }

      .cls-8 {
        fill: #94bb57;
      }

      .cls-9 {
        fill: #89b648;
      }

      .cls-10 {
        fill: #cfe4a2;
      }

      .cls-11 {
        fill: #709d37;
      }

      .cls-12 {
        fill: #fdfefc;
      }

      .cls-13 {
        fill: #f9fbf3;
      }

      .cls-14 {
        fill: #f5f8ee;
      }

      .cls-15 {
        fill: #f4f7ea;
      }

      .cls-16 {
        fill: #f2f4e7;
      }

      .cls-17 {
        fill: #fafbf5;
      }

      .cls-18 {
        fill: #e8efd4;
      }

      .cls-19 {
        fill: #f7f9f0;
      }

      .cls-20 {
        fill: #82b33e;
      }

      .cls-21 {
        fill: #fbfdf8;
      }

      .cls-22 {
        fill: #83b440;
      }

      .cls-23 {
        fill: #84b53b;
      }

      .cls-24 {
        fill: #f5f8ed;
      }

      .cls-25 {
        fill: #fcfdfa;
      }

      .cls-26 {
        fill: #83b53d;
      }

      .cls-27 {
        fill: #87b540;
      }

      .cls-28 {
        fill: #f8faf3;
      }

      .cls-29 {
        fill: #d5e6b1;
      }

      .cls-30 {
        fill: #dee9c6;
      }

      .cls-31 {
        fill: #f8faf1;
      }

      .cls-32 {
        fill: #dfeac9;
      }

      .cls-33 {
        fill: #eef3df;
      }

      .cls-34 {
        fill: #e5eed0;
      }

      .cls-35 {
        fill: #85b53b;
      }

      .cls-36 {
        fill: #f3f8e9;
      }

      .cls-37 {
        fill: #f7faf0;
      }

      .cls-38 {
        fill: #dbe6c3;
      }

      .cls-39 {
        fill: #dbe9bf;
      }

      .cls-40 {
        fill: #d4e5b5;
      }

      .cls-41 {
        fill: #e2ecc8;
      }

      .cls-42 {
        fill: #d8e7bf;
      }

      .cls-43 {
        fill: #dbe9be;
      }

      .cls-44 {
        fill: #9db573;
      }

      .cls-45 {
        fill: #d7e5bc;
      }

      .cls-46 {
        fill: #adcf7c;
      }

      .cls-47 {
        fill: #d4e2b8;
      }

      .cls-48 {
        fill: #d3e3ae;
      }

      .cls-49 {
        fill: #d4e8b5;
      }

      .cls-50 {
        fill: #aece7a;
      }

      .cls-51 {
        fill: #d6e3af;
      }

      .cls-52 {
        fill: #d4e3b0;
      }

      .cls-53 {
        fill: #ebf0dd;
      }

      .cls-54 {
        fill: #f8faf2;
      }

      .cls-55 {
        fill: #f5f8ec;
      }

      .cls-56 {
        fill: #ecf2dc;
      }

      .cls-57 {
        fill: #f2f6e7;
      }

      .cls-58 {
        fill: #fbfcf7;
      }

      .cls-59 {
        fill: #f7faf1;
      }

      .cls-60 {
        fill: #f6f8ed;
      }

      .cls-61 {
        fill: #c9da9c;
      }

      .cls-62 {
        fill: #deeac7;
      }

      .cls-63 {
        fill: #d9e7bb;
      }

      .cls-64 {
        fill: #9ec162;
      }

      .cls-65 {
        fill: #b8d083;
      }

      .cls-66 {
        fill: #b6ce7d;
      }

      .cls-67 {
        fill: #7aa141;
      }

      .cls-68 {
        fill: #eaf0db;
      }

      .cls-69 {
        fill: #9fc263;
      }

      .cls-70 {
        fill: #9fc265;
      }

      .cls-71 {
        fill: #aecc79;
      }

      .cls-72 {
        fill: #7ca046;
      }

      .cls-73 {
        fill: #9cc263;
      }

      .cls-74 {
        fill: #86b441;
      }

      .cls-75 {
        fill: #9fbe61;
      }

      .cls-76 {
        fill: #9ec15c;
      }

      .cls-77 {
        fill: #9bc352;
      }

      .cls-78 {
        fill: #9cc253;
      }

      .cls-79 {
        fill: #f4f7eb;
      }

      .cls-80 {
        fill: #82b439;
      }

      .cls-81 {
        fill: #85b640;
      }

      .cls-82 {
        fill: #81b539;
      }

      .cls-83 {
        fill: #82b438;
      }

      .cls-84 {
        fill: #84b439;
      }

      .cls-85 {
        fill: #80b538;
      }

      .cls-86 {
        fill: #80b539;
      }

      .cls-87 {
        fill: #82b535;
      }

      .cls-88 {
        fill: #81b537;
      }

      .cls-89 {
        fill: #a8c974;
      }

      .cls-90 {
        fill: #7db330;
      }

      .cls-91 {
        fill: #81b331;
      }

      .cls-92 {
        fill: #7cae2d;
      }

      .cls-93 {
        fill: #81b13e;
      }

      .cls-94 {
        fill: #7fb344;
      }

      .cls-95 {
        fill: #81b634;
      }

      .cls-96 {
        fill: #d1e3af;
      }

      .cls-97 {
        fill: #7cb330;
      }

      .cls-98 {
        fill: #e9f0da;
      }

      .cls-99 {
        fill: #709f35;
      }

      .cls-100 {
        fill: #709e34;
      }

      .cls-101 {
        fill: #729c3a;
      }

      .cls-102 {
        fill: #719f35;
      }

      .cls-103 {
        fill: #739c3a;
      }

      .cls-104 {
        fill: #6fa034;
      }

      .cls-105 {
        fill: #dae7c3;
      }

      .cls-106 {
        fill: #739b3a;
      }

      .cls-107 {
        fill: #719f31;
      }

      .cls-108 {
        fill: #719e33;
      }

      .cls-109 {
        fill: #6f9f33;
      }

      .cls-110 {
        fill: #6da032;
      }

      .cls-111 {
        fill: #749b3b;
      }

      .cls-112 {
        fill: #ccdbb3;
      }

      .cls-113 {
        fill: #6ea131;
      }

      .cls-114 {
        fill: #769d3e;
      }

      .cls-115 {
        fill: #759a3c;
      }

      .cls-116 {
        fill: #fffffe;
      }

      .cls-117 {
        fill: #7bb034;
      }

      .cls-118 {
        fill: #82b53c;
      }

      .cls-119 {
        fill: #82b539;
      }

      .cls-120 {
        fill: #80b43b;
      }

      .cls-121 {
        fill: #81b53a;
      }

      .cls-122 {
        fill: #81b538;
      }

      .cls-123 {
        fill: #d3e5b2;
      }

      .cls-124 {
        fill: #78af2f;
      }

      .cls-125 {
        fill: #7bae31;
      }

      .cls-126 {
        fill: #a0c463;
      }

      .cls-127 {
        fill: #74af30;
      }

      .cls-128 {
        fill: #81b342;
      }

      .cls-129 {
        fill: #81b439;
      }

      .cls-130 {
        fill: #77af2e;
      }

      .cls-131 {
        fill: #82b335;
      }

      .cls-132 {
        fill: #85b141;
      }

      .cls-133 {
        fill: #81b344;
      }

      .cls-134 {
        fill: #86b438;
      }

      .cls-135 {
        fill: #80b330;
      }

      .cls-136 {
        fill: #80b632;
      }

      .cls-137 {
        fill: #80af2e;
      }

      .cls-138 {
        fill: #82b63c;
      }

      .cls-139 {
        fill: #82b43f;
      }

      .cls-140 {
        fill: #81b53b;
      }

      .cls-141 {
        fill: #84b43a;
      }

      .cls-142 {
        fill: #8bb845;
      }

      .cls-143 {
        fill: #87b63e;
      }

      .cls-144 {
        fill: #a8c86d;
      }

      .cls-145 {
        fill: #87b543;
      }

      .cls-146 {
        fill: #84b53c;
      }

      .cls-147 {
        fill: #7db234;
      }

      .cls-148 {
        fill: #dde8c4;
      }

      .cls-149 {
        fill: #d4e4b7;
      }

      .cls-150 {
        fill: #dbeabf;
      }

      .cls-151 {
        fill: #cde0a9;
      }

      .cls-152 {
        fill: #c9e1a6;
      }

      .cls-153 {
        fill: #7bae2b;
      }

      .cls-154 {
        fill: #7ab331;
      }

      .cls-155 {
        fill: #85b641;
      }

      .cls-156 {
        fill: #7cb12e;
      }

      .cls-157 {
        fill: #7ab02e;
      }

      .cls-158 {
        fill: #81b636;
      }

      .cls-159 {
        fill: #75af29;
      }

      .cls-160 {
        fill: #7fb433;
      }

      .cls-161 {
        fill: #83b331;
      }

      .cls-162 {
        fill: #abcb72;
      }

      .cls-163 {
        fill: #82b53b;
      }

      .cls-164 {
        fill: #82b43e;
      }

      .cls-165 {
        fill: #83b53f;
      }

      .cls-166 {
        fill: #85b642;
      }

      .cls-167 {
        fill: #7fb739;
      }

      .cls-168 {
        fill: #7fb630;
      }

      .cls-169 {
        fill: #86b53f;
      }

      .cls-170 {
        fill: #83b53a;
      }

      .cls-171 {
        fill: #84b53d;
      }

      .cls-172 {
        fill: #8ab644;
      }

      .cls-173 {
        fill: #e2edc9;
      }

      .cls-174 {
        fill: #dfebc7;
      }

      .cls-175 {
        fill: #80b441;
      }

      .cls-176 {
        fill: #81b33e;
      }

      .cls-177 {
        fill: #81b438;
      }

      .cls-178 {
        fill: #77ab2e;
      }

      .cls-179 {
        fill: #84b53e;
      }

      .cls-180 {
        fill: #80b637;
      }

      .cls-181 {
        fill: #80b340;
      }
    </style>
  </defs>
  <path class="cls-1" d="M173.7,417c.73-3.44,3.79-5,6-7.1a13.09,13.09,0,0,0,3.27-4.07,43.6,43.6,0,0,1,10.46-10.27c2.17-.95,3.69-2.69,5.23-4.38a95.43,95.43,0,0,1,8.27-7.81,45.48,45.48,0,0,0,6.37-7.12,4.92,4.92,0,0,1,.63-.58,21,21,0,0,0,5.79-6.09,2.79,2.79,0,0,1,.9-.94c.89-.42,1.85-.79,2.36.41s-.31,1.84-.9,2.68c2.63-7,6.77-12.59,13.75-15.65.6-.55,1.53-.56,2.14-1.27-.68.65-1.61.73-2.21,1.36a.88.88,0,0,1-.73-1.16c.43-1.85,5.05-6.08,7-6.14,1.21,0,2.13-.27,2.48-1.4,1.18-3.86,4.26-6.28,6.84-9,2-2.13,3.83-4.4,5.81-6.54a20.43,20.43,0,0,0,1.43-2.14c.87-2,2.62-3.06,4.25-4.27,3.19-1.75,5-5.05,7.84-7.15,3-3.1,7.14-5.14,9.26-9.17a11.91,11.91,0,0,1,1.58-1.89c1.16-1.29.72-2.22-.71-2.88-4.19-3-7.41-7.06-11-10.65q-14.06-13.87-27.63-28.22c-2.29-2.41-5.19-4.23-6.82-7.26-1.15-2.72-3.7-4.17-5.61-6.19a55.25,55.25,0,0,0-7.24-6.86c-2.21-2-4.07-4.39-6.51-6.16a15.8,15.8,0,0,1-3.87-3.47c-12.57-12.17-24.73-24.76-37.26-37-.93-.91-2.64-1.6-1.81-3.5"/>
  <path class="cls-1" d="M730.22,304.43c-1.85-.15-1.73-1.7-2.07-2.92-1.29-4.68-2.88-9.23-5.91-13.13-6.3-8.82-15.34-12.79-25.68-14.39-4.39-.68-8.42.89-12.49,2.17a22.42,22.42,0,0,0-11.78,6c-4,3.79-7.6,8-9.34,13.49a7.6,7.6,0,0,1-.37.89,57.85,57.85,0,0,0-.09,38.09,6.35,6.35,0,0,0,.38.84,21.9,21.9,0,0,0,5.76,9.82,5.82,5.82,0,0,1,.52.68c1.7,2.92,4.71,4.45,7.12,6.61a20.84,20.84,0,0,0,11.64,4.8c6.38.39,12.77.9,18.9-1.56a19.21,19.21,0,0,0,3.07-2.07c1.81-.9,3.53-2,5.35-2.89,1.61-.76,3.17-1.58,3.81-3.43,1.3-2.24,3.35-4,4.46-6.36,2.36-3.38,3.35-7.37,4.86-11.13.66-.72.28-2.3,1.86-2.25"/>
  <path class="cls-2" d="M91.8,275.49l.85-1.16c.91-1.22,2.21-2.09,3-3.42,1.28-.81,2.15-2.28,3.84-2.45a11.06,11.06,0,0,0,2.71,2.44c1.4,1.33,2.48,3,3.88,4.29a91.85,91.85,0,0,1,10.07,9.95c1.89,2.14,4.14,3.93,6.08,6a8.33,8.33,0,0,1,.5.67c1.1,1.18,2,2.63,3.52,3.31,3,2.51,5.25,5.7,8.16,8.26a7.93,7.93,0,0,1,1.54,2.14,34.64,34.64,0,0,0,9.55,9.64c2.84,1.37,4.48,4.05,6.66,6.13,4.85,4.62,9.66,9.29,14.35,14.08,1.11,1.28,1.86,2.89,3.42,3.78a17.16,17.16,0,0,1,1.59,1.37c.57.6,1.39,1,1.73,1.78-.47,2.23-2.45,3.27-3.83,4.76-1.9,2.07-4,4-5.94,6-1,1-2,1.94-3,3a6.77,6.77,0,0,1-.59.61c-2.38,2-4.06,4.75-6.92,6.19a4.21,4.21,0,0,0-2.86,2.7,5.56,5.56,0,0,1-2.24,2.06c-2.11-.9-1,1-1.32,1.57-.44,1.49-1.64,2.4-2.66,3.44a27.92,27.92,0,0,0-3.86,3.75c-1.3,1.31-2.39,2.86-4.09,3.74-1.82-.5-2.68-2.07-3.78-3.37-1.14-.7-1.49-2.34-3-2.55a75.06,75.06,0,0,0-7-6.94v0a82.71,82.71,0,0,0-8.82-8.84l0,0c-2.25-3-5.37-5.06-7.89-7.77-.9-1.61-2.58-2.57-3.46-4.19q-7.62-7.63-15.23-15.26-10.9-11-21.8-22c-1-1-2.16-2-3.24-2.94v-.62a39.41,39.41,0,0,1,6.52-7.31,12,12,0,0,0,3.46-3c1.35-1.43,2.35-3.28,4.56-3.63.65.9-.07,1.48-.52,2.12,1.36-1.58,2.73-3.16,4.23-4.6.63-.6.59-.91,0-1.34,1.17-2.7,3.46-4.54,5.34-6.67S89.7,277.51,91.8,275.49Z"/>
  <path class="cls-3" d="M102,271.12c-1.5-.21-2.64-.79-2.53-2.58-.08-1.87,2-2.33,2.46-3.87,6-6.17,12.19-12.16,18.24-18.3,3.64-3.69,7.19-7.47,11-11,1,.12,1.07-1,1.69-1.33a17.67,17.67,0,0,0,4.87-5.1c1-1.35,2.45-2.36,3.2-3.93,3.35-2.21,5.9-5.29,8.67-8.11,5.25-5.35,10.54-10.65,16-15.82,2.1-2,3.47-4.77,6.28-6h1.26c.56,1.94,2.32,2.86,3.62,4.15q14.15,14.2,28.34,28.36c2.55,2.56,5.4,4.82,7.57,7.76-.37.26-.89.44-1.16.15-2.43-2.63-4.34-.84-5.83.93-3.91,4.65-8.73,8.37-12.76,12.88a59.38,59.38,0,0,0-6.47,6.12,8.31,8.31,0,0,1-.59.6,45.34,45.34,0,0,0-3,3.48c-3.86,2.48-6,6.86-9.91,9.24a2.44,2.44,0,0,1-.8.22,11.12,11.12,0,0,1-2.44-.2c-1.59-.66-2.17.66-3,1.52s-1.91,1.56-2.72,2.42c2-.64,2.55-3.09,4.62-3.66a1.62,1.62,0,0,1,1.14,1.3,2.19,2.19,0,0,1-.12.88c-1.51,1.55-3.3,2.84-4.39,4.77A89.32,89.32,0,0,0,154,287.33c-.87,1.06-1.71,2.22-3.37,1.64-.4-.14-.69-.41-.58.38.44,3.16-2.31,4.13-4.07,5.79-.76.26-1.57.08-2.34.27a.84.84,0,0,0-.4.78c.05,1.16.18,2.42-1.28,2.79s-1.51-1.12-2.33-1.77c.61,1.21,1.77,2.33.8,3.82-.85,1.31-1.95,2.16-3.62,1.76-1.17-.28-1.57,1.38-2.74,1-3.21-2.25-5.32-5.6-8.17-8.2a12.75,12.75,0,0,0-3.78-3.75h0c-1.5-2.7-3.94-4.46-6.31-6.28l-10-10.06C104.68,273.92,103.72,272.19,102,271.12Z"/>
  <path class="cls-4" d="M715.62,351.48c-1.9.73-3.41,2.25-5.47,2.66-1.27.73-2.51,1.52-3.72,2.35-5.42,1.87-11,1.77-16.65,1.67-2.37-.66-4.88-.7-7.19-1.62a23.5,23.5,0,0,0-6.35-4.31c-3.15-1.25-5.25-4-7.72-6.27l0,0c-1.78-3.56-4.71-6.4-6.25-10.11h0a65.1,65.1,0,0,1,0-40.29h0a2.2,2.2,0,0,1,1.24-.53c1,.11,1.81.46,1.59,1.49a2.86,2.86,0,0,1,3-2.83c3.84-.05,5.47-2,5.49-5.68a1.84,1.84,0,0,1,.12-.61c.27-.79.48-1.74,1.47-1.81s1,.93,1.34,1.51c.2.29,0,.84.59.9-1.61-3.38-1.61-3.38-4.41-1.65A1.88,1.88,0,0,1,671,286a2.16,2.16,0,0,1-.74-1.1,1.18,1.18,0,0,1,.66-1c1.17-.37,2.05-1.31,3.23-1.67a9.27,9.27,0,0,1,1.66.18,4.46,4.46,0,0,1,1.53.67A2.61,2.61,0,0,0,679,284c-.39-.38-.94-.28-1.26-.6a2.66,2.66,0,0,1-1.26-3.34,1.63,1.63,0,0,1,.66-.56c2.64-.51,4.2,1.51,6.13,2.66-.92-.86-.56-1.52.24-2.1,0,0,.1,0,.13-.08-.23.35,0-.18-.26.15-2.65.67-1.87-1.64-2.44-2.78.25-1.58,2-.91,2.72-1.79,8.87-4,17.34-2.25,25.88,1.4,5.59,2.4,9.68,6.3,13.19,11a.79.79,0,0,1,.08.74c-.48.2-.94.35-.4,1a2.63,2.63,0,0,1,.12,3.45c.87-.47.58-1.74,1.54-2.12,1.91,1.81,2.15,4.43,3.23,6.64.1,1.07-.39,2.34,1,2.94.44,2.15.46,4.43,1.84,6.3v17c-1.8,2.21-1.06,5.12-2.12,7.6-1.16,2.72-1.87,5.63-3.51,8.15-1.32.11-1.79,1.83-3.44,1.55,1.33,1.07,1.83-1,2.88-.42a.66.66,0,0,1-.06.8c-.9,2.48-3.13,4-4.43,6.22C718.65,349.48,716.77,350.09,715.62,351.48Z"/>
  <path class="cls-5" d="M171.81,195.05q-6.42,6.55-12.86,13.1c-4.74,4.81-9.47,9.63-14.26,14.39-1.09,1.08-2,2.41-3.61,2.87-.87-1.41,0-1.84,1.18-2.08,3-2.42,5.49-5.4,8.17-8.16.41-.85.81-1.71,1.89-1.89,1.37-.62,1.92-1.9,2.52-3.14h0a1.78,1.78,0,0,0,1.89-1.89,5,5,0,0,1,2.52-1.89c2.42-2.32,4.87-4.6,7.25-7,1.49-1.48.52-1.83-1-1.84h0a4.27,4.27,0,0,1,.62-2.52Z"/>
  <path class="cls-6" d="M170.56,417c-5.54-6.34-11.74-12-17.66-18-.88-.89-1.68-1.84-2.52-2.76a1.47,1.47,0,0,1,.75-.46c2-.08,2.92,1.45,4,2.64,4.7,5,9.65,9.84,14.57,14.66,1.65,1.61,3.07,1.75,4.83.14,2.07-1.91,4.21-3.76,6.23-5.73.81-.78,1.42-1.91,2.85-1.4-1.12,3.53-4.74,4.77-6.83,7.43-.95,1.22-2.07,2.3-3.12,3.45Z"/>
  <path class="cls-7" d="M68.65,298.74c-2.46,2.15-4.07,5.14-6.88,6.95v-5c.74-.34,1.46-.81,2.35-.41a3.13,3.13,0,0,0,.88.1c-1.37-4.35,3.58-.44,3.71-2.83A.8.8,0,0,1,68.65,298.74Z"/>
  <path class="cls-8" d="M727.08,298.14c-1-2.36-1.64-4.83-3.12-6.95a2,2,0,0,1-1.32-2.48l.12-.76c3.35,3.88,4.88,8.6,6.18,13.42.29,1.08.15,2.33,1.28,3.06v2.51a3.27,3.27,0,0,1-1.9-3.45c0-1,.27-2-.6-2.85S727.16,299,727.08,298.14Z"/>
  <path class="cls-9" d="M723.94,339.64a24.28,24.28,0,0,0,4.38-12.75c.08-1.4,0-2.81,1.9-3v1.88c-1.23,1.23-.6,3-1.27,4.38-1.37,3.93-2.31,8.05-5,11.42l-.08-.71A.88.88,0,0,1,723.94,339.64Z"/>
  <path class="cls-10" d="M729,330.18c.23-1.51-.84-3.41,1.27-4.38v1.89Z"/>
  <path class="cls-4" d="M192.56,249.1A8.73,8.73,0,0,1,195.8,245c4.48-2.84,7.17-7.45,11.08-10.88,2-1.77,2.6-1.42,3.88.11a2.34,2.34,0,0,0,1.84,1l3.83,3.12a85.94,85.94,0,0,0,6.55,6.81,116.54,116.54,0,0,1,12.91,12.81c6.11,6.23,12.2,12.49,18.34,18.69q13.46,13.58,27,27.08c1.91,1.06,2.12,2.28.38,3.73a4.25,4.25,0,0,0-1.42,1.92c-2.93,3-5.85,6.09-8.95,9-2.7,1.6-4.38,4.27-6.59,6.39-.47.45-1.14.47-1.48,1-1.13,1.59-3.23,2.28-4,4.24a5.54,5.54,0,0,0-1.78,2.23c-3.4,3.34-6.57,6.9-10,10.22a4.62,4.62,0,0,1-2.51,1.65c-1.11-1,.35-2,0-3-1.58-1.6-2.31-4-4.67-4.86a1.73,1.73,0,0,1-.66-.54c-.85-3.05-3.24-4.73-5.71-6.33-2.88-2.32-4.66-5.64-7.41-8.1a40.62,40.62,0,0,0-6.41-5.22,3.29,3.29,0,0,1-1.31-1.68,8.36,8.36,0,0,0-6-5,15.11,15.11,0,0,0-4.68-2.59c-2.73-4.11-6.55-7.22-9.86-10.79-5.17-5.58-11.23-10.3-15.81-16.44a1.62,1.62,0,0,1-.08-.78l.15-.16c-.09-.07-.11,0-.19.06-1.93-.27-2.73-2.18-4.32-2.91a49.68,49.68,0,0,1-3.36-3.75,10.47,10.47,0,0,0-1.6-2.4,2,2,0,0,1-.49-1.14c3.58-2.88,5.76-7.24,10-9.42a9.39,9.39,0,0,0,3.16-3.76h0A52.88,52.88,0,0,0,192.56,249.1Z"/>
  <path class="cls-11" d="M245.39,341.51c.76,1.06-1,1.48-.62,2.45.24,1.94-1.11,3.11-2.37,4a40.56,40.56,0,0,0-8.1,8,11.7,11.7,0,0,1-5.7,4,1.48,1.48,0,0,1-1.08-1.28,4.14,4.14,0,0,1,.09-.6c.1-.41.15-.93-.28-1-.19-.05.14.73-.26,1-.83.57-1.66.24-2.49,0,1,1,1.2,3,3.33,2.23-.72,3.89-3.52,6-6.62,8-1.18.2-1.56,1.92-3,1.6a1.76,1.76,0,0,1-.36-2.48c.4-.59,0-.63-.43-.63a4.63,4.63,0,0,0-4,4.55c0,2.49,1.94.05,2.55,1a1.67,1.67,0,0,1,.26,1.25c-.49,1.14-1.58,1.66-2.48,2.38l0,0Q204,386.27,193.6,396.12a66.86,66.86,0,0,0-9.95,9.95c-3.16,2.8-6.4,5.53-9.45,8.44-1.54,1.47-2.56,1.54-4.13,0-5.26-5.26-10.68-10.38-15.73-15.86-.87-.94-1.57-2.27-3.07-2.49-1.58-.61-2.48-2-3.61-3.11-3-3.7-6.72-6.67-10-10.07-.83-.85-2-1.54-1.76-3.06a16.77,16.77,0,0,1,3.83-3.83,18,18,0,0,0,3.77-3.82l2.57-3a4.35,4.35,0,0,1,1.84-1.93l1.91-1.92a8.94,8.94,0,0,1,2.39-2.36c3.41-1.42,5.39-4.39,7.64-7.07h0a8.2,8.2,0,0,0,3.15-3.17c3.05-3.82,7.18-6.63,10-10.71.34-2.21,2.67-2.86,3.59-4.61,2.64-2.42,4.79-5.43,8.24-6.88.82.53.66,1.53,1.09,2.25.36.49-1.32,1.69.57,1.65a2.88,2.88,0,0,0,2.31.44c-.18-.81-1.31-.43-1.48-1.2.09-2.06,2.36-2.61,3-4.33.2-.51,1.32-.39,1.8.4a3.55,3.55,0,0,1-.07.57c-.05.37-.63.69-.12,1.11a2.55,2.55,0,0,1,.25-1.12c.14-2.65-1.57-1.23-2.64-1.21-.4-.05-.51-1.06-1.25-.18s-1.46,1.78-2.8,1.22a1.51,1.51,0,0,1-.13-1.26c3.44-4.07,7.65-7.38,11.16-11.4a72.62,72.62,0,0,1,5.67-5.84c1.77-1.56,3.21-3.46,5.15-4.83a1.1,1.1,0,0,1,.87,0c2.24-1,3.15,1,4.49,2,3.87,2.35,6.19,6.3,9.54,9.19,4.14,3.57,7.77,7.66,11.53,11.61,2.16,1.91,4.57,3.59,6,6.23h0C241.65,337.71,243.78,339.34,245.39,341.51Z"/>
  <path class="cls-4" d="M428.27,279.22c.63-1.42,2.16-1.24,3.26-1.81,2-.81,4.23-1.18,6.17-2.25a49.94,49.94,0,0,1,25.51-.89c6.9,1.55,12.6,5,16.54,10.92a20.47,20.47,0,0,1,3.59,11.17c.13,19.24,0,38.48.06,57.73,0,.73.44,1.75-.94,1.78-.86-2.7-.6-5.53-.54-8.26.36-14.73.42-29.46-.05-44.19a19.56,19.56,0,0,1,.18-5.07c-.42,5,.22,10,.11,15-.26,11.7.35,23.41-.34,35.11-.11,1.77.62,3.49.12,5.29-.36,1.27-.7,1.9-2.33,1.7-2.57-.32-5.18.33-7.79.12-1.48-.13-2.93-.26-3.14-2.16-.18.55.05,1.19-.16,1.77s-.5,1-1.13.62c-.38-.24-.28-.75-.33-1.16-.51-4.37-.53-4.4-4.09-2-.86.59-1.79,1.06-2.64,1.66-11.56,6.63-22.76,5.78-33.65-1.61a54.46,54.46,0,0,1-4.42-4.69c-.07-2.6-2.63-4.45-2.18-7.21.76-4,2.13-8,1.07-11.46a25.15,25.15,0,0,0,.24,4.81c.13,1,.28,2.33-1.19,2.44-1.21.09-1.3-1.14-1.5-2a7.25,7.25,0,0,0-.63-1.76c-.74-6.26.2-12.11,4.12-17.26,2,.83,2-.21,1.54-1.66a1,1,0,0,1,.21-.77,1.87,1.87,0,0,1,1.34-1.16c2-.12,2.79-1.93,4.18-2.89,2.7-1.86,5.49.1,8.21-.51-1.11-.9-3.45.73-3.73-1.81.56-.74,1.37-.33,2.06-.44,2.59-1.46,5.59-.39,8.26-1.33,3.77-.37,7.55-.11,11.32-.19,3.39.34,6.8.62,9.91,2.2.37.62-.9,1.51.33,2,1.19-.24,2.55,0,3.33-1.3.33-.46.65-.94,1.33-.89.65.46,1.29,1.05,2.06.18a5.27,5.27,0,0,0,1.23-1.47c.09-.26.18-.51.26-.77.33-1.78-.11-2.86-2.08-3.51-3.49-1.15-3.82-4-1-6.55-1.06.92-2.36-.34-3.44.41-1.41.22-1.39-1-1.61-1.77-.28-1-.73-1.66-1.84-1.67a28.4,28.4,0,0,1-3-1.68c-1.15-1.27-2.79-1.48-4.3-1.62-8.21-.75-16.31-.47-23.7,3.8-1.53.88-2.31,1-3-.86a51.79,51.79,0,0,0-2.39-5.06c.5-.42-.08.08,0,0-1.3-1.12-1.64-2.83-2.21-4.27-1-2.44,1.35-2.34,2.81-2.78.72,1,1.27,2.15,2,3.15.51.69,1.14,1.52,2,1.2,3.17-1.14,6.35.35,9.76-.13-3.48-.56-6.75-.8-10-1.4a1.62,1.62,0,0,1-.2-.83c.22-1,.42-1.89-1.12-1.77C430,279.48,429.05,280.16,428.27,279.22Z"/>
  <path class="cls-4" d="M627.73,290.57a18.35,18.35,0,0,0-14.84-.51c-2.61,1-4.28,2.85-6,4.77-4.8,6.61-6.29,14.16-6.18,22.13a32.06,32.06,0,0,0,7.61,21c2.31,2.72,5.55,3.74,8.85,4.1,3.62.39,7.34.44,10.71-1.47a2.94,2.94,0,0,1,2.27-.46c1.33,1,2.28,2.41,4.46,1.95,1.49-.32,2.45,1.34,3.3,2.45a3.23,3.23,0,0,0,3.07,1.61,1.49,1.49,0,0,1,.74.44c.22,1.24-.57,2.21-.86,3.32a9.91,9.91,0,0,1-1.39,2.23,20.17,20.17,0,0,1-7.65,4.37,2.23,2.23,0,0,1-.83-.26c-1.59-1.93-2.2,0-3.12.8a39.5,39.5,0,0,1-18.75-.3,4.27,4.27,0,0,1-.91-.38c-.89-1.16-3.14-.92-3.14-3,1.55-.84,3.3-1.19,4.86-2.05a3.43,3.43,0,0,1,3.82.32c-1.57-1.57-3.12-2.09-5.06-.25a2.7,2.7,0,0,1-4.24-.27c-.14-.62-.6.08-.21-.09,0,0,.07.09.15.28a2.59,2.59,0,0,1,.29,1.2c-.51,1.08-1.47,1-2.43,1-2.24-.39-3.69-2.09-5.44-3.3a8.5,8.5,0,0,0-1.7-1.89,4.33,4.33,0,0,1-.59-.62c-.69-1.08-1.67-1.93-2.44-2.95-1.12-1.72-2.64-3.18-3.33-5.18-.3-1.36-.81-2.66-1.22-4-.67-4.08-2.16-7.95-3.19-11.95a28.61,28.61,0,0,1-.23-4.81c0-2,0-4,0-6a24,24,0,0,1,.26-4.79,7.85,7.85,0,0,0,1.07-4.23c.1-1.46.6-2.84.73-4.29.35-3.38,2.11-6.26,3.31-9.34a15.8,15.8,0,0,0,2.6-3.48,22.89,22.89,0,0,1,4.66-5.06c1.13-.9,2.2-1.89,3.32-2.8,2.33-1.77,5.2-2.45,7.69-3.89a11.3,11.3,0,0,1,2.39-.21h2a10.33,10.33,0,0,0,3.49-.47c4.46-.16,8.94-.66,13.36.43a4.31,4.31,0,0,1,1,.25,3.93,3.93,0,0,1,1.62,1.07c-.57,2.7-.8,2.77-4.34,1.35,1.76,1.46,4.69,1.17,5.67,3.8-.14.53-1.61,1-.15,1.58a4.86,4.86,0,0,0,3.38.21c1.45-.62.49-1.89.77-2.83a1.52,1.52,0,0,1,.82-.95,1.32,1.32,0,0,1,1.16.41,4.67,4.67,0,0,0,3.07,1.79c1.91,1.44,1.94,2.81-.06,4.54-.84.74-2,1.16-2.28,2.47,2.11-1.06,2.47-4.54,5.65-4a2.69,2.69,0,0,1,1.49.9c1.42,2,.19,3.52-.83,5.1a3.28,3.28,0,0,1-.53.64,9.25,9.25,0,0,0-2.72,2.38c-.77.33-1.3-.35-2.72-.69,1.79.94,2.48,1.83,2,3.2-1.3,1.43-2.22,4.11-4.77,1.45-.49-.73-.87-1.57-1.86-1.77-1.35-.48-2-1.95-3.37-2.39A16.4,16.4,0,0,0,627.73,290.57Z"/>
  <path class="cls-4" d="M523.29,294.33c-3.56,2.07-5,4.95-4.88,9.25.32,8.55.16,17.12,0,25.68,0,2.28.47,4.15,2.21,5.56,2.79,2.24,5.06,5.25,8.8,6.14,6.76,1.39,6.76,1.39,6.75,8.33,0,2.29,0,4.58,0,6.87,0,1.45-.71,2.17-2.2,1.65s-3.32-.31-4.83-1.09a11.15,11.15,0,0,1-1.94-1.68c-1.86-2.12-5.58-2-6.52-5.35-.06-.23-1.74.28-2.05,1.34a8.71,8.71,0,0,0-.15,2.5c0,6.89-.08,13.78,0,20.67,0,2.56-.66,4.48-3,5.6-.27.13-.54.27-.79.42-2.73.53-4.78,2.44-7.21,3.59a7.85,7.85,0,0,1-.78.49c-1,.46-1.85,1.41-3.09,1.47-1.33-.7-1-2-1-3.06q0-52.08,0-104.16c0-3.2.34-3.51,3.63-3.65,3.76-.16,7.51.17,11.27.29,1.44,0,1.68.74,1.76,2,.25,3.81.3,3.81,3.61,1.6.32-.12.66-.24,1-.34,1.08-.05,1.75.76,2.6,1.22a1.66,1.66,0,0,1,.46.8c0,2-1.25,2.24-2.82,2.05-.9-.88-1.55-1-1.71.54,0,.26,0,.27.06,0,.2-1,.72-1.13,1.52-.64,3.44,1.31,7.27,1.66,10.19,4.21a3,3,0,0,1,1.19.69.92.92,0,0,1,0,.88c-.85,1.19-2.25.84-3.39,1.14C528.62,290.22,526.05,292.44,523.29,294.33Z"/>
  <path class="cls-12" d="M590.08,290.09c-.55,3.27-3,5.88-3.3,9.24a43.18,43.18,0,0,0-1.46,6.75c-1.29,4.24-1.14,8.59-.85,12.9.14,2.14-.23,4.37.65,6.45.81,3.32,2.27,6.48,2.66,9.92a25.74,25.74,0,0,0,1.64,4.25q1.58,2.47,3.17,4.94a1.37,1.37,0,0,1,.1,1.26c-2.2,1.31-.57,2.44.37,3.6-.9-1.06-1.66-2.13-.62-3.41,1.49-.32,1.61,1.38,2.63,1.77h0a12.92,12.92,0,0,1,2,1.89l4.82,3.25a11.88,11.88,0,0,1,5.13,2.76c.88,1.27,2.39,1.06,3.6,1.54,1.05.42,2.56.22,2.71,1.93a17.18,17.18,0,0,0-4.92,2.53c2.37,1.69,4.38-.71,6.51-.14a12.1,12.1,0,0,1-4.72,2.06c-3.12.36-4.19-1.15-4.67-3.92-.2-1.15,0-2.53-1-3.51a3.21,3.21,0,0,0-4.75-.16c-1-.59-.18-1.26-.41-1.8-.4-.92-.51-2.35-1.76-2.26-1.05.07-1,1.21-1.1,2.22s0,2.95-1.73.53c-1-1.43-1.7,1.58-3.29.85,1.22-3.74-2.19-5.64-3.78-8.3-.7-1.16-1.23-2.05-.81-3.34a2.35,2.35,0,0,0-.7-2.95c-1.59-1.43-.82-3.17.64-4.75a11,11,0,0,0-1.56-.3c-2.08-.05-3-.62-1.12-2.44,1.19-1.15,1.32-2.6.23-3.55s-2.16.08-2.86,1.07-1.39,1.56-2.3.84c-1.1-.88-.08-1.67.53-2.33,1.47-1.56,2.68-3-.55-4-.63-.19-.44-1.09-.53-1.7s-.29-1.63-1.24-1.43-.71,1.26-.58,1.87c.39,1.73.53,3.24-1.38,4.24-.75.4-.64,1.32-.53,2,.68,4.05-2.56,4.33-5,5.35a1.73,1.73,0,0,1-.06-2.5c1.34-.67,1.33-2.72,3.2-3,.61-.09.49-1.05-.21-1.38s-1.51-.64-1.72-1.57a26.85,26.85,0,0,1,.24-8.05,20,20,0,0,0-.11-6.18c-.36-2.92-1.07-5.94.55-8.76l2.28.78c-.07-3.67.38-7.28-.35-11.28a1.83,1.83,0,0,1,1.17,2.41c-.47,3.74,1.49,6.85,2.48,10.22.18.63,0,1.66,1.21,1.31a1.6,1.6,0,0,0,1.36-1.52c.07-2.76,1.74-4.32,4-5.52a2.83,2.83,0,0,0,1.43-3.72,5.69,5.69,0,0,1-.3-2.77c.9.17.26,1.23,1.21,1.55,2-2.93-3.25-4.8-.82-7.69.39.2.83,1.86,1.89.63a1.78,1.78,0,0,0,0-2.5c-1.56-2.25-.73-4.45,1.53-4.51,1.17,0,1.2,0,2.49,2.78,2-1.75,4.83-2.46,5.25-5.72.1-.81,1-1.19,2.2-1.26,2.41-.13,4.24-2.27,6.83-2.34.78,0,.28-1,0-1.5-.88-1.35-.52-2.84-.43-4.28a2.2,2.2,0,0,1,1.76-2c1.26-.29,1.16.81,1.4,1.58.12.37.45,1,.65,1,3-.17,5,3,8.07,2.31-.08,1.54-1.38,1.22-2.29,1.47-2.37.64-4.89.64-7.16,1.7l-7.44,3.81c-1.33.5-2.08,1.75-3.24,2.46l-4.33,5.05A18.21,18.21,0,0,0,590.08,290.09Z"/>
  <path class="cls-4" d="M550.36,295.65c-1-1.1-1.72-2.45-3.07-3.2-.87-.32-1-1.28-1.58-1.86-3.08-2.78-1.66-6.27-1.52-9.55,1.22-1.61,2-.46,3,.4,2.18,1.95,6.51.67,7.42-2.17,1.62-1.62,2.31-.39,3,1-.32,2.45,1.59,2.64,3.19,3.13a2.87,2.87,0,0,1,2.06,2.4c.21,1.27,1.33,1.71,2.1,2.48a3.9,3.9,0,0,1,.52.69c.62,1.45,1.43,2.85,1.06,4.52-.68,1.17.7.33.78.78,1,2.39,3.07,4.52,1.75,7.44-.15.33-.73.11-.76.6a.83.83,0,0,1,1.07-.27c.95,1.17.7,2.54.68,3.87a23.87,23.87,0,0,0-.55,4.3c0,1.18.19,2.57-1.3,3.19-1.72-1.41-.67-3.46-1.21-5.12a1.83,1.83,0,0,1-.1-.28c-.09-.29-.31-.38-.4-.16a4.81,4.81,0,0,0-.18,2.46c.38,2.39-1.19,3.65-2.69,5-1.18-1.09-.48-2.74-1.3-4.23-.69,1.53-.22,3.09-.78,4.43a1.65,1.65,0,0,1-.6.63c-1.69.45-2.25-.54-2.42-1.94a37,37,0,0,1,0-4.94c-.49.25-.61.84-1.11,1.05-1.34-.13-1.89-1.37-2.86-2C553.55,303.87,552.9,299.45,550.36,295.65Z"/>
  <path class="cls-13" d="M383.1,247.22c10.32-.22,23.08.4,35.82-.33,1.82-.1,1.84.9,1.91,2.09.25,4.58-.32,9.18.32,13.78.19,1.39-1.08,2.51-2.94,2.37-8.68-.67-17.37-.09-26-.32-2.32-.06-2.15,1.38-2.14,2.89v41.79c0,10.37-.07,20.74,0,31.11.05,5-1.47,9.9-.14,14.94.52,1.94-1.43,2.22-2.94,2.31-4.68.3-9.39-.5-14.08.49a1.8,1.8,0,0,1-2.11-2.12c.82-7.73.31-15.47.34-23.2.09-21.37,0-42.74.09-64.1,0-3.1-.76-4.3-4-4.15-8.36.4-16.74-.37-25.09.41a2.41,2.41,0,0,1-2.75-2.38c-.16-4.47.44-8.93-.09-13.43-.25-2.08,1.69-2.17,3.38-2.17C355.31,247.23,368,247.22,383.1,247.22Z"/>
  <path class="cls-14" d="M529,356c.25.18.49.46.76.51,7.26,1.38,5.72,2.35,6.18-4.6.36-5.36.22-10-6.48-10.91,2.07-.62,3.83.74,5.77,1,1.13.13,1.34,1.12,1.33,2.16,0,4.19,0,8.38,0,12.57,0,1.9-.56,2.57-2.7,1.85-2.71-.92-5.65-1.07-8.2-2.61-.75-.45-1.65-.37-2-1.56a2.47,2.47,0,0,0-2.78-1.61c-1.21.21-1.23,1.64-1.22,2.55,0,7.11-.45,14.23.26,21.32.11,1.09.16,1.81-.9,2.29-5.17,2.33-9.64,6-15.14,7.75-1.71.55-1.79-.12-1.89-1.28-.07-.73,0-1.47,0-2.2,0-34.87.05-69.73-.09-104.6,0-3.1,1.26-4.05,3.83-4.26,4.18-.33,8.33.22,12.49.61,1.09.1,1.38.75,1.38,1.7v3.72c3.26-2,5.77-4.73,9.55-4.75-.79,2.1-2.5,2.83-4.56,3-1,.55-2,1.08-3,1.66-.75.44-1.21,1.82-2.28,1.1-.85-.57-.51-1.77-.39-2.66.35-2.65-.75-3.44-3.34-3.26a79,79,0,0,1-9.73,0c-2.27-.13-2.8.76-2.78,2.88.1,9.84,0,19.68,0,29.51q0,37.21.07,74.41c0,.94-1.19,3,1.41,2.87.67-.79,1.77-.81,2.55-1.4l-.05,0c2.65-1,4.65-3.3,7.55-3.85l0,0c2.93-1,4-2.94,3.84-6.16-.27-6.89-.11-13.8-.07-20.7,0-3.31.42-3.47,3.31-1.89,1.28.7,2.47,1.55,3.75,2.24S527.7,355.24,529,356Z"/>
  <path class="cls-15" d="M570.5,333.34c-.91.67-.54,1.65-.63,2.52a6.14,6.14,0,0,0-1.26,3.14c-.53,1.31-.83,2.73-1.88,3.78a39.6,39.6,0,0,1-9.71,11c-2.33,1.74-5.23,3.84-8.62,4.06-.31,0-.63,0-.94,0-4.64.61-4.64.61-4.64-4.4a9.84,9.84,0,0,0,0-1.88c-1.3-6.53.9-11.72,6.4-15.28,2-1.27,1.7-3.47,3-4.86a1.82,1.82,0,0,1,.63,1.18,4.39,4.39,0,0,1-.16,1.8c-.63,1.86-2.24,3.05-3.21,4.68a5.42,5.42,0,0,1-.6.67c-1.47,1.42-4.07,2-4.43,4.16a40.29,40.29,0,0,0,0,10.86c.19,1.76,1.7,1.52,2.95,1.22,4-1,7.29-3.41,10.52-5.88a9.23,9.23,0,0,1,1-.83c2.8-1.84,4.25-4.64,5.44-7.64a3.89,3.89,0,0,1,.48-.84c3.66-5.15,4.76-11.23,5.23-17.19A86.11,86.11,0,0,0,568.93,299c-.79-3.66-2.7-6.9-4-10.35l0,0c-1.83-1.45-2.26-3.89-4-5.49-2.33-2.19-4.36-4.66-7.51-5.81a2.91,2.91,0,0,1-2.1-1.71,1.46,1.46,0,0,1,.23-.88,2.36,2.36,0,0,1,2.58.72,1.28,1.28,0,0,0,1.25.63,17.08,17.08,0,0,1,9.44,9.42h0a19.32,19.32,0,0,1,5,10.69c.76,2.69.21,5.69,1.89,8.17a232,232,0,0,1,0,23.88A14.59,14.59,0,0,1,570.5,333.34Z"/>
  <path class="cls-16" d="M482.56,356.07c.89-.59.55-1.51.56-2.29,0-18.54.14-37.08-.08-55.61a23.23,23.23,0,0,0-10.52-19.59,26.91,26.91,0,0,0-9.54-3.74.78.78,0,0,1,0-1.19c11.13,2.37,20.95,11.2,20.83,24-.15,17.67,0,35.35,0,53,0,.74,0,1.47,0,2.2.24,4.36.24,4.32-4.36,4.38-2.91.05-5.8-.16-8.72.49-2.67.59-4-.9-4-3.63,0-.92.43-2.14-.32-2.69-1-.74-1.48.77-2.28,1.11-1.05.44-1.75,1.53-3,1.59a.45.45,0,0,1-.78-.1c1.65-1.24,3.31-2.47,4.94-3.73,1.32-1,2-.84,2.16.93.15,1.6-.62,3.3.51,4.8l.52-.11a108.27,108.27,0,0,1,13.6.05Z"/>
  <path class="cls-17" d="M221,368.05c2.55-2.32,5.39-4.38,6.94-7.62a.49.49,0,0,1,.55-.43,119,119,0,0,0,16.25-16L257.23,332c.27-.29.52-.27.73.07-2.62,2.94-5.25,5.87-7.86,8.81-1.86,2.1-3.83,4.08-4.86,6.84-.43,1.16-.94,3.43-3.2,1.65a.83.83,0,0,0-.59-.05c-1.47.33-5.5,5.23-5.49,6.65h0c0,1.06-.61,2.09-1.46,2.19-4.4.47-5.54,4.83-8.53,6.95a2,2,0,0,0-.64,1.35c-.29,3.14-2.1,5.17-5,6.43.64-.84,1.26-1.7,1.93-2.51.36-.43.69-.87.29-1.35-.56-.68-1.12.06-1.68.12C220.53,368.72,220.41,368.31,221,368.05Z"/>
  <path class="cls-18" d="M628.31,340.79c-13,6.16-24.15-1.84-27-15.27a44.29,44.29,0,0,1-.08-19.51c1-4.22,2.56-8.05,5.62-11.18.27,3.1-2.58,4.72-3.47,7.41a44.48,44.48,0,0,0-1.94,17.18c.32,4.64,1.09,9.24,3.67,13.29a5.47,5.47,0,0,1,2.46,3.16c1.94,3.89,5.54,5,9.44,5.65a10.9,10.9,0,0,0,5.67,0c1.8.05,3.31-1,5-1.3a.51.51,0,0,1,.68-.09A.47.47,0,0,1,628.31,340.79Z"/>
  <path class="cls-19" d="M613.26,359.12c-1.5-1.32-3.5-1.18-5.25-1.79-.83-.29-1.66-.32-1.64-1.46a1.23,1.23,0,0,1,1.79.19v0c7.2,1.93,14.41,2.6,21.63,0,.57-.2,1.2.42,1.79-.06a19,19,0,0,0,7.49-4.29c1.79-1.86,4-3.27,5.49-5.43a5.77,5.77,0,0,1,.48-.7c1.59-1.46,2.55-3,.26-4.63-.21-.19-.41-.39-.61-.6a11.85,11.85,0,0,1-2.87-4.25,1.62,1.62,0,0,1,.19-.84.66.66,0,0,1,.79,0,14.41,14.41,0,0,0,4,4.67c2.38,1.76,2.16,3.35.49,5.73-3.72,5.33-8.91,8.78-14.54,11.33a29.5,29.5,0,0,1-13.62,2.32C617.21,359.18,615.23,359.17,613.26,359.12Z"/>
  <path class="cls-20" d="M524.55,278.61l4.56-3a8.94,8.94,0,0,0,3.84-1.09c1.92-.84,3.09-.57,3,2-.16,3.82-.06,7.66-.08,11.49-.2.41-.39.4-.57,0l-.06-.58c-.67-3.26,0-6.53-.26-9.61,0,2,0,4.22,0,6.41-.35,1.7-1.83,1.68-2.53.91a4.12,4.12,0,0,0-3.77-1.42,1.52,1.52,0,0,1-1.74-1c-.25-.9.49-1.28,1.13-1.62,1-.53,2-1,3.34-1.87-1-.17-1.54-1.62-2.37.13a1.5,1.5,0,0,1-2.54.61c-.48-.58-1.28-.67-1.81-1.17Z"/>
  <path class="cls-21" d="M626.46,273c4.4-1.05,7.39,2.23,11,3.67,3.25,1.31,3.17,1.51,6.09-.29.9,1-.41,1.39-.55,2.09a1.54,1.54,0,0,0,.54,1.67c.55.41,1.33.56,1.61-.14.85-2.11,1.69-.81,2.44,0a10.74,10.74,0,0,0,3.73,2.25c1,.4,2.14.52,2.16,1.88,0,1.63-1.26,2.1-2.47,3-.58-1.32,1.46-2.82-.71-3.29-1.47-.31-1.85.53-1.79,1.79-1.45,0-2-1.68-3.46-1.77a19.24,19.24,0,0,0-4.76-3.38,11.62,11.62,0,0,0-4.34-2.35,4.64,4.64,0,0,1-.75-.34c-.36-.21-.69-.44-1-.65a7.13,7.13,0,0,1-2.12-1.3,12.4,12.4,0,0,0-3.94-1.47C627.36,274.22,626.31,274.26,626.46,273Z"/>
  <path class="cls-22" d="M671.11,285.57l1.26.63c1.49,3.68-.28,6.92-4.13,6.91-2.25,0-3.7.58-4.68,2.52l-1.31,0C665.53,286.23,672,279.9,681,276a4.74,4.74,0,0,1,2.72-.49c-.34,1.31-1.89,1-2.52,1.87-1.07,1.53-2.87,1.8-4.4,2.52-1.87,1.49-4.19,2.4-5.66,4.4l-.63.63a26.14,26.14,0,0,1-2.76,4.27c1.33-.2,1.66-1.19,1.91-2.27C669.81,286.16,669.89,285.24,671.11,285.57Z"/>
  <path class="cls-23" d="M464.85,307.59c-2.67-1.91-5.9-1.16-8.81-1.91a43.8,43.8,0,0,0-11.94,0c-2.61,1.36-5.41.24-8.1.63l.55-.65a53.51,53.51,0,0,1,27,0c3.69,1.56,3.58,1.56,3.77-2.5s-.55-7.6-3.17-10.7a1,1,0,0,1-.11-1.22c1.26-.55,2.51-1.14,2.41,1.17a3,3,0,0,0,.87,2.55c1.88,1,1.31,2.76,1.52,4.31.24,1.86-.65,3.89.86,5.54.68.54,1.4,1.07.77,2.09a1.29,1.29,0,0,0-.63,1.26c-1.3.86-2.75.62-4.18.55C465.17,308.54,464.7,308.29,464.85,307.59Z"/>
  <path class="cls-24" d="M460.32,354l.78.1c-6.45,5.68-14.09,5.52-21.91,4.5-1.73-.22-3.36-1.19-5.22-.56a2,2,0,0,1-1.75-.37c-1.57-2.83-5-3.28-7-5.53a1,1,0,0,1,1.32,0c10.44,6.94,21.24,8.31,32.56,2.21A5.81,5.81,0,0,1,460.32,354Z"/>
  <path class="cls-25" d="M628.3,340.23h-.57c-1.7-2.87,0-3.76,2.43-4.56,1.59-.53,2.58-2.14,3.64-3.29,2.4-2.63,4-1.33,5.84.42a2.58,2.58,0,0,1-1,.65,8.6,8.6,0,0,0-2.71,2.31,7.68,7.68,0,0,1-.55.59,14.81,14.81,0,0,0-2,2,3.45,3.45,0,0,1-.64.5,10.3,10.3,0,0,1-1.86.82C629.92,339.45,629.32,340.73,628.3,340.23Z"/>
  <path class="cls-12" d="M569.87,296.26q-2.5-5.36-5-10.69c1,.77,2,.15,3,.05,1.23-.12,2.54-.27,3.28,1.15.65,1.26,1.16,2.63.21,3.82-1.51,1.86-1.66,3.25.93,4.12C571.73,295.94,570.53,295.67,569.87,296.26Z"/>
  <path class="cls-26" d="M422.72,315.74c-.43,1.5-1.68,2.48-2.37,3.88-2.09,4.22-2.18,8.61-2,13.1,1.22,2.82.91,6.08,2.51,8.8.88.93-1.39,4.41,2.49,3,.36-.13.79,1-.11,1.28-1.39.45-.26,1.41-.53,2.07-1.76,0-1.59-1.82-2.41-2.7a35.3,35.3,0,0,1-2.62-19.72c.74-4.8,2.13-9.27,6.29-12.34,0,.24,0,.48.05.72C424.4,315.05,423.46,315.33,422.72,315.74Z"/>
  <path class="cls-27" d="M662.27,295.58c.51,3.57-1.95,6.46-2.15,9.93-.46,7.77-.88,15.56.5,23.24.43,2.35,1.84,4.56,1.67,7.12-3.79-8.06-4.21-16.63-3.57-25.28C659.1,305.44,659.71,300.26,662.27,295.58Z"/>
  <path class="cls-12" d="M564.84,285.56a52.61,52.61,0,0,0-9.44-9.42c5.31-1.78,8.41.25,9,5.75A25,25,0,0,1,564.84,285.56Z"/>
  <path class="cls-28" d="M193.6,396.12c3.67-4.68,8.11-8.63,12.38-12.72,2.6-2.5,4.55-5.7,7.86-7.45-.42,2.09-2.13,3.24-3.5,4.6-.88.87-2.11,1.43-1.82,3,0,.19,0,.57,0,.58-6.82,1.64-8.69,9.27-14.59,12A.82.82,0,0,1,193.6,396.12Z"/>
  <path class="cls-29" d="M552.27,332.73c0-.42,0-.85,0-1.27a41.2,41.2,0,0,0,2.29-16.8c-.5-6.49-1.37-13-4.19-19,2.49,2.2,2.78,5.37,3.63,8.28a41.16,41.16,0,0,1,.8,4.27c1.48,3.09,1.53,6.41,1.47,9.72a63.3,63.3,0,0,1-1.42,11.73,4.9,4.9,0,0,1-1.51,3A1,1,0,0,1,552.27,332.73Z"/>
  <path class="cls-30" d="M462.94,273.65l0,1.19c-8.66-2.26-17.22-1.38-25.74.8a.45.45,0,0,1-.74-.23c6.41-2.83,13.15-3.33,20-2.76C458.67,272.83,460.8,273.31,462.94,273.65Z"/>
  <path class="cls-31" d="M645.16,283.13a4,4,0,0,1,3.31,2.44,2.84,2.84,0,0,1-.65,4.12c-.72.61-1.63,1.44-1.45,2.28.38,1.79-.83,1.77-1.85,2.43a16.12,16.12,0,0,0-3.4,3.58c-1.74,2.16-3,2-3.92-.63,2.2,1.35,3.39.11,4.37-1.69a31,31,0,0,1,1.68-2.69c.44-1,1.57-1.44,2.15-2.34l0,0c.75-1.6,3.25-2.78,1.22-5l-1.11-.73A1.19,1.19,0,0,1,645.16,283.13Z"/>
  <path class="cls-23" d="M433.94,306.77c1.37,1.51,3.16.52,4.74.8.59.11,1.38,0,1.31.9a1,1,0,0,1-1.13.88c-1.82-.48-4.08,1.49-5.51-1-1.64,1.11-4.83.74-5.06,2.74-.42,3.77-2,.77-3,.88C427.27,308.75,430.74,308,433.94,306.77Z"/>
  <path class="cls-32" d="M626.46,273c2.06.92,4.56.77,6.26,2.59a2.47,2.47,0,0,1-2.48,0l-.24-.1-.25,0c-6.59-2.08-13.18-1.39-19.76,0l-2.39.09c2-2.16,4.88-1.95,7.44-2.56.69-.16,1.47,0,2-.61C620.21,272.11,623.32,272.79,626.46,273Z"/>
  <path class="cls-12" d="M566.73,342.78a4,4,0,0,1,1.88-3.78c1.48,1.5,1.57-1.18,2.94-.81.75,2.3-3.72,5.6,1.65,7.33C569.71,346.45,568.34,344.36,566.73,342.78Z"/>
  <path class="cls-33" d="M551.63,274.89l0,.68c-1.37,1.13-2.69.45-4.08,0-2.38-.8-3-.34-3.2,2.08-.17,2.69-.16,5.39-.3,8.07-.12,2.3.4,4,2.52,5.08.25.56.5,1.12.74,1.68-3.19-1.19-5-3.1-4.53-6.88a79.76,79.76,0,0,0,.07-9c0-3.77.58-4.2,4.17-3.35.89.21,1.82.29,2.73.43C550.26,274.2,551.24,274.11,551.63,274.89Z"/>
  <path class="cls-34" d="M463.59,305.7c-4.9-.1-9.66-1.4-14.62-1.35-4.23,0-8.24,1.33-12.42,1.33a12.37,12.37,0,0,1,6.79-1.89q6.74,0,13.48,0A12,12,0,0,1,463.59,305.7Z"/>
  <path class="cls-35" d="M668.52,346a2.47,2.47,0,0,1,2.14,1.08,18,18,0,0,0,8.91,5.8c1.55.41,1.94,2,2.86,3.1-2.89.23-4.55-2.19-6.89-3.17C672.91,350.8,670,349.12,668.52,346Z"/>
  <path class="cls-36" d="M235.89,258.06l-10.25-9.92c-1-.94-1.91-1.9-2.87-2.84-.2-.17-.26-.31-.17-.44s.16-.18.24-.18C227.63,248.71,232.58,252.58,235.89,258.06Z"/>
  <path class="cls-21" d="M655.29,289.41c.16,3.17-1.7,3.95-3.7,4.68a2,2,0,0,1-2.65-.94c-1.14-1.76.62-2.44,1.26-3.74,1.08,1.1-.56,2.49.78,3.2.76.4,1.39-.15,1.94-.59C653.74,291.36,653.74,289.93,655.29,289.41Z"/>
  <path class="cls-37" d="M271.11,318.16c2.84-3,5.39-6.28,8.73-8.79.29-.29.54-.26.76.08-.39,1.75-2.74,2.54-2.29,4.7-3.74-.47-4.48,3.58-7.13,4.74C270.83,318.68,270.81,318.43,271.11,318.16Z"/>
  <path class="cls-38" d="M689.46,357.82a45.16,45.16,0,0,0,17.44-1.94.45.45,0,0,1,.72.15c-1.66,2-4.18,1.73-6.33,2.07-4.61.71-9.29,1-13.91-.2A1.84,1.84,0,0,1,689.46,357.82Z"/>
  <path class="cls-35" d="M662.3,335.87a1.34,1.34,0,0,1,1.31,1.07c.79,2.33,2.39,4.1,3.95,5.94a3.32,3.32,0,0,1,1,3.1C665.29,343.34,663.48,339.8,662.3,335.87Z"/>
  <path class="cls-25" d="M642.81,335.23h-.64c-1,.19-1.42-.27-1.27-1.26.65-.08,1.48-.41,1.15-1.07-2.15-4.2,1.23-2.28,2.76-2.51C643.47,331.78,644.94,334.22,642.81,335.23Z"/>
  <path class="cls-39" d="M689.46,357.82l-2.08.08a17.15,17.15,0,0,1-11.84-5.13c2.57.47,4.39,2.55,6.89,3.17C684.59,357.26,687.25,356.71,689.46,357.82Z"/>
  <path class="cls-12" d="M551.63,274.89a2,2,0,0,1-1.9-1.26c.89-.08,1.84.22,2.53-.7.52-.69,1-2,2-1.38s.47,1.85.31,2.84a4.94,4.94,0,0,1-.47,1.12A4.44,4.44,0,0,1,551.63,274.89Z"/>
  <path class="cls-40" d="M535.28,288a5.42,5.42,0,0,0,.57,0c-.12.28-.21.77-.38.8-4.5.89-8.24,3.44-12.18,5.55C526.34,290.44,530.85,289.29,535.28,288Z"/>
  <path class="cls-41" d="M271.11,318.16c0,.24.05.49.07.73-2,1.95-4.06,3.85-6,5.87-.62.65-1.14,1.18-2.08,1.09C265.73,323.23,267.81,320.06,271.11,318.16Z"/>
  <path class="cls-28" d="M213.8,376c0-1.33,1.47-1.49,2-2.38,1-1.77,2.09-3.5,4.37-3.86A10.9,10.9,0,0,1,213.8,376Z"/>
  <path class="cls-42" d="M420.27,345.2c1.3.46,1.2,2.17,2.41,2.7q1.95,2.12,3.89,4.25l-1.32,0C423.83,349.68,420.46,348.57,420.27,345.2Z"/>
  <path class="cls-43" d="M222.84,244.68c0,.2-.05.41-.07.62-2.28-2.13-5-3.84-6.34-6.86A42.5,42.5,0,0,1,222.84,244.68Z"/>
  <path class="cls-44" d="M220.21,369.74l-4.37,3.86,0-1.29c0-1.67.92-2.39,2.48-2.52,1.06-.31,1.45-1.67,2.68-1.74-.08.37-.15.74-.22,1.1Z"/>
  <path class="cls-25" d="M637.35,329.38l3.54-2.22.48.68C640.55,329.14,639.75,330.46,637.35,329.38Z"/>
  <path class="cls-45" d="M280.6,309.45l-.76-.08a2.47,2.47,0,0,1,1.14-1.75c1.8-1.2,1.32-2.47.2-3.79,2.6.63,2.48,2.07,1.11,3.82C281.78,308.29,281.17,308.85,280.6,309.45Z"/>
  <path class="cls-46" d="M436.5,275.41l.74.23a10,10,0,0,1-5.71,1.77C432.9,276,434.73,275.79,436.5,275.41Z"/>
  <path class="cls-47" d="M640.9,334l1.27,1.26-.09.77a1.51,1.51,0,0,1-1.23.3,2.57,2.57,0,0,1-1.45-.89c-.48-.83-1.32-1.52-1.06-2.65l1.3,0Z"/>
  <path class="cls-17" d="M236,356l3.19-2.94c-.28,2-1.28,3-3.2,2.93Z"/>
  <path class="cls-25" d="M612.59,337.17c.4,0,1,0,1,.71a1.05,1.05,0,0,1-1,1c-.58.11-1-.12-1.08-.75S611.89,337.22,612.59,337.17Z"/>
  <path class="cls-48" d="M715.62,351.48c.72-1.85,2.48-2.59,3.92-3.66C719.12,350,717.24,350.6,715.62,351.48Z"/>
  <path class="cls-25" d="M621.66,337.4a3.77,3.77,0,0,1,3.56.38C623.79,338.54,622.81,338.68,621.66,337.4Z"/>
  <path class="cls-17" d="M230.57,362.83c0-1.61.93-2.08,1.77-2.69C232.32,361.66,232.32,361.66,230.57,362.83Z"/>
  <path class="cls-41" d="M632.19,293.07a5.26,5.26,0,0,1,3.15,2.51c-2,.35-2.49-1.8-3.93-2.4C631.63,292.82,631.89,292.79,632.19,293.07Z"/>
  <path class="cls-25" d="M622.07,339.6c-1.19.81-2,.87-3,0C620,338.82,620.81,338.83,622.07,339.6Z"/>
  <path class="cls-49" d="M632.19,293.07l-.78.11a14.22,14.22,0,0,1-3.68-2.61C629.73,290.5,630.86,292,632.19,293.07Z"/>
  <path class="cls-25" d="M622.7,341.52a5.89,5.89,0,0,1-5.67,0Z"/>
  <path class="cls-31" d="M648.94,339.41c-1.12-.48-2.15-.57-2.05-2.06C648.12,337.47,648.7,338,648.94,339.41Z"/>
  <path class="cls-25" d="M618,337.34c-.84,1.33-1.65,1-2.68.68C616,336.77,616.87,337.15,618,337.34Z"/>
  <path class="cls-12" d="M572.14,300.32a2,2,0,0,1-.19-2.15c.17-.35.53-.16.71.11C573.13,299,573.08,299.61,572.14,300.32Z"/>
  <path class="cls-50" d="M707.62,356l-.72-.15a4.1,4.1,0,0,1,3.25-1.74A3.68,3.68,0,0,1,707.62,356Z"/>
  <path class="cls-25" d="M607.59,335.87l-2.46-3.16A2.7,2.7,0,0,1,607.59,335.87Z"/>
  <path class="cls-51" d="M464.08,291.28c0,.41.07.81.11,1.22-1-.87-2.45-1.23-3.11-2.53C462.28,290,463.13,290.74,464.08,291.28Z"/>
  <path class="cls-52" d="M258,332.08l-.73-.07a2.17,2.17,0,0,1,1.92-1.92Z"/>
  <path class="cls-31" d="M651.16,342.41c.11.21.33.44.35.69s-.16.63-.56.41a.78.78,0,0,1-.35-.49C650.52,342.69,650.67,342.45,651.16,342.41Z"/>
  <path class="cls-53" d="M135.88,379.9c1.73,2.89,4.37,5,6.78,7.19a41.61,41.61,0,0,1,5.43,5.91.51.51,0,0,1-.83.11c-5-5-10.39-9.59-14.72-15.22a3.55,3.55,0,0,1-.34-1.17Z"/>
  <path class="cls-54" d="M105.78,350.32c2.69,2.57,5.85,4.7,7.61,8.14-3.08-2.58-6.32-5-8.86-8.15A.84.84,0,0,1,105.78,350.32Z"/>
  <path class="cls-55" d="M113.37,358.42a24.28,24.28,0,0,1,8.82,8.84A55.45,55.45,0,0,1,113.37,358.42Z"/>
  <path class="cls-55" d="M122.18,367.23a17.74,17.74,0,0,1,7,6.94A29.71,29.71,0,0,1,122.18,367.23Z"/>
  <path class="cls-56" d="M105.78,350.32h-1.25c-.56-1.44-2.55-1.95-2.49-3.81A16.54,16.54,0,0,1,105.78,350.32Z"/>
  <path class="cls-57" d="M147.26,393.11l.83-.11,3.17,3.14-.88.08A12.14,12.14,0,0,1,147.26,393.11Z"/>
  <path class="cls-58" d="M131.14,235.36c-.43,1.51-1.72,2.34-2.73,3.35-8.74,8.75-17.06,17.9-26.27,26.17-.28.32-.53.3-.75-.05,1.48-2.58,3.82-4.33,6-6.3,1.51-1.4,3.29-2.69,2.91-5.21a1.21,1.21,0,0,1,1-1.39,10.7,10.7,0,0,0,8.46-7.8c.21-.66.64-1.29,1.28-1.18,2.59.44,3.38-1.94,5-3,.92-.64,1.42-1.44.49-2.63s-.26-2.51,1-1.79C128.94,236.4,129.91,235.14,131.14,235.36Z"/>
  <path class="cls-59" d="M91.8,275.49c-2.49,3.87-6.84,5.95-9.39,9.78A25.65,25.65,0,0,1,80,288.06c-.06.12-.13.25-.18.38a13.51,13.51,0,0,0-1.88,2.19,2.15,2.15,0,0,1-1.74,1.06l-4.32,4a.41.41,0,0,1-.65,0c2.29-3.49,5.35-6.29,8.27-9.2,3.37-3.35,6.8-6.63,10.13-10A2.87,2.87,0,0,1,91.8,275.49Z"/>
  <path class="cls-7" d="M142.26,223.33c-.42.68-1.46,1-1.18,2.08-.59,1.63-2,2.53-3.18,3.64-.25.27-.48.23-.68-.07.5-1.77,3.3-2.52,2.16-5.1-.31-.69.82-1,1.44-1.38C141.76,222,142.17,222.39,142.26,223.33Z"/>
  <path class="cls-60" d="M101.39,264.83l.75.05c-.25,1.69-2,2.3-2.68,3.66l-3.66,2.63a.47.47,0,0,1-.71-.07Z"/>
  <path class="cls-7" d="M159.24,206.36a3,3,0,0,1-2.52,1.89c-1.62-.29-1.4-1.17-.64-2.14C157.23,204.63,158.27,205.14,159.24,206.36Z"/>
  <path class="cls-61" d="M137.22,229l.68.07a8.54,8.54,0,0,1-5.07,5Q135,231.51,137.22,229Z"/>
  <path class="cls-62" d="M95.09,271.1l.71.07a4.39,4.39,0,0,1-3.15,3.16C92.62,272.61,94,272,95.09,271.1Z"/>
  <path class="cls-58" d="M112.18,247.93c.83.61,2,1.09,1.36,2.36-.1.22-.57.49-.74.42C111.39,250.11,112.51,248.88,112.18,247.93Z"/>
  <path class="cls-7" d="M154.84,210.14c-.77-.44-1.86.94-2.39-.34-.25-.61.34-1.22,1-1.37,1.49-.35,1.36.79,1.41,1.71Z"/>
  <path class="cls-7" d="M152.32,213.28a3.94,3.94,0,0,1-1.89,1.89c-.31-.73-.86-1.48.07-2.14A1.15,1.15,0,0,1,152.32,213.28Z"/>
  <path class="cls-63" d="M71.2,295.63l.65,0c-.49,1.62-2.06,2.14-3.2,3.09l.06-1.22Z"/>
  <path class="cls-5" d="M165.52,197.56l-1.23,1.92c-.71-1.76.41-1.71,1.24-1.91Z"/>
  <path class="cls-58" d="M115.1,245.9c-.29.25-.48.53-.68.55s-.67-.11-.74-.28c-.18-.47.16-.73.6-.72C114.51,245.46,114.74,245.69,115.1,245.9Z"/>
  <path class="cls-58" d="M122.78,239.7a3.19,3.19,0,0,1,.34.91.63.63,0,0,1-.37.45c-.45.2-.57-.16-.52-.47S122.5,240.13,122.78,239.7Z"/>
  <path class="cls-1" d="M208.19,306.84a1.13,1.13,0,0,0-.51.12c-2,1.22-3.29,3.09-5,4.59-5.79,5.89-11.71,11.65-17.45,17.58-2.31,3-5.45,5.21-8.16,7.83a23.35,23.35,0,0,1-3.27,3.54,2,2,0,0,1-2.72.45l-1.23-1.2c-1.53-1-2-3.06-3.74-3.88l-20.68-20.15c-3.3-2.35-5.82-5.51-8.65-8.35-1.37-1.38-.19-2.65.66-3.82,4.37-4.49,8.73-9,13.25-13.32,5-4.79,9.15-10.45,14.62-14.78.23-.18.46-.36.71-.52,2.41-1.5,3.79-4.46,7-4.92,1,.18,1.39,1,2,1.65l3.18,3.73c1.43,1.3,2.73,2.75,4.28,3.92l20.81,20.89a48.92,48.92,0,0,0,3.84,3.65A2.7,2.7,0,0,1,208.19,306.84Z"/>
  <path class="cls-64" d="M165.65,275.57q-13.44,14.56-27.77,28.24c-1.16.19-.92,2.29-2.53,1.86l-1.27-1.86c1.1-.69,1.12-3.56,3.62-1.56.75.6,1.69-.9,2.3-1.69s.15-1.47-.63-2-1.5-2.08-.82-2.58c1.33-1,1.9.45,2.35,1.5.24.55.31,1.35,1.19.93.68-.31.71-.93.44-1.58a2.07,2.07,0,0,1,.13-2.35c.66-.66.76.06.86.55.63.44,1.26.05,1.89,0a22.75,22.75,0,0,1,2.68-2.51c1.06-.89,2.27-2,.94-3.67-.41-.51-.69-1.18-.05-1.63s1,.12,1.26.55c1.21,1.68,1.88.7,2.8-.4,3.63-4.27,7.17-8.63,11.86-11.84C165.18,275.22,165.43,275.24,165.65,275.57Z"/>
  <path class="cls-65" d="M135.35,305.67c1.11-.26,1.14-2,2.53-1.86-1.37,1.79-1.06,3.14.6,4.76,2.37,2.33,5.08,4.35,7,7.15-.51-.05-1.3.09-1.49-.18C141.44,311.94,137,310,135.35,305.67Z"/>
  <path class="cls-66" d="M76.17,291.69l1.13-1.14a22,22,0,0,1,2.69-2.5h0l1.92-.23c-2.06,3.22-4.77,5.4-7.94,8.29C74.46,293.93,76.51,293.36,76.17,291.69Z"/>
  <path class="cls-64" d="M115.83,285.58c1.12,0,2.25-.23,2.71,1.35.2.72,1,1.77,1.56,1.78,2.47,0,2.05,1.67,2,3.15C120,289.82,117.57,288,115.83,285.58Z"/>
  <path class="cls-67" d="M159.83,355.94a14.42,14.42,0,0,1-7.59,7.54c-.22-.68.35-.89.72-1.21Z"/>
  <path class="cls-68" d="M171.1,341c3-.07,4-2.82,5.76-4.44a1,1,0,0,1,0,1.34c-.82,1.87-2.65,2.8-4,4.21A1.91,1.91,0,0,1,171.1,341Z"/>
  <path class="cls-69" d="M122.13,291.86c1.72.79,4,1,3.78,3.75C123.93,295.09,123.16,293.34,122.13,291.86Z"/>
  <path class="cls-70" d="M102,271.12a6.17,6.17,0,0,1,3.79,4.4A9.89,9.89,0,0,1,102,271.12Z"/>
  <path class="cls-71" d="M153,362.27l-.72,1.21c-.74.73-1.33,1.65-2.44,1.89A2.93,2.93,0,0,1,153,362.27Z"/>
  <path class="cls-72" d="M143.48,372.25c-.89,1.64-1.59,3.46-3.77,3.82A9.13,9.13,0,0,1,143.48,372.25Z"/>
  <path class="cls-68" d="M166.13,335.87c2.31.27,2.69,2.4,3.74,3.87C167.76,339.29,167.33,337.21,166.13,335.87Z"/>
  <path class="cls-67" d="M163,352.77a3.45,3.45,0,0,1-3.15,3.17A10.94,10.94,0,0,1,163,352.77Z"/>
  <path class="cls-71" d="M147.89,367.29a3.88,3.88,0,0,1-1.84,1.93C146,367.91,145.82,366.54,147.89,367.29Z"/>
  <path class="cls-73" d="M168.67,269.23c-2.11,1.58-3.28,4.23-6,5.18-.61-.74-.06-1.32.43-1.81,1.59-1.54,3.16-3.11,4.85-4.53.65-.55,1.73-1.2,2,.53C170,269.7,169.4,269.64,168.67,269.23Z"/>
  <path class="cls-74" d="M192.56,249.1c-1.34,3.16-3.92,5-6.91,6.3C187.75,253.08,189.52,250.39,192.56,249.1Z"/>
  <path class="cls-75" d="M173.65,201.86c.08,1-.63,1.46-1.45,1.7s-.93-.28-1-.83a1.57,1.57,0,0,1,1.21-1.87C173.22,200.68,173.59,201.12,173.65,201.86Z"/>
  <path class="cls-76" d="M165.65,275.57l-.75-.07a7.57,7.57,0,0,1,4.39-4.39,1.15,1.15,0,0,1,.31.77c-1.29,1.07-2,2.65-3.42,3.65A1.87,1.87,0,0,1,165.65,275.57Z"/>
  <path class="cls-74" d="M185.65,255.4c0,2.15-1.18,3.29-3.16,3.76A8.28,8.28,0,0,1,185.65,255.4Z"/>
  <path class="cls-73" d="M169.29,271.7v-.59c0-.21,0-.41,0-.62.71-.81,1-2.11,2.51-1.89l.67,0,.65.6-.21.35C171.5,269.9,171,271.85,169.29,271.7Z"/>
  <path class="cls-77" d="M110.7,263.3a.79.79,0,0,1-.8.77.77.77,0,0,1-.81-1,.76.76,0,0,1,.91-.6C110.51,262.49,110.64,262.87,110.7,263.3Z"/>
  <path class="cls-64" d="M143.16,291.42c1.41.14,1.75.93,2.26,2C143.8,293.6,143.58,292.61,143.16,291.42Z"/>
  <path class="cls-76" d="M171.81,268.6l-2.51,1.89-.63-1.26a1.31,1.31,0,0,0,1.26-.63C170.56,268.43,171.19,267.59,171.81,268.6Z"/>
  <path class="cls-78" d="M145.41,295c-.63,1.24-1.26,1.29-1.89,0C144.15,294.83,144.78,294,145.41,295Z"/>
  <path class="cls-1" d="M711.28,330.79c-1.27,1.65-1.6,4-3.59,5.11-4.06,4.55-9.06,7.15-15.21,6.18-8.33-1.32-13.88-6.62-16-15.08-.83-3.34-1.12-6.76-2.1-10.08-1-3.47.58-6.84,1.22-10.14a24.93,24.93,0,0,1,7.62-14.06c6.67-6.07,17-4.82,22.89.64a10.19,10.19,0,0,0,2,1.56,2,2,0,0,1,.62.76c5.77,8.67,6.72,18.2,5.12,28.2A51.11,51.11,0,0,1,711.28,330.79Z"/>
  <path class="cls-79" d="M683.7,293.13c-6,5.88-7.36,13.64-8.76,21.37-.45,2.54,1,4.83,1.33,7.31.68,5.22,2.06,10.28,5.85,14.39a16.63,16.63,0,0,0,24,.56c.46-.47.83-.9,1.53-.86-2.17,5.23-11.87,8.25-17.65,6.33-3.91-1.31-7.37-3.15-9.95-6.42-3.17-2.95-3.51-7.15-4.89-10.9-3.15-8.6-1.28-16.84,2-24.88,1.14-2.81,2.54-5.73,5.58-7.22A1.23,1.23,0,0,1,683.7,293.13Z"/>
  <path class="cls-80" d="M663.56,295.63c.24-2.22.15-4.18,3.73-3.28s5.06-1.27,5.08-6.15c2.34-2.41,5.16-1.89,6.08,1.26.52,1.75-1.28,1.76-2.31,2.56-.79-1.35.71-2.94-1-3.88-1.08.81-.85,2.05-.93,3.21-.23,3.4-1.62,4.75-5,5-3,.23-3.08.32-4.06,3.24C664.6,296.94,665,295.56,663.56,295.63Z"/>
  <path class="cls-81" d="M682.92,293c-4.65,3.37-6.08,8.53-7.46,13.64-2.82,10.37-.47,20,4.62,29.14a5.18,5.18,0,0,1-3.26-3.92c-.91-4.39-3.58-8.35-3.21-13-.73-2.29-.37-4.57,0-6.86.77-7.57,3-14.52,8.65-20a4.56,4.56,0,0,1,2.67-1.44,3.9,3.9,0,0,1,.19.35C684.88,292.14,683.71,292.39,682.92,293Z"/>
  <path class="cls-82" d="M712.59,329.56c2.06-1.8,2.41-4.31,2.49-6.75.16-4.89.06-9.8,0-14.7a9.22,9.22,0,0,0-.23-2.16,11.58,11.58,0,0,1,.94-7.39c0,6.26-.06,11.64,0,17,.06,4.43.32,8.86-1.36,13.1-.61,1.55-.64,1.54-1.89.88Z"/>
  <path class="cls-83" d="M718.05,284.41c-1.27,1.56-.11,2.35,1,3.21.44.34.64.9.13,1.32s-1,0-1.25-.44a13,13,0,0,0-6.16-5.28c-.48-.18-1-.49-.73-1.15a1,1,0,0,1,1.23-.69c1.69.59,2.78,2.83,5.1,1.78C717.52,283.08,718.12,283.8,718.05,284.41Z"/>
  <path class="cls-80" d="M676.77,279.91c1.3-1.13,2.6-2.27,4.4-2.52.52.08,1,.17.81.9-.42,1.58.63,1.62,1.71,1.62h0c-.15.62-1,1.31.13,1.82.72.32,2,.57,1.33,1.52s-1.54-.24-2.29-.67C680.94,281.46,679.29,279.67,676.77,279.91Z"/>
  <path class="cls-84" d="M708.72,295.68l-.29,0-.28,0c-1.06-1-2.38-1.74-2.91-3.22a1.49,1.49,0,0,1,.45-1.21,4.89,4.89,0,0,1,3.49,1C710.42,293.3,711.07,294.83,708.72,295.68Z"/>
  <path class="cls-85" d="M671.11,285.57c-.77.34-.93.81-.81,1.71.27,1.9-1.17,2.67-2.64,3.24a1,1,0,0,1-1.33-.46,1.3,1.3,0,0,1,.18-1.12c1.29-1.37,2.64-2.67,4-4Z"/>
  <path class="cls-86" d="M712.78,280.08c-1.29.2-2.92,2-3.67-.65-.17-.62-.91-.77-1.58-.35-.47.3-.93,1-1.57.32a1.08,1.08,0,0,1-.09-.87,1.45,1.45,0,0,1,1.69-1.07A9.82,9.82,0,0,1,712.78,280.08Z"/>
  <path class="cls-81" d="M684.93,290.58c4.34-3.94,9.56-2.28,14.52-2.25.21,0,.42.63.64,1l-.4.34c-4.59-.87-9.13-1.18-13.43,1.22a1.37,1.37,0,0,1-1.19-.1Z"/>
  <path class="cls-80" d="M671.11,284.31c.78-2.88,3-3.87,5.66-4.4l.63,3.15h-1.89a1.42,1.42,0,0,0-1.25-.63C673.36,283.31,672.53,284.3,671.11,284.31Z"/>
  <path class="cls-87" d="M722.64,288.71l1.32,2.48c.34,1.66-1.36,2.51-1.4,4-.84-.07-1.24-.62-1-1,.86-1.74,1.66-3.35-.33-4.92-.29-.23,0-1.07.52-1.23C721.93,287.91,722.33,288.44,722.64,288.71Z"/>
  <path class="cls-88" d="M723.94,339.64c0,.42,0,.84-.05,1.25a11.06,11.06,0,0,0-1.1,1.06c-.43.53-1.25,1.64-1.43,1.06-.35-1.11-2-2.25-1.65-2.41A16.71,16.71,0,0,1,723.94,339.64Z"/>
  <path class="cls-82" d="M709.15,353.92c.24-2.25.68-3.21,2.22-2.95.4.07,1,.09.93.59C712.09,353.34,710.35,352.55,709.15,353.92Z"/>
  <path class="cls-89" d="M711.28,330.79c0-2.62,1.58-4.65,2.56-6.91.5,2.1-1.05,3.74-1.25,5.68h0Z"/>
  <path class="cls-80" d="M677.39,283c1.14.29,2.59-.56,3.34.93.07.13-.41.75-.72.83C678.55,285.16,677.57,284.69,677.39,283Z"/>
  <path class="cls-81" d="M705.69,291.23l0,1.32a14.62,14.62,0,0,1-5.68-3.13l.11-.13C702.39,288.69,703.79,290.7,705.69,291.23Z"/>
  <path class="cls-90" d="M673.61,312v6.86C671.88,316.57,672.9,314.29,673.61,312Z"/>
  <path class="cls-91" d="M727.08,298.14c.9.66.57,1.63.64,2.5C726.2,300.73,726.07,300.23,727.08,298.14Z"/>
  <path class="cls-80" d="M683.69,279.91c.1-.76-.21-1.81,1.13-1.71a.86.86,0,0,1,.58.58c.1,1.34-1,1-1.71,1.13Z"/>
  <path class="cls-92" d="M701.43,275.17a3.06,3.06,0,0,1-2.78.07A3,3,0,0,1,701.43,275.17Z"/>
  <path class="cls-22" d="M674.26,282.43c.22-.43.49-1,1-.74.25.15.17.89.24,1.37A1.3,1.3,0,0,1,674.26,282.43Z"/>
  <path class="cls-93" d="M233.44,330.19c-6.83-7.2-14.27-13.82-20.76-21.36,3.5.5,5.37,2.64,6.89,5.75.76,1.55,3.13,2.22,4.57,3.64,2.11,2.07,4.22,4.12,6.24,6.29,1.32,1.42,2.26,3.13,3.69,4.43C234.44,329.65,233.92,329.91,233.44,330.19Z"/>
  <path class="cls-93" d="M233.44,330.19l.63-1.25c2.75.86,4.07,3.36,6,5.21.54.52-.12,1.15-.31,1.71Z"/>
  <path class="cls-93" d="M245.39,341.51c-2.08-1.7-4.72-2.83-5.67-5.65C241.79,335.93,245.37,339.5,245.39,341.51Z"/>
  <path class="cls-94" d="M238.53,264.26a7.79,7.79,0,0,1-4.53-4.53A7.79,7.79,0,0,1,238.53,264.26Z"/>
  <path class="cls-95" d="M224.18,251.29c.43,0,.69,0,.78.08.64.73,1.25,1.49,1.87,2.24-.23.15-.56.47-.68.41A3.54,3.54,0,0,1,224.18,251.29Z"/>
  <path class="cls-96" d="M182.46,279.31a7.63,7.63,0,0,1-4.28-3.92c1.82.58,2.74,2.36,4.31,3.28h0Z"/>
  <path class="cls-73" d="M175,271.66l-1.85-1.24a.68.68,0,0,1-.27-1l.25-.24C174,269.84,175,270.4,175,271.66Z"/>
  <path class="cls-97" d="M182.49,278.67c.13-.67-.25-1.44.33-2a1,1,0,0,1,.67.4c.34.92-.38,1.25-1,1.61Z"/>
  <path class="cls-98" d="M185,328.92c5.46-6.27,11.63-11.83,17.56-17.63.36.19.4.43.1.72a213.33,213.33,0,0,1-16.91,17A.5.5,0,0,1,185,328.92Z"/>
  <path class="cls-99" d="M218.35,369.79l-2.48,2.52c-1.13.16-3,3.92-3.18-.62,1.23-2.28,2.39-4.63,5-5.66a3.16,3.16,0,0,1,2.53.71C218.63,367.3,217.61,368.12,218.35,369.79Z"/>
  <path class="cls-100" d="M171.19,411.92a7.41,7.41,0,0,0,1.78-.37c2.47-1.18,2.39-2.9-.19-4.63,1.64-.53,4.34.57,4.67,2.3.41,2.13-1.79,2.62-3.06,3.66-1.55,1.27-2.6.91-3.21-1Z"/>
  <path class="cls-101" d="M189.42,328.94c1-.29,1.48-1.91,2.53-1.53s.43,1.84.61,2.79a.37.37,0,0,1-.62,0l-1-.53c-.38,2-2.76,2.48-3.39,4.3-.24.55-.56,1-1.25.63-.67.34-1.23,1.81-1.9,1-1.17-1.36,1.14-1.78,1.27-2.91C186,330.55,187.57,329.61,189.42,328.94Z"/>
  <path class="cls-99" d="M188.16,396.83c.74-.23,1.58-1.13,2.2-.16.45.72-.52,1.22-1,1.75a5.57,5.57,0,0,1-.88.87c-1,.7-1.67,2.61-2.77,2-1.32-.73-2.13-2.42-3.09-3.74a.67.67,0,0,1,.33-1c.56-.2.63.31.77.69.29.76.8.35,1.26.23A11.23,11.23,0,0,0,188.16,396.83Z"/>
  <path class="cls-102" d="M192.55,394.68c.19-2.33,2.07-3.76,1.91-5.89,0-.39,1.32-.94,2.21-.54.56.24,1.25.42,1.39,1.13.23,1.09-.8,1-1.34,1.37C195.32,391.8,194.79,393.73,192.55,394.68Z"/>
  <path class="cls-103" d="M199.48,318.89l2.33-1c-.78,3.06-1.74,4-6.5,6.7-.59-1.15.77-1.27,1-2A5.24,5.24,0,0,1,199.48,318.89Z"/>
  <path class="cls-104" d="M228.52,360l-.55.43-2.45,1.44a7.67,7.67,0,0,0-2-4.17c-.42-.39-1-1-.23-1.51a.8.8,0,0,1,1.22.55c.43,1.43,1.6,1,2.59,1.12a.74.74,0,0,1,.63.63C228,359,228.28,359.49,228.52,360Z"/>
  <path class="cls-105" d="M185,328.92l.75.07-.33,1.15a.46.46,0,0,1-.45.47l-8.06,7.24c0-.44,0-.89,0-1.34Z"/>
  <path class="cls-99" d="M239,348.42c-1.18.87-1.55,2.8-3.47,3.1-.71.11-1-.15-1-1,0-2.68,2.6-1.87,3.73-3C238.57,347.17,238.94,347.73,239,348.42Z"/>
  <path class="cls-106" d="M217.72,366c-2.14,1.48-2.64,4.41-5,5.66A5.45,5.45,0,0,1,217.72,366Z"/>
  <path class="cls-107" d="M199.48,318.89c-1.06,1.24-1.74,2.81-3.14,3.77-1.09-.12-1.65-.85-.93-1.65C196.45,319.86,197.1,317.58,199.48,318.89Z"/>
  <path class="cls-108" d="M185,330.61l.45-.47c1.14-.13,1.6-1.26,2.52-1.69.64-.3,1.39-.84,1.49.49l-3.77,3.78C183.82,332.53,184.92,331.4,185,330.61Z"/>
  <path class="cls-109" d="M186.28,334.6l1.25-.63c1.25-.82,2.16-.39,2.8.81.22.41,0,1-.42,1C188.62,335.67,186.93,336.75,186.28,334.6Z"/>
  <path class="cls-100" d="M171.18,411.92c-.93-.13-2,1.22-2.79-.19-.54-1,.36-1.72,1.05-2,2.3-.8,1.55,1.11,1.75,2.15Z"/>
  <path class="cls-110" d="M205.61,378.75c.83-.11,1.28.15,1.31.74a2.46,2.46,0,0,1-1.36,2.21c-.64.34-.8-.71-.92-1.19A1.44,1.44,0,0,1,205.61,378.75Z"/>
  <path class="cls-111" d="M188.16,396.83c-.9.94-1.63,2.73-3.14.63C185.71,395.49,186.91,396,188.16,396.83Z"/>
  <path class="cls-112" d="M202.65,312c0-.24-.07-.48-.1-.72,1.58-1.6,2.68-3.77,5.13-4.33Z"/>
  <path class="cls-113" d="M191.94,330.2h.62c-.13,1.08.31,2.22-.52,3.68C191.63,332.41,189.16,331.54,191.94,330.2Z"/>
  <path class="cls-114" d="M227.78,358.49l-.63-.63-1.53-1.44C228.25,356.09,228.34,356.18,227.78,358.49Z"/>
  <path class="cls-100" d="M165.07,407.64c1.68.35,1.8,1.43,2,2.49A2.85,2.85,0,0,1,165.07,407.64Z"/>
  <path class="cls-115" d="M194.66,386.54a2.35,2.35,0,0,1,2.78.16C196.55,387.64,195.79,387.56,194.66,386.54Z"/>
  <path class="cls-116" d="M454.77,342.76c-3.82.35-7.59.9-11.47.24a12.22,12.22,0,0,1-9.72-7.22c-1.54-3.3-1.89-6.62-.11-9.95l.66-1.24c6.25-7.48,14.7-6.26,22.93-5.72a24.58,24.58,0,0,1,7.23,1.84c2.61.58,2.81,2.34,3.17,4.76,1.27,8.49-3.74,12.62-10.16,16C456.68,342.38,455.47,342.06,454.77,342.76Z"/>
  <path class="cls-117" d="M467.93,356c0-1.57,0-3.14.09-4.71,0-.59-.08-1.4.88-1.28a.87.87,0,0,1,.74,1.17c-1.42,3.83,1.12,3.75,3.55,3.47,2-.24,4.25,1,6-1.36.51-.7.41,1.34,1.42,1.73a3.74,3.74,0,0,0,1.15-2.89q.08-22.07.06-44.14c0-3.89-1.56-7.81.74-12.4v60.45l-.05,0A85.06,85.06,0,0,1,468,356Z"/>
  <path class="cls-86" d="M468.63,323.28c-.07-1.52.11-3.61,1.77-3.36s3.39,2.23,3,4.05c-.45,2.08,1.61,4.52-.87,6.24-.1.07,0,.4,0,.6.06,1.29,2.7,1.95,1.2,3.2a12.65,12.65,0,0,1-3,1.45c-.48-1.89,1.45-3.75-.19-5.49-1.1.72-.1,2.18-1.21,2.75-1.05-2.3-1.55-4.6-.09-6.92.47-.81,1.29,1.13,1.53-.12.14-.79-.68-.27-1.08-.32A1.56,1.56,0,0,1,468.63,323.28Z"/>
  <path class="cls-118" d="M469.26,305.68c-1.75-.28-1.15-1.67-1.26-2.71-.27-2.65.6-5.4-.64-8,.13-.64,0-2,.81-1.55,1.4.75,2.3,1.41,2.83-.68.35.16.83.22,1,.49a1.37,1.37,0,0,1-.27,1.93c-3,3.19-2.65,4.32,1.33,5.53,3,.89,2,3,1.19,5a2.59,2.59,0,0,1-.63-1.23,2.06,2.06,0,0,0,.63,1.24,1.14,1.14,0,0,1-1.26,1.25c-.95.32-1.32-.34-1.7-1-.4-.46.19-1.56-1-1.49A8.35,8.35,0,0,1,469.26,305.68Z"/>
  <path class="cls-119" d="M428.27,279.22c.9-.22,1.81-.37,2.69-.66a1.25,1.25,0,0,1,1.78.64c.49.9.44,1.56-.59,2l-.09-.2-.12.17.21,0a8.44,8.44,0,0,0,.76.9c3.25-2,6.26,1.29,9.46.4.63-.18,1.6-.08,1.52,1-.06.81-.82.85-1.44.82-1.75-.06-3.54.31-5.26-.3a4.89,4.89,0,0,0-3.05,0c-3.35.92-5.62-1-5.82-4.76Z"/>
  <path class="cls-120" d="M457.31,342.14c1.06.09,1.87.54,1.77,1.73a1.54,1.54,0,0,1-1.79,1.39,89.1,89.1,0,0,0-15.83.64,1.35,1.35,0,0,1-1.48-.61c.84-1.35,2.19-1.26,3.51-1.26,3.14,0,6.28.06,9.42,0a4.55,4.55,0,0,0,3.14-1.21C456,341.62,456.58,341.75,457.31,342.14Z"/>
  <path class="cls-121" d="M420.83,341.52c-2.95-2.33-2.12-5.74-2.51-8.8,1.71.57.87,2.4,2.22,4.15.22-4.22-1.16-8,1.12-11.28,0,4.19,1.5,8.42-.52,12.54C420.61,339.22,420.92,340.39,420.83,341.52Z"/>
  <path class="cls-122" d="M441.4,314.58c-2.37-1.47-5.22-.58-8-.58-1.36,0-2.43,0-3.38,1-.34.36-.83.74-1.31.19-.18-.2-.31-.77-.21-.84,1.25-.93,1.36-2.75,4-2.71,3.19.05,6.2,1.18,9.37,1,.8-.06,2.2-.46,2.07,1.06C443.75,314.84,442.53,314.34,441.4,314.58Z"/>
  <path class="cls-123" d="M464.29,320.71c-5-.95-9.85-2-15-1.93-5.3.1-10.07,1.09-13.8,5.17a4.29,4.29,0,0,1-1.38.64,11.37,11.37,0,0,1,8-5.79c7.12-1.16,14.26-1.34,21.2,1.18A3.93,3.93,0,0,1,464.29,320.71Z"/>
  <path class="cls-124" d="M456,287.3H444.8C448.55,286.57,452.31,285.3,456,287.3Z"/>
  <path class="cls-125" d="M468.63,323.28c.41.63.83,1.26,1.25,1.89a.5.5,0,0,1,0,.63c-2.5,2.1-.37,4.61-.62,6.92-.34.37-1.12,1.33-1.12.32C468.15,329.79,467.28,326.47,468.63,323.28Z"/>
  <path class="cls-126" d="M433.47,325.83a19.85,19.85,0,0,0,.11,9.95C431.13,332.59,430.82,328.64,433.47,325.83Z"/>
  <path class="cls-127" d="M454.11,317.6h-10c.37-2.05,2.27-.79,3.26-1.5,1.34-.07,2.68-.05,4,0C452.27,316.69,453.93,315.82,454.11,317.6Z"/>
  <path class="cls-128" d="M469.26,305.68c.21-.63.42-1.25.62-1.88,1.68-.42,1.25,1.27,1.89,1.89a2.14,2.14,0,0,0,1.25,1.25c-.09,1-.49,1.9-1.69,1.75-1-.12-.75-1.06-.82-1.75A1.15,1.15,0,0,0,469.26,305.68Z"/>
  <path class="cls-129" d="M454.11,317.6c-.53-1-1.94-.21-2.47-1.22a2.47,2.47,0,0,1,2.52,0c1.91,0,3.88-.25,6.19,1.23Z"/>
  <path class="cls-130" d="M444.1,305.7a24.14,24.14,0,0,1,11.94,0Z"/>
  <path class="cls-129" d="M447.25,316.38c-.73,1.18-2.38.05-3.11,1.23a7.22,7.22,0,0,1-1.81-.08c-.69-.22-2-.35-1.57-1.32s1.37,0,2.09.16A6.83,6.83,0,0,1,447.25,316.38Z"/>
  <path class="cls-131" d="M464,277.75c1.74-.13,2.82-1.48,4.11-.3.48.45-.18,1-.55,1.26C466.26,279.76,465.37,279,464,277.75Z"/>
  <path class="cls-132" d="M447.25,316.38h-4.4a21.08,21.08,0,0,1,11.31,0h-6.91Z"/>
  <path class="cls-84" d="M462.07,351.21c-.92,1.57-2.18,1.86-3.68,2.48C458.87,351.38,459.86,350.54,462.07,351.21Z"/>
  <path class="cls-118" d="M465.48,308.2h4.4c-.88,2-3.15.76-4.4,1.88A1.33,1.33,0,0,1,465.48,308.2Z"/>
  <path class="cls-133" d="M465.08,280.25c1.62-.67,2.41,0,3.28,1.12C466.86,282.15,466,281.51,465.08,280.25Z"/>
  <path class="cls-134" d="M422.72,315.74l1.27-1.88c3,1-.26,1.94-.06,2.93C424,317,423.71,317,422.72,315.74Z"/>
  <path class="cls-23" d="M442,309.9c0-.65.43-.89,1-1a.85.85,0,1,1,.26,1.68A1.08,1.08,0,0,1,442,309.9Z"/>
  <path class="cls-135" d="M471.5,279.44c-.18.1-.4.33-.65.36a.75.75,0,0,1-.86-.67c-.07-.5.19-.78.71-.61S471.48,278.8,471.5,279.44Z"/>
  <path class="cls-136" d="M465.48,308.2v1.88c-1.74-.44-1.52-1.38-.63-2.49Z"/>
  <path class="cls-137" d="M427.72,286.24c.21-.47-.34-1.26.57-1.43.11,0,.36.21.41.36.32.94-.44.91-1,1.06Z"/>
  <path class="cls-138" d="M457.31,342.14a1.32,1.32,0,0,0-1.26.63h-1.28a2.55,2.55,0,0,1,2.53-1.27Z"/>
  <path class="cls-139" d="M645.17,346.54a13.45,13.45,0,0,1-6.09,5.19l1.22-2c.64-1,2.41-1.47,1.26-3.14h0c-5.49-2.73-6.67-4.61-5.61-10.58a2.17,2.17,0,0,1,1.6-1.56c1.37.5,2,1.73,2.87,2.79.32.41.79,1.11.54,1.39-3.15,3.46,1.11,4.17,2.23,6C643.65,345.32,644.64,345.74,645.17,346.54Z"/>
  <path class="cls-140" d="M603.86,295.74c-1.86,3.44-3.55,6.78-3.51,10.75a2.58,2.58,0,0,1-2,2.51.86.86,0,0,1-1.22-.61c-.33-1.52-.55-3.06-.82-4.59,4,.81,1.8-3.16,2.74-3.68C601,299,601.51,296.31,603.86,295.74Z"/>
  <path class="cls-122" d="M636.52,335.86c-1.32,5,1.5,8,5,10.68-1.79.62-3.14.87-4.21-1.48-.72-1.59-2.17-3.07-4.81-2-2.25.91-1.39-2-2.41-2.88l.36-.23c1-.29,2,.23,3-.1.06-.68-1.26-.67-.79-1.53v0a10.77,10.77,0,0,0,2.58-2.46v0A.87.87,0,0,1,636.52,335.86Z"/>
  <path class="cls-122" d="M604.46,352.21a3.89,3.89,0,0,1-1.4-2.3c.14-.06.3-.17.33-.14,2.44,2.18,4.41,1.72,6.79-.48,1.13-1.05,2.84.66,4.11,1.56s1,1.85.29,3.44c-1.68-3.48-3.82-3.2-6.15-1.38-1,.8-2.21.47-3.33.54C604.58,353.2,604.8,352.56,604.46,352.21Z"/>
  <path class="cls-141" d="M637.78,279.28l-.63.64c-.65,1.18.5,2.66-.62,3.76a6.47,6.47,0,0,1-4.15-.25c-.78-.28-2.07-.5-1.77-1.69.25-1,1.4-.43,2.14-.57.48-.2,1.06-.38.55-1.05s-2.54-.9-1.58-2.45,2.37-.79,3.65-.35l0,0C635.55,278.69,637.83,277.57,637.78,279.28Z"/>
  <path class="cls-139" d="M635.37,277.32c-1.13.3-2.5-.42-3.41.77.37,1.68,3.45.54,2.95,2.8-.23,1-1.29,1.25-2.16.28-2.26-2-5.61-2.28-7.37-5.15,1.28.45,2.58.85,3.82,1.37s1.9-.14,2.29-1.23a12.74,12.74,0,0,1,3.24.57Z"/>
  <path class="cls-142" d="M631.59,356c-7.81,2.79-15.61,3.27-23.42,0,2.56.3,5.13.53,7.68.92a30.86,30.86,0,0,0,12.5-1,1.81,1.81,0,0,1,2.51-.09Z"/>
  <path class="cls-139" d="M645.16,283.13c.11.58.21,1.17.32,1.76-2-.34-3,1-3.89,2.45-.71,1.09-1.6,2.07-2.73,3.5-.61-2.7.11-4.21,2-5.26,2.06-1.13,2.31-2.56.68-3.78-.52-.46-1.34-.66-1.4-1.54.06-.14.12-.27.19-.4C642.38,280.31,643.35,282.34,645.16,283.13Z"/>
  <path class="cls-143" d="M610,275.46c6.58-2.61,13.17-2.91,19.76,0-4.85-.94-9.75-.48-14.63-.56-.94.72-2.19-.16-3.11.61Z"/>
  <path class="cls-121" d="M600.67,324.36c0,2.59,0,5,0,7.43,0,.5.05,1.12-.62,1.24s-1-.36-1.16-.83c-.62-1.48-2.34-2.91,0-4.49C599.91,327,599.07,325.21,600.67,324.36Z"/>
  <path class="cls-144" d="M584.94,325.83a35,35,0,0,1-1-13.5c.25-2.23-.2-4.6.94-6.72l.34.28a1.67,1.67,0,0,1-.17,1.67c0,1.66-.08,3.33-.11,5a14.36,14.36,0,0,0,0,6.39l.09,5A1.66,1.66,0,0,1,584.94,325.83Z"/>
  <path class="cls-145" d="M584.94,325.83c0-.63,0-1.27.08-1.9,1.4,3.83,2.88,7.65,3.1,11.8-.18.41-.36.42-.56,0Z"/>
  <path class="cls-139" d="M643.6,293.17a4.19,4.19,0,0,1-2,2.49c-.14-.53.28-1.42-.62-1.48-2-.16-1.07-1.45-1.17-2.38,1.49-.42,1.8,1.43,3,1.31A.55.55,0,0,1,643.6,293.17Z"/>
  <path class="cls-142" d="M604.46,352.21a1.32,1.32,0,0,1,.64,1.24c.56,1.41,3,.58,3.06,2.61l-1.79-.19q-2.26-1.5-4.55-3C602.71,352.7,603.76,353.14,604.46,352.21Z"/>
  <path class="cls-140" d="M596.5,304.51c-2.15-2.28-1.29-4.1-1.36-6.31C597,300.14,595.94,302.1,596.5,304.51Z"/>
  <path class="cls-140" d="M599.32,296.65c-.06.66-.36,1.21-1.09,1.26a1.66,1.66,0,0,1-1.61-1.25c-.34-.93.43-1,1.06-1S599.19,295.57,599.32,296.65Z"/>
  <path class="cls-146" d="M646.59,285.62c2,2,1.89,2.46-1.22,5C645.33,288.87,647.52,287.62,646.59,285.62Z"/>
  <path class="cls-122" d="M641.56,346.55c.6.05,1.52.16,1.42.78a2.84,2.84,0,0,1-2.68,2.36Z"/>
  <path class="cls-139" d="M637.78,279.28c-.33-1.25-3.21.61-2.44-2,2.08.06,3.46,1.47,5,2.57l-.08.11a1.38,1.38,0,0,1-1.85-.06Z"/>
  <path class="cls-147" d="M630.86,355.89l-2.51.09c-.13-2,1.71-1.49,2.55-1.56S631,355.36,630.86,355.89Z"/>
  <path class="cls-139" d="M636.53,283.68c.15-1.26-1-2.74.62-3.77C637.62,281.28,638.84,282.78,636.53,283.68Z"/>
  <path class="cls-144" d="M584.87,305.61a14.78,14.78,0,0,1,1.91-6.28c.49,1.56-.68,2.91-.59,4.43-.69.5.27,1.87-1.07,2Z"/>
  <path class="cls-146" d="M643.6,293.17l-.79-.06c-.4-2.15,1.22-2.18,2.59-2.48C645.29,291.82,644.39,292.46,643.6,293.17Z"/>
  <path class="cls-145" d="M584.93,318.94a8.33,8.33,0,0,1,0-6.39Z"/>
  <path class="cls-148" d="M595.07,347.76c-1.47.24-1.71-1.23-2.56-1.85h0c0-.46,0-.91.07-1.37C593.43,345.6,594.94,346.15,595.07,347.76Z"/>
  <path class="cls-149" d="M590.08,290.09c-.11-1.81,1.27-2.46,2.51-3.22A4.74,4.74,0,0,1,590.08,290.09Z"/>
  <path class="cls-141" d="M638.41,279.91l1.85.06,1.29,1.83A3,3,0,0,1,638.41,279.91Z"/>
  <path class="cls-143" d="M634.73,276.73a5.13,5.13,0,0,1-3.24-.57,1.35,1.35,0,0,1-1.25-.62l2.48,0Z"/>
  <path class="cls-150" d="M596.92,281.82c.75-1.25,1.53-2.46,3.24-2.46A5.42,5.42,0,0,1,596.92,281.82Z"/>
  <path class="cls-151" d="M587.56,335.75l.56,0a8,8,0,0,1,1.3,3.87C588,338.68,588.13,337.06,587.56,335.75Z"/>
  <path class="cls-145" d="M585.12,305.8l1.07-2c-.06,1.36.49,2.91-1.15,3.8C585.07,307,585.09,306.39,585.12,305.8Z"/>
  <path class="cls-152" d="M628.3,340.23c.9-.33,1.48-1.38,2.62-1.17.21.69-.3.89-.75,1.12l0,0-1.82.63C628.31,340.6,628.31,340.42,628.3,340.23Z"/>
  <path class="cls-153" d="M612,275.51c.87-1,2.06-.47,3.11-.61C614.25,276,613.05,275.35,612,275.51Z"/>
  <path class="cls-148" d="M597,349.64a2.75,2.75,0,0,1-2-1.89A2.22,2.22,0,0,1,597,349.64Z"/>
  <path class="cls-154" d="M504.57,276.94V381.58h-.52V276.88Z"/>
  <path class="cls-155" d="M525.83,354.1c-1.62-.94-3.24-1.88-4.85-2.84-.5-.3-.83-1.08-1.55-.8-.9.36-.59,1.24-.59,1.92,0,7.32-.16,14.65.07,22,.11,3.38-1.25,5-4.36,5.58,3.42-1.71,3.2-4.81,3.15-7.95-.09-6.59.19-13.18-.12-19.76-.15-3.18,2.21-3,3.85-3.9.46-.26.92.47.8.63-2.18,3,1.6,2.09,2.19,3.3s2.92.61,3.32,2.43C526.92,355.11,526.45,354.37,525.83,354.1Z"/>
  <path class="cls-129" d="M526.48,279.91c.87-.08,2.27.19,2-1.14-.4-2.43.36-2.44,1.72-1,.91,1,1.93.28,3.14.71-1.67,2-4.15,2.5-6,3.79.45,1,1.16.68,1.73.74,1.32.15,3.54-1.71,3.5,1.58a13.32,13.32,0,0,0,2,.32,1.66,1.66,0,0,1-.6,2.51c-2.77-2.87-7.27-2.24-10.08-5C525,281.78,526.81,281.93,526.48,279.91Z"/>
  <path class="cls-88" d="M520.19,342.15c1.74,1.41,3.88.06,5.71.84-1.49,1.57-7,2.21-8.58,1-1-.81-1.93-1.88-1.46-3.21.74-2.13-.22-3.78-1.24-5.55,2.71.23,3.35,1.76,3.07,4a2.06,2.06,0,0,0,1.24,2.31C519.63,341.18,519.94,341.59,520.19,342.15Z"/>
  <path class="cls-156" d="M516.42,328.94c1.46-9.77,0-19.62,1.24-29.41V332.7C515.68,332,517.45,330,516.42,328.94Z"/>
  <path class="cls-157" d="M534.36,344.23c1.74,2.5,1.25,11.35-.48,12.15C535.44,352.47,534.5,348.29,534.36,344.23Z"/>
  <path class="cls-158" d="M519.38,286c.88.51,1.49,1.08,1.33,2a2.24,2.24,0,0,1-2.27,1.72c-.83.07-.81-.8-.69-1.38A4.17,4.17,0,0,1,519.38,286Z"/>
  <path class="cls-128" d="M520.19,342.15l-1.26-.63c.07-1.15-1.28-2.24-.17-3.45C522.21,341.49,522.21,341.49,520.19,342.15Z"/>
  <path class="cls-129" d="M522.35,285.48a1,1,0,0,1-.56-1.73c.78-.93-1.14-3.05,1.35-3.07.79,0,.89,1.34.8,1.36C521.83,282.47,524.44,285.12,522.35,285.48Z"/>
  <path class="cls-159" d="M534,287.45a4.19,4.19,0,0,0,.6-2.51v-8.65h.58v11.11Z"/>
  <path class="cls-23" d="M514.58,379.9C512,381,510,383.39,507,383.75,509.3,382,511.4,379.89,514.58,379.9Z"/>
  <path class="cls-88" d="M516.42,328.94c1.32.95-.07,2.81,1.24,3.76.54,1.05.32,1.76-1.24,2.12Z"/>
  <path class="cls-160" d="M516.84,276.47c1.18,1.44.79,2.89.33,4.34C516.05,279.36,517.81,277.91,516.84,276.47Z"/>
  <path class="cls-161" d="M521.22,337.28c.86.57,1.92.83,1.79,2.13,0,.18-.56.52-.69.45C521.35,339.37,520.54,338.75,521.22,337.28Z"/>
  <path class="cls-162" d="M525.83,354.1l1.91.57L529,356A3.67,3.67,0,0,1,525.83,354.1Z"/>
  <path class="cls-129" d="M524.67,278.74c.94-.13,1.75-.05,1.81,1.17C525.65,279.87,524.67,280.06,524.67,278.74Z"/>
  <path class="cls-23" d="M507.08,383.71c-.52,1.07-1.53,1.24-2.55,1.4A2.46,2.46,0,0,1,507.08,383.71Z"/>
  <path class="cls-1" d="M570.5,333.34c.08-1.76-.39-3.65,1.25-5,.78.48,2.51-1.3,2.48,1,0,1.15.84,3.31-2,2.1C571.34,331,572.51,333.88,570.5,333.34Z"/>
  <path class="cls-1" d="M592.51,345.91c-.07,1.28,0,2.47,1.29,3.28a1.16,1.16,0,0,1,.24,1.88c-.88.69-1.17-.25-1.49-.9s-.46-1.27-.91-1.58c-2.82-2-1.41-2.44.88-2.68Z"/>
  <path class="cls-4" d="M552.8,332.68a45.25,45.25,0,0,0,2.45-19.54c-.11-1.65-.3-3.29-.46-4.94,1.63-.42,1.74,1.17,2.5,1.89.88,4.25-.47,8.44-.23,13.3a26.88,26.88,0,0,1,.26-5.25c.16-.64.37-1.27,1.09-1.34.92-.08,1.31.64,1.35,1.39.08,1.77.37,3.52.36,5.3.34-2.58-1.19-5.39.94-7.75,1.19-.81,2-.33,2.43.84a4.81,4.81,0,0,1,.28,1.85,7.49,7.49,0,0,1-.42,3.38c.59.21,1.37-.27,1.82.56.57,1.06.4,2.25.68,3.35a15,15,0,0,1,.47,3.71,11.63,11.63,0,0,0,.57,4c.79,2.62,0,4-2.86,5.23-1.65-1.68-3.15-1.94-4.72.22-.92,1.26-2.44,1.41-3.94,1.46-1,0-2,.33-2,1.51.1,1.57,1.06.83,2,.63,1.15-.25,2.94,2.4,2.41,4.16-.49,1.59.13,2.55.79,3.68a24.09,24.09,0,0,1-12,6.8c-2.14.53-3.12-.23-3-2.52a25.44,25.44,0,0,0,0-6.23c-.93-4.85,1.5-7.54,5.45-9.46.84,2.4-2.09,2.62-2.44,4.39a12.5,12.5,0,0,1,3.64,1.59,4.72,4.72,0,0,1-1.84-2.45c-.36-1.46.89-2.08,1.65-2.76C552.17,337.77,553.74,335.75,552.8,332.68Z"/>
  <path class="cls-119" d="M554.78,279.28c.16.62,1.35.71.77,1.74-1.24,2.18-7.72,2.66-9.08.59a2.08,2.08,0,0,0-1.74-1.07c-1.08-1.27-.63-2.77-.52-4.16a1.8,1.8,0,0,1,2.23-1.65c2.73,1.1,5.83,1.26,8.22,3.18A.93.93,0,0,1,554.78,279.28Z"/>
  <path class="cls-163" d="M561.06,315.74c-.62,2.78-.15,5.54.15,8.29.08.7.62,1.51-.57,1.67s-1.45-.56-1.45-1.53v-7.41c-2.14,2.32-1.58,4.27-1.32,6.23.12.84.43,1.92-.57,2.55a.87.87,0,0,1-.84-.11,2.3,2.3,0,0,1-.35-2.37c1-3.18.4-6.43.53-9.64a6.68,6.68,0,0,1,.65-3.33,6.45,6.45,0,0,0,.21-1.49,1,1,0,0,1,1.11-1.14c.72,0,.56.73.56,1.21,0,1.66.06,3.32,0,5C559.11,315,559.51,315.87,561.06,315.74Z"/>
  <path class="cls-164" d="M568,313.23c1.39-2.35,0-5.17,1.26-7.54,1.33,0,1.13,1.19,1.16,1.8.4,6.49,1.24,13-.63,19.44a10.92,10.92,0,0,0-1,2.87c-.18.87-.36,2-1.59,1.82s-1-1.31-1.1-2.19c0-.31,0-.61,0-.92a4.86,4.86,0,0,1,.76-3.12c1.45-2.08.79-4.33.55-6.55C567.2,316.94,566.6,315,568,313.23Z"/>
  <path class="cls-165" d="M569.24,327.06c1.79-7.12,2.14-14.25,0-21.37-.21-1.26.5-2.66-.62-3.76l0,0c.82-2.87-1.15-5-1.88-7.53-.23-.18-.59-.25-.63-.63-.4-1.7-.8-3.39-1.21-5.09a19.38,19.38,0,0,1,3.75,8c3.46,13.42,4,26.9-.77,40.17-.62,1.7-.89,3.91-2.94,4.87a2.2,2.2,0,0,1,.08-2.62C567.24,335.38,568.11,331.18,569.24,327.06Z"/>
  <path class="cls-166" d="M554.78,279.28c-1.83-3.41-5.67-2.76-8.52-4.08-.64-.3-1.59.75-1.54,1.91s0,2.29,0,3.43a39.62,39.62,0,0,1,0,4.36,6.72,6.72,0,0,0,1.86,5.87c-2.31-.52-3.11-1.92-3-4.29.2-3.1,0-6.22.06-9.33s1.11-3.8,3.82-2.63a9.31,9.31,0,0,0,4.14,1.05c4.84,2.48,9.2,5.51,12,10.34a6.55,6.55,0,0,1,1.27,2.77c-1.42-.69-3.16-1-2.85-3.32.1-.71-.87-1.31-1.63-1.68a15.88,15.88,0,0,1-3.14-3.15C556.71,279.61,556.21,278.51,554.78,279.28Z"/>
  <path class="cls-163" d="M567.35,325.8a4.3,4.3,0,0,0-.63,2.52c-.56.27,0,1.63-1.25,1.25l-.9-7.48c-1.5,1-.53,2.52-1.56,3.44-1.16-1-.75-2.25-.4-3.33.5-1.55.24-3.1.34-4.65.1-1.38-.6-1.89-1.89-1.81.09-2.23-.41-4.55,1.2-6.75,1.74,1.85,1.22,4.06,1.32,6.13,2.35-.05,2.47,1.57,2.73,3.34s-1.08,3.89.93,5.38A1.31,1.31,0,0,1,567.35,325.8Z"/>
  <path class="cls-164" d="M566.72,323.92c-.12.48-.14,1.3-.39,1.38-1,.33-.83-.61-.84-1.12a42.29,42.29,0,0,1,0-5.63,3.11,3.11,0,0,0-1.93-3.43c1.93-2.21,2-4.86,1.93-7.6,0-1,.58-1.95,1.69-1.68s.29,1.12.15,1.73c-.09,4.7.23,9.38.21,14.08A3,3,0,0,1,566.72,323.92Z"/>
  <path class="cls-88" d="M566.72,323.92c.58-5.44-.86-10.95.63-16.35,1.27,1.77.35,3.78.63,5.66-.42,3.25.77,6.4.64,9.64,0,1.17,0,2.34-1.27,2.93C567.33,325.11,567.47,324.37,566.72,323.92Z"/>
  <path class="cls-167" d="M557.3,280.53c1.93.17,2.4,1.79,3.14,3.15C556.5,283,556.5,283,557.3,280.53Z"/>
  <path class="cls-168" d="M555.85,294.82c-.05.82-.89,1-1.29,1.59-.23-.3-.61-.59-.66-.92-.11-.72.45-1.13,1-1.34S555.68,294.36,555.85,294.82Z"/>
  <path class="cls-164" d="M568.62,301.93c-.1.68.21,1.43-.42,2.12a2,2,0,0,1-.55-2.82l1,.67Z"/>
  <path class="cls-164" d="M566.09,293.74l.63.63c-.64.06-.8,1.7-1.61.71C564.45,294.28,565.28,293.86,566.09,293.74Z"/>
  <path class="cls-169" d="M372.23,310.08c0-14.13-.06-28.27,0-42.41,0-2.71-.71-3.66-3.53-3.6-8.48.17-17,0-25.46.1-2.22,0-3-.69-2.89-2.87.12-3.45.19-6.92,0-10.37-.17-2.8,1.3-3,3.47-3q32.22.08,64.43,0c2.94,0,5.87,0,8.8,0,1.78,0,2.74.55,2.74,2.5,0,3.86.13,7.72.16,11.58,0,2.17-1.54,2.1-3.07,2.1l-24.51,0c-4.09,0-4.1,0-4.1,4.17,0,28.28,0,56.55.07,84.83,0,2.82-.79,3.68-3.53,3.49a82.23,82.23,0,0,0-9.42,0c-2.4.12-3.26-.58-3.24-3.16C372.3,339,372.23,324.53,372.23,310.08Z"/>
  <path class="cls-82" d="M558.59,350.33c-1.22-.87-3.87-1.05-1.44-3.57.86-.88-.95-1.49-1-2.84-.16-2.66-1.26.31-1.61.17-1-.38-2.4-1.14-2.48-1.88-.16-1.38,1.43-2.91,2.41-2.7,2.95.61,4.27-1.11,6-2.83,2.17-2.11,2.64.06,3.12,1.69l-.27.34a18.39,18.39,0,0,0-3.19,2.38c-1.75,1.53-1.87,2.82.07,4.18a7.71,7.71,0,0,1,.72.44c.94.64,1.2,1.36.26,2.22a17.77,17.77,0,0,0-1.94,1.94Z"/>
  <path class="cls-82" d="M565.47,329.57l1.25-1.25c.1.91-.24,1.88.48,2.92,1.4-1.09.47-3.31,2-4.18.33,4.11-1.69,7.54-3.16,11.13-.47,1.14-.78,2.36-1.16,3.54a.3.3,0,0,1,0,.4c-.68,1.12-1.63,2.06-2.21,3.24s-1.34,1-2.25.55h0c-1-1.26-.36-2.42.39-3.41,1-1.32,1.74-2.82,2.75-4.14,2.17-1.09,4-2.29,2.25-5.13C565.13,332.11,565.57,330.8,565.47,329.57Z"/>
  <path class="cls-170" d="M552.8,332.68c2.18,1.2.73,2.87.5,4.33a3.86,3.86,0,0,1-1,1.56c-1.05,1.31-3.33,1.77-3.3,3.72s2.48,1.88,3.75,3.4c-1.58.23-2.73.57-3.74-.51-.21-.23-.61-.33-.71-.58-.65-1.66-3.61,1.4-3.25-1.44.13-1,2-1.86,3.11-2.71a1.69,1.69,0,0,0,.86-1.53V339c1.09-1.51,3-2.48,3.15-4.6l.09-1.64A1.87,1.87,0,0,1,552.8,332.68Z"/>
  <path class="cls-171" d="M560.44,345.92c2.64.09,2.22-3.42,4.46-3.79-1.08,3.18-2.62,6-5.67,7.74a3.24,3.24,0,0,1,1.44-2.17C562.05,346.92,560.67,346.49,560.44,345.92Z"/>
  <path class="cls-4" d="M552.18,334.37c.33,2.47-1.51,3.47-3.15,4.6C549.48,337,551.43,336.11,552.18,334.37Z"/>
  <path class="cls-4" d="M468,356l14.54,0A43.8,43.8,0,0,1,468,356Z"/>
  <path class="cls-171" d="M645.17,346.54c-3.77-1.23-5.36-4.51-7.37-7.3.92-1.32,2,.36,2.69-.62-.58-1.55-2.31-2.34-2.71-4,1.17-1.52,1.33.44,2,.59l1.13.66c1.22,1.18,2.6,2.25,2.76,4.13-.12.14-.24.28-.35.43a2.19,2.19,0,0,1,.43-.43,1.6,1.6,0,0,1,1.59.25h0c2.1,1.92,2.14,3.85,0,5.78A.61.61,0,0,1,645.17,346.54Z"/>
  <path class="cls-139" d="M645.36,346c.91-2.34.91-2.34,0-5.78C648.64,342.84,648.64,343.13,645.36,346Z"/>
  <path class="cls-139" d="M645.36,340.23l-1.92,0c-.2-1.83-2.13-2.68-2.51-4.41l1.15.16Z"/>
  <path class="cls-139" d="M630.17,340.18l.75-1.12,1.75-.76c.29,1.45,2.78-.34,2.33,1.26s-2.15,1.6-3.65.95A9.85,9.85,0,0,0,630.17,340.18Z"/>
  <path class="cls-172" d="M639.8,335.19c-.78.17-1.07-1.36-2-.59l-1.26,1.26-1.27,0a6,6,0,0,1,3.09-3.07Z"/>
  <path class="cls-139" d="M635.26,335.86a3,3,0,0,1-2.58,2.46A4.07,4.07,0,0,1,635.26,335.86Z"/>
  <path class="cls-2" d="M80,288.05a4.82,4.82,0,0,1-2.69,2.5A3.38,3.38,0,0,1,80,288.05Z"/>
  <path class="cls-173" d="M172.88,269.42l.27,1c-2.17.62-3.53,2.33-5,3.81-.59.58-1,1.29-1.93,1.3a12.15,12.15,0,0,1,3.11-3.83C170.71,271.28,171.09,269.24,172.88,269.42Z"/>
  <path class="cls-174" d="M700,289.42l5.68,3.13,2.49,3.11a2.18,2.18,0,0,1-1.63-.8c-6.19-6.29-15.15-7.56-22.82-1.73l-.78-.1c.2-1.24,1.63-1.33,2.15-2.28A20.7,20.7,0,0,1,700,289.42Z"/>
  <path class="cls-175" d="M469.88,325.8v-.63c.1-.7.12-1.6,1.12-1.43.68.11.78.88.74,1.51-.07,1-.45,1.77-1.53,1.9A10.79,10.79,0,0,1,469.88,325.8Z"/>
  <path class="cls-4" d="M471.77,305.69l-1.89-1.89c.11-.48.15-1.2.84-1C472.15,303.32,471.66,304.64,471.77,305.69Z"/>
  <path class="cls-4" d="M474.28,305.69c-2.2-.6-.92-1.61-.43-2.81.71,1.05.31,2,.43,2.8Z"/>
  <path class="cls-4" d="M432.17,281.19c-.75-.18-1.67.34-2.43-.92A1.66,1.66,0,0,1,432.17,281.19Z"/>
  <path class="cls-166" d="M549.88,279c.86.68,2.42-.38,2.67,1.09.14.82-.85,1-1.62,1.08-1.09.11-1.9-.29-2.06-1.4C548.78,279.12,549.37,279,549.88,279Z"/>
  <path class="cls-4" d="M371.78,262.94c-9.5,0-19-.05-28.5.09-1.54,0-1.72-.42-1.7-1.68.05-3.45,0-6.9,0-10.35,1.28-.29,1.75.57,2.15,1.52a2.58,2.58,0,0,1,0,1c-.11.62,0,1.26-.09,1.87-.18,1.5.29,1.91,1.91,1.83,5.21-.27,10.44-.12,15.67-.09a13,13,0,0,1,3.39.52c2.11,1.29,4.29.14,6.42.08,1.71,0-.53-2.17,1-2.56,7.4-1.4,14.79.56,22.19,0,6.4.21,12.81-.43,19.2.34a2,2,0,0,1,.88.79c.76,4,.05,5-3.87,5.07-5.31.06-10.61.22-15.91-.11a7.43,7.43,0,0,1-1.14-.23c-1.27-.4-2.45-.46-3.35.8a1.66,1.66,0,0,1-1.29.81c-3.28-.23-3.19,2-3.32,4.25-.07,1.36-.15,2.71-.15,4.07q0,37.14,0,74.29c0,2.38,1.17,4.73.16,7.13A2.45,2.45,0,0,1,383.7,354c-3.42.38-6.89,1.25-10.2-.58a13,13,0,0,1-.13-3.12q0-40.73,0-81.45c0-1.12-.28-2.3.29-3.38-.42-.63-.84-1.26-1.25-1.89.14-.25.3-.54.08-.77S372,262.75,371.78,262.94Z"/>
  <path class="cls-121" d="M385,352.2c-1.4-24.55-.26-49.11-.62-73.67-.05-2.83.24-5.68-.08-8.47-.3-2.57,1.72-5.25-.45-7.76-.33-.37.27-1.33,1.07-.84,2.27,1.42,3.81,1.28,5.18-1.36.37-.72,2.52-.74,3.53.57-.28.65-.63.23-.27.43a1.08,1.08,0,0,0,.26-.43c.12-.4.54,0,.17-.22,0,0-.24.29-.16.22,5.46-.24,10.74-.24,16-.24,4.27,0,4.27,0,4.28-4.4,1.67-.43,3.1-1.81,5-1.25v7.53c-.59.51-1.11.2-1.63-.15a3.83,3.83,0,0,1-1.13-3c-.62.84-.41,1.9-.86,2.75a3.8,3.8,0,0,1-.77,1.05c-7.6,0-15.2,0-22.79,0a11.16,11.16,0,0,0-4.26.75c-.78.32-1.64.77-.63,1.79.59,1.08.3,2.26.3,3.39q0,36.86,0,73.73a45.92,45.92,0,0,1-1.15,9.27A.76.76,0,0,1,385,352.2Z"/>
  <path class="cls-176" d="M343.49,252.88a4,4,0,0,0-1.88-1.88c-.13-2.49,1.72-1.87,3.05-1.87q23.22,0,46.44,0c6.8,0,13.6,0,20.4,0a16.7,16.7,0,0,1,4.93.65c2.45.62,1.36,1.79.16,2.35a13.73,13.73,0,0,1-5.93,1.75q-31.83-.06-63.65,0C345.76,253.81,344.47,253.91,343.49,252.88Z"/>
  <path class="cls-86" d="M343.49,252.88c22.09,0,44.17-.06,66.26.09,2.51,0,4.55-1.12,6.83-1.57,1.36-.27.75-1.16-.15-1.66,1.5-1.18,2.21-.34,2.45,1.08a21.46,21.46,0,0,1,.06,3.31c-9.39,2.17-18.91.85-28.37,1.15-6.94.23-13.84-.49-20.83.18-8,.77-16.07.26-24.12.11-1.56,0-3.05-.5-2.13-2.69Z"/>
  <path class="cls-176" d="M343.49,252.88c-.12,2.48,1.73,1.87,3.06,1.87q24.13,0,48.28,0c4.38,0,8.77,0,13.16,0,2.33,0,4.67.42,6.92-1.07a3.19,3.19,0,0,1,4,.45v.65c-1.75.13-3,2.41-5,1.25h0a125.27,125.27,0,0,0-20.13,0c-3.08-.59-6.41,1-9,.25-3.22-.87-6.28-.64-9.4-.82-1.18-.07-2.39.8-3.59-.06-2.65,3.13-3.26,3.25-6.17,1.22-1-1.08-2.25-.92-3.49-.92H345.88c-.69.06-.23.73-.35.33,6-.69,12-.12,18-.31a1.53,1.53,0,0,1,1.63,1.72c-.09.16-.18.31-.26.47H343.11C343.47,256.7,341.61,254.69,343.49,252.88Z"/>
  <path class="cls-4" d="M385.62,352.2c2.74-28.88.56-57.83,1.25-86.74,1,.92.61,2.15.62,3.25q0,42.07,0,84.13c-.28.4-.56.88-1.14.68S385.35,352.93,385.62,352.2Z"/>
  <path class="cls-154" d="M373.67,265.46v88a1,1,0,0,1,.18,1.21.58.58,0,0,1-.78.05q0-43.16,0-86.32C373.07,267.4,372.71,266.28,373.67,265.46Z"/>
  <path class="cls-177" d="M373.67,354.72v-1.26c2.69,0,5.37-.06,8.06,0A3.63,3.63,0,0,0,385,352.2h.63c.35,1,1,1.13,1.87.64,0,.64,0,1.27,0,1.9-.47.87-1.27.92-2.13.91-3.39,0-6.78,0-10.18,0C374.55,355.63,373.6,355.94,373.67,354.72Z"/>
  <path class="cls-178" d="M373.67,354.72a32.16,32.16,0,0,0,13.81,0c-.09.91-.65,1.2-1.48,1.2H374.52c-.84,0-1.38-.31-1.45-1.22Z"/>
  <path class="cls-4" d="M414.55,262.94v-1.26c1-.29,2.09-.73,3.14,0a1.27,1.27,0,0,0,1.25.63C417.62,263.53,416,262.69,414.55,262.94Z"/>
  <path class="cls-179" d="M371.78,262.94c0-.75.26-1.41,1.05-1.63a.79.79,0,0,1,.67.4c.29,1-.33,1.46-1.08,1.86Z"/>
  <path class="cls-4" d="M563.58,338.37a3.83,3.83,0,0,1-1.31,3.54,4.85,4.85,0,0,0-1.83,4c-2.14.34-2.12-1.69-2.78-2.76s.77-1.4,1.42-2C560.43,340,561.28,338.05,563.58,338.37Z"/>
  <path class="cls-139" d="M643.46,340.24c-.13.69.24,1.44-.33,2a1,1,0,0,1-.67-.39C642.11,341,642.82,340.62,643.46,340.24Z"/>
  <path class="cls-85" d="M366.12,256.65c1.78.78,3.51,1.43,4.48-1.13.07-.16.77-.09,1.18-.12-.07,1.16,1,1.74,1.65,3-2.41.28-4.67,0-6.8.71a1.25,1.25,0,0,1-1.76-1.2h0c.35-.34.46-.88.89-1.16Z"/>
  <path class="cls-180" d="M393.79,256c.81-1,1.92-.61,2.92-.62q7.14,0,14.3,0c1,0,2.1-.34,2.91.62Z"/>
  <path class="cls-181" d="M417.69,261.68c-1.05.11-2.1.89-3.14,0a3.38,3.38,0,0,0,.35-2.64c-.38-1.4.84-1.09,1.57-1.08.9,0,1.57.72.94,1.36C416.33,260.42,417.44,260.93,417.69,261.68Z"/>
  <path class="cls-4" d="M393.79,260.27c0,1.91-.73,2.28-2.12,1.8C392,260.93,393.15,261,393.79,260.27Z"/>
  <path class="cls-180" d="M364.24,256h-20v-.63h21.24c1.06,0,.82.63.63,1.25h0C365.32,257,364.83,256.35,364.24,256Z"/>
  <path class="cls-4" d="M364.24,256l1.88.62a2.13,2.13,0,0,1-1.25,1.26Z"/>
</svg>
