<svg id="Layer_1" data-name="Layer 1" xmlns="http://www.w3.org/2000/svg" viewBox="0 0 792 612">
  <defs>
    <style>
      .cls-1 {
        fill: #fff;
      }

      .cls-2 {
        fill: #1a4d7e;
      }

      .cls-3 {
        fill: #1b487b;
      }

      .cls-4 {
        fill: #18477a;
      }

      .cls-5 {
        fill: #1b4e7e;
      }

      .cls-6 {
        fill: #1a4e7e;
      }

      .cls-7 {
        fill: #1b4d7e;
      }

      .cls-8 {
        fill: #1c4b7d;
      }

      .cls-9 {
        fill: #163c74;
      }

      .cls-10 {
        fill: #164278;
      }

      .cls-11 {
        fill: #18467a;
      }

      .cls-12 {
        fill: #173872;
      }

      .cls-13 {
        fill: #163e75;
      }

      .cls-14 {
        fill: #18487b;
      }

      .cls-15 {
        fill: #174579;
      }

      .cls-16 {
        fill: #163d74;
      }

      .cls-17 {
        fill: #174378;
      }

      .cls-18 {
        fill: #163b73;
      }

      .cls-19 {
        fill: #163b74;
      }

      .cls-20 {
        fill: #163a73;
      }

      .cls-21 {
        fill: #174479;
      }

      .cls-22 {
        fill: #163973;
      }

      .cls-23 {
        fill: #1b4579;
      }

      .cls-24 {
        fill: #174478;
      }

      .cls-25 {
        fill: #feffff;
      }

      .cls-26 {
        fill: #184679;
      }

      .cls-27 {
        fill: #fefefe;
      }
    </style>
  </defs>
  <path class="cls-1" d="M332.45,378.6c-3.15-2.69-.23-7.74-4-10.19-6-3-9.29-8-10.42-14.48-.6-30.94-.11-61.87-.27-92.8,0-2.57.07-5.15-.05-7.73.11-5.35-.43-10.73.62-16.06.37-1.72,1.66-2.79,2.83-3.94"/>
  <path class="cls-2" d="M319.75,378.6c-10.3-6.06-13-15.47-12.82-26.79.41-35.43.34-70.87.53-106.3a9.5,9.5,0,0,1,12.51-9.3l-.44,17c-1,2.84-.29,5.78-.51,8.67q0,43.33.05,86.66c0,2.47-1,5.16.93,7.43a16,16,0,0,0,9.88,11.22c1.31,3.84,2.17,7.67-.25,11.42Z"/>
  <path class="cls-2" d="M274.56,234.5c2.78.31,2.33,2.43,2.34,4.23q.15,31.2.26,62.4c-1.05,3.62-.24,7.33-.5,11,0,13.35-.05,26.7.06,40,0,2.2-1,4.67,1,6.61a22.59,22.59,0,0,0,6.76,7.46c4.57,3.3,5.67,7.39,2.8,12.37h-9.88c-6.68-4.42-12.68-9.3-12.5-18.38,1.17-13.79.32-27.61.49-41.41.16-12.65,0-25.31,0-38-.27-5.93.59-11.89-.51-17.8-.08-3.7.24-7.47-.32-11.11C263.24,243.32,265.67,237.14,274.56,234.5Z"/>
  <path class="cls-3" d="M287.27,378.6c.39-4.42.09-8.69-2.8-12.37,4,.17,5.64,2.17,5.13,6.25-.25,2,.31,4.08.5,6.12Z"/>
  <path class="cls-4" d="M329.63,378.6q.12-5.7.25-11.42c5.14,2.85,1.06,7.76,2.57,11.42Z"/>
  <path class="cls-2" d="M477.9,343.29c-4.57-.5-8-2.55-9.7-7-.21-3.26.08-6.53-.14-9.79,1.28-4.78,6.57-4.68,9.55-7.69-6.36-5.59-11-12.1-12.14-20.63a21.37,21.37,0,0,0-.07-9.71c3-14.92,11.51-23.43,25.25-25.24a9.66,9.66,0,0,0,7,0,9.25,9.25,0,0,1,6.74,1.52c4.51,3,8.29,3.88,11.92-1.12,1.32-1.83,3.06-2.07,4.62,0s4.35,4.15,1.43,6.47c-5,4-3.31,7.87-1.47,12.68,7.52,19.72-7.85,43.35-29.93,40.91a18.77,18.77,0,0,0-10.82,2.35c-2.39,1.24-4.47,3-2.2,6.09,3.75,1.17,7.48,1.51,11.18-.19,6.43-1.9,13-1.57,19.54-1,9.78.79,16.72,8.89,18.3,20.74,1.15,8.59-4.12,17.08-12.82,20.36-2.6,1-5.36,1.53-8,2.27-1.81-1.12-3.89,0-5.75-.74v.65c.81-.47.05,1.29.48.45-2,.9-4,2.69-5.8-.21,1.34-3.17-.13-6.61.91-9.81,2.22-1.67,5.16.35,7.36-1.43,1.53-.54,3.07-1.05,4.58-1.64,4.61-1.83,7.3-5,6.71-10.19-.56-4.94-3.79-7.19-8.37-8-1.59-.29-3.16-.7-4.74-1.06a2.72,2.72,0,0,1,3.12-.78,22.15,22.15,0,0,0-6.7,0,2.74,2.74,0,0,1,3,.81c-2.38,1.22-4.94,1.22-7.51,1.11Q485.64,343,477.9,343.29Z"/>
  <path class="cls-2" d="M590.57,314.27c-3.85-17.27.51-32.26,13.82-43.8,12.73-11.05,31.92-11.69,46.07,6.33,12.51,15.93,12.23,40.3-.1,56.4-14.06,18.36-38.27,18.31-52.16-.17a35.47,35.47,0,0,1-7-15.14c.6-1.25.35-2.59.4-3.9.07-1.53-.19-.45-.43-.06C591.07,314,590.77,314.07,590.57,314.27Z"/>
  <path class="cls-5" d="M724.73,304c-1.46-3.6-1.25-7.44-1-11.11,1-14.81-8.89-17.22-18.74-15.93s-14.71,7-14.72,17c0,15-.26,30.07.13,45.09.15,5.94-3.11,5.47-7.08,5.58-4.25.12-6.89-.1-6.8-5.77.34-21.13.14-42.27.14-63.41,0-10.07,0-10.07,10.19-9.47,1.31,2.78.45,5.46.54,7.55,1.38-1.7-1-5,.85-7.41,3,2.18-.22,5.81,2.2,8.51,6.65-7.11,14.39-11.21,24.71-10.47,11.28.8,23.3,11.59,22.69,24.07-.82,16.84-.17,33.75-.24,50.64,0,2.49,1.26,6.33-3.7,5.47-3.44-.6-8.53,1.41-8.41-5.32.13-7-.24-14.05-.39-21.07C725.83,313.26,726.52,308.58,724.73,304Z"/>
  <path class="cls-2" d="M400.09,343.31a13.71,13.71,0,0,1-12.5,0c1.45-5.51.56-11.11.6-16.66.14-17.95,0-35.9.09-53.85,0-2.28-.59-4.67.63-6.85.7-.08,1.4-.15,2.1-.25,6.16-.87,10.78.09,8.5,10.71,10.14-11.37,20.64-15.22,32.88-10.6,6.62,2.51,11.87,7.05,14.28,14.13.3,18.44.12,36.89.12,55.34,0,7.6-.12,7.59-8.47,6.5-.57-.07-1,.8-1.38,1.41-2.24-2.36-1.1-5.3-1.21-7.95-.56-13.77-.94-27.55-1.39-41.32.39-3.26,1.53-6.57-.66-9.65-8.62-11.68-23.21-10.49-33.24,2.73-1.8,2-.92,4.47-.89,6.69C399.81,310.24,398.77,326.79,400.09,343.31Z"/>
  <path class="cls-6" d="M539.91,267.22c9.57-.55,10-6.85,9-14.15-.14-1,.49-2.16.77-3.25,1.69,4.55.53,9.11.82,12.67.9-3.74-.88-8.84.77-13.59,2-1.12,3.88-2.27,5.85-3.37,4.68-2.61,4.17.5,3.79,3.45-.53,5.62-1.25,11.24.36,16.81,4.42.15,8.83.37,13.25.45,7.28.12,8,1.39,4.9,9.21-6.09-.47-12.21-1.47-18.23.53l.29-.25c-2,1.93-1.06,4.42-1,6.6.4,13.69-1.16,27.42.79,41.07a16.64,16.64,0,0,0,8.58,10c2.89,3,3.37,6.33,1.64,10.06-1.85,1.28-4.13,0-6,1.07-8.21-.37-13-5-15.48-12.45,1.06-1.41.26-3.11.77-4.67-.56.69-.13,1.79-1.07,2.22-2.51-6.55-1-13.35-1.12-20-.18-8.85-.2-17.73.33-26.56.33-5.48-.73-8.53-7-7.39a1.79,1.79,0,0,1-2.14-1.3A6.77,6.77,0,0,0,539.91,267.22Z"/>
  <path class="cls-7" d="M365.53,265.08c0,25.88-.1,51.17.09,76.46,0,4.84-3.05,3.84-5.64,3.78-3.18-.06-7.38,1.54-7.27-4.49.22-11.95.07-23.9.14-35.85,0-8.2,1-16.48.13-24.57C352,271.22,356.24,267.24,365.53,265.08Z"/>
  <path class="cls-8" d="M436.94,343.21v-5.46c1.61,2.21,2.11,4.83,5.62,4.14,4-.78,2.78-3.83,2.8-6.13.09-16.15,0-32.3.09-48.45,0-2.47-.9-5.19,1.22-7.35,1.65,2.27,1.21,4.9,1.22,7.44q0,23.78,0,47.56C447.9,345.44,447.9,345.44,436.94,343.21Z"/>
  <path class="cls-9" d="M320,356c-2.71-1.87-1.6-4.71-1.6-7.12-.08-29.55,0-59.1-.06-88.65.4-.62.79-.66,1.19,0Q319.76,308.07,320,356Z"/>
  <path class="cls-10" d="M388.91,266q0,35,0,70.06c0,2.46.94,5.19-1.3,7.3q-.24-37.47-.46-74.93C387.12,267.19,387.35,266.06,388.91,266Z"/>
  <path class="cls-10" d="M400.09,343.31c-1.68-1.43-1.26-3.39-1.26-5.21q0-22.69,0-45.39c0-2-.65-4.28,1.6-5.69Q400.26,315.16,400.09,343.31Z"/>
  <path class="cls-10" d="M561.31,323.4c-1.37.78-1.54-.16-1.54-1.14q0-21.48,0-43c0-1.47.25-2.81,1.72-3.56Q561.41,299.56,561.31,323.4Z"/>
  <path class="cls-11" d="M477.9,343.29a19.24,19.24,0,0,1,15.49,0A23.83,23.83,0,0,1,477.9,343.29Z"/>
  <path class="cls-4" d="M571.06,343.35a26.81,26.81,0,0,0-1.17-10c7.22,2.32,3.23,7.16,2.53,11.25A2.87,2.87,0,0,1,571.06,343.35Z"/>
  <path class="cls-12" d="M561.22,276c6-3.08,12.1-2.14,18.23-.53Z"/>
  <path class="cls-13" d="M561.3,265.79c-2.6-5.55-2.08-11.17-.36-16.81Z"/>
  <path class="cls-14" d="M551.3,248.9V264l-1.59.06V249.82Z"/>
  <path class="cls-15" d="M468.06,326.46c2.16,3.24,2,6.5.14,9.79A10,10,0,0,1,468.06,326.46Z"/>
  <path class="cls-16" d="M724.73,304c2.73,4.59,2.19,9.27.37,14Q724.92,310.95,724.73,304Z"/>
  <path class="cls-17" d="M496.23,364.52c-.5,3.26,1.18,6.79-1.23,9.8.37-3.67-1.94-7.64,1.24-11,.49.26.65.53.49.79S496.4,364.52,496.23,364.52Z"/>
  <path class="cls-18" d="M489.08,331.84c-3.68,2.6-7.42,2.35-11.18.19Z"/>
  <path class="cls-14" d="M688.24,266.11v8l-1.39,0V266Z"/>
  <path class="cls-4" d="M500.9,342.18l-3.19-.51,0-.74h6.85c-.56,1.7-2.18.71-3.14,1.25Z"/>
  <path class="cls-19" d="M433.68,284.29c3.2,3,2.25,6.31.66,9.65Z"/>
  <path class="cls-20" d="M465.4,288.43a9.59,9.59,0,0,1,.07,9.71C465.45,294.9,465.42,291.66,465.4,288.43Z"/>
  <path class="cls-11" d="M500.8,374.53a3.84,3.84,0,0,1-1.27-.36c-.64-.46-.67-1.14.24-1.12,2.14,0,4.48-.8,6.29,1.12Z"/>
  <path class="cls-21" d="M590.57,314.27c.23-.61.29-1.54.72-1.77,1-.51.88.5.9,1,.06,1.54.33,3.16-1,4.38C591,316.68,590.77,315.47,590.57,314.27Z"/>
  <path class="cls-17" d="M549.73,329.59l.61-4.63c1.16,3.44,1.51,5.34-.31,7.08Z"/>
  <path class="cls-17" d="M319.53,260.19h-1.19c.3-2.35-.85-4.94,1.19-7Z"/>
  <path class="cls-16" d="M571.06,343.35l1.36,1.26-6.91-.12C567.08,342.76,569.17,343.55,571.06,343.35Z"/>
  <path class="cls-22" d="M496.23,364.52c0-.4,0-.8,0-1.19l7-.25C501.32,365.48,498.6,364.15,496.23,364.52Z"/>
  <path class="cls-16" d="M497.61,263.17a5.09,5.09,0,0,1-7,0Z"/>
  <path class="cls-17" d="M539.91,267.22c2.23,2.39,2.26,4.76-.06,7.1Z"/>
  <path class="cls-2" d="M141.65,343.72c-8.51-22.57-15-45.8-22.6-68.68-.51-1.54-1.08-3.07-2-5.73-4.59,14.59-8.84,28.15-13.12,41.69q-4.66,14.73-9.44,29.42c-.68,2.1-.7,4.95-4,4.86-2.94-.08-3-2.65-3.52-4.53Q72,291.29,57.27,241.82c1.36-5.3,5.7-6.54,13-3.68a3.7,3.7,0,0,0,1.26.46c7.67,22.79,13.23,46.19,20.06,70.51,7.09-22.37,13.8-43.53,20.5-64.68a16.86,16.86,0,0,1,.86-2.66c.89-1.72.47-4.46,3.52-4.55s2.93,2.62,3.54,4.4q10.26,29.88,20.34,59.82c.66,2,1.3,3.94,2.07,6.29,7-22.14,13.73-43.75,20.63-65.33.66-2.07.4-4.75,2.92-6,3.26,1.34,6.85-.34,10.11,1.07,0,9.14-3.94,17.37-6.26,25.95-6.84,25.28-14.05,50.47-21.27,75.65-.53,1.86-.2,4.35-2.49,5.51A8.7,8.7,0,0,0,141.65,343.72Z"/>
  <path class="cls-2" d="M224.68,334.61c4.67-2.07,9.39-4,14-6.25,3.43-1.65,5.6-.87,7.51,2.41s.44,4.94-2.25,6.65a43.84,43.84,0,0,1-21.7,7.09,26.81,26.81,0,0,0-11.14,0c-18.27-1.71-29.92-12.85-33.72-32.26a60.84,60.84,0,0,0,.06-16.78c4.23-25.6,29.63-35.54,50.73-28.49,14.61,4.88,25.31,23.71,21.66,38.66-.28,1.14-.62,2.28-2.13,2.32-18.45-1.31-36.93-.35-55.4-.47-.32,0-.62.61-.91,1,1.3,13.44,7.17,23.19,21.28,26.3-.07,1.06.9,1.12,4,.26h1.52c2.07,1,4.26.51,6.4.45.93,0,1.27-.58.36-.33A5.59,5.59,0,0,1,224.68,334.61Z"/>
  <path class="cls-9" d="M266.08,279.93q0,36.46,0,72.92c0,2.47.89,5.18-1.16,7.37q0-40.14,0-80.29C265.3,279.3,265.69,279.27,266.08,279.93Z"/>
  <path class="cls-13" d="M191.38,308.51c.85-1.86,2.53-1.8,4.17-1.8,16.34,0,32.68,0,49,.06,1.05,0,2.08.79,3.12,1.22Z"/>
  <path class="cls-23" d="M71.49,238.6c-5,.05-10.93-4.22-14.22,3.22-2.08-3.88-2.29-7,3.47-5.75C64.33,236.82,69,233.22,71.49,238.6Z"/>
  <path class="cls-21" d="M266.08,279.93H264.9V263.05C267.38,268.53,265.5,274.32,266.08,279.93Z"/>
  <path class="cls-24" d="M177.43,295.5a25.93,25.93,0,0,1-.06,16.78A55.53,55.53,0,0,1,177.43,295.5Z"/>
  <path class="cls-9" d="M211.09,344.54a11.85,11.85,0,0,1,11.14,0Z"/>
  <path class="cls-13" d="M176,237.5c-3.38-.29-6.95,1.25-10.11-1.07C169.36,236.23,172.93,234.67,176,237.5Z"/>
  <path class="cls-17" d="M224.68,334.61c-.94,2.27-2.37,2.37-6.53.46Z"/>
  <path class="cls-24" d="M216.63,335.07c-1.31,1.66-3.16,1.23-4.87,1.17-.76,0-1.06-.53-.36-1.09a3.25,3.25,0,0,1,1.26-.34Z"/>
  <path class="cls-13" d="M141.65,343.72c1.93-2,3.08-.22,4.37.89C144.33,345.46,142.62,346.4,141.65,343.72Z"/>
  <path class="cls-19" d="M277.71,358.77c-2.8-1.81-1.66-4.66-1.68-7.06-.1-13.59,0-27.18,0-40.76q.58-1,1.17,0Q277.43,334.86,277.71,358.77Z"/>
  <path class="cls-15" d="M277.16,311H276c.45-3.27-1.12-6.77,1.17-9.82Z"/>
  <path class="cls-25" d="M495.84,271.66c10.32,3.34,16,10.32,16.28,21.24s-4.91,18.05-14.86,22c-2.74,1.15-5.46,2.11-8-.49-8.72-3.07-14.13-11.13-14.2-21.18-.09-10.67,5.36-17.54,17.17-21.68C493.48,270.48,494.67,270.42,495.84,271.66Z"/>
  <path class="cls-15" d="M495.84,271.66l-3.57-.07-1.63-.86c2.22-1.39,4.62-.78,6.84-.24C497.91,270.59,496.52,271.36,495.84,271.66Z"/>
  <path class="cls-24" d="M489.3,314.45l8,.49C494.8,317.33,493,317.21,489.3,314.45Z"/>
  <path class="cls-1" d="M625.77,275.87c13.83,4.42,20.87,13.48,21.51,27.7.67,14.75-5.66,25.25-17.81,30.53-4.61,2-8.68.72-12.44-1.18-11.15-5.64-14.82-15.79-14.85-27.45,0-11.37,3.53-21.2,14.32-26.94a51.77,51.77,0,0,1,7.23-2.61C624.38,274.78,625.06,274.84,625.77,275.87Z"/>
  <path class="cls-15" d="M625.77,275.87l-2,.05L622,275.1a4.45,4.45,0,0,1,5.54-.06Z"/>
  <path class="cls-11" d="M705.25,274.55H711C709,276.42,707.2,275.44,705.25,274.55Z"/>
  <path class="cls-14" d="M398.17,268.36a6.77,6.77,0,0,1-.15,6.21A6.77,6.77,0,0,1,398.17,268.36Z"/>
  <path class="cls-26" d="M422.63,274.69c-3.15,1.21-4.91,1.13-6.84.56C417.54,273.45,419.4,274.48,422.63,274.69Z"/>
  <path class="cls-14" d="M577.67,268.45H563.05l0-.69h14.92Z"/>
  <path class="cls-27" d="M214.83,274.51c16.46,4.21,20.31,8.14,21.52,22-3.95,2.11-8.22,1-12.29.93-10.91-.28-21.87,1.21-32.74-.77,1-13.38,9.06-19.89,21.53-22.11C213.49,273.36,214.15,273.4,214.83,274.51Z"/>
  <path class="cls-9" d="M191.32,296.66l45-.16c-.49.48-1,1.36-1.46,1.37q-21,.13-42,.05C192.36,297.92,191.84,297.1,191.32,296.66Z"/>
  <path class="cls-26" d="M214.83,274.51l-2,0c-1.32-2.73,1.11-1.44,1.89-1.61.6-.12,1.87-.53,1.83.83C216.56,274,215.44,274.27,214.83,274.51Z"/>
</svg>
