<svg id="Layer_1" data-name="Layer 1" xmlns="http://www.w3.org/2000/svg" viewBox="0 0 792 612">
  <defs>
    <style>
      .cls-1 {
        fill: #231f20;
      }

      .cls-2 {
        fill: #3b7740;
      }

      .cls-3 {
        fill: #6aa146;
      }

      .cls-4 {
        fill: #85b742;
      }

      .cls-5 {
        fill: #5b5b5c;
      }

      .cls-6 {
        fill: #5b5a5c;
      }

      .cls-7 {
        fill: #5c5b5c;
      }

      .cls-8 {
        fill: #327138;
      }

      .cls-9 {
        fill: #5c5c5d;
      }

      .cls-10 {
        fill: #1a1617;
      }

      .cls-11 {
        fill: #5a5a5b;
      }

      .cls-12 {
        fill: #161213;
      }

      .cls-13 {
        fill: #58585a;
      }

      .cls-14 {
        fill: #f6f5f4;
      }

      .cls-15 {
        fill: #609d3b;
      }

      .cls-16 {
        fill: #5d5c5d;
      }

      .cls-17 {
        fill: #616060;
      }

      .cls-18 {
        fill: #4f912a;
      }

      .cls-19 {
        fill: #404042;
      }

      .cls-20 {
        fill: #78b132;
      }

      .cls-21 {
        fill: #b2d280;
      }

      .cls-22 {
        fill: #070707;
      }

      .cls-23 {
        fill: #070706;
      }

      .cls-24 {
        fill: #3f3f41;
      }

      .cls-25 {
        fill: #195e24;
      }

      .cls-26 {
        fill: #1b1617;
      }

      .cls-27 {
        fill: #0f0e0d;
      }

      .cls-28 {
        fill: #504e4f;
      }

      .cls-29 {
        fill: #151413;
      }

      .cls-30 {
        fill: #1b1618;
      }

      .cls-31 {
        fill: #191516;
      }

      .cls-32 {
        fill: #3c3c3e;
      }

      .cls-33 {
        fill: #434345;
      }

      .cls-34 {
        fill: #71ad2a;
      }

      .cls-35 {
        fill: #3b3b3d;
      }

      .cls-36 {
        fill: #464547;
      }

      .cls-37 {
        fill: #646262;
      }

      .cls-38 {
        fill: #454547;
      }

      .cls-39 {
        fill: #3e3d40;
      }

      .cls-40 {
        fill: #49494b;
      }

      .cls-41 {
        fill: #626060;
      }

      .cls-42 {
        fill: #151111;
      }

      .cls-43 {
        fill: #444446;
      }

      .cls-44 {
        fill: #2b2a2c;
      }

      .cls-45 {
        fill: #100f0f;
      }

      .cls-46 {
        fill: #3d3d3f;
      }

      .cls-47 {
        fill: #484749;
      }

      .cls-48 {
        fill: #3c3c3f;
      }

      .cls-49 {
        fill: #21201f;
      }

      .cls-50 {
        fill: #484647;
      }

      .cls-51 {
        fill: #141010;
      }

      .cls-52 {
        fill: #141312;
      }

      .cls-53 {
        fill: #656465;
      }

      .cls-54 {
        fill: #080707;
      }

      .cls-55 {
        fill: #b6d587;
      }

      .cls-56 {
        fill: #77b032;
      }

      .cls-57 {
        fill: #504f4f;
      }

      .cls-58 {
        fill: #100e0e;
      }

      .cls-59 {
        fill: #080807;
      }

      .cls-60 {
        fill: #0b0a0a;
      }

      .cls-61 {
        fill: #131111;
      }

      .cls-62 {
        fill: #5d9b36;
      }

      .cls-63 {
        fill: #0a0908;
      }

      .cls-64 {
        fill: #e3e3e2;
      }

      .cls-65 {
        fill: #4a4849;
      }

      .cls-66 {
        fill: #367339;
      }

      .cls-67 {
        fill: #7da272;
      }

      .cls-68 {
        fill: #94bb6d;
      }

      .cls-69 {
        fill: #676463;
      }

      .cls-70 {
        fill: #262629;
      }

      .cls-71 {
        fill: #cecdcc;
      }

      .cls-72 {
        fill: #363638;
      }

      .cls-73 {
        fill: #565454;
      }

      .cls-74 {
        fill: #141011;
      }

      .cls-75 {
        fill: #191716;
      }

      .cls-76 {
        fill: #39393c;
      }

      .cls-77 {
        fill: #1c1918;
      }

      .cls-78 {
        fill: #262628;
      }

      .cls-79 {
        fill: #24662b;
      }

      .cls-80 {
        fill: #090808;
      }

      .cls-81 {
        fill: #48484a;
      }

      .cls-82 {
        fill: #373435;
      }

      .cls-83 {
        fill: #0f0c0c;
      }

      .cls-84 {
        fill: #39383b;
      }

      .cls-85 {
        fill: #282729;
      }

      .cls-86 {
        fill: #3d3d40;
      }

      .cls-87 {
        fill: #080808;
      }

      .cls-88 {
        fill: #a8a5a3;
      }

      .cls-89 {
        fill: #1a1716;
      }

      .cls-90 {
        fill: #090909;
      }

      .cls-91 {
        fill: #090707;
      }

      .cls-92 {
        fill: #424042;
      }

      .cls-93 {
        fill: #4f4d4e;
      }

      .cls-94 {
        fill: #515050;
      }

      .cls-95 {
        fill: #4d4d4f;
      }

      .cls-96 {
        fill: #0a0808;
      }

      .cls-97 {
        fill: #161413;
      }

      .cls-98 {
        fill: #3c3b3e;
      }

      .cls-99 {
        fill: #0a0909;
      }

      .cls-100 {
        fill: #3f3e40;
      }

      .cls-101 {
        fill: #49494a;
      }

      .cls-102 {
        fill: #090908;
      }

      .cls-103 {
        fill: #53942e;
      }

      .cls-104 {
        fill: #196025;
      }

      .cls-105 {
        fill: #52942d;
      }

      .cls-106 {
        fill: #090708;
      }

      .cls-107 {
        fill: #1c1919;
      }

      .cls-108 {
        fill: #1d1a19;
      }

      .cls-109 {
        fill: #141111;
      }

      .cls-110 {
        fill: #fff;
      }

      .cls-111 {
        fill: #1c1817;
      }

      .cls-112 {
        fill: #1b1817;
      }

      .cls-113 {
        fill: #0b0a09;
      }

      .cls-114 {
        fill: #fefefe;
      }

      .cls-115 {
        fill: #181615;
      }

      .cls-116 {
        fill: #0d0b0b;
      }

      .cls-117 {
        fill: #0f0d0c;
      }

      .cls-118 {
        fill: #110e0e;
      }

      .cls-119 {
        fill: #e6e5e3;
      }

      .cls-120 {
        fill: #4f4e50;
      }

      .cls-121 {
        fill: #4e4e50;
      }
    </style>
  </defs>
  <path class="cls-1" d="M106.66,297.11c.56,10.21,4.5,19.63,7,29.39,3.75,14.85,7.73,29.63,11.77,45.08,2.77-2.69,2.75-5.89,3.57-8.6,7.19-24,14.24-48,21.35-72.07a11.93,11.93,0,0,1,1-2c6.22-2.33,12.7-.6,19-1.15,6.73,19,11.73,38.54,17.67,57.78,2.86,9.25,5.61,18.53,9.45,27.88,1.87-7.33,3.79-14.65,5.6-22q5.85-23.76,11.59-47.55c.61-2.53,1.82-5.29-.84-7.53-1.52-1.93-3.89-.34-5.64-1.36-.58-.07-1.16-.15-1.75-.18-2.44-.13-4.25-1-4-3.83s2.42-3.16,4.68-3.17c9.95,0,19.9-.14,29.85.08,4.13,1,2.38,4.43,2.88,6.93-.94,1.3-2.31,1-3.59.94-1.88-.29-3.78-1-5.52.44-4.61,9.32-5.76,19.65-8.34,29.54-6.66,25.56-12.78,51.26-19.17,76.89-.35,1.43-.46,3.11-2,4-5.5,1.36-11.18-.33-16.69.93-5.88-14.75-9.45-30.22-14.22-45.31-4.66-14.74-9-29.59-14.71-44.48-2.54,8.39-5.1,16.77-7.59,25.17q-8.88,29.9-17.67,59.82c-.43,1.49-.5,3.1-2.15,3.88-5.52,1.37-11.23-.41-16.75,1-4.83-12.23-7.18-25.15-10.61-37.77-6.17-22.69-12-45.47-18-68.2a45.19,45.19,0,0,0-2.16-5.34c-1.77-1.69-3.78-.92-5.76-.54-1.38.16-2.75.24-3.89-.81.84-7.16.84-7.19,8.19-7.2,11.13,0,22.25,0,33.38,0,2.23,0,5-.5,5.24,3.06.3,3.82-2.37,3.86-5,4C110.84,295.74,108.09,294.59,106.66,297.11Z"/>
  <path class="cls-1" d="M637.16,334.9c-3,.81-4.09,2.42-4,5.8.24,17.24.19,34.49,0,51.74,0,3.37,1,5.62,4.05,6.93,6,1.62,6.41,2.51,3.25,6.6-13.46,0-26.91,0-40.35,0-2.19-.88-1.08-2.82-1.39-4.3,1.56-3.49,5.42.14,7.31-2.33l3.39-2.23c1.81-.74,1.05-2.33,1.05-3.54q.07-28.36,0-56.73c0-1.1.39-2.38-.85-3.18l.28.29c-2-1.77-4.43-.71-6.65-.83-5.26-.29-5.67-.82-4-6.43,7.61-3.5,15.67-5.7,23.65-8.15,2.62,1.07,5.42,0,8.07.67,1.32,2,.52,4.18.68,6.3,0-1.86.06-3.73.05-5.6a2.08,2.08,0,0,1,.57-1.54c2.19,2.84,0,6.28,1.43,9.71,8.37-3.76,16.51-8.19,25.74-9.51a32.69,32.69,0,0,0,11.67,0c11,2.55,15.82,8.71,17.54,22.23-.47,18.34-1.13,36.67.33,55a11.89,11.89,0,0,0,4.75,3.64c1.49,2.28,5.85-1.47,6.29,3,.15,2.34-.59,3.62-3.28,3.6-12.29-.09-24.59,0-36.88,0,11.59,0,23.18,0,34.77.06,1.91,0,3.91-.51,5.75.51-7.21,1.77-14.52.38-21.79.69-5.86.25-11.75.06-17.63,0s-6.62-1.37-3.89-7.62c1.53.46,3.06,1.11,4.49-.25l4.61-3.48c1.07-.59.88-1.61.88-2.56q0-21.64,0-43.31c0-.8-.05-1.53-.84-2-1.49-6.19-3.92-11.68-10.46-14.14-4.69-1.37-9.37-1.72-14,.33l-1.35.31a5.22,5.22,0,0,0-2.79-.33S635.63,333.41,637.16,334.9Z"/>
  <path class="cls-1" d="M493.42,352.51c1.92-17,17.29-31.55,35.23-34a13.5,13.5,0,0,0,7.35-.08,39.6,39.6,0,0,1,8.5.2,12.93,12.93,0,0,0,6.42-.1q29.82,6.21,34.06,36.31a73.43,73.43,0,0,0,0,17.53c-3.17,19.77-15.37,32-35.23,35.18a14.77,14.77,0,0,0-6.58-.28c.49-.56,1.38-.26,2.25.64a22.23,22.23,0,0,1-13.62,0,1.4,1.4,0,0,1,1.72-.65c-1.87-.14-4-.53-6.06.28-7.58-1.13-14.45-3.8-20.11-9.14a17.49,17.49,0,0,0-5.87-6,34,34,0,0,1-8.36-22.3c.28-3.76,0-7.54.21-11.3C493.8,356.75,494.25,354.64,493.42,352.51Z"/>
  <path class="cls-1" d="M304.61,318.54c16.19,3.58,26.65,15.27,27.18,30.39a10.78,10.78,0,0,0,1,7l0,3.57c-2,1.69-4.48,1.13-6.77,1.13-14.86,0-29.73,0-44.59,0-2.5,0-5.13-.5-7.35,1.26l-.27,3.51c-.28,1.9-1.12,3.84.34,5.63,2.54,7.4,5.23,14.6,12.36,19.17,3.55,2.27,7.58,2.87,11.32,4.41,2.76,1.51,5.74.41,8.6.69.77.08,1.26-.2.47-.15,0,0-.05-.36-.08-.55,8.74-.37,16.07-4.79,23.74-8.23,3.81,2.91.49,7.33,2.27,10.67-3.37,5-9.1,5.86-14.07,7.9-3.32,1.36-7.05,1.72-10.6,2.52-2.76-.82-5.52-.25-7.64-.35a1.86,1.86,0,0,1,2.14.75,25.48,25.48,0,0,1-14.73,0c.18.76-.31-.94.31-.45s1.2,0,.44-.11a8.92,8.92,0,0,0-5.14.21c-8.91-1.58-16.83-5-22.6-12.29-.34-2-1.87-3-3.36-4a31.88,31.88,0,0,1-6.93-16.52c.89-1.93.26-3.82.39-5.24.44.41.07,1.22-.69,2a23.5,23.5,0,0,1-.07-14.69c.7.5.94,1.12.59,1.7a11.78,11.78,0,0,0-.2-6c2.56-17.17,18.14-32.43,34.05-34,2.09.84,4.17.42,6.24-.08a67.66,67.66,0,0,1,7.4,0C300.41,319,302.5,319.36,304.61,318.54Z"/>
  <path class="cls-2" d="M628.67,296c6.92-3.42,13.88-6.75,19.79-11.83a15.18,15.18,0,0,0,7.26-7.4A80.65,80.65,0,0,0,671,243c.27-.28.71-.58.71-.89,0-18.09.52-36.18-.25-54.27,2.12-19.65,11.74-34.37,29.07-44,1.57,1.34,1.3,3.19,1.3,4.91,0,24.67.18,49.33-.11,74a14.09,14.09,0,0,0-.06,7.32c-3.83,23-14.83,41.26-34.49,54.6a82.62,82.62,0,0,1-33.77,13.4C631.82,297.34,629.46,298.39,628.67,296Z"/>
  <path class="cls-1" d="M398.89,318.55c4.11.53,8.22,1.09,11.85,3.33-.17,7.13.29,14.28-.25,21.39-2.59,4.25-6.19,1.06-9.34,1.24a8.12,8.12,0,0,1-.85-5.05c.85-1.43.17-3,.5-4.53a.54.54,0,0,0-.38-.2c-.16,0-.28.21-.42.32-2.59-7.64-9.67-6.84-15.57-8.26a2.46,2.46,0,0,1,3.36-.38c-1.92-1.21-4.42.39-6.29-.9.41,1.08,2.06.09,2.5,1.28-4.83,1.4-10.57,1.08-13,6.92-1.53,2.25-1.24,4.57-.26,6.91,2.51,4.91,6.84,7.81,11.51,10.29,6.32,3.36,13,6.17,18.74,10.45s11.57,8.26,13.12,15.87a8.69,8.69,0,0,0,0,5.76c-.27,4.76-1.33,9.25-4.55,13a18.21,18.21,0,0,0-5.84,6c-5.08,4.46-11.24,6.12-17.77,6.8a89.42,89.42,0,0,0-18.72-.06,4.57,4.57,0,0,1-3.85-.8,1.43,1.43,0,0,1,1.4-.64c-.14.77,1.31.15.83.18-2-.35-3.77-.61-5.48.16l-11.84-2.41c-2.33-8.11-.85-16.35-.94-24.53,3.06-3.08,6.2-1.94,9.37-.2a4.68,4.68,0,0,1,.81,3.85c-.43,1.87-1.11,3.76.42,5.48.84,7,7.16,7.27,11.82,9.57a18.46,18.46,0,0,0,11.41.1c2.23-1.51,5-1.85,7.08-3.88,4.71-4.66,5.09-10,.76-15s-10.57-7.15-16.19-10.2c-5.07-2.75-10.77-4.4-15.13-8.44-.93-1.51-1.82-3.06-3.81-3.37l.06.07c-.27-2-1.87-2.83-3.27-3.84-5.2-8.25-4.83-16.31,1.13-24.71a12.16,12.16,0,0,0,4.71-4.78c4.34-4.07,9.68-5.87,15.41-6.8,1.19.76,2.51.32,3.77.44a1.36,1.36,0,0,1,.74.18c-.35-.37-1-.39-1.23-.89a34,34,0,0,1,17.92-.08l-.51.62a21,21,0,0,1-3.79.12c.78-.31,2.55.21,4.28,0C395,318.78,397,319.36,398.89,318.55Z"/>
  <path class="cls-3" d="M623.08,216.1c3.22-18.1,13.29-31.23,29.24-40.07,1.1,2,.53,4.2.55,6.29.23,22.17-.35,44.34.32,66.51C651,273,631,294.54,606.27,298.1c-2.17-1.23-5.43,1.13-7-2.11a48.34,48.34,0,0,0,22.28-28.23c1.5-1.67.24-3.9,1.15-5.7.61-13-.44-26,.55-39A17.41,17.41,0,0,0,623.08,216.1Z"/>
  <path class="cls-1" d="M449.68,407.53c-9.81-2.24-12.46-5.1-14-15.14.57-19.58,1-39.16-.25-58.73l-1.28-1.1c-1.25-1.49-2.92-.61-4.36-.65-5.95-.2-5.95-.13-4.94-6.52,11.43-4.51,16.08-14.83,21.26-24.7,3.79-1.16,7.6-2.73,11.14.63.11,5.64,0,11.27.08,16.9,0,1.21-.76,2.79,1,3.56a.46.46,0,0,1,.76.19c3.83,2.12,8,.66,12,1.09,3.6.39,7.36-.93,10.8,1.05,1.52,7.21,1.12,7.73-6,7.75q-6.39,0-12.79,0c-2.14,0-4.34-.22-5.64,2-.28,15.25,0,30.51-.13,45.76,0,.78-.11,1.55.75,2,1.45,6.57,4.59,11.67,11.69,13.31,3.06,1.72,6.24,1,9.42.46,6.15.23,6.67,1.18,3.54,6.57-5.57,4.36-12.38,4.57-18.95,5.58A48.79,48.79,0,0,0,449.68,407.53Z"/>
  <path class="cls-4" d="M603.79,273.58q-4.65,19.92-24.62,24.55c-2.13-.9-4.17.48-6.3.24s-4.4.25-5.4-2.37a36.29,36.29,0,0,0,5.7-9.43c1.8-5.26.63-10.68.73-16,.12-6.38.51-12.78-.28-19.15,2.77-18.93,12.12-33.33,29.22-42.42,1.77,2,1.13,4.46,1.13,6.73C603.94,235,604.21,254.3,603.79,273.58Z"/>
  <path class="cls-5" d="M504.41,437c2.19-1.58,2.14,1,2.59,1.68,3.76,5.58,7.26,11.34,11,17,.82,1.25,1.07,3.62,3.62,2.62,3.49,2.74,1.3,6.16,1.14,9.33-3.06,1-4.59-.67-6.06-3.07-4.18-6.85-8.56-13.57-12.81-20.38-.64-1-1.17-2.21-2.59-1.81-1.22.34-1.05,1.71-.8,2.47,2.38,7,.28,14.36,1.3,21.47a1.91,1.91,0,0,1-3,.06c-.28-9.75-.53-19.5.13-29.25A7.12,7.12,0,0,1,504.41,437Z"/>
  <path class="cls-6" d="M202.11,466.6c-4.65-7.08-9.28-14.17-14-21.21-.9-1.36-1.17-3.41-3.43-3.45-3.35-.26-2.24-2.91-1.59-4.11,1.22-2.28,3.57-1.16,5.54-.76,5.54,5.07,8.19,12.15,12.58,18,1.19,1.59,1.39,4.3,4.23,4.33,3.86,1,1.13,4.08,1.95,6C206.23,468.52,204,466.58,202.11,466.6Z"/>
  <path class="cls-7" d="M439.37,445.41l4.34-9.48a8,8,0,0,1,4.77,0l12.09,30.43a8.6,8.6,0,0,1-7.78,0c.47-3.94-1.36-7.17-3.21-10.4-.36-.39-.71-.8-1.05-1.22a55,55,0,0,1-3.66-9.11c-1.41.6-1.56,2.11-2.8,2.45C440.31,448,440.21,446.34,439.37,445.41Z"/>
  <path class="cls-5" d="M259.84,465.19l1-1a4.86,4.86,0,0,0,0-5.82c-2.76-2.7-6.24-4.3-9.5-6.25-2.09-1.25-4.29-2.64-4.43-5.55a8.21,8.21,0,0,0,0-4.71c0-3.2,2.29-4.55,4.78-5.7,1,.57,2.15,1.07,1.27,2.57-2.73,5.33.93,7.75,4.68,10,3.4,2,7.65,3,9.17,7.33a8,8,0,0,0,0,5.75,7.47,7.47,0,0,1-7,5.78A1.67,1.67,0,0,1,259.84,465.19Z"/>
  <path class="cls-8" d="M700.68,224.31l-.18-80.46c1-.84,2.12-1.58,2.39.38a49.36,49.36,0,0,1,.11,6.44q0,31.91,0,63.83c0,3.28.23,6.63-1,9.79C701.53,224.82,701.11,224.83,700.68,224.31Z"/>
  <path class="cls-9" d="M573.5,438.71c-7.63,9-7.27,18.8,1,26.71-.26,1.2-1.29,1.61-2.22,2.12-6.16-2.12-9.66-6.39-10.45-12.85a8.77,8.77,0,0,0,0-5.7c.77-6.48,4.08-10.92,10.42-12.93C573.15,436.69,574.37,437.19,573.5,438.71Z"/>
  <path class="cls-10" d="M111.34,294.78c1.2-2.36,6.78.44,5.55-4.07-.94-3.43-4.74-1.62-7.2-1.68-9.35-.21-18.72.19-28.06-.19-5.17-.22-9.25.31-10.61,6.14-2.1-8.06-1.89-8.39,5.59-8.39h34.5c8.11,0,8.11,0,7.06,8.21-1.63,1.15-3.48.37-5.22.59A2,2,0,0,1,111.34,294.78Z"/>
  <path class="cls-11" d="M320.3,467.92C311,469.72,306.35,466.44,305,457c.72-5.78,0-11.59.37-17.37.24-3.82,2-4.13,4.57-1.49.51,7.1-.75,14.25.73,21.31,1.31,2.13,2.4,4.43,4.67,5.77C316.65,466.72,319.29,465.8,320.3,467.92Z"/>
  <path class="cls-12" d="M274.05,362c1.31-3.16,4.13-2.42,6.57-2.42q26.07-.06,52.14,0c.3,4.23-3,2.24-4.5,2.25C310.19,362,292.12,361.94,274.05,362Z"/>
  <path class="cls-11" d="M632.19,465.33a.55.55,0,0,1,.13.83l-.53.83c-2.26-.05-4.58.76-6.73-.53l1.31-1.09c1.41-8.68.26-17.41.64-26.11,0-3.39,2.45-2.58,4.42-2.62l.86.57-.27,3.56a10.42,10.42,0,0,0,0,5.7l.27,3.6c.63.61,1.74.95,1.2,2.19-1.83.75-1.23,2.44-1.47,3.81A21.28,21.28,0,0,0,632.19,465.33Z"/>
  <path class="cls-13" d="M370.4,438.37l-1-1.17a8.38,8.38,0,0,1,6.93,0,.58.58,0,0,1,.79-.22c2,3.86.76,8,1.27,12-.22,1.77,2,2.6,1.72,4.39-2.52-.32-4.11.29-3.92,3.32.2,3.27.13,6.57.19,9.85a9.17,9.17,0,0,1-7.07-.16l1.26-2.44A82.82,82.82,0,0,0,370.4,438.37Z"/>
  <path class="cls-14" d="M376.57,451.19c-.25-4.75-1.08-9.51.5-14.19l2.71-1.1c2,1.36,4.78,1.44,6.23,3.73,2.77,4.87,1.17,8.79-2.68,12.23C381,452.67,378.77,452,376.57,451.19Z"/>
  <path class="cls-13" d="M140.91,465.37l.86,1.23c-2.45.7-4.88,1.1-7.24-.28a1.17,1.17,0,0,1,.48-1c1.23-7.67.31-15.39.53-23.08.17-6,.07-6,6.18-5.17l-.82,1.23A111.7,111.7,0,0,0,140.91,465.37Z"/>
  <path class="cls-10" d="M238.65,289c-9.22,0-18.44-.14-27.65.07-2.49.06-6.31-1.75-7.29,1.64-1.32,4.53,4.36,1.73,5.5,4.14a2.24,2.24,0,0,1-1.69.58c-1.82-.18-3.72.46-5.46-.51h0a12.74,12.74,0,0,1,.06-8.05l36.54,0A1.45,1.45,0,0,1,238.65,289Z"/>
  <path class="cls-15" d="M624,221.87c0,11.91,0,23.81,0,35.71,0,1.87.64,4-1.15,5.49a1.3,1.3,0,0,1-.82-1.1c0-11.25,0-22.51.06-33.77,0-2.11-.32-4.28.7-6.29C623.19,221.4,623.59,221.36,624,221.87Z"/>
  <path class="cls-16" d="M385.36,453.49c3-.48,4.09,1.69,5.06,3.81a57.43,57.43,0,0,1,2.52,6.45c.41,1.26,3.09,2.18,1,3.76-1.49,1.15-3.31.4-4.82-.66-2-1.42-2.89-3.57-3.71-5.74-1-2.73-2.16-5.37-4.41-7.36C382.32,451.08,383.86,452.65,385.36,453.49Z"/>
  <path class="cls-17" d="M383.43,451.16c2.28-3.66,4.07-7.38,1.37-11.63-1.28-1.69-.31-2.64,1.13-3.43,4.39.31,6.77,2.86,6.76,7,0,5.05-3.12,7.59-8,8.08A.72.72,0,0,1,383.43,451.16Z"/>
  <path class="cls-18" d="M653.19,248.83c-1.5-1.9-.83-4.13-.83-6.21q-.08-33.3,0-66.59c1.21-.72,1.25.3,1.25.95Q653.41,212.91,653.19,248.83Z"/>
  <path class="cls-19" d="M188.65,437.07c-3.06.21-7.44-.63-4,4.87.16,8-.81,16,.56,24,.34,2-.65,1.89-1.82,1.9-1.39,0-2.06.16-1.91-2.13.56-8.37.56-16.78.5-25.17C182,434.91,182.62,434.47,188.65,437.07Z"/>
  <path class="cls-20" d="M603.79,273.58c-1.58-1.64-.93-3.69-.93-5.57q-.06-29.5,0-59l-.08-.16c1.71-.08,1.81,1.13,1.8,2.34-.21,20.08.51,40.18-.38,60.26Z"/>
  <path class="cls-21" d="M604.18,271.43c-.08-18.87-.13-37.74-.28-56.6,0-2,.91-4.33-1.14-6,4.24-1.05,2.24,2.39,2.25,3.59.14,17.59.11,35.17.08,52.76C605.08,267.28,605.58,269.5,604.18,271.43Z"/>
  <path class="cls-22" d="M609.64,333.62c2.08,1.36,1.42,3.5,1.43,5.36q.06,26.46,0,52.93c0,1.82.78,4-1.64,5.16C610.3,375.92,609.87,354.77,609.64,333.62Z"/>
  <path class="cls-23" d="M435.4,333.66c1.43.87,1.25,2.3,1.25,3.64q0,25.95,0,51.89c0,1.17,0,2.35-1,3.2Q435.53,363,435.4,333.66Z"/>
  <path class="cls-24" d="M206.78,466.52c-.33-2.39,1.15-5.11-1.32-7.1-.21-7.76.61-15.58-.58-23.57,3.11-1.13,3.74,0,3.38,4.38-.73,8.72-.33,17.54-.4,26.32C207.49,467,207.13,467,206.78,466.52Z"/>
  <path class="cls-19" d="M522.71,467.64c-.54-3.09,1.11-6.44-1.14-9.33-.14-6.83-.34-13.66-.39-20.49,0-3.55,2.61-1.59,4.19-2-2.6,6.56-.6,13.25-1.39,19.73C523.49,459.57,525.77,463.9,522.71,467.64Z"/>
  <path class="cls-22" d="M689,395.75c-1.08.6-1.32-.06-1.32-.93q0-26,.08-52c0-.68.59-1.36.91-2.05Z"/>
  <path class="cls-25" d="M671.43,187.88c1.13,1.08.93,2.48.93,3.83q0,23.29,0,46.6c0,1.66.52,3.57-1.37,4.73Z"/>
  <path class="cls-26" d="M348.29,379.58l0,25.59c-.66-.29-1.89-.57-1.9-.88-.17-8.67-1.77-17.38.73-26C347.45,378.78,348.21,378.86,348.29,379.58Z"/>
  <path class="cls-22" d="M458,381.64a1.87,1.87,0,0,1-.26.53,8.72,8.72,0,0,1-.71.64c-.11-1.29-.32-2.57-.32-3.86q0-22.63,0-45.27c.39-.51.79-.5,1.2,0Q458,357.65,458,381.64Z"/>
  <path class="cls-23" d="M666.25,348.08c1.69-.82,1.38.51,1.38,1.34q0,21.51,0,43c0,1.34.13,2.77-1.45,3.47Z"/>
  <path class="cls-27" d="M700.4,406.53H658.29v-1.14c12,0,24-.1,36,.06,3.55,0,5.79-.63,5.17-4.76q-.62-.33-.42-.66c.14-.22.27-.33.41-.33C701.93,401.68,700.37,404.21,700.4,406.53Z"/>
  <path class="cls-28" d="M252.94,438.71c-.42-.86-.84-1.72-1.27-2.57,3.53-1.68,7.06-1.26,10.84-.77,4.77.61,4.2,3.57,4.09,6.66,0,.82-.23,1.54-1.21,1.67s-1.63-.19-1.74-1.08C262.61,434.36,257.55,437.16,252.94,438.71Z"/>
  <path class="cls-29" d="M457.92,333.66l-1.2,0c1.06-2.49,3.23-2.45,5.43-2.43,4.11,0,8.24-.34,12.3.09,5.64.6,8-1.38,7-7.07a1.47,1.47,0,0,1,0-2.23c4.78,2.25,1.34,6.38,1.85,9.52.3,1.84-2.87.92-4.47,1.07C471.88,333.29,464.8,331.45,457.92,333.66Z"/>
  <path class="cls-30" d="M409.52,344.18c.72-7.42-1.38-15,1.22-22.3,2.52,7.36.68,14.9,1,22.36A1.45,1.45,0,0,1,409.52,344.18Z"/>
  <path class="cls-31" d="M481.45,322c0,.74,0,1.49,0,2.23-6,0-11.91,0-17.86-.06-1.81,0-4.05.6-4.49-2.24Z"/>
  <path class="cls-32" d="M329.54,458.52c-.13,1.09-.25,2.18-.38,3.26a1.63,1.63,0,0,1-2-1.11l.28-20c.34-.83.09-2.19,1.35-2.23s1.22,1.22,1.19,2.1C329.77,446.54,330.5,452.55,329.54,458.52Z"/>
  <path class="cls-27" d="M599.33,405.33h42.36a.93.93,0,0,1-.08,1.52l-42.2,0A.94.94,0,0,1,599.33,405.33Z"/>
  <path class="cls-33" d="M141.72,437.1c-4.15-.57-5.67.89-5.73,5.39-.09,7.61,1.55,15.35-1,22.86-.46-9.29,0-18.6-.21-27.9C134.74,434.31,139.19,435.22,141.72,437.1Z"/>
  <path class="cls-10" d="M170.37,287.75c-6.22,2.46-12.69.68-19,1.15.21-.68.43-2,.64-2C158.12,287,164.35,285.32,170.37,287.75Z"/>
  <path class="cls-34" d="M573.62,251.41c1.26,11.74,2.11,23.47-.45,35.16Z"/>
  <path class="cls-35" d="M259.84,465.19v2.38a22.7,22.7,0,0,1-9.32.4c-5.72-.69-6.41-2.39-3.2-8.23,2.27,1.68.36,6.17,4.49,6.55A16.6,16.6,0,0,0,259.84,465.19Z"/>
  <path class="cls-36" d="M327.13,460.67l2,1.11c-1.23,4.54-4.41,6.25-8.86,6.14-1.81-.62-3.91-.71-5-2.67C319.94,465.54,324.68,466,327.13,460.67Z"/>
  <path class="cls-37" d="M499.13,437.11q0,14.81,0,29.61a1,1,0,0,1-1.37-.31,155.44,155.44,0,0,0,0-29.18A.89.89,0,0,1,499.13,437.11Z"/>
  <path class="cls-38" d="M309.44,438.35c-4-2.66-3.38.56-3.59,2.8-.51,5.28,1.1,10.68-.9,15.88-.26-6.55-.86-13.1-.64-19.62.11-3.18,3.38-1.38,5.18-1.61,2.67-.34,2.47,1,1,2.53C310.15,438.85,309.8,438.86,309.44,438.35Z"/>
  <path class="cls-39" d="M140.91,465.37a61.53,61.53,0,0,1,0-27Z"/>
  <path class="cls-40" d="M370.4,438.37c2.77,2.58,1.27,5.9,1.36,8.85.18,5.62-.12,11.26-.25,16.89,0,.06-.32.18-.47.16a1.84,1.84,0,0,1-.52-.27Z"/>
  <path class="cls-32" d="M627.5,438.34c0,7.4.08,14.79.06,22.18,0,1.68.55,3.57-1.19,4.85q.06-13.53.11-27C626.83,437.87,627.17,437.85,627.5,438.34Z"/>
  <path class="cls-41" d="M329.54,458.52c-.11-5.73-.34-11.47-.27-17.2,0-2.83-.88-1.49-1.86-.63-.17-1.14-.35-2.29-.52-3.43a2.92,2.92,0,0,1,3.84,0C329.22,444.27,331.34,451.5,329.54,458.52Z"/>
  <path class="cls-42" d="M494.35,358.28c-.51,3.94,1.42,8.15-1.24,11.87a22.15,22.15,0,0,1,0-13.17C493.81,357.15,493.91,357.87,494.35,358.28Z"/>
  <path class="cls-43" d="M436.82,460.92c-.29,2.26-2.35,4.68,1.52,6.55-2.66.44-4.36.65-6.4-.14,1.22-3,2.42-6,3.62-9C437.85,458.29,437.15,459.69,436.82,460.92Z"/>
  <path class="cls-44" d="M632.31,436c3.47-.07,7-.32,10.41-.17,4.41.21,4.61,2.43,2.19,6-2.23-7.73-8.25-3.7-12.62-4.68l.24-.19-.12-.27Z"/>
  <path class="cls-22" d="M458.3,321.78c-3.1-2.43-1.3-5.79-1.53-8.71-.32-4.08-.11-8.2-.12-12.31-.35-1,0-1.41,1-1.2Z"/>
  <path class="cls-45" d="M457.67,299.56l-1,1.2-10.57-.07C449.63,297.11,453.73,299.12,457.67,299.56Z"/>
  <path class="cls-46" d="M633.49,452.26l-1.2-2.19c1.55,0,3.24.4,4.62-.08,6.93-2.45,5,2.29,4.85,5.95C640.34,451.34,636.58,452.59,633.49,452.26Z"/>
  <path class="cls-47" d="M586.4,437.12c4.43.86,2.19,4.19,1.9,6.27-.21,1.54-1.92.45-2.45-.44a38.77,38.77,0,0,1-2-4.57C584.37,437.29,585,436.46,586.4,437.12Z"/>
  <path class="cls-48" d="M309.44,438.35l1.05,0q.06,10.57.13,21.15C308,452.56,310,445.39,309.44,438.35Z"/>
  <path class="cls-49" d="M424.82,325.39c-.9,7.84,4.91,5.56,9,5.93.16,0,.43.15.43.25a5.63,5.63,0,0,1-.1,1,62.73,62.73,0,0,1-6.28.08c-1.58-.12-4.28,1.07-4.51-.87S421.43,326.77,424.82,325.39Z"/>
  <path class="cls-50" d="M584.18,465.42a9.13,9.13,0,0,1,.72-2.1c.64-1-1-3.37,1.78-3.06s1.94,2.35,2,4c0,.94,0,1.94-1.11,2.35C585.94,467.63,584.94,466.89,584.18,465.42Z"/>
  <path class="cls-51" d="M545.11,319.49l-9.52,0c-.42-.45-1.17-.55-1.36-1.25a17.36,17.36,0,0,1,10.9,0c.39.29.51.58.38.87S545.24,319.49,545.11,319.49Z"/>
  <path class="cls-52" d="M482.65,402c2.76-5.4-.07-6.41-4.72-6-1.21.66-2.29,1-2.35-1,3-.52,6.06,0,10-1.84C483.69,396.64,487.52,400.36,482.65,402Z"/>
  <path class="cls-53" d="M710.1,404.14c0-1.14,0-2.28,0-3.42,1.8-1.18,3.67-2.07,5.89-1.26.6,1.16,1.74,2.13,1.2,3.66C715.11,405.43,712.69,405.37,710.1,404.14Z"/>
  <path class="cls-51" d="M298.83,319.47h-8.38c-.4-.44-1.13-.54-1.31-1.23a16.76,16.76,0,0,1,11,0C300,318.94,299.24,319,298.83,319.47Z"/>
  <path class="cls-22" d="M367.2,408.68a38.26,38.26,0,0,1,18.72.06A90.1,90.1,0,0,1,367.2,408.68Z"/>
  <path class="cls-54" d="M599.27,326.65c-.63,4.25.71,6.5,5.49,5.87,1.75-.23,3.87-.66,5.16,1.39l-11.76-.47a7.85,7.85,0,0,1,0-6.55Z"/>
  <path class="cls-35" d="M586.4,437.12l-2.55,1.26c-2.49-1.91-5.35-1-8.09-1.06a1.36,1.36,0,0,1,0-2.16A15,15,0,0,1,586.4,437.12Z"/>
  <path class="cls-22" d="M585,372.4a31.75,31.75,0,0,1,0-17.53A71.4,71.4,0,0,1,585,372.4Z"/>
  <path class="cls-22" d="M111.43,407.64c5.46-2.27,11.17-.59,16.75-1C122.74,409.46,117,407.54,111.43,407.64Z"/>
  <path class="cls-55" d="M577,298.53c-4.66,1.83-9.45.5-14.33,1,.3-1.8,1.43-2,2.52-2.26C569.11,298.21,573.22,297,577,298.53Z"/>
  <path class="cls-56" d="M577,298.53c-3.87-1-8.06,1-11.81-1.25l2.24-1.28c3.56,2.58,8.1-.24,11.7,2.13Z"/>
  <path class="cls-57" d="M439.37,445.41c1.56.09,2,1.13,2.07,2.46,1.48,2.74-.54,4.6-1.7,6.68a2,2,0,0,1-1.49.54c-1.19-.77-1.08-1.79-.53-2.88Z"/>
  <path class="cls-22" d="M184.52,407.57c5.47-2.07,11.13-.57,16.69-.93C195.79,409.43,190.1,407.63,184.52,407.57Z"/>
  <path class="cls-22" d="M641.81,334.27c4.59-3.19,9.27-2.54,14-.33A55.91,55.91,0,0,0,641.81,334.27Z"/>
  <path class="cls-46" d="M644.08,466.53c1.91-1.43.26-4.25,2.2-5.69,2.94,4.51,2.37,6.22-2.23,6.75-.36-.24-.48-.48-.35-.71S644,466.53,644.08,466.53Z"/>
  <path class="cls-58" d="M409.52,344.18l2.19.06-.08,1.13a18.74,18.74,0,0,1-10.29,0,.63.63,0,0,1-.19-.88c.71-.62.5-3,1-2.21C404.2,345.56,407.07,343.71,409.52,344.18Z"/>
  <path class="cls-22" d="M449.68,407.53a21.26,21.26,0,0,1,14,0A58.19,58.19,0,0,1,449.68,407.53Z"/>
  <path class="cls-59" d="M641.61,406.85c0-.5,0-1,.08-1.52.79-3.84-1.43-4.86-4.66-5a.86.86,0,0,1-.09-.5,2.15,2.15,0,0,1,.27-.49c6.33.13,7.1,1.23,5.31,7.62,0,.08-.27.16-.39.13A2,2,0,0,1,641.61,406.85Z"/>
  <path class="cls-60" d="M381.15,399.44c-2.29,1.31-8.4,1.78-11.57.88-.08,0-.13-.33-.1-.48a1.71,1.71,0,0,1,.26-.5Z"/>
  <path class="cls-61" d="M332.8,397.12c-2.39-3.21.25-7.49-2.27-10.67,1.15-1.38,2.28-1.75,2.37.52C333,390.35,332.85,393.74,332.8,397.12Z"/>
  <path class="cls-62" d="M599.28,296l7,2.11-5.59.48c-1.77,0-4,1.78-4.9-1.38Z"/>
  <path class="cls-63" d="M306.79,394.68a2.05,2.05,0,0,1,.52.23,8.82,8.82,0,0,1,.7.67,31.93,31.93,0,0,1-11.41,0c0-.14.07-.35.17-.41a10.64,10.64,0,0,1,1-.48Z"/>
  <path class="cls-64" d="M710.1,404.14l7.08-1,0,2.25c-1.89,1-3.77,3.3-5.72.08Z"/>
  <path class="cls-65" d="M572.24,467.54l2.22-2.12,2.44,1.12c1.41,1.45,3.7-.28,5.05,1.38C578.66,469.18,575.45,468.25,572.24,467.54Z"/>
  <path class="cls-66" d="M655.72,276.73c-.62,4.22-3.1,6.64-7.26,7.4Z"/>
  <path class="cls-67" d="M627.72,298.52c-3.13,1.24-6.35,1.13-9.7.79,2.2-3.18,6,.31,8.22-2.26A1.74,1.74,0,0,1,627.72,298.52Z"/>
  <path class="cls-68" d="M595.78,297.2c1.25,1.83,3.36.56,4.9,1.38-3,1.37-6.19.37-9.62.05Z"/>
  <path class="cls-69" d="M437.72,452.21c.21,1,.33,2.12,1.44,2.67.25.27.32.52.19.74s-.22.32-.33.32l-2.2,5c-.3-.92-.18-2-1.26-2.56A13.3,13.3,0,0,1,437.72,452.21Z"/>
  <path class="cls-31" d="M475.58,395l2.35,1c-3,1.83-5.86,2.13-8.24-1.06Z"/>
  <path class="cls-70" d="M644.08,466.53a9.45,9.45,0,0,0,0,1.06H632.31l.09-.67a.49.49,0,0,0-.08-.75Z"/>
  <path class="cls-71" d="M716,399.46c-1.79,1.23-3.84,1.25-5.89,1.26C711.67,398.48,713,395.09,716,399.46Z"/>
  <path class="cls-72" d="M582,467.92c-1.63-.63-3.7.31-5.05-1.38,2.4-.55,5.11.94,7.28-1.12l3.38,1.15C586.09,468.68,583.86,467.62,582,467.92Z"/>
  <path class="cls-22" d="M348.29,379.58l-1.2-1.26c3.21.66,7.32-2.75,9.6,2.12C353.91,380,351.17,379.06,348.29,379.58Z"/>
  <path class="cls-73" d="M383.43,451.16l1.24.07.69,2.26c-1.47-.4-2.94-.71-4.33.26a1.07,1.07,0,0,1-1-.32l-3.49-2.24Z"/>
  <path class="cls-22" d="M671.13,318.53a14.7,14.7,0,0,1-11.67,0A37.44,37.44,0,0,1,671.13,318.53Z"/>
  <path class="cls-74" d="M332.78,356c-2.8-2-3-4.36-1-7C332.94,351.16,332.91,353.55,332.78,356Z"/>
  <path class="cls-75" d="M501.47,392.45a6.73,6.73,0,0,1,5.87,6A18,18,0,0,1,501.47,392.45Z"/>
  <path class="cls-76" d="M452.79,466.29l7.78,0c-2.83,2.79-6.16,1.37-9.26.84C450.94,467.12,452.25,466.59,452.79,466.29Z"/>
  <path class="cls-77" d="M403.69,401.94a6.79,6.79,0,0,1,5.84-6A14.54,14.54,0,0,1,403.69,401.94Z"/>
  <path class="cls-78" d="M439,455.94a2.92,2.92,0,0,0,.13-1.06l-.12-.11c3.43-2.32,6.94-2.2,10.5-.35,0,.49,0,1,.05,1.47Z"/>
  <path class="cls-79" d="M627.72,298.52l-1.48-1.47a2.52,2.52,0,0,1,2.43-1.09l4.7,2.11Z"/>
  <path class="cls-24" d="M385.93,436.1c-.38,1.14-.76,2.29-1.13,3.43-1.6-1.31-4.31-1.1-5-3.63Z"/>
  <path class="cls-1" d="M401.34,345.39l10.29,0A11.47,11.47,0,0,1,401.34,345.39Z"/>
  <path class="cls-80" d="M302.63,407.94l-4.32-1.33c4.46.25,7.25-.95,9.82.93Z"/>
  <path class="cls-60" d="M606,399.3c-1.76,2.87-4.56.65-6.76,1.38-.31.56-.63.56-.95,0C600.53,398.23,603.48,399.84,606,399.3Z"/>
  <path class="cls-22" d="M238.65,289l0-2.17a.8.8,0,0,1,1.09.12,11,11,0,0,1,.05,7.9h0C236.46,293.45,239.89,290.74,238.65,289Z"/>
  <path class="cls-81" d="M632.19,465.33c-1.79-3.05-1.56-6.15-.17-9.26Q632.11,460.69,632.19,465.33Z"/>
  <path class="cls-80" d="M631.06,319.58c-2.7-.51-5.65,1-8.14-1.08a25.45,25.45,0,0,1,9.37-.17c0,.37-.11.74-.17,1.11C631.84,320.07,631.49,320.14,631.06,319.58Z"/>
  <path class="cls-82" d="M330.73,437.24l-3.84,0a3.59,3.59,0,0,1-1.11-.15c-1-.44-1-1.17.06-1.23,2.55-.16,5.11-.05,7.81-.05C333,437.82,331.68,437,330.73,437.24Z"/>
  <path class="cls-83" d="M384,326.79l-4.28-1.13h8.58l0,.44-3.89.69Z"/>
  <path class="cls-43" d="M632.31,436c0,.24.07.49.1.73-1.6.66-3.67-.15-4.91,1.59h-1c-.7-.57-1.82-1-2-1.74-.23-.92.92-.89,1.62-.86C628.18,435.8,630.24,435.92,632.31,436Z"/>
  <path class="cls-84" d="M632.4,466.91l-.09.67c-2.53,0-5.07.07-7.6.08-.1,0-.32-.39-.27-.48a4.64,4.64,0,0,1,.62-.72Z"/>
  <path class="cls-85" d="M497.78,466.41l1.37.31,2.6-.4c.52.4,2.67.48,1.3,1.14a8.41,8.41,0,0,1-6.62,0C495.1,466.76,497.23,466.76,497.78,466.41Z"/>
  <path class="cls-86" d="M369.26,466.44l7.07.16c-2.39,2.27-5,1.24-7.63.58a.76.76,0,0,1,.1-.4A2.29,2.29,0,0,1,369.26,466.44Z"/>
  <path class="cls-46" d="M134.53,466.32l7.24.28c-2.37,2.31-5,1.19-7.63.61a.88.88,0,0,1,0-.44A2.16,2.16,0,0,1,134.53,466.32Z"/>
  <path class="cls-87" d="M545.41,407.94l-3.44-1c3.17-.18,5.58-1.16,7.77.68Z"/>
  <path class="cls-1" d="M202.15,286.84l-.06,8.05A7.7,7.7,0,0,1,202.15,286.84Z"/>
  <path class="cls-1" d="M239.83,294.81q0-4-.05-7.9A8.18,8.18,0,0,1,239.83,294.81Z"/>
  <path class="cls-88" d="M711.43,405.45c1.93,1.88,3.81-.22,5.72-.08C715.28,408.17,713.39,409.35,711.43,405.45Z"/>
  <path class="cls-89" d="M356.49,325.32a4.81,4.81,0,0,1-4.71,4.78A11.25,11.25,0,0,1,356.49,325.32Z"/>
  <path class="cls-43" d="M376.28,437.22l-6.93,0C371,435.09,372.93,435.1,376.28,437.22Z"/>
  <path class="cls-90" d="M370.7,340.62c-1.8-2.39-1.74-3.82.26-6.91C370.87,336,370.79,338.32,370.7,340.62Z"/>
  <path class="cls-38" d="M499.13,437.11l-1.35.12c2.14-2.62,4.37-1.91,6.63-.19Z"/>
  <path class="cls-91" d="M400,335.05c.45-.3.71-1.93,1-1,.58,1.68,1,3.83-.72,5.43Z"/>
  <path class="cls-1" d="M598.18,326.89c0,2.18,0,4.37,0,6.55A5.33,5.33,0,0,1,598.18,326.89Z"/>
  <path class="cls-22" d="M283.51,407.55c1.4-1.56,3.25-.83,4.93-.93.27,0,.55.24.83.37l-1.37.91Z"/>
  <path class="cls-87" d="M527.45,407.57c1.64-1.66,3.75-1.22,5.5-.68.71.22-.85.56-1.16,1.05Z"/>
  <path class="cls-90" d="M250.32,371.52c.23-.89.47-1.79.89-3.36.37,2.74,1.12,4.79-.59,6.59Z"/>
  <path class="cls-22" d="M598.32,400.69h.95l.06,4.65c0,.51,0,1,.08,1.54C596.78,405.2,598.51,402.78,598.32,400.69Z"/>
  <path class="cls-92" d="M206.78,466.52q.54,0,1.08,0c-1.9,2.26-3.82,2-5.75.05C203.64,465.36,205.23,467.08,206.78,466.52Z"/>
  <path class="cls-90" d="M534.23,318.22c.46.41.91.83,1.36,1.25-2.32-.26-4.83.92-6.94-.93Z"/>
  <path class="cls-80" d="M357.92,389.77c-3-1.61-1.22-3.58-.42-5.48Z"/>
  <path class="cls-22" d="M250.64,352.51c1.57,1.42.86,3.28.92,5,0,.51-.18,1.16-.84.41a3.79,3.79,0,0,1-.47-1.06Z"/>
  <path class="cls-93" d="M448.48,435.91a5,5,0,0,1-4.77,0C445.29,434.14,446.88,434.19,448.48,435.91Z"/>
  <path class="cls-94" d="M575.78,435.16c0,.72,0,1.44,0,2.16l-2.26,1.39-1.29-2.65Z"/>
  <path class="cls-60" d="M274.12,371.11c-2.53-1.73-1.28-3.69-.34-5.63Z"/>
  <path class="cls-95" d="M246.89,441.84c1.7,1.56,1.7,3.13,0,4.71A4,4,0,0,1,246.89,441.84Z"/>
  <path class="cls-96" d="M230.71,296.19c1.62-2.89,3.6-1.25,5.52-.44Z"/>
  <path class="cls-87" d="M699.46,399.7c0,.33,0,.66,0,1-1.86-.65-4.32,1.38-5.72-1.3Z"/>
  <path class="cls-97" d="M111.34,294.78l1.22.05c.39.22.51.44.38.66s-.26.32-.39.32c-1.94.54-4.13,0-5.89,1.3C107.11,294.11,109.49,295,111.34,294.78Z"/>
  <path class="cls-1" d="M202.06,294.88l6.09,0c.32.23.41.45.28.64s-.25.28-.37.28A10.35,10.35,0,0,1,202.06,294.88Z"/>
  <path class="cls-22" d="M414.08,383a4.28,4.28,0,0,1,0-5.76C414.07,379.15,414.08,381.07,414.08,383Z"/>
  <path class="cls-1" d="M112.55,295.81c0-.33,0-.66,0-1l5.61,0C116.46,296.08,114.49,295.85,112.55,295.81Z"/>
  <path class="cls-98" d="M561.79,449a4.22,4.22,0,0,1,0,5.7Z"/>
  <path class="cls-99" d="M208.06,295.78q0-.46.09-.93a9.3,9.3,0,0,0,1.06,0c1.63.25,3.66-.71,4.63,1.53Z"/>
  <path class="cls-87" d="M661.58,399.4c-1.35,2.68-2.93,1.24-4.49.25Z"/>
  <path class="cls-100" d="M266.8,461.79a4.17,4.17,0,0,1,0-5.75A9.64,9.64,0,0,1,266.8,461.79Z"/>
  <path class="cls-101" d="M632,446.47a4.45,4.45,0,0,1,0-5.7Z"/>
  <path class="cls-19" d="M260.85,458.35c2.06,1.95,2.1,3.89,0,5.82C260.82,462.23,260.84,460.29,260.85,458.35Z"/>
  <path class="cls-102" d="M74.91,295.79c2.06-1.27,4-1.85,5.76.54Z"/>
  <path class="cls-102" d="M289.14,318.24l1.32,1.23c-1.95-.19-4.08.8-5.77-.94Z"/>
  <path class="cls-87" d="M298.83,319.47l1.3-1.22,4.48.29C302.91,320.26,300.78,319.28,298.83,319.47Z"/>
  <path class="cls-87" d="M375.18,318.25a4.65,4.65,0,0,1,1.07.45c.11.07,0,.68,0,.68-1.52.11-3.12.6-4.33-.86Z"/>
  <path class="cls-103" d="M622.05,262l.82,1.1c-.2,1.63.63,3.54-1.31,4.69C621.72,265.83,621.89,263.9,622.05,262Z"/>
  <path class="cls-87" d="M545.11,319.49c0-.43,0-.86,0-1.29l5.79.36C549.2,320.25,547.06,319.28,545.11,319.49Z"/>
  <path class="cls-104" d="M700.68,224.31l1.26,0-.31,5.78C699.9,228.38,700.93,226.24,700.68,224.31Z"/>
  <path class="cls-105" d="M624,221.87l-1.2,0,.27-5.81C624.78,217.8,623.77,219.94,624,221.87Z"/>
  <path class="cls-102" d="M494.35,358.28l-1.22-1.3c.09-1.49.19-3,.29-4.47C495.14,354.2,494.16,356.34,494.35,358.28Z"/>
  <path class="cls-106" d="M637.16,334.9a4.66,4.66,0,0,1-1.08-.42c-.1-.07,0-.69,0-.7,1.52-.15,3.09-.54,4.33.8Z"/>
  <path class="cls-107" d="M350.65,354.81c2.37.19,3.59,1.36,3.27,3.84A7.59,7.59,0,0,1,350.65,354.81Z"/>
  <path class="cls-108" d="M257.55,391.27c2.49.18,3.55,1.56,3.36,4A9.13,9.13,0,0,1,257.55,391.27Z"/>
  <path class="cls-90" d="M360.1,407.58c1-1.34,2.44-1,3.78-1,.38,0,1.32,0,.55.82-.24.25-.71.3-1.08.44Z"/>
  <path class="cls-108" d="M353.86,358.58c2.54-.31,3.69.95,3.81,3.37A8.16,8.16,0,0,1,353.86,358.58Z"/>
  <path class="cls-22" d="M398.89,318.55c-1.71,1.7-3.86.72-5.81.94v-.75a.36.36,0,0,0,0-.57Z"/>
  <path class="cls-42" d="M631.41,394.5V337.21H632v57.36Z"/>
  <path class="cls-109" d="M631.06,319.58c.35,0,.71-.08,1.06-.14v6.89l-1.06.08Z"/>
  <path class="cls-110" d="M559.46,357.1q0,6.54,0,13.07c.32,2.28.86,4.58-.35,6.79-1.1,3.43-2.15,6.88-3.3,10.3-2,6.06-6.58,9.63-12.25,12-2.58,1.32-5.18,1-7.8.16C525.08,396.26,522,387.32,519.4,378c-1.67-1.61-.37-3.71-.91-5.52a9,9,0,0,1-.44-1.91c-.13-5,0-10,0-14.92a13.2,13.2,0,0,1,.15-2c1-1.74-.37-4,1.2-5.6,1.66-3.89,2.18-8.17,4.36-11.91,2.8-4.83,7-7.65,12.1-9.45a7.13,7.13,0,0,1,6.66.06l5.64,2.35a7.38,7.38,0,0,1,5.07,5.13c2.76,5.08,4.23,10.63,5.9,16.11C560.37,352.52,559.78,354.82,559.46,357.1Z"/>
  <path class="cls-111" d="M519,353.6l-.06,1.24a74.59,74.59,0,0,0,0,16.43l.05,1.2c-.35.57-.69.53-1,0a36.29,36.29,0,0,1,0-20A2,2,0,0,1,519,353.6Z"/>
  <path class="cls-54" d="M535.77,399.44l7.8-.16c-2.24,3-5.23.9-7.87,1.12a.65.65,0,0,1-.17-.45A1.39,1.39,0,0,1,535.77,399.44Z"/>
  <path class="cls-80" d="M542.47,326.74l-6.66-.06c2-2.82,4.56-.78,6.87-.92a1,1,0,0,1,.07.5A1.58,1.58,0,0,1,542.47,326.74Z"/>
  <path class="cls-91" d="M559.12,377c.11-2.26.23-4.53.35-6.79,1.56,2.59,1.06,5.31.53,8-.15-.06-.37-.09-.43-.2A8.09,8.09,0,0,1,559.12,377Z"/>
  <path class="cls-102" d="M559.46,357.1c-.13-2.26-.25-4.51-.38-6.77C561.51,352.46,560.44,354.78,559.46,357.1Z"/>
  <path class="cls-112" d="M553.18,334.22l-5.07-5.13C551.53,329.1,553.19,330.84,553.18,334.22Z"/>
  <path class="cls-113" d="M519,353.6l-1-1.16c.53-1.44-1.17-3.6,1.41-4.4Z"/>
  <path class="cls-96" d="M518,372.45l1,0,.42,5.5C516.19,376.84,518.87,374.18,518,372.45Z"/>
  <path class="cls-114" d="M275.2,352.49l-1.08-1.37c-.75-.65-.88-1.28.1-1.84,1.44-3.6,1.3-7.56,3-11.17,4.68-9.92,13.13-13.29,23.65-9.08,1.88,1.06,3.87,2,4.12,4.54l3,8.57c1.08,3.45,1.35,6.9-.17,10.31l.33,0,0-.33c-4.08,1.9-8.4.79-12.58.8C288.83,353,282,353.65,275.2,352.49Z"/>
  <path class="cls-23" d="M275.2,352.49l33-.35a3.06,3.06,0,0,1-3,1.48c-9.36,0-18.72,0-28.08-.08C276.51,353.53,275.86,352.86,275.2,352.49Z"/>
  <path class="cls-80" d="M307.86,352.45c.06-3.44.11-6.88.17-10.31A8.72,8.72,0,0,1,307.86,352.45Z"/>
  <path class="cls-115" d="M305,333.57,300.88,329C303.48,329.43,305.93,330,305,333.57Z"/>
  <path class="cls-116" d="M290.68,325.59h4.57C293.73,327.24,292.14,325.77,290.68,325.59Z"/>
  <path class="cls-117" d="M274.22,349.28l-.1,1.84c-3-1.13-.3-3.06-.54-4.59C273.79,347.45,274,348.36,274.22,349.28Z"/>
  <path class="cls-118" d="M393.09,318.74a3.76,3.76,0,0,0,0,.75h-5.74v-1Z"/>
  <path class="cls-119" d="M449.53,454.42l-10.5.35q1.22-3.45,2.41-6.9l3.18-6.9C446.52,446.18,448,450.3,449.53,454.42Z"/>
  <path class="cls-95" d="M566.88,449.48c.58,1.91.75,3,.07,4.23C565.9,452.51,566.2,451.32,566.88,449.48Z"/>
  <path class="cls-120" d="M375.07,439.57v10.31A17,17,0,0,1,375.07,439.57Z"/>
  <path class="cls-121" d="M374.5,463.87v-9h.56V464Z"/>
  <path class="cls-1" d="M518.93,371.27a28.89,28.89,0,0,1,0-16.43Z"/>
</svg>
