<svg id="Layer_1" data-name="Layer 1" xmlns="http://www.w3.org/2000/svg" viewBox="0 0 792 612">
  <defs>
    <style>
      .cls-1 {
        fill: #122d5d;
      }

      .cls-2 {
        fill: #132d5d;
      }

      .cls-3 {
        fill: #231f20;
      }

      .cls-4 {
        fill: #11a4c7;
      }

      .cls-5 {
        fill: #d2cfca;
      }

      .cls-6 {
        fill: #142e5d;
      }

      .cls-7 {
        fill: #152e5e;
      }

      .cls-8 {
        fill: #142e5e;
      }

      .cls-9 {
        fill: #17305e;
      }

      .cls-10 {
        fill: #18315f;
      }

      .cls-11 {
        fill: #152f5e;
      }

      .cls-12 {
        fill: #233864;
      }

      .cls-13 {
        fill: #fefefe;
      }

      .cls-14 {
        fill: #f1f0f1;
      }

      .cls-15 {
        fill: #f3f3f4;
      }

      .cls-16 {
        fill: #fefdfe;
      }
    </style>
  </defs>
  <g>
    <path class="cls-1" d="M396.61,268.69c3-10.52,5.77-20.34,8.62-30.14,3-10.19,6-20.35,9-30.54.52-1.78,1.21-2.84,3.37-2.76,4.49.17,9,.15,13.48,0,2.8-.09,2.9,1,2.17,3.31Q422.55,242.73,412,276.93c-1.87,6-3.76,12-5.63,18.06-.24.79-.17,2-.69,2.34-4.78,3.24-10.19.79-15.27,1.53-2.6.37-2.77-1.68-3.36-3.41q-8.08-23.76-16.26-47.51a11.55,11.55,0,0,0-1.38-1.9c-3.29,9.71-6.36,18.88-9.52,28-2.54,7.36-5.3,14.65-7.75,22.05-.71,2.15-1.74,2.89-3.91,2.79-4.31-.19-9.38,1.2-12.74-.64s-3-7.67-4.36-11.71c-8.34-25.54-16.49-51.15-24.87-76.67-1.26-3.84-.54-5,3.51-4.64a37.9,37.9,0,0,0,9.46,0c5.14-.8,6.59,1.79,7.87,6.2,5.46,18.77,11.32,37.43,17.43,57.39,4.1-12.81,7.78-24.41,11.53-36,2.65-8.19,5.63-16.29,8-24.55,1.43-4.92,5.06-2.33,7.74-2.93s3.59.9,4.39,3.35c6.24,19.06,12.67,38,19.06,57.06C395.51,266.51,395.92,267.22,396.61,268.69Z"/>
    <path class="cls-1" d="M238.83,253.64c8.08-12.6,15.76-24.57,23.44-36.56a14.12,14.12,0,0,0,1.45-2.6c3.37-9.34,10.75-10,19.12-9.3,3,.26,4,.89,4,4-.17,9.49-.06,19-.06,28.47,0,18.65-.11,37.29.08,55.94,0,3.91-.63,5.91-5.07,5.36-4.25-.53-9.78,1.72-12.52-.86s-.85-8.19-.88-12.45c-.11-14.81,0-29.62,0-46l-29.53,44.75L209,240.23c-1.29,2.1-.78,3.77-.78,5.33,0,16.48-.11,33,0,49.44,0,3.06-.77,4.15-3.9,3.93-4.45-.33-10.21,1.4-13-.8-3-2.35-1-8.39-1-12.8-.11-25.14,0-50.28-.14-75.42,0-3.71,1-4.39,4.62-4.79,9-1,14.8,1.53,19.45,10C221.44,228.22,230.24,240.36,238.83,253.64Z"/>
    <path class="cls-1" d="M523.24,240.71c-1.27,2.12-.81,3.8-.81,5.39,0,16.15-.08,32.3,0,48.45,0,3-.39,4.7-4,4.39-4.6-.4-10.61,1.41-13.51-.89-3.1-2.46-.95-8.72-1-13.31-.11-24.81,0-49.62-.13-74.43,0-3.65.67-4.79,4.75-5.24,7.4-.79,11.66,2.32,16,7.85,12.44,15.87,25.47,31.28,39.17,48V237.39c0-9.5.1-19-.06-28.48,0-2.81.76-3.88,3.63-3.65,4.61.36,10.55-1.84,13.51.82s.94,8.8,1,13.38c.11,24.81,0,49.62.13,74.43,0,3.67-.74,4.7-4.75,5.22-6.66.87-9.5-3.29-12.78-7.35C550.75,274.89,537.16,258,523.24,240.71Z"/>
    <path class="cls-1" d="M643.13,300.17c-14.26-.27-27.25-4.35-37.28-15.88-1.89-2.17-1.48-3.22.24-4.73.62-.55,1.17-1.19,1.78-1.75,2.9-2.72,5.49-7,8.81-7.66,2.94-.6,5,4.65,7.89,6.84,7.82,5.93,16.42,8.49,26.18,6.2,5.43-1.28,9.71-5.7,10-10.31.27-4.81-2.77-8.45-9.05-10.18-8.46-2.35-17.12-4-25.45-6.74-14.4-4.7-20.27-17.47-15.4-31.63,3.89-11.33,12.57-16.91,23.45-19.12,16.14-3.27,30.49.51,42.31,12.61,2.28,2.33,2,3.71-.15,5.58-2.36,2.09-4.92,4.06-6.82,6.52-2.58,3.32-4.18,2.64-6.58-.23-6.52-7.8-15-10.64-25-8.73-4.08.78-7.5,2.82-9,6.93-2.12,5.68.34,10.19,6.84,12,8,2.24,16.1,4,24.08,6.16,16.68,4.62,24.24,18.76,17.75,34.71-5,12.22-15.46,17.62-28.16,19.07C647.56,300.07,645.55,300.05,643.13,300.17Z"/>
    <path class="cls-1" d="M126.74,200.32c16.55,33.42,32.47,65.6,48.78,98.54-7,0-13.07-.05-19.14,0-1.92,0-2.5-1.19-3.17-2.6-2.41-5.09-5-10.09-7.26-15.27-.95-2.21-2.13-2.95-4.46-2.92q-15,.16-29.94,0c-2.45,0-3.37,1-4.3,3.07-2.21,5-4.86,9.81-7.23,14.75a4.68,4.68,0,0,1-5,3c-5.29-.21-10.59-.06-16.28-.06,2.35-7.52,6.49-13.79,9.41-20.6,1.95-4.55,4.82-8.7,6.75-13.25,1.15-2.73,2.73-3.18,5.31-3.15,11.78.1,23.55,0,36,0-3.3-6.91-6.3-13.31-9.41-19.67-3-6.1-6.11-12.14-9.11-18.25-.56-1.14-1.22-2.32-.52-3.77C120.3,213.85,123.34,207.44,126.74,200.32Z"/>
    <path class="cls-2" d="M452.62,251.83c0-14.14.11-28.28-.07-42.42-.05-3.34,1-4.39,4.23-4.17a82,82,0,0,0,11,0c3.08-.2,4,.91,3.95,4-.15,14-.07,28-.07,41.92,0,14.48-.11,28.95.09,43.42,0,3.57-1.07,4.65-4.51,4.39-4.61-.35-10.72,1.45-13.49-.88-3.22-2.72-1-9-1-13.78C452.5,273.46,452.62,262.65,452.62,251.83Z"/>
    <path class="cls-3" d="M66.57,341.84a1.36,1.36,0,0,1,1.58-1.44c1.33,0,2.67,0,4,0q300.89,0,601.78.09c1.8,0,4.37-1.67,5.57,1.35-1.49,1.14-3.22.59-4.82.59q-301.65,0-603.28,0C69.79,342.43,68.06,343,66.57,341.84Z"/>
    <path class="cls-4" d="M106.06,242.07H66.43C73,228.68,79.32,215.83,86.13,202,93,215.77,99.38,228.61,106.06,242.07Z"/>
    <path class="cls-5" d="M66.57,341.84c1.5.05,3,.13,4.49.13H675c1.49,0,3-.08,4.48-.13-1.87,2.17-4.38,1.08-6.55,1.08Q403.73,343,134.5,343q-31.44,0-62.88,0C69.92,342.93,67.91,343.77,66.57,341.84Z"/>
    <path class="cls-6" d="M542.31,411.12c-8.9,0-13.43-4.68-13.5-14-.07-9.08,5.35-15.12,13.48-15a13.76,13.76,0,0,1,13.5,14.74C555.44,405,551.4,411.78,542.31,411.12Z"/>
    <path class="cls-7" d="M494.71,393.83c0,2.49.15,5,0,7.47-.5,7-3.69,9.75-11.05,9.82-7.9.07-12-2.94-12.43-9.65-.32-5.29,0-10.63-.11-15.94-.07-2.65,1.3-2.92,3.4-2.92s3.06.58,3,2.82c-.09,4.82,0,9.63,0,14.45,0,3.8,1.82,6.1,5.5,6.31,4,.22,5.58-2.48,5.69-6.06.14-4.81.17-9.64,0-14.45-.08-2.43.8-3.09,3.14-3.1,2.52,0,3.11,1,3,3.28-.14,2.65,0,5.31,0,8Z"/>
    <path class="cls-6" d="M200.13,411.12a13.68,13.68,0,0,1-8.95-2.33c-1.42-1-3.25-2.17-1.1-4.3,1.45-1.44,2.42-2.9,4.71-.68,2.5,2.43,5.59,4.37,9.36,2a3.18,3.18,0,0,0,1.86-2.72,2.86,2.86,0,0,0-2.32-2.88c-2.41-.61-4.9-.91-7.26-1.67-3.32-1.06-5.94-2.9-6.12-6.91s1.52-6.82,5.05-8.35a13.73,13.73,0,0,1,14.12,1.51c1.22.86,3.2,2.08,1,3.81-1.18.93-2.24,3.64-4.45.65-1.47-2-4.15-1.78-6.5-1.61-1.62.11-3,.64-3.2,2.48s1,2.62,2.61,3c1.14.25,2.25.6,3.38.83,7.35,1.52,10.36,4.45,9.78,9.56S207.73,411.13,200.13,411.12Z"/>
    <path class="cls-2" d="M314.47,410.56c2.13-8.79,6.38-16.75,8.77-25.35.74-2.64,2.54-2.52,4.59-2.6,2.36-.08,3.92.29,4.83,3,2.78,8.29,5.9,16.47,9,25-3.63.69-6.3.88-7.68-3.55-1.26-4-5.12-1.44-7.77-1.93-1.76-.33-4.19-.86-4.71,2.08C320.73,411.71,317.78,411.4,314.47,410.56Z"/>
    <path class="cls-2" d="M466,410.63c-4,.76-6.74.7-7.42-3.44-.36-2.18-2.07-2.5-3.78-2.1-3,.71-7-2.17-8.82,2.11-1.55,3.69-3.89,4.53-7.65,3.31,3.23-8.68,6.52-17.32,9.65-26,.82-2.26,2.52-1.63,4.08-1.86,2.55-.36,4.05.73,4.9,3.09C459.89,394,462.9,402.22,466,410.63Z"/>
    <path class="cls-2" d="M246.23,396c.42-3.8-1.94-11.11.83-12.41,4.78-2.24,11.29-.77,17.06-.92,1.89,0,2.06,1,2.11,2.53,0,1.78-.31,2.85-2.43,2.73-2.48-.14-5-.07-7.46,0-2,.05-4.22-.8-4.3,2.89-.08,4,2.34,3.11,4.52,3.15,1.66,0,3.32.07,5,0s2.29.77,2.29,2.41-.27,3-2.38,2.9c-1.82-.06-3.66.11-5.47,0-2.54-.19-3.91.26-3.92,3.39s1.29,3.53,3.83,3.37,5.31.08,8-.06c2.15-.12,2.41,1,2.4,2.71S265.77,411,264,411c-5.15-.07-10.29-.1-15.43,0-2.18.05-2.39-1.06-2.36-2.78C246.28,404.41,246.23,400.59,246.23,396Z"/>
    <path class="cls-6" d="M218,396.84c0-3.32.24-6.66-.07-9.95-.34-3.65,1.16-4.59,4.51-4.29,3.13.27,6.31-.09,9.44.17,5.8.47,8.5,3.44,8.49,8.92s-2.72,8.35-8.48,9a3.36,3.36,0,0,1-1,0c-5.73-1.13-7.75,1.33-6.76,6.87.44,2.45-.43,3.49-3.18,3.53-3.11.05-3-1.64-3-3.76C218,403.81,218,400.33,218,396.84Z"/>
    <path class="cls-8" d="M284.22,411.12c-5.23.31-9.26-1.89-11.46-7.16-2.6-6.23-1.39-13.79,2.91-18a13.18,13.18,0,0,1,14.65-2.71,8.71,8.71,0,0,1,4.61,4.28c.67,1.32,2.53,3-.12,4-1.5.55-3.62,2.59-4.89-.66-1.19-3.07-3.82-3.4-6.62-3a5.94,5.94,0,0,0-5.11,5.35,33.39,33.39,0,0,0-.13,6.93c.16,3.28,2.29,5,5.22,5.86a5.21,5.21,0,0,0,6.41-2.52c1.69-3.07,3.78-1.47,5.41-.53,2.35,1.35.08,3-.53,4.12C293,410.07,289.88,411.16,284.22,411.12Z"/>
    <path class="cls-9" d="M512.68,382.64c3,0,6,.06,9,0,2-.05,3.06.51,3,2.8,0,2-1,2.82-2.75,2.43-6.49-1.42-6.84,2.33-6.52,7.21.28,4.29-.06,8.63.1,12.94.1,2.52-1,3-3.24,3s-3.33-.49-3.24-3c.16-5.14-.17-10.3.12-15.43.19-3.53-.54-5.33-4.52-4.74-1.79.26-4.06.78-4-2.61s2.35-2.49,4.13-2.56C507.36,382.57,510,382.64,512.68,382.64Z"/>
    <path class="cls-6" d="M398.05,383.32c7.3-3.1,8.55,3.15,10.48,6.61,2.72,4.88,3.62,2.46,5.21-.34,2.12-3.72,3.18-9,9.94-6.44-1.52,2.79-2.68,5.91-4.67,8.35a20.64,20.64,0,0,0-4.92,16.13c.22,2,.05,3.46-2.75,3.43-2.61,0-3.77-.79-3.29-3.4,1.41-7.68-3.43-13.08-6.87-19C400.19,387,399.19,385.27,398.05,383.32Z"/>
    <path class="cls-10" d="M347.46,397.54c0-4.28.08-7.77,0-11.26-.07-2.3.26-3.74,3.16-3.73,2.74,0,3.34,1.15,3.28,3.6-.13,5.31.14,10.64-.1,16-.15,3.06.75,4.22,3.87,3.86,2.12-.25,4.31,0,6.47-.06,1.73,0,2.8.29,2.78,2.42,0,1.88-.58,2.81-2.55,2.66-.82-.06-1.66,0-2.49,0-4.61-.21-10.61,1.91-13.47-.79S347.86,401.35,347.46,397.54Z"/>
    <path class="cls-11" d="M382.5,382.65c3,0,6,.09,9,0,2.16-.09,2.9.74,2.86,2.89s-1.14,2.68-2.83,2.35c-6-1.15-6.82,1.93-6.38,6.92.4,4.46,0,9,.13,13.47.07,2.26-.85,2.78-2.93,2.78s-3-.61-2.95-2.83c.11-5.33-.18-10.67.11-16,.2-3.51-.87-4.74-4.4-4.43-1.78.16-4.62,1.31-4.67-2.48s2.72-2.52,4.6-2.64C377.5,382.53,380,382.64,382.5,382.65Z"/>
    <path class="cls-8" d="M308.08,396.45c0,3.8-.11,7.61,0,11.41.09,2.3-.56,3.17-3,3.19s-3-.86-3-3.16c.12-7.44.09-14.89,0-22.33,0-2,.4-3,2.7-3,2.11.06,3.45.3,3.31,2.93C307.94,389.16,308.08,392.81,308.08,396.45Z"/>
    <path class="cls-10" d="M710.53,205.28c5.1-1.51,4.68,4.09,7.57,5.64a3.1,3.1,0,0,1,.83-.74c2.5-1.16,1.8-6.34,6.23-5,.56.18.56,12.73,0,13.25a2.1,2.1,0,0,1-1.24.49c-1.06.08-1.41-.64-1.42-1.56,0-1.79,0-3.58,0-6.09-1.75,1.93-3,3.33-4.47,4.93l-4.5-5.48c0,2.46.11,3.83,0,5.19-.12,1.12.77,3.1-1.42,2.95-1.93-.13-1.27-2-1.32-3.2-.12-2.64-.11-5.3-.15-7.95A1.52,1.52,0,0,1,710.53,205.28Z"/>
    <path class="cls-12" d="M710.53,205.28c0,.82.05,1.64.07,2.46-4.48-.72-5.88,1.37-5.2,5.55a23,23,0,0,1,0,4,1.58,1.58,0,0,1-1.85,1.74,1.62,1.62,0,0,1-1.82-1.81c0-1.66,0-3.32,0-5-.07-2,.81-4.56-2.76-4.5-1,0-1.31-.87-1.16-1.8.18-1.1,1.11-1.17,1.89-1.14C703.29,204.93,707,204.18,710.53,205.28Z"/>
    <path class="cls-13" d="M549.16,396.73c.05,6.1-2.49,9.56-7,9.56s-7.4-3.85-7.36-9.44c0-5.84,2.78-9.19,7.49-9.14C546.83,387.75,549.11,390.75,549.16,396.73Z"/>
    <path class="cls-14" d="M327.73,390.11l3.77,9.48a17.69,17.69,0,0,1-7.24.06C325.36,396.64,326.41,393.74,327.73,390.11Z"/>
    <path class="cls-15" d="M452.42,390.27a57,57,0,0,1,1.91,5.72c.28,1.25,2,2.92.07,3.78a6.43,6.43,0,0,1-4.84-.06c-1.88-.91-.09-2.54.16-3.82A10.5,10.5,0,0,1,452.42,390.27Z"/>
    <path class="cls-16" d="M227.34,395.28c-1.85.34-3.37-.25-3.36-3.91s1.62-3.69,4.22-3.51c2.78.19,6.12-.38,6.09,3.87C234.26,395.82,231,395,227.34,395.28Z"/>
  </g>
</svg>
