<svg id="Layer_1" data-name="Layer 1" xmlns="http://www.w3.org/2000/svg" viewBox="0 0 792 612">
  <defs>
    <style>
      .cls-1 {
        fill: #1b2c86;
      }

      .cls-2 {
        fill: #7586b9;
      }

      .cls-3 {
        fill: #1b2d86;
      }

      .cls-4 {
        fill: #1a2c86;
      }

      .cls-5 {
        fill: #1b2d87;
      }

      .cls-6 {
        fill: #1d2f87;
      }

      .cls-7 {
        fill: #485ba2;
      }

      .cls-8 {
        fill: #36539b;
      }

      .cls-9 {
        fill: #7181b5;
      }

      .cls-10 {
        fill: #415ca1;
      }

      .cls-11 {
        fill: #3a589e;
      }

      .cls-12 {
        fill: #596baa;
      }

      .cls-13 {
        fill: #6679ae;
      }

      .cls-14 {
        fill: #465ba1;
      }

      .cls-15 {
        fill: #5267a7;
      }

      .cls-16 {
        fill: #4057a0;
      }

      .cls-17 {
        fill: #566ba9;
      }

      .cls-18 {
        fill: #3b54a0;
      }

      .cls-19 {
        fill: #596daa;
      }

      .cls-20 {
        fill: #5469a7;
      }

      .cls-21 {
        fill: #6276ae;
      }

      .cls-22 {
        fill: #5e70ac;
      }

      .cls-23 {
        fill: #5b6fab;
      }

      .cls-24 {
        fill: #6477af;
      }

      .cls-25 {
        fill: #6c7cb2;
      }

      .cls-26 {
        fill: #4e62a4;
      }

      .cls-27 {
        fill: #5c6fab;
      }

      .cls-28 {
        fill: #596caa;
      }

      .cls-29 {
        fill: #495ea2;
      }

      .cls-30 {
        fill: #5a6daa;
      }

      .cls-31 {
        fill: #5064a5;
      }

      .cls-32 {
        fill: #455ca2;
      }

      .cls-33 {
        fill: #5067a5;
      }

      .cls-34 {
        fill: #6679af;
      }

      .cls-35 {
        fill: #5d71ac;
      }

      .cls-36 {
        fill: #38569d;
      }

      .cls-37 {
        fill: #4d61a4;
      }

      .cls-38 {
        fill: #7180b5;
      }

      .cls-39 {
        fill: #3e559d;
      }

      .cls-40 {
        fill: #5f72ad;
      }

      .cls-41 {
        fill: #6275ae;
      }

      .cls-42 {
        fill: #5b6eaa;
      }

      .cls-43 {
        fill: #4f64a6;
      }

      .cls-44 {
        fill: #6377ad;
      }

      .cls-45 {
        fill: #576caa;
      }

      .cls-46 {
        fill: #5266a7;
      }

      .cls-47 {
        fill: #3c4f9a;
      }

      .cls-48 {
        fill: #354b97;
      }

      .cls-49 {
        fill: #4e62a5;
      }

      .cls-50 {
        fill: #6072ac;
      }

      .cls-51 {
        fill: #22358c;
      }

      .cls-52 {
        fill: #3e559c;
      }

      .cls-53 {
        fill: #a4accd;
      }

      .cls-54 {
        fill: #3e569c;
      }

      .cls-55 {
        fill: #3e529c;
      }

      .cls-56 {
        fill: #4259a0;
      }

      .cls-57 {
        fill: #374d9b;
      }

      .cls-58 {
        fill: #1f348c;
      }

      .cls-59 {
        fill: #21358c;
      }

      .cls-60 {
        fill: #2f4796;
      }

      .cls-61 {
        fill: #3e57a0;
      }

      .cls-62 {
        fill: #4d63a5;
      }

      .cls-63 {
        fill: #6679b0;
      }

      .cls-64 {
        fill: #4b5fa3;
      }

      .cls-65 {
        fill: #3c54a0;
      }

      .cls-66 {
        fill: #415aa1;
      }

      .cls-67 {
        fill: #fafafa;
      }

      .cls-68 {
        fill: #f3eced;
      }

      .cls-69 {
        fill: #a0adca;
      }

      .cls-70 {
        fill: #1a2585;
      }

      .cls-71 {
        fill: #fff;
      }

      .cls-72 {
        fill: #f8f8fb;
      }

      .cls-73 {
        fill: #1a2782;
      }

      .cls-74 {
        fill: #1a2584;
      }

      .cls-75 {
        fill: #1a2983;
      }

      .cls-76 {
        fill: #1c2d87;
      }

      .cls-77 {
        fill: #284294;
      }

      .cls-78 {
        fill: #f7f8fa;
      }

      .cls-79 {
        fill: #f8f9fb;
      }

      .cls-80 {
        fill: #2e4796;
      }

      .cls-81 {
        fill: #fefeff;
      }

      .cls-82 {
        fill: #f9f9fb;
      }

      .cls-83 {
        fill: #294395;
      }

      .cls-84 {
        fill: #274093;
      }

      .cls-85 {
        fill: #fbfbfa;
      }

      .cls-86 {
        fill: #1a2d87;
      }

      .cls-87 {
        fill: #1a2c87;
      }

      .cls-88 {
        fill: #d3202d;
      }

      .cls-89 {
        fill: #d31d2b;
      }

      .cls-90 {
        fill: #1a2c84;
      }

      .cls-91 {
        fill: #1a2582;
      }

      .cls-92 {
        fill: #d31525;
      }

      .cls-93 {
        fill: #d31726;
      }

      .cls-94 {
        fill: #d31524;
      }

      .cls-95 {
        fill: #d31421;
      }
    </style>
  </defs>
  <path class="cls-1" d="M755.14,297c-.44,0-1.12-.19-1.3,0-7.47,9.29-15.67,11.16-26.56,6.49-3.48-1.49-4.67-3.56-4.36-7.16.21-2.58.94-2.73,2.93-1.43,4.06,2.65,8.38,4.52,13.43,4,3.07-.31,5.66-1.41,6.58-4.47,1-3.36-.75-5.8-3.62-7.38-3.92-2.15-8-4.05-11.89-6.21-3.48-1.92-6.26-4.62-7.38-8.57-2-7.07,1.45-13.43,8.68-15.79,6.21-2,12.38-1.36,18.38,1,2.23.86,3.62,5.17,2.46,7.18-.84,1.49-1.78.44-2.62.07-3.7-1.63-7.41-3.11-11.61-2.76-3.19.27-6.1,1.16-6.92,4.54s1.47,5.21,4,6.73c5.36,3.16,11.67,4.72,16.09,9.47,2.13,1.9,2.69,4.61,3.66,7.11Z"/>
  <path class="cls-2" d="M755.14,289.88l-3.66-7.11c1.92.45,2,2.78,3.66,3.53Z"/>
  <path class="cls-3" d="M106.9,223.48c8.65.93,16.85,3.87,25.27,5.79,11.65,2.66,23.18,5.82,34.79,8.62,2.58.63,3.67,1.65,3.66,4.5q-.17,39.63,0,79.27a7.65,7.65,0,0,1-2.53,5.88q-30.19,30-60.25,60.11c-2.49,2.5-3.89,2.86-6.62.1Q70.48,356.7,39.39,326a5.33,5.33,0,0,1-1.61-4.33c0-26.42.1-52.84-.08-79.26,0-5.08,3.46-4.05,6.23-4.64.3,2.23-2.08,3-2.58,4.83-2.11,5-1,10.3-1,15.4q0,30.95.13,61.89c-.05-24.34,0-48.69-.12-73,0-1.57.74-2.86,1.07-4.28A4.77,4.77,0,0,1,47,239.72c.28.1-.25-.53-.37-.48-1.37.5-2.12-.39-2.74-1.44l52-13.24a45.28,45.28,0,0,0,6.85-2c1.86-.8,3.12-.51,4.31.94-1.23,1.49-3.11,1.29-4.71,1.7-2,.51-1,1.52-.65,2.5-.71,1.42-2.14,1.74-3.42,2.31C82.54,234.21,66.77,238,51,241.9c-6.66,1.65-6.66,1.65-6.66,8.66q0,33,0,66.07c0,2-.42,4.19.89,6.06,4.1,4.95,8.9,9.23,13.42,13.77C72.8,350.63,87,364.69,101.07,378.9c2.56,2.58,4.27,2.73,6.92.06q27-27.15,54.13-54.1a8.73,8.73,0,0,0,2.75-6.73c-.06-23.26-.1-46.52,0-69.78,0-3.7-1.35-5.23-4.86-6.08-10.58-2.57-21.19-5-31.66-8-1.12-.61-2.72-.69-2.83-2.46,1.82-1.88,3.72-.79,6.06,0-2.67-1.13-4.87-1.89-6.73.54a25.73,25.73,0,0,1-14.62-3.55c.86-2.44,2.76-1.72,4.3-1.16,1.22.44,2.29,1.2,3.29.9-3-1.18-6.45-1.59-9.75-2.72C107.33,225.54,106.08,224.88,106.9,223.48Z"/>
  <path class="cls-4" d="M497,256c3-.65,4.42.73,5.5,3.59,3,7.81,6.22,15.5,9.4,23.22.43,1,.56,2.61,2,2.61s1.55-1.59,2-2.62c3.17-7.39,6.36-14.78,9.43-22.22,1.08-2.61,2.11-4.56,5.58-4.77,3.84-.23,4.84,2.06,6,4.75q4.51,10.73,9.14,21.39c.56,1.3.7,3.37,2.51,3.25s1.84-2.11,2.39-3.46c3-7.32,5.91-14.66,8.88-22A6.69,6.69,0,0,1,568.4,256c2.08.91.76,2.3.36,3.35q-3.9,10-8,19.93-4.65,11.39-9.41,22.72c-.6,1.42-.68,3.64-2.77,3.62s-2.5-2.31-3.17-3.87c-4.06-9.45-8-18.95-12.07-28.41-.49-1.15-.59-2.94-2.23-3-1.81-.1-1.73,1.76-2.23,2.91-4.2,9.71-8.36,19.45-12.59,29.15-.57,1.3-.82,3.21-2.67,3.22s-2.16-1.81-2.71-3.16c-5.83-14.2-11.58-28.44-17.51-42.61C491.73,255.74,493.88,255.6,497,256Z"/>
  <path class="cls-4" d="M332.21,280.42c0-6.41-.08-12.83.05-19.24,0-1.75-1.14-4.48,1.41-5,2.76-.59,5.89-1.15,8.24,1.75,3.93,4.86,8.21,9.46,12,14.42,2.52,3.27,4.21,2.75,6.47-.16,3.48-4.47,7.43-8.58,10.78-13.14,2.1-2.85,4.62-3.31,7.76-3.19,2.3.09,3.14,1,3.13,3.25-.06,14.31-.11,28.63,0,42.94,0,4.15-2.8,2.88-4.94,3.08-2.51.24-4.26-.08-4.19-3.43.18-8.79.09-17.59,0-26.39,0-1.37.85-3.35-1-4-1.48-.5-2.13,1.36-2.95,2.32-3.3,3.86-6.59,7.72-9.7,11.72-1.78,2.28-3,2.25-4.8,0-3.2-4.12-6.59-8.09-10-12.07-.71-.83-1.28-2.45-2.69-1.82-1.25.55-.84,2.1-.85,3.25,0,8.65-.16,17.3.07,25.94.09,3.52-.93,4.63-4.53,4.62s-4.58-1.27-4.46-4.71C332.38,293.84,332.21,287.13,332.21,280.42Z"/>
  <path class="cls-4" d="M577,280.62c0-6.42-.09-12.83.06-19.25,0-1.86-1.24-4.7,1.73-5.27,2.66-.51,5.57-.91,7.82,1.79,5.84,7,11.85,13.82,17.77,20.73,2.62,3.05,5.19,6.16,7.82,9.21.65.76,1.25,1.93,2.47,1.52s.86-1.76.86-2.73c0-8.65.1-17.31,0-26,0-3.14.34-5,4.3-4.91,3.64.05,4.51,1.2,4.46,4.67-.2,13.13,0,26.26-.13,39.39,0,1.74,1.23,4.46-1.37,5-2.78.61-5.78,1-8.17-1.88-6.71-8.2-13.65-16.21-20.5-24.29-1.54-1.82-3.07-3.65-4.66-5.43-.76-.85-1.32-2.42-2.7-1.94s-.87,2-.87,3.17c0,8.66-.18,17.31.08,26,.11,3.75-1.09,4.74-4.78,4.83-4.1.09-4.24-1.92-4.19-5C577.09,293.75,577,287.18,577,280.62Z"/>
  <path class="cls-4" d="M460.69,255.43c15,.35,24.93,8.14,27.33,20.83a24.59,24.59,0,0,1-17.86,28.23c-10.56,2.95-20.52,1.54-28.75-6.31-7.56-7.22-9.43-16.13-6-25.86s10.66-15.1,20.82-16.58C458,255.48,459.78,255.49,460.69,255.43Z"/>
  <path class="cls-4" d="M267.44,283.47c-.06-13.29,6.27-22.86,17.64-26.66,12-4,25-.33,32.29,9.14,8.56,11.1,5.33,28.27-6.78,35.61-12.94,7.84-32.75,5.05-40.49-9.93A33.6,33.6,0,0,1,267.44,283.47Z"/>
  <path class="cls-4" d="M678.2,280.19c0-6.71.09-13.42-.05-20.13-.07-3,.71-4.4,4-4.22,5.36.28,10.78-.18,16.1.38,9.5,1,15.1,8.55,12.77,16.67a12.14,12.14,0,0,1-5.48,7.36c-2.23,1.32-2,2.38-.23,4.05,5.43,5.16,7.63,12.36,11.32,18.62.47.78.8,1.57-.44,2.14-2.76,1.24-8.19-.41-9.72-3.08-2.21-3.89-4.29-7.85-6.59-11.69-1.89-3.14-4.38-5.67-8.27-6.29-3-.49-4.86.2-4.68,3.88.22,4.61-.11,9.25.12,13.86.16,3.4-1.75,3.47-4.23,3.42s-4.78.26-4.68-3.5C678.33,294.51,678.2,287.35,678.2,280.19Z"/>
  <path class="cls-3" d="M636,280.2c0-6.72.11-13.44-.05-20.15-.07-3,.69-4.31,4-4.23,8.07.2,16.14.13,24.21,0,2.56,0,3.83.61,3.84,3.49s-1.33,3.46-3.86,3.4c-5.23-.14-10.46,0-15.69-.07-2.42,0-3.4.78-3.55,3.34-.63,10.63-.71,10.62,10.06,10.62,2.69,0,5.38.11,8.06,0s3.83.47,3.8,3.42-1.44,3.43-3.92,3.36c-4.78-.12-9.57.06-14.35-.08-2.71-.07-3.69,1-3.63,3.67.3,14.25-2,11.21,11,11.56,3.14.08,6.28.09,9.41,0,2.41-.08,3.07,1,3,3.28-.08,2.1-.48,3.38-3,3.35q-13.21-.12-26.45,0c-2.6,0-2.85-1.46-2.84-3.46C636,294.53,636,287.36,636,280.2Z"/>
  <path class="cls-5" d="M213.12,280.52c0-7,.15-14-.06-21-.11-3.58,1.78-3.66,4.47-3.69,2.84,0,4.46.39,4.2,3.89-.33,4.59,0,9.23-.09,13.85,0,2.26.77,3.24,3.11,3.22,7-.08,14-.1,21,0,2.66,0,3.25-1.17,3.18-3.56-.13-4.77.14-9.54,0-14.3-.13-3.74,2.41-3,4.54-3.05s4.11-.14,4.09,3.1q-.16,21.45,0,42.92c0,3.55-2.07,3.23-4.39,3.25s-4.5.16-4.36-3.33c.2-4.76-.08-9.53.1-14.29.11-2.81-1-3.69-3.66-3.65q-9.85.15-19.7,0c-2.84,0-4.06,1-4,4,.15,4.32-.15,8.65.1,13,.2,3.26-.74,4.39-4.19,4.44-3.65.06-4.59-1.15-4.47-4.61C213.29,293.94,213.12,287.23,213.12,280.52Z"/>
  <path class="cls-6" d="M393.87,280.48c0-7,.13-14-.06-21-.07-2.74.72-3.69,3.5-3.64,8.2.14,16.41.11,24.62,0,2.41,0,3.47.63,3.5,3.26s-.94,3.71-3.64,3.65c-5.22-.13-10.44,0-15.66-.06-2.44-.05-3.38.78-3.52,3.33-.57,10.6-.66,10.6,10,10.6,2.68,0,5.38.13,8.05,0s3.72.78,3.68,3.56-1.18,3.31-3.57,3.25c-4.77-.11-9.55.06-14.32-.09-2.93-.1-3.93,1.07-3.87,3.95.3,13.63-1.82,11,10.85,11.27,3.13.07,6.27.12,9.4,0,2.53-.12,3.37.86,3.38,3.37s-.89,3.34-3.4,3.31c-8.51-.12-17-.13-25.52,0-2.84.05-3.55-1-3.49-3.69.15-7,.05-14,.05-21Z"/>
  <path class="cls-7" d="M355.2,325.71c-2.06,4.28-.88,8.75-.74,13.15.17.73,1.36,1.09.76,2.1-2.3,3.58-.54,7.54-1.07,11.28-.25,1.81.54,3.84-.89,5.42-1.56-.57-1.47-1.68-1.47-2.71q0-14.29,0-28.59a5.3,5.3,0,0,1,.57-1.63C353.48,324.57,354.93,323.46,355.2,325.71Z"/>
  <path class="cls-8" d="M574.92,341.2c0,4.46,0,8.91,0,13.36,0,1,.4,2.49-.92,2.64-1.68.18-1.51-1.51-1.52-2.57-.06-7.72,0-15.43-.05-23.15,0-1.49,0-3,0-4.46,0-1-.13-2.32,1.42-2.18,1.14.1,1.06,1.26,1.06,2.11C574.93,331.7,574.92,336.45,574.92,341.2Z"/>
  <path class="cls-9" d="M501.65,356.12H517c-3,2.76-6.39,1.84-9.58,1.88-8.79.12-8.79,0-8.79-8.65,0-6.85,0-13.7,0-20.55,0-1.41-.59-3,.87-4.15a1.8,1.8,0,0,1,1.15,2.42,86.8,86.8,0,0,0,0,12.8,20.38,20.38,0,0,1-.2,3c0,3.09-.06,6.17,0,9.26C500.52,353.55,500,355.17,501.65,356.12Z"/>
  <path class="cls-10" d="M451.22,329.43v27.79c-2.26.13-2.1-.94-2.1-1.77q0-14.29,0-28.61c0-.88,0-1.82,1.1-2.15a5.48,5.48,0,0,1,1.43,3.54A2.1,2.1,0,0,1,451.22,329.43Z"/>
  <path class="cls-11" d="M535.6,342.81v14.51l-1.69.09c-.67-5.16-.23-10.44-.29-15.66s0-10.68.08-16a1.44,1.44,0,0,1,2.11.14c1.6,4,.71,8.13.66,12.21C536.25,339.66,535.3,341.12,535.6,342.81Z"/>
  <path class="cls-12" d="M612.56,356.15c2.58-.62,5-2,8.22-1.6-2.33,2.66-5.06,3.32-8,3.5a8.69,8.69,0,0,1-5,0c-6-.17-10.37-2.95-13.34-8.08.19-.8.28-1.64,1.16-2.05a17.23,17.23,0,0,0,11.58,8.25A7.11,7.11,0,0,0,612.56,356.15Z"/>
  <path class="cls-13" d="M500.46,326.65c-.33-.66-.65-1.33-1-2,5.61-1.56,11.2-.57,16.82,0-3.36,2-7,1.28-10.51,1.16-3.63-.13-5,1.18-4.48,4.63.45,3.16-1.06,6.55,1.07,9.52a1.76,1.76,0,0,1-1.45.45,1.23,1.23,0,0,1-.89-1.16C500.26,335.05,499.51,330.82,500.46,326.65Z"/>
  <path class="cls-14" d="M595.6,348c-.1.84-.25,1.66-1.16,2.05-3.73-6.05-3.63-12.09,0-18.12,1.7,0,1.55,1,1.13,2.08A20.68,20.68,0,0,0,595.6,348Z"/>
  <path class="cls-15" d="M419.75,327.53c3.33,5.19,6.19,10.58,7.29,16.74a1,1,0,0,1-.22,1.42h-.27l-.26-.09c-1.23.44-1.6-.48-2-1.29-1.4-5.07-4.92-9.29-5.81-14.57A2.94,2.94,0,0,1,419.75,327.53Z"/>
  <path class="cls-16" d="M479.87,337.35c.07,5.95.16,11.89.22,17.83,0,.85.23,2.09-.85,2.22-1.55.19-1.38-1.27-1.37-2.23,0-6.24.11-12.48.18-18.72C479.09,335.89,479.34,336.89,479.87,337.35Z"/>
  <path class="cls-17" d="M643,343.58c2.4-5.83,4.72-11.69,8-17.09a19.18,19.18,0,0,1,2,1.12c.67.46,1.32.94.88,1.91-3.58,3.4-4.34,8.45-7.2,12.27a12.16,12.16,0,0,1-1.51,1.92,1.83,1.83,0,0,1-1.73.28Z"/>
  <path class="cls-18" d="M479.87,337.35l-1.82-.9c-.6-2.1.36-4.4-.91-6.72-2.06.25-2.84,2.29-4.35,3.22-1,.21-1.32-.16-1.1-1.1,1.59-2.26,3-4.65,5.44-6.21,1.84,2.81.83-1.38,1.79-.73,2.69,1.85.85,4.49,1.11,6.75A37.46,37.46,0,0,1,479.87,337.35Z"/>
  <path class="cls-19" d="M451.22,329.43l-.1-1.1a3,3,0,0,1,2.72-.84,58.4,58.4,0,0,1,9.71,11.72c-.32.56,0,1.36-.75,1.74-2.8-3.28-5.6-6.55-8.37-9.85C453.57,330.08,452.92,328.79,451.22,329.43Z"/>
  <path class="cls-20" d="M408.92,342.68A92.73,92.73,0,0,1,416,327.2a2.67,2.67,0,0,1,1.49,2c-1.08,4.92-3.33,9.37-5.71,13.76a3.28,3.28,0,0,1-.9.88A1.61,1.61,0,0,1,408.92,342.68Z"/>
  <path class="cls-21" d="M644.78,343.71a2.09,2.09,0,0,1,.93-1.89c4.34,2.25,8.67,2.42,13-.06a2,2,0,0,1,1.3-.18c1.37,1.62.93,2.93-.67,4-5.05,1.36-10.23-.07-15.3.78l-.33-.53A2.69,2.69,0,0,1,644.78,343.71Z"/>
  <path class="cls-22" d="M644,346.4c-1.51,3.19-3,6.4-4.54,9.56-.42.85-.88,2.21-2.18,1.44-.95-.56-.31-1.61.06-2.38q2.79-5.73,5.62-11.44a3.18,3.18,0,0,1,.37.27c.52.65.27,1.43.38,2.16C643.83,346.14,643.93,346.28,644,346.4Z"/>
  <path class="cls-23" d="M426.82,345.69c.07-.47.15-.95.22-1.42,3.75,3.1,4.24,8,6.5,11.91a.88.88,0,0,1-.67,1.35c-.88.13-1.36-.56-1.66-1.22C429.64,352.82,427.47,349.57,426.82,345.69Z"/>
  <path class="cls-24" d="M425.06,343.48a2.36,2.36,0,0,0,1.23,2.12c-5.6,1.49-11.38-.2-17,.93l-.5-.25c-.13-1.36.91-1.92,1.77-2.61l.37-.12A70.24,70.24,0,0,1,425.06,343.48Z"/>
  <path class="cls-25" d="M603.36,324.68a4.92,4.92,0,0,1,3.8-.79,6.54,6.54,0,0,0,5.44,0,15.51,15.51,0,0,1,7.24,1.62c.81.34,1.71,1,1.31,2-.47,1.17-1.49.53-2.25.23a28.57,28.57,0,0,0-12.57-1.92C605.5,325,604,326,603.36,324.68Z"/>
  <path class="cls-26" d="M322.88,357c-1.3-.11-2.15,1.43-3.55,1a4.67,4.67,0,0,0-4.5,0c-4.23.5-7.47-1.25-10.11-4.39a2,2,0,0,1,1.51-1.38c4.66,2.39,9.67,3,14.83,2.94C322,355.46,323,355.64,322.88,357Z"/>
  <path class="cls-27" d="M409.29,346.53c-2.05,3.73-3.06,8.07-6.63,11a43.22,43.22,0,0,1,5.4-13.07c.75.36.48,1.22.86,1.76A2.35,2.35,0,0,0,409.29,346.53Z"/>
  <path class="cls-28" d="M304.85,329.11c1.87-4.49,5.91-4.88,9.95-5.26,1.41,1.08,3.06.26,4.57.56.79.18,1.16.62.91,1.45-4.78,1.26-9.68,2.12-14.3,4A1.56,1.56,0,0,1,304.85,329.11Z"/>
  <path class="cls-29" d="M552.65,335.74a5.57,5.57,0,0,1-2.65,2.6,1,1,0,0,1-1.19,0,1.73,1.73,0,0,1-.21-1.26c1.77-4.66,1-8.26-4.05-10.25a1.86,1.86,0,0,1-1.22-1.67c.86-1.29,2-.78,3.12-.52,2.52.86,5.07,1.68,6.09,4.55,0,.2,0,.4,0,.59a50.26,50.26,0,0,0,0,5.35C552.58,335.35,552.62,335.55,552.65,335.74Z"/>
  <path class="cls-30" d="M603.36,324.68c1,.21,2.29-.09,3,1.11-4.74,1.2-8.13,4.16-10.71,8.17-.12-.83-.23-1.67-1.13-2.08C596.36,328.15,599.53,326,603.36,324.68Z"/>
  <path class="cls-31" d="M299.42,337.15c.51-3.55,1.47-6.8,5.43-8l.29.32a2,2,0,0,1,.2,2.11c-2.3,3.93-2.55,8.41-3.49,12.71a1.27,1.27,0,0,1-1.18.53c-1.9-1.85-.7-4.23-1.09-6.33A11.26,11.26,0,0,0,299.42,337.15Z"/>
  <path class="cls-32" d="M501.28,340.16l1.11-.21h13.66v2H501.54l-.46-.29A1.21,1.21,0,0,1,501.28,340.16Z"/>
  <path class="cls-33" d="M535.37,339.22q0-6.72,0-13.44a.9.9,0,0,1,1.27.09c1.28,2,.86,4.3.9,6.48.11,5.69.08,5.69,5.6,7a2,2,0,0,1,1.27,2.4l-8.11,0A2.3,2.3,0,0,1,535.37,339.22Z"/>
  <path class="cls-34" d="M355.2,325.71c-.69-1.06-1.81-.88-2.83-1,5.31-1.73,10.63-.47,15.94-.78,0,.59.05,1.17.08,1.76Z"/>
  <path class="cls-35" d="M660.09,341.83h-.79c-3.49-2.31-4.41-5.95-5-9.74a2.8,2.8,0,0,1,1.5-2.17A47.18,47.18,0,0,1,660.91,341,1.51,1.51,0,0,1,660.09,341.83Z"/>
  <path class="cls-36" d="M501.65,356.12c-2.13,0-2.1-1.51-2.08-3,0-3.48.06-7,.09-10.44.33-.57.72-1.06,1.49-.91l.39.18A45.63,45.63,0,0,0,501.65,356.12Z"/>
  <path class="cls-37" d="M300.5,344.52h.94c2.63,1.95,3.82,4.73,4.54,7.78l-1.26,1.31c-2.91-2.31-5.05-5.07-5.29-9l.25-.44A.63.63,0,0,1,300.5,344.52Z"/>
  <path class="cls-38" d="M355.22,341c-.26-.7-.51-1.4-.76-2.1,4.2.7,8.52-.37,12.74,1.28C363.31,341.51,359.25,341.09,355.22,341Z"/>
  <path class="cls-39" d="M334.6,340v1.78c-1.16,1.28.15,3.08-.93,4.37l-.83,1.94c-1.35.3-1.48-.7-1.71-1.59a5.51,5.51,0,0,1,.08-1.35c.53-2.79.84-5.58-.23-8.34a6.48,6.48,0,0,1-.81-3.34c.27-.92.45-1.95,1.83-1.61a5.93,5.93,0,0,1,1.75,3.49C334.66,336.83,333.47,338.65,334.6,340Z"/>
  <path class="cls-40" d="M663.72,347.11c1.39,2.76,2.79,5.51,4.15,8.29.32.65.64,1.54-.13,2-1,.62-1.72-.27-2-1.06-.92-2.48-2.7-4.61-3-7.35C663.31,348.47,662.93,347.5,663.72,347.11Z"/>
  <path class="cls-41" d="M548.19,343.38c3.54,1.67,5,4.81,6.06,8.31-.28.37-.38.92-1,1-2.25-2.37-3.66-5.3-5.33-8.05A.75.75,0,0,1,548.19,343.38Z"/>
  <path class="cls-42" d="M471.69,331.85l1.1,1.1a27.84,27.84,0,0,1-6.43,7.89,2,2,0,0,1-.94-1.75Z"/>
  <path class="cls-43" d="M331.79,346.14c.12.78.19,1.59,1,2-.4,3.18-2.86,4.74-5.12,6.45-.83.39-1.24-.1-1.59-.74A11.6,11.6,0,0,1,331.79,346.14Z"/>
  <path class="cls-44" d="M536.66,325.83l-1.28-.05-1.68-.06c-.06-1.37.85-1.84,1.95-1.77,3.6.23,7.29-.77,10.8.72-1,.27-2.22-.07-2.94,1A5.49,5.49,0,0,1,536.66,325.83Z"/>
  <path class="cls-45" d="M320.22,325.78l-1-1c-.24-.21-.3-.4-.2-.57s.19-.25.28-.25a10.79,10.79,0,0,1,8.4,3.37,1.93,1.93,0,0,1-1.27,1.41C324,328.47,321.7,328,320.22,325.78Z"/>
  <path class="cls-46" d="M326.45,328.55l1.27-1.25a8.23,8.23,0,0,1,4.28,4.6c-.86.38-1,1.17-1.06,2A6.1,6.1,0,0,1,326.45,328.55Z"/>
  <path class="cls-47" d="M417.17,329.34c-.85-.46-1-1.32-1.19-2.14.06-1.42.61-2.8,2.11-2.75,1.8.07.49,2.35,1.66,3.08a1.92,1.92,0,0,1-1,1.83A1.07,1.07,0,0,1,417.17,329.34Z"/>
  <path class="cls-48" d="M548.19,343.38c-.07.43-.15.85-.22,1.27l-3.55-2.89c-.3-.55-.6-1.09-.89-1.64a3.29,3.29,0,0,1,3.68-1.56c1,.48,1.59,1.08.73,2.18S548.56,342.46,548.19,343.38Z"/>
  <path class="cls-49" d="M553.3,352.7l1-1a9.61,9.61,0,0,1,1,.8,6.47,6.47,0,0,1,2.2,4.42c0,.27-.73.83-.92.76-1.69-.67-1.64-2.6-2.63-3.81A5.75,5.75,0,0,1,553.3,352.7Z"/>
  <path class="cls-50" d="M326.34,353.15l1.38,1.43a6.3,6.3,0,0,1-4.84,2.4l-2.06-1A5.13,5.13,0,0,1,326.34,353.15Z"/>
  <path class="cls-51" d="M453.84,327.49c-.68,1-1.8.59-2.72.84-1.38-.94-.74-2.39-.91-3.64C452.33,324.44,453,326.14,453.84,327.49Z"/>
  <path class="cls-52" d="M465.42,339.09a1.9,1.9,0,0,1,.94,1.76c-1.13,2.15-2.32,2.08-3.56.1l.75-1.74C464.24,340.29,464.79,339,465.42,339.09Z"/>
  <path class="cls-53" d="M267.44,283.47a27,27,0,0,1,2.66,8.16C267.79,289.37,267.25,286.54,267.44,283.47Z"/>
  <path class="cls-54" d="M663.72,347.11c-.31.63-.62,1.25-.94,1.88l-2.45-3.27a2.89,2.89,0,0,1,1.6-2.24C662.53,344.69,663.13,345.9,663.72,347.11Z"/>
  <path class="cls-55" d="M661.93,343.48a2.26,2.26,0,0,1-1.6,2.24l-1-.09c.25-1.27.51-2.54.76-3.8l.82-.86Z"/>
  <path class="cls-56" d="M655.76,329.91l-.9,2c-1.3-.39-1.82-1.14-1.16-2.46-.21-1-1-1.09-1.78-1.23-.26-1.55,1.3-1,1.87-1.65C655.41,327.14,654.43,329.21,655.76,329.91Z"/>
  <path class="cls-57" d="M408.92,346.2c-.79-.34-.71-1.11-.86-1.76.29-.59.57-1.18.86-1.76l1.64,1C411,345.16,409.51,345.39,408.92,346.2Z"/>
  <path class="cls-58" d="M478.92,324.91v3.64c-1.6-.55-1.55-1.81-1.79-2.91C477.47,324.77,478.15,324.74,478.92,324.91Z"/>
  <path class="cls-31" d="M299.43,344.65a8.69,8.69,0,0,1,0-7.5l.39.53a22.39,22.39,0,0,1,0,6.64Z"/>
  <path class="cls-59" d="M653.79,326.6l-1.87,1.66c-.29-.59-.58-1.18-.88-1.77.06-.68-.06-1.51.84-1.71C653.36,324.45,652.9,326.25,653.79,326.6Z"/>
  <path class="cls-60" d="M535.37,339.22l.94,2.56c-.24.34-.48.68-.71,1C534.24,341.69,534.12,340.5,535.37,339.22Z"/>
  <path class="cls-29" d="M552.54,329.22a6.29,6.29,0,0,1,.11,6.52c-.12-.14-.23-.29-.34-.44a14.33,14.33,0,0,1-.06-5.65C552.34,329.5,552.44,329.36,552.54,329.22Z"/>
  <path class="cls-61" d="M612.6,323.87a4.07,4.07,0,0,1-5.44,0A12,12,0,0,1,612.6,323.87Z"/>
  <path class="cls-62" d="M547.94,340.74a1.82,1.82,0,0,0-1-1.69c.09-1.14.71-1.33,1.67-.92l1.39.21C549.51,339.31,549.17,340.4,547.94,340.74Z"/>
  <path class="cls-63" d="M612.56,356.15a4.15,4.15,0,0,1-5.38.05Z"/>
  <path class="cls-64" d="M333.67,346.19c.21-1.47-.59-3.17.93-4.37C334.68,343.36,335,345,333.67,346.19Z"/>
  <path class="cls-64" d="M334.6,340c-1.54-1.32-.74-3.06-.85-4.64C334.81,336.8,334.76,338.41,334.6,340Z"/>
  <path class="cls-65" d="M319.32,323.93a7.34,7.34,0,0,1-.08.82c-1.5-.19-3.21.64-4.44-.9A8.66,8.66,0,0,1,319.32,323.93Z"/>
  <path class="cls-66" d="M314.83,358a3,3,0,0,1,4.5,0A9.14,9.14,0,0,1,314.83,358Z"/>
  <path class="cls-63" d="M607.78,358.08l5,0A5.17,5.17,0,0,1,607.78,358.08Z"/>
  <path class="cls-67" d="M128.39,233.41c11.3,2.78,22.59,5.61,33.92,8.28,2.72.64,3.52,2.07,3.52,4.73q-.11,36.69,0,73.38a7.13,7.13,0,0,1-2.38,5.48q-28.08,27.93-56.09,55.94c-1.6,1.61-2.92,2.87-5.14.64q-28.64-28.92-57.4-57.73a1,1,0,0,1,0-1.17c2.58-.48,3.66,1.68,5,3.06q25.22,25.05,50.32,50.2c4.34,4.33,4.22,4.21,8.4-.11,4.64-4.8,10-8.92,14.12-14.24q2-1.67,3.95-3.51c10.3-10.95,21.13-21.37,31.88-31.86,3-2.9,4.58-5.82,4.54-10.1q-.24-33.06,0-66.12c0-4-1.2-5.89-5.1-6.75-11.2-2.46-22.29-5.37-33.38-8.28-1.69-.44-4.08-.09-4.31-2.85C123.14,231.37,125.7,232.93,128.39,233.41Z"/>
  <path class="cls-68" d="M45,323l-.15,1.1c-2-.88-1.58-2.67-1.58-4.26,0-24.44,0-48.88-.05-73.31,0-2.53.47-4.17,3.31-4.86,17.4-4.18,34.76-8.51,52.13-12.78a4.18,4.18,0,0,1,3.83,0,1.22,1.22,0,0,1-.48,1.41C91,233.9,79.76,236.13,68.65,239c-5.91,1.53-11.78,3.3-17.83,4.3-3.3.55-4.64,2.22-4.62,5.8.13,22.37.1,44.73,0,67.1C46.24,318.52,46.78,321,45,323Z"/>
  <path class="cls-3" d="M42.24,241.51c-1.13,4.38-.9,8.84-.9,13.29q0,30.61,0,61.23c0,2.75.3,5.5.52,9.29a12.76,12.76,0,0,1-2.33-7.75c0-10.83.14-21.65,0-32.47-.21-12.89.42-25.79-.4-38.69-.1-1.58-.16-4.73,3.13-4.9Z"/>
  <path class="cls-3" d="M166.89,278.76c.36-9.72-.54-21.8.36-33.87.09-1.2-.22-2.86,1.41-2.59s.54,1.82.47,2.88a264.26,264.26,0,0,0,0,35.26c.16,2.59-.6,4.92-.52,7.44.27,9.73-.21,19.48.88,29.19.08.71.18,1.65-.73,1.86-1.13.26-1.61-.69-1.74-1.58a24.92,24.92,0,0,1-.12-3.57C166.88,302.89,166.89,292,166.89,278.76Z"/>
  <path class="cls-3" d="M101.66,227.3c-1.08-.3-2.39.31-3.53-1.08,2.54-2.41,5.68-2.59,8.85-2.71l-.08,0c1.18,1.31,2.25,2.45,4.42,2.09,3.16-.51,5.57,3.29,9.1,1.87.46-.18,1.39.64,1.19,1.53s-1.08.79-1.79.63c-3.16-.7-6.26-1.75-9.57-1.46C107.19,229.84,104.44,228.4,101.66,227.3Z"/>
  <path class="cls-69" d="M101.66,227.3c3-.66,5.71.72,8.59.84a65.52,65.52,0,0,0,15.31,3.62l-.06,0,2.89,1.67-8.14-.87c-3.91,2-7.18-.95-10.77-1.38-2.12-1.6-4.76-1.49-7.16-2.18l-3.69-.06Z"/>
  <path class="cls-3" d="M69.11,234.65l-16.2,4-.33-1.13c5.24-2,10.47-4,16.22-4.32Z"/>
  <path class="cls-3" d="M168.53,240.27c-5.54.35-10.73-.46-15.35-3.55C158.21,238.4,163.71,238,168.53,240.27Z"/>
  <path class="cls-3" d="M72.06,231.79,85.54,229C82.7,232.21,76.44,233.57,72.06,231.79Z"/>
  <path class="cls-3" d="M149.53,234.4c-1.9,2.68-6.93,2-11-1.1,1.94-1.63,3.72,0,5.38.29S147.3,235,149.53,234.4Z"/>
  <path class="cls-3" d="M125.56,231.76c-.37-1.19-.3-2.06,1.32-1.9a28.27,28.27,0,0,1,8.54,1.94c-3.8,1.79-6.84-1-9.92-.06Z"/>
  <path class="cls-3" d="M42.24,241.51c-1.49-2.17,1.29-2.4,1.69-3.71h-.06c1.75,1.74,4.06.08,6.08,1.34l-7.71,2.37Z"/>
  <path class="cls-3" d="M95.26,226.71c-.78.82-1,1.18-1.16,1.19-1.77,0-3,2.62-5.09,1.07a1.72,1.72,0,0,1-.34-1.15C90.55,226.92,92.44,226,95.26,226.71Z"/>
  <ellipse class="cls-70" cx="578.9" cy="280.94" rx="0.31" ry="30.24"/>
  <path class="cls-71" d="M479.27,280.72c-.09,10.38-7.92,17.93-18.38,17.74s-18.08-7.8-17.94-18.27c.14-10.16,7.76-17.45,18.22-17.43C471.89,262.78,479.36,270.19,479.27,280.72Z"/>
  <path class="cls-71" d="M295.16,262.8c10.4.07,18,7.52,18,17.66,0,10.39-7.62,17.92-18.24,18-10.45.07-18.37-7.76-18.22-18C276.87,269.89,284.35,262.73,295.16,262.8Z"/>
  <path class="cls-72" d="M687,269.24c.22-3.1-1.44-7.27,4.82-6.89,7.17.44,10.51,2.45,10.49,7.52s-3.46,7.42-10.58,7.41C687,277.26,687,277.26,687,269.24Z"/>
  <path class="cls-73" d="M680.59,258.82v43.31h-.45V258.64Z"/>
  <path class="cls-70" d="M685.86,285.44v17.65h-.39V285.44Z"/>
  <path class="cls-74" d="M685.86,263.94v12.28h-.39V263.94Z"/>
  <path class="cls-75" d="M256.17,258.27v44.6h-.85v-44.6Z"/>
  <ellipse class="cls-70" cx="214.83" cy="280.56" rx="0.23" ry="30.77"/>
  <path class="cls-76" d="M410.08,257.63c3.43,0,6.87-.07,10.31,0,1.45.05,3.75-.78,3.65,1.9-.08,2.27-2.15,1.6-3.5,1.62-5.08.07-10.16.16-15.24,0-3.33-.12-4.48,1.22-4.41,4.48.3,13.86-1.85,11.46,11.49,11.69,2.54.05,5.08,0,7.62,0,1.61,0,3.18.31,3.15,2.3,0,1.69-1.39,2.13-2.86,2.14q-7.17,0-14.34,0c-.54,0-1.66.13-1.49-.44.54-1.78.22-2.58-1.71-2.1-2.36.6-.2,2.31-.65,3.11-2.26,4.12-.78,8.49-1.13,12.71-.26,3.14,1.42,4.68,4.59,4.66,4.78,0,9.56,0,14.34,0a7.36,7.36,0,0,1,3.91.72,2.25,2.25,0,0,1,1.27,2.16c0,1.41-1.26,1.23-2,1.24-8.59.09-17.2,1.2-25.78-.36-1.66-.31-2.55-.54-1.3-2.39a4.33,4.33,0,0,0,.38-2.6c-.93-9.26.77-18.57-.48-27.83a9.37,9.37,0,0,1,.51-3.48c.85-3.13-2.48-7.35.79-9.22,2.48-1.42,6.41-.32,9.7-.33Z"/>
  <path class="cls-11" d="M500.46,326.65l.1,13.3a.59.59,0,0,1-.91.12C500,335.6,498.5,331,500.46,326.65Z"/>
  <path class="cls-77" d="M499.65,340.07l.91-.12a3.67,3.67,0,0,1,.72.2c0,.54-.09,1.07-.13,1.6l-1.49.91C499.66,341.79,499.65,340.93,499.65,340.07Z"/>
  <path class="cls-78" d="M417.17,329.34l1.57,0q3.17,7.06,6.32,14.12a28.76,28.76,0,0,1-14.13.07A107.42,107.42,0,0,1,417.17,329.34Z"/>
  <path class="cls-79" d="M653.7,329.48a3.35,3.35,0,0,0,1.16,2.46,44.29,44.29,0,0,0,4.44,9.88c-.07,1.32-.54,2.37-2,2.4-3.26.06-6.52,0-9.78.06-1.73,0-1.76-1.22-1.77-2.46l4.92-10C651.26,330.49,651.55,328.76,653.7,329.48Z"/>
  <path class="cls-80" d="M643.74,346c-1-.57-.55-1.39-.39-2.16l1.43-.14A2.56,2.56,0,0,1,643.74,346Z"/>
  <path class="cls-81" d="M326.34,353.15,320.82,356c-5.37.47-10.66.67-14.84-3.66a25.09,25.09,0,0,1-4.54-7.79c-1-5.58,1.44-10.31,3.7-15.08,4.85-2,9.48-4.79,15.08-3.65l6.23,2.77,4.49,5.31c.33.87.67,1.74,1,2.61a22.38,22.38,0,0,1,0,8.93.93.93,0,0,0-.16.74A26.52,26.52,0,0,1,326.34,353.15Z"/>
  <path class="cls-82" d="M548.61,338.13l-1.67.92-3.41,1.07c-7.47-.89-7.48-.89-7.45-8.59,0-1.91-.3-3.87.58-5.7l6.85-.13C551.69,328.82,552.71,331.3,548.61,338.13Z"/>
  <path class="cls-83" d="M552.25,329.65l.06,5.66A5.52,5.52,0,0,1,552.25,329.65Z"/>
  <path class="cls-84" d="M299.84,344.32c0-2.21,0-4.43,0-6.64,1.37,2.17.27,4.58.68,6.84A1.45,1.45,0,0,1,299.84,344.32Z"/>
  <path class="cls-64" d="M332,345.4v-8.93A10.42,10.42,0,0,1,332,345.4Z"/>
  <path class="cls-85" d="M109.44,229.87c3.68.58,7,2.56,10.81,2.67,11.25,3.58,22.78,6.12,34.23,9,2.31.57,4.57,1.37,6.89,1.74S164.2,245,164.2,247q0,36.66,0,73.32a5.39,5.39,0,0,1-2,4.25c-8.41,7.49-15.87,15.95-24.14,23.61-4,3.64-7.81,7.57-11.52,11.55-2.09-3-2.14-5.82.36-8.59a13.37,13.37,0,0,0,6.75-4.8c4.66-5.81,10.55-10.45,15.83-15.67,3.15-3.13,5.7-6.85,9.41-9.46,1.38-1,1.41-2.87,1.41-4.55,0-21.89,0-43.79.05-65.69,0-2.49-.73-3.68-3.28-4.27-11.31-2.61-22.42-6.05-33.87-8.08-4.71-.83-9.14-2.69-13.69-4.06a16.8,16.8,0,0,0-11,.11,97.8,97.8,0,0,1-18.49,5c-8.7,2.28-17.44,4.39-26.19,6.46-1.47.64-4.28-1.4-4.31,2.16.39,21.61.2,43.22.08,64.82,0,5.13,1.2,8.89,5.18,12.47,7.65,6.85,14.68,14.41,21.94,21.69,1.61,1.62,3.21,3.12,5.7,3.06a6.18,6.18,0,0,1,2,1c2.3,1.8,3.1.89,3.1-1.65,0-6.41,0-12.82,0-19.23.07-7.11,1.64-8.72,8.7-8.8,6-.07,11.94-.15,17.91,0,5.44.17,7.25,2,7.37,7.38.18,7.3.2,14.61,0,21.91A49.41,49.41,0,0,0,123,362.43c-2.72,5.29-7.79,8.39-11.72,12.55-.51.53-1.23.85-1.73,1.39-5.15,5.55-5.14,5.56-10.35.36Q73.89,351.5,48.61,326.27c-1.15-1.15-2.43-2.17-3.65-3.24,0-25.22,0-50.43-.11-75.65,0-3,1.14-4.26,3.8-4.9,12.4-3,24.77-6.08,37.18-9,5.47-1.29,10.72-3.64,16.49-3.61C104.69,228.44,107.06,229.48,109.44,229.87Z"/>
  <path class="cls-71" d="M123,362.43c-2.35-1.78-2.8-4.15-2.75-7,.15-8.92,0-17.85.1-26.77.06-3.91-1.31-5.79-5.43-5.69q-10.28.22-20.55,0c-4.09-.09-5.58,1.69-5.49,5.64.15,7.29.08,14.58,0,21.87,0,1.7.89,4.09-1,4.89-1.65.7-2.45-1.72-3.72-2.63-.83-.61-1.6-1.3-2.4-2-1.18-1.17-1.08-2.6-.83-4.06.69-2.18.44-4.44.44-6.66q0-46.32,0-92.65a19.53,19.53,0,0,1,.33-5.34c.64-2.27,2.51-2.79,4.54-2.89,2.19-.11,3.25,1.24,3.66,3.18a26.69,26.69,0,0,1,.26,5.36c.13,21.33-.26,42.66.2,64,.1,4.46,1,5.48,5.56,5.55,5.53.09,11,.07,16.58,0s6.49-1,6.5-6.61c0-20.88,0-41.77,0-62.65,0-1.35-.07-2.69,0-4,.14-1.86-.47-4.39,1.8-5,2.06-.58,4,.83,5.45,2.46a9.46,9.46,0,0,1,2.4,6.56c0,32.22.11,64.45-.09,96.67,0,2.46.19,5.16-2.05,7.05a26.56,26.56,0,0,0,0,8.06C125.38,360.7,124.68,362.24,123,362.43Z"/>
  <path class="cls-67" d="M109.44,229.87h-7.12V229C104.9,227.62,107.17,228.7,109.44,229.87Z"/>
  <path class="cls-6" d="M407.23,302.31c-2.66,0-4.09.47-5.61-.4A7.12,7.12,0,0,1,407.23,302.31Z"/>
  <path class="cls-86" d="M91,343.47c0-5.06.09-10.13,0-15.19-.06-2.52.9-3.44,3.41-3.4,6.86.11,13.72.09,20.58,0,2.26,0,3.23.78,3.22,3.11-.06,10.28,0,20.56,0,30.83a5.43,5.43,0,0,1-1.55,4.05c-3.38,3.37-6.82,6.66-10.13,10.1-1.5,1.56-2.64,1.45-4.08,0q-4.66-4.81-9.49-9.47A6.62,6.62,0,0,1,91,358.22C91,353.3,91,348.39,91,343.47Z"/>
  <path class="cls-67" d="M126.53,351.68a85,85,0,0,0,.91-13.72q-.06-44.32,0-88.64c0-6.32-.77-7.4-7.16-9.79V244q0,33.8,0,67.6c0,5.66-1.22,6.9-6.74,6.92-6.28,0-12.55.07-18.83,0-4.43-.06-5.76-1.76-5.75-6q0-34.44-.08-68.87c0-1.59.23-3.76-2.23-3.47-2.07.23-4.3.48-4.13,3.92.34,6.55.1,13.12.1,19.69q0,39.18,0,78.35c0,1.71.67,3.61-.83,5.11-1.91-2-1.26-4.51-1.27-6.82q-.06-47.7,0-95.38a18.59,18.59,0,0,0-.54-6.21c7.07-1.79,14.06-3.81,21-6,3.18-1,6.73-.18,10.08.95,13.49,4.56,27.6,6.74,41.31,10.47,2.43.67,4.87,1.35,7.34,1.8,1.91.35,1.85,1.64,1.85,3q0,34.46,0,68.92a6.34,6.34,0,0,1-2.09,4.75q-12,11.56-23.86,23.18c-.84.82-1.39,1.93-2.18,2.81C131.55,350.68,129.63,352.53,126.53,351.68Z"/>
  <path class="cls-68" d="M79.9,238.8c1.83-.16,1.92.59,1.92,2.35q-.16,53-.09,106.06l0,3.57c-1.82,2-2.92.19-4-.88q-13.6-13.29-27.13-26.65c-1.82-1.79-2.1-4.07-2.09-6.57q.11-34.89.05-69.79c.87-2.16,3.19-.7,4.48-1.8Z"/>
  <path class="cls-67" d="M53,245.09c-1.17,1.4-3.2.66-4.48,1.8C48.89,243.5,51.53,245.74,53,245.09Z"/>
  <path class="cls-87" d="M91,276.9c0-11.93.08-23.86-.06-35.79,0-2.74.92-3.82,3.49-4.69a30.68,30.68,0,0,1,20.54.1c2.45.84,3.24,1.92,3.23,4.4q-.11,36,0,72c0,2.81-1,3.62-3.68,3.56-6.42-.12-12.85-.2-19.26,0-3.33.12-4.4-.94-4.35-4.3.18-11.78.07-23.57.07-35.35Z"/>
  <path class="cls-88" d="M128.87,349.27c-.86-1.15-.37-2.68-.37-4.1q-.06-49.91,0-99.81c0-5.38,0-5.38,5.17-4.1,7.24,1.79,14.46,3.72,21.74,5.32,3.11.68,4.06,2.19,4.05,5.25-.1,21.63-.06,43.27,0,64.9a6.8,6.8,0,0,1-1.82,5.29c-9,8.92-18,17.9-27,26.85C130.2,349.28,129.78,349.77,128.87,349.27Z"/>
  <path class="cls-89" d="M50.23,248.61c.3-1.57,1.69-1.49,2.78-1.76,7.81-2,15.65-3.78,23.42-5.87,3-.82,4.08,0,4.08,3.06q-.08,51.18-.08,102.36c0,1.18.91,4.58-2.37,1.75l-.06-.81a39.61,39.61,0,0,1-.35-7.14q0-44.51,0-89c0-1.34,0-2.69,0-4,0-2.6-1.18-3.47-3.69-2.76-5.6,1.58-11.34,2.66-17,4.18-2,.54-4,1.36-6.12.58Z"/>
  <path class="cls-89" d="M78.06,348.15Q64.66,335,51.27,321.84a5.23,5.23,0,0,1-1.56-4q0-33.76,0-67.55a6.29,6.29,0,0,1,.48-1.67l.25.23c1.54,1.95,1.09,4.27,1.08,6.45-.07,19.2.08,38.39-.11,57.59a12,12,0,0,0,3.95,9.45c6.73,6.53,13.32,13.21,19.93,19.87,1.53,1.55,3.38,3,2.92,5.62Z"/>
  <path class="cls-90" d="M115.12,310.74v-65.9h1.1v65.9Z"/>
  <path class="cls-91" d="M93,308.6c-.79,5.57,2.54,5.68,6.52,5.52a80.37,80.37,0,0,1,16.23.82c-7,0-13.92.32-20.84-.12C90.51,314.54,93.1,311,93,308.6Z"/>
  <path class="cls-92" d="M129.37,244.27c-.22-1.88.08-2.7,2.41-2.09,7.75,2.06,15.56,3.85,23.35,5.73,2.06.5,2.81,1.75,2.81,3.89q-.09,32.86,0,65.75a5.66,5.66,0,0,1-2,4.29c-7.83,7.78-15.6,15.62-23.48,23.36-.74.73-2,3.73-3.12.13a6.89,6.89,0,0,0,.31-3.09q0-47.43,0-94.88A6.92,6.92,0,0,0,129.37,244.27Z"/>
  <path class="cls-93" d="M129.37,244.27c1.22,1.25.73,2.83.73,4.26q0,46.28,0,92.55c0,1.43.49,3-.73,4.25Z"/>
  <path class="cls-94" d="M78.25,347.82c-.38-1.73-1.79-2.7-2.93-3.84q-11.19-11.22-22.44-22.4c-1.53-1.51-2.59-3-2.58-5.37.13-22.46.13-44.91.18-67.37,8.35-2.11,16.72-4.16,25-6.37,2.24-.6,3.54-.95,3.53,2.23q-.12,50.57,0,101.15A2.09,2.09,0,0,1,78.25,347.82Z"/>
  <path class="cls-95" d="M51.57,302.58v-40.3l.61,0v40.3Z"/>
  <path class="cls-95" d="M51.51,316V304.56C54.41,308.78,51.9,312.44,51.51,316Z"/>
</svg>
