<svg id="Layer_1" data-name="Layer 1" xmlns="http://www.w3.org/2000/svg" viewBox="0 0 792 612">
  <defs>
    <style>
      .cls-1 {
        fill: #163353;
      }

      .cls-2 {
        fill: #838b8c;
      }

      .cls-3 {
        fill: #ec3f33;
      }

      .cls-4 {
        fill: #858d8d;
      }

      .cls-5 {
        fill: #8a9192;
      }

      .cls-6 {
        fill: #878e8f;
      }

      .cls-7 {
        fill: #878f8f;
      }

      .cls-8 {
        fill: #868e8e;
      }

      .cls-9 {
        fill: #899091;
      }

      .cls-10 {
        fill: #899090;
      }

      .cls-11 {
        fill: #fefefe;
      }

      .cls-12 {
        fill: #fdfdfd;
      }

      .cls-13 {
        fill: #fbfbfb;
      }

      .cls-14 {
        fill: #fff;
      }

      .cls-15 {
        fill: #fcfcfc;
      }
    </style>
  </defs>
  <path class="cls-1" d="M400.79,264c0,15.12-.28,30.24.14,45.34.16,5.62-1.63,7.1-6.94,6.63a129.46,129.46,0,0,0-15.76-.05c-3,.11-4.34-.46-4.33-3.9q.19-46.59,0-93.17c0-2.81.59-4.32,3.68-3.81a5.42,5.42,0,0,0,.57,0c7.5.07,16.16-2.14,22.16.89,5.73,2.9,8.73,11.22,12.85,17.22,7.63,11.07,15.2,22.18,22.82,33.26.15.22.57.27,1.43.65v-43.2c0-8.83,0-8.83,8.84-8.83,4.69,0,9.39.13,14.08,0,2.72-.1,4,.4,4,3.58q-.18,46.87,0,93.74c0,2.59-.65,3.67-3.46,3.61-6.76-.17-13.53-.29-20.27.05-3.2.16-4.26-1.82-5.58-3.76q-16.56-24.24-33-48.53Z"/>
  <path class="cls-1" d="M192.53,268.2c0-17,.24-32.33-.13-47.65-.12-4.9,1.43-6,5.94-5.65a172.33,172.33,0,0,0,17.46,0c2.86-.1,3.86.63,3.85,3.68q-.17,46.57,0,93.15c0,3.18-.9,4.54-4.1,4.06a3.51,3.51,0,0,0-.56,0c-7.32-.07-15.75,2.09-21.61-.85-5.6-2.81-8.58-10.88-12.61-16.71-7.84-11.38-15.61-22.81-23.43-34.21-.05-.07-.32,0-1.16,0v18.71c0,9.54-.13,19.08.06,28.61.07,3.36-.87,4.68-4.42,4.53-6.18-.25-12.39-.19-18.58,0-2.85.08-3.94-.67-3.93-3.73q.13-46.84,0-93.71c0-2.65.74-3.57,3.47-3.5,6.76.17,13.52.21,20.27,0,2.77-.09,3.9,1.33,5.22,3.29q15.39,22.71,30.94,45.33C190,264.71,190.86,265.85,192.53,268.2Z"/>
  <path class="cls-1" d="M236.23,265c0-15.15.13-30.3-.08-45.45-.05-3.66,1-4.68,4.66-4.66q35.2.26,70.4,0c3.76,0,5.53.7,5.09,4.84-.52,5,2,11.41-1,14.64s-9.58,1-14.57,1.06c-11.26.18-22.53.15-33.79,0-3.26,0-4.56.66-4.62,4.3-.23,14.59-.37,14.59,14.31,14.59,8.83,0,17.65.13,26.47-.07,3.26-.07,4.73.5,4.51,4.21a159.94,159.94,0,0,0,0,17.38c.16,3.41-.75,4.47-4.32,4.4-12.19-.23-24.4.05-36.6-.18-3.56-.06-4.41,1-4.33,4.41.24,9.16-.07,18.33.16,27.49.09,3.47-1.4,4-4.34,3.9-5.81-.18-11.65-.31-17.45,0-4,.23-4.62-1.43-4.58-4.88C236.32,295.69,236.23,280.36,236.23,265Z"/>
  <path class="cls-1" d="M658.61,255.4c6.12-12.4,12.15-24.37,17.91-36.47,1.39-2.93,3-4.13,6.3-4,8.06.27,16.14.08,24.29.08.48,2.4-1.22,3.93-2.11,5.6q-15.29,28.88-30.83,57.62a19.27,19.27,0,0,0-2.58,10.07c.21,7.67-.16,15.35.16,23,.15,3.84-1.2,4.77-4.79,4.61-5.81-.26-11.64-.23-17.45,0-3.26.13-4.24-1-4.15-4.17.19-6.91-.2-13.85.14-20.75a27,27,0,0,0-3.75-14.86c-10.12-18.46-20-37-29.91-55.61-.83-1.56-2.35-2.92-2-5.5,9.13,0,18.26.09,27.39-.06,2.91,0,3.13,2.07,4,3.83q7.44,15.93,14.88,31.86C656.8,252.14,657.64,253.58,658.61,255.4Z"/>
  <path class="cls-1" d="M561.63,215c12.19,0,24.39.12,36.58-.07,3.44-.06,4.62.88,4.43,4.39-.29,5.4-.25,10.84,0,16.25.15,3.35-.81,4.67-4.37,4.52-6-.26-12,.23-18-.17-4.63-.31-6,1.07-6,5.8.25,21.49,0,43,.2,64.49,0,4.22-.81,6.13-5.52,5.72a78.56,78.56,0,0,0-15.18,0c-5.52.6-6.31-1.74-6.26-6.55.24-21.3,0-42.62.21-63.92,0-4.37-1-5.86-5.54-5.56-6.17.4-12.38,0-18.57.14-2.83.07-4.05-.73-4-3.77.2-5.79.25-11.6,0-17.38-.15-3.41,1.27-4,4.27-4C536.48,215.07,549.06,215,561.63,215Z"/>
  <path class="cls-1" d="M508.16,265.46c0,15.34-.1,30.69.08,46,0,3.44-.9,4.55-4.41,4.4-6.38-.28-12.77-.17-19.16,0-2.6.05-3.62-.68-3.61-3.45q.12-47.16,0-94.33c0-2.51.86-3.19,3.25-3.14,6.57.13,13.16.29,19.72,0,3.76-.19,4.23,1.31,4.2,4.51C508.08,234.76,508.16,250.11,508.16,265.46Z"/>
  <path class="cls-1" d="M329.79,265.6c0-15.32.11-30.65-.08-46,0-3.56.78-4.93,4.6-4.72,6,.32,12,.19,18,0,2.69-.07,4,.37,4,3.58q-.18,46.82,0,93.63c0,3.07-1.21,3.78-4,3.71-6-.16-12-.3-18,.05-4,.23-4.59-1.49-4.56-4.9C329.87,295.88,329.79,280.74,329.79,265.6Z"/>
  <path class="cls-1" d="M112.5,236v30.82c0,14.77-.11,29.55.08,44.32,0,3.57-.77,5-4.61,4.77-6.18-.32-12.39-.18-18.58,0-2.69.06-4.09-.39-4-3.61.15-15,.06-29.92.07-44.88,0-1.09-.17-2.2.73-3.15C94.64,255.15,103.12,246.05,112.5,236Z"/>
  <path class="cls-2" d="M298.61,368.32c-2.14,3.6-4.27,7.2-6.44,10.78-1.58,2.61-2.35,5.68-6.64,5.8s-6-1.84-7.72-5c-1.48-2.8-3.2-5.47-4.89-8.15-.66-1-1-2.83-2.62-2.46s-1,2.17-1,3.33c-.07,7.1-.09,14.2,0,21.3,0,2.48-.19,4.91-3.44,4.1-2.86-.72-7.8,2.94-8.26-3.33-1-13.8-.33-27.63-.36-41.44,0-2.4,1.16-3.48,3.83-3.67,10.48-.76,10.72-.71,15.66,8.55,1.92,3.62,4,7.16,5.93,10.77,1.45,2.69,2.74,2.75,4.27,0,2.65-4.69,5.9-9.13,7.93-14.07,1.85-4.49,4.57-5.5,9-5.31,9.61.41,8.17-1.16,8.24,8.48.09,11.76-.23,23.54.15,35.3.15,4.91-2.32,5-5.82,4.79-3.21-.18-6.84,1.06-6.55-4.65.41-8.19.1-16.41.1-24.62Z"/>
  <path class="cls-2" d="M453.6,397.51c-8.9,2.56-14.56-.58-17.66-8.62-1.84-4.78-5.93-4.39-9.91-4.2-1.8.08-2.11,1.2-1.95,2.69.13,1.11.3,2.22.34,3.34.26,6.72-4.58,9.94-10.73,7.28-1.66-.72-1.46-2-1.46-3.24q0-20.76,0-41.5c0-1.72-.07-3.62,2.41-3.54,8.78.3,17.56-.72,26.35.81,13.79,2.41,17.44,19.6,8,28.84-3.36,3.29-2.78,5.29-.54,8.3S452.8,393.68,453.6,397.51Z"/>
  <path class="cls-2" d="M366.13,373.88c0-6.54.12-13.08-.05-19.61-.08-3.28.87-4.73,4.44-4.67,9.94.18,19.88.2,29.82,0,3.65-.08,4.37,1.43,4.33,4.64,0,3.06-.42,4.93-4.22,4.76-6-.27-12,.13-18-.14-4.12-.18-3.95,2.24-3.9,5s-.47,5.33,3.79,5.09c4.67-.28,9.37.05,14.06-.09,4.19-.12,3.58,2.72,3.71,5.33.14,2.77-.22,4.72-3.81,4.55-4.68-.21-9.38.13-14.06-.09-4.32-.21-3.63,2.66-3.67,5.22s-.53,5.31,3.73,5.15c6.18-.24,12.38.11,18.56-.11,3.67-.13,3.8,1.91,3.77,4.59s.15,4.76-3.64,4.69c-10.13-.19-20.26-.16-30.38,0-3.49.05-4.6-1.37-4.52-4.68C366.24,387,366.13,380.42,366.13,373.88Z"/>
  <path class="cls-2" d="M211.56,373.76c0-6.73.1-13.47,0-20.2-.06-2.86.87-4,3.86-3.95,10.14.13,20.28.17,30.42,0,3.74-.07,4.23,1.75,4.3,4.84.08,3.43-1.19,4.64-4.61,4.53-6.19-.19-12.39.1-18.58-.11-3-.1-3.71,1.19-3.08,3.63.58,2.27-2,6.21,2.95,6.35s9.77.19,14.64,0c3.83-.14,4.13,2,4.2,5s-.54,5-4.25,4.87c-4.5-.18-9,.15-13.52-.07-6-.3-3.72,4.44-4.39,7.13-.9,3.62,2,3.16,4.25,3.17,5.82,0,11.65.17,17.46-.06,3.63-.14,5,1,5,4.78,0,3.43-1.2,4.57-4.61,4.51q-14.94-.26-29.86,0c-3.24.05-4.23-1.1-4.15-4.22C211.68,387.24,211.56,380.5,211.56,373.76Z"/>
  <path class="cls-2" d="M319.09,373.74q0-10.1,0-20.17c0-1.91-.12-4,2.69-3.88,9,.35,18-1.09,26.86,1.11a15.27,15.27,0,0,1,11.78,14.59c.2,6.25-3.24,14.9-9.89,17.23a33.31,33.31,0,0,1-14.28,2c-4.06-.38-5.48,1.26-4.94,5.09a15.21,15.21,0,0,1,0,2.24c0,5.41-6.11,8.7-11,5.95-1.71-1-1.22-2.58-1.23-4C319.05,387.18,319.08,380.46,319.09,373.74Z"/>
  <path class="cls-2" d="M204,350.36c-4.74,5.06-8.54,9.7-12.95,13.67-4.07,3.66-3.95,6.75-1,11,5,7.17,9.46,14.69,14.2,22.14-10.42,2.69-13.14,1.51-17.89-7.52-6.45-12.25-6.7-12.27-16-2.86-3.26,3.28-6.77,6.32-10.14,9.44a45.3,45.3,0,0,0,0-4.92c-.61-6,1.17-10.41,5.59-15.26,5.88-6.43,12.59-12.25,17.57-19.49S195,348.48,204,350.36Z"/>
  <path class="cls-3" d="M85.43,253.08c0-12.61.08-23.44-.06-34.26,0-2.89.79-4,3.8-3.86,5.8.21,11.63,0,17.44.12,1.9,0,4.86-1.24,5.5,1.08.73,2.68,1.46,6-.8,8.55C103.1,233.83,94.78,242.85,85.43,253.08Z"/>
  <path class="cls-4" d="M551.72,379.52l-8.92,15.31c-2.79-5-5.17-9.34-7.61-13.64-.51-.9-.88-2.27-2.39-1.71-1.13.42-.78,1.58-.79,2.44-.06,4.11,0,8.22-.06,12.33,0,1.39.4,3.35-1.9,3.28-1.87-.06-1.58-1.77-1.59-3q0-10.92,0-21.85c0-1.23-.38-2.74,1.35-3.28s2.78.41,3.55,1.86c2.3,4.27,4.9,8.41,6.86,12.83,2.24,5,3.7,3.12,5.42-.17,2.16-4.13,4.4-8.22,6.54-12.36.63-1.22,1.24-2.41,2.85-2.2,2.25.3,1.7,2.14,1.71,3.52q.07,10.63,0,21.29c0,1.4.4,3.42-1.81,3.37s-1.66-2.1-1.68-3.47c-.06-4.65,0-9.3,0-13.95Z"/>
  <path class="cls-5" d="M638.05,391.05c0-7.17,0-12.73,0-18.28,0-1.35-.62-3.3,1.7-3.49,2.76-.23,2.23,1.94,2.24,3.5.05,7.11.06,14.22,0,21.33,0,1.33.7,3.16-1.56,3.61-1.84.36-2.61-.9-3.55-2.14q-5.73-7.6-11.64-15.08c-.85-1.07-1.68-2.9-3.48-2.15-1.52.62-.76,2.32-.79,3.53-.09,4.11,0,8.23-.06,12.34,0,1.39.45,3.44-1.83,3.33s-1.63-2.15-1.64-3.53q-.08-10.38,0-20.76c0-1.37-.69-3.24,1.28-3.86s3,1.06,4,2.38c4,5.19,7.87,10.43,11.82,15.63C635.25,388.27,636.08,389,638.05,391.05Z"/>
  <path class="cls-6" d="M115.45,397.26c3.59-8.21,7.21-16.41,10.75-24.64.62-1.46,1.12-2.66,3-2.76,2.15-.1,3,1.21,3.67,2.83,3.5,8.23,7,16.47,10.39,25.63C134.05,390,125,387.89,116,399.55Z"/>
  <path class="cls-7" d="M495.61,383.46c0-7.62,6.66-14.51,14.12-14.61s15,7.32,15,14.66-7.67,14.74-15.08,14.61S495.61,391.09,495.61,383.46Z"/>
  <path class="cls-7" d="M563.34,383.38a27.21,27.21,0,0,1,0-5c.59-3-2-7.19,1.89-9,5.45-2.43,16.3.42,18.81,4.27a8.5,8.5,0,0,1-2.92,12.13,12,12,0,0,1-7.53,1.84c-5.26-.71-7.78,1-6.86,6.58.21,1.32.48,3.43-1.78,3.32s-1.61-2.15-1.64-3.52C563.29,390.47,563.34,386.93,563.34,383.38Z"/>
  <path class="cls-6" d="M596.49,391.5c-2.08,0-6.51-1-7.91,4.61a1.89,1.89,0,0,1-2.59,1.45c-1.46-.59-.86-1.86-.44-2.84,3.35-7.87,6.76-15.71,10.11-23.58a2.79,2.79,0,0,1,3-1.93,3,3,0,0,1,2.83,2.24c3.32,7.88,6.75,15.71,10.08,23.59.34.81,1.57,2.07-.28,2.64-1.12.34-2-.16-2.8-1.22C604.67,391.46,604.62,391.5,596.49,391.5Z"/>
  <path class="cls-8" d="M483,394.7a9.42,9.42,0,0,0,5.89-1.48c1.13-.78,2.19-1.75,3.26-.15,1.53,2.3-1.09,2.38-2,2.94-6,3.77-13.39,2.3-18.14-3.39a14,14,0,0,1,.17-18.46c4.9-5.65,12.23-7,18.16-3.07.81.53,3.14.5,2,2.55s-2.28.7-3.66,0c-5.44-2.62-10.78-1.69-13.78,2.16a11.89,11.89,0,0,0-.17,15C476.76,393.64,479,394.69,483,394.7Z"/>
  <path class="cls-9" d="M160.12,370.24c0-5.94.09-11.64,0-17.34-.07-3.44,2.2-3.6,4.47-3.19,2.69.49,6.85-2.21,7.63,2.9.42,2.77.42,5.78-1.7,7.95C167.29,363.83,163.81,366.82,160.12,370.24Z"/>
  <path class="cls-10" d="M647.35,369.24c5.68-.33,6.17,4.05,7.92,6.76,4.91,7.62,4.66,7.62,9.77.24,1.81-2.6,2.11-7,7.35-6.93-.88,3.44-3,5.8-4.79,8.22-3.77,5.11-6.31,10.44-5.32,17,.21,1.38.36,3.16-2,3.19a2,2,0,0,1-2.18-2.52c1.78-9.41-4.54-15.63-8.86-22.65C648.68,371.61,648.15,370.63,647.35,369.24Z"/>
  <path class="cls-11" d="M430.5,374.72c-5.32,1.44-6.71-1.7-6-7a51.87,51.87,0,0,0,.05-5.58c0-1.11,0-2.68,1.22-2.82,4.81-.5,9.85-1.32,14.12,1.65,3.08,2.15,3.5,5.6,2.3,9.07-1.75,5-6.09,4.74-10.24,4.72Z"/>
  <path class="cls-12" d="M331.37,365.41c-.55-3.71-.22-7,6.14-6.58,7.78.57,11.26,2.5,11.33,7.87s-3.56,8-10.92,8C331.36,374.7,331.36,374.7,331.37,365.41Z"/>
  <path class="cls-13" d="M129.41,376.43c2.66,3.69,3.64,7.38,5.17,11.31-3.57.26-8.71,1.69-9.39-.55C124.24,384,127.1,380.15,129.41,376.43Z"/>
  <path class="cls-14" d="M520.68,383.73c-.1,6.28-4.95,11.16-10.89,11a11.21,11.21,0,0,1,.48-22.4C516.21,372.36,520.78,377.38,520.68,383.73Z"/>
  <path class="cls-13" d="M571.66,384.4c-4.55.9-4.88-2.07-4.9-6s.46-6.71,5.38-6c4,.59,8.73,0,9.36,5.71C581.94,382.21,578.53,384.36,571.66,384.4Z"/>
  <path class="cls-15" d="M599.06,389.3c-1.94-1.46-6.74,2-6-3.05.55-3.85,1.52-10.28,5.74-10.05s5,6.86,5.79,10.79S600.9,388,599.06,389.3Z"/>
</svg>
